<svg xmlns="http://www.w3.org/2000/svg" width="73" height="73" viewBox="0 0 73 73" fill="none">
  <g opacity="0.04" clip-path="url(#clip0_3_1173)">
    <path d="M40.511 0H32.489V22.4615H40.511V0Z" fill="#0000E7"/>
    <path d="M13.5252 7.85451L7.85291 13.5269L23.7355 29.4094L29.4078 23.7371L13.5252 7.85451Z" fill="#0000E7"/>
    <path d="M22.4615 32.489H0V40.511H22.4615V32.489Z" fill="#0000E7"/>
    <path d="M23.7366 43.5916L7.854 59.4742L13.5263 65.1465L29.4089 49.264L23.7366 43.5916Z" fill="#0000E7"/>
    <path d="M40.511 50.5385H32.489V73H40.511V50.5385Z" fill="#0000E7"/>
    <path d="M49.2635 43.5906L43.5912 49.2629L59.4737 65.1455L65.1461 59.4732L49.2635 43.5906Z" fill="#0000E7"/>
    <path d="M73 32.489H50.5385V40.511H73V32.489Z" fill="#0000E7"/>
    <path d="M59.4726 7.85347L43.5901 23.736L49.2624 29.4084L65.145 13.5258L59.4726 7.85347Z" fill="#0000E7"/>
  </g>
  <defs>
    <clipPath id="clip0_3_1173">
      <rect width="73" height="73" fill="white"/>
    </clipPath>
  </defs>
</svg>