<svg xmlns="http://www.w3.org/2000/svg" width="76" height="76" viewBox="0 0 76 76" fill="none">
<path d="M0 33.5294H22.3529V42.4705H0V33.5294Z" fill="#F1F3F5"/>
<path d="M7.96875 61.7088L23.7746 45.9029L30.097 52.2252L14.2911 68.0311L7.96875 61.7088Z" fill="#F1F3F5"/>
<path d="M33.5294 75.9999V53.647H42.4705V75.9999H33.5294Z" fill="#F1F3F5"/>
<path d="M61.7088 68.0311L45.9029 52.2252L52.2253 45.9029L68.0311 61.7088L61.7088 68.0311Z" fill="#F1F3F5"/>
<path d="M75.9999 42.4705H53.647V33.5294H75.9999V42.4705Z" fill="#F1F3F5"/>
<path d="M68.0312 14.2911L52.2253 30.097L45.9029 23.7746L61.7088 7.96875L68.0312 14.2911Z" fill="#F1F3F5"/>
<path d="M42.4705 0V22.3529H33.5294V0H42.4705Z" fill="#F1F3F5"/>
<path d="M14.2911 7.96875L30.097 23.7746L23.7747 30.097L7.96876 14.2911L14.2911 7.96875Z" fill="#F1F3F5"/>
</svg>