<svg xmlns="http://www.w3.org/2000/svg" width="40" height="40" viewBox="0 0 40 40" fill="none">
  <path d="M0 17.6471H11.7647V22.3529H0V17.6471Z" fill="#0066FF"/>
  <path d="M4.19409 32.4784L12.513 24.1595L15.8406 27.487L7.52165 35.8059L4.19409 32.4784Z" fill="#0066FF"/>
  <path d="M17.6471 40V28.2353H22.3529V40H17.6471Z" fill="#0066FF"/>
  <path d="M32.4784 35.8059L24.1595 27.487L27.487 24.1595L35.8059 32.4784L32.4784 35.8059Z" fill="#0066FF"/>
  <path d="M40 22.3529H28.2353V17.6471H40V22.3529Z" fill="#0066FF"/>
  <path d="M35.8059 7.52165L27.487 15.8405L24.1595 12.513L32.4784 4.19408L35.8059 7.52165Z" fill="#0066FF"/>
  <path d="M22.3529 0V11.7647H17.6471V0H22.3529Z" fill="#0066FF"/>
  <path d="M7.52165 4.19408L15.8406 12.513L12.513 15.8406L4.19409 7.52165L7.52165 4.19408Z" fill="#0066FF"/>
</svg>