<svg width="72" height="17" viewBox="0 0 72 17" fill="none" xmlns="http://www.w3.org/2000/svg">
<path d="M7.93182 16.0682C6.77273 16.0682 5.74811 15.9091 4.85795 15.5909C3.9678 15.2765 3.2197 14.8125 2.61364 14.1989C2.00758 13.5852 1.54924 12.8333 1.23864 11.9432C0.92803 11.053 0.772727 10.0341 0.772727 8.88636C0.772727 7.77651 0.929924 6.78409 1.24432 5.90909C1.5625 5.03409 2.02273 4.29167 2.625 3.68182C3.23106 3.06818 3.96591 2.60038 4.82955 2.27841C5.69697 1.95644 6.67803 1.79545 7.77273 1.79545C8.83712 1.79545 9.76894 1.9697 10.5682 2.31818C11.3712 2.66288 12.0417 3.13068 12.5795 3.72159C13.1212 4.30871 13.5265 4.9697 13.7955 5.70455C14.0682 6.43939 14.2045 7.19697 14.2045 7.97727C14.2045 8.52651 14.178 9.08333 14.125 9.64773C14.072 10.2121 13.9602 10.7311 13.7898 11.2045C13.6193 11.6742 13.3561 12.053 13 12.3409C12.6477 12.6288 12.1705 12.7727 11.5682 12.7727C11.303 12.7727 11.0114 12.7311 10.6932 12.6477C10.375 12.5644 10.0928 12.4261 9.84659 12.233C9.60038 12.0398 9.45455 11.7803 9.40909 11.4545H9.34091C9.25 11.6742 9.10985 11.8826 8.92045 12.0795C8.73485 12.2765 8.49053 12.4337 8.1875 12.5511C7.88826 12.6686 7.52273 12.7197 7.09091 12.7045C6.59849 12.6856 6.16477 12.5758 5.78977 12.375C5.41477 12.1705 5.10038 11.8939 4.84659 11.5455C4.59659 11.1932 4.4072 10.786 4.27841 10.3239C4.15341 9.85795 4.09091 9.35606 4.09091 8.81818C4.09091 8.30682 4.16667 7.83901 4.31818 7.41477C4.4697 6.99053 4.67992 6.61932 4.94886 6.30114C5.22159 5.98295 5.53977 5.72917 5.90341 5.53977C6.27083 5.34659 6.66667 5.22727 7.09091 5.18182C7.4697 5.14394 7.81439 5.16098 8.125 5.23295C8.43561 5.30114 8.69129 5.4053 8.89205 5.54545C9.0928 5.68182 9.2197 5.83333 9.27273 6H9.34091V5.36364H10.5455V10.5C10.5455 10.8182 10.6345 11.0985 10.8125 11.3409C10.9905 11.5833 11.25 11.7045 11.5909 11.7045C11.9773 11.7045 12.2727 11.572 12.4773 11.3068C12.6856 11.0417 12.8277 10.6326 12.9034 10.0795C12.983 9.52652 13.0227 8.81818 13.0227 7.95455C13.0227 7.44697 12.9527 6.94697 12.8125 6.45455C12.6761 5.95833 12.4678 5.49432 12.1875 5.0625C11.911 4.63068 11.5606 4.25 11.1364 3.92045C10.7121 3.59091 10.214 3.33333 9.64205 3.14773C9.07386 2.95833 8.42803 2.86364 7.70455 2.86364C6.81439 2.86364 6.01705 3.00189 5.3125 3.27841C4.61174 3.55114 4.01515 3.95076 3.52273 4.47727C3.03409 5 2.66098 5.63636 2.40341 6.38636C2.14962 7.13258 2.02273 7.98106 2.02273 8.93182C2.02273 9.89773 2.14962 10.7557 2.40341 11.5057C2.66098 12.2557 3.03977 12.8883 3.53977 13.4034C4.04356 13.9186 4.66667 14.3087 5.40909 14.5739C6.15152 14.8428 7.00758 14.9773 7.97727 14.9773C8.39394 14.9773 8.80492 14.9375 9.21023 14.858C9.61553 14.7784 9.97348 14.6913 10.2841 14.5966C10.5947 14.5019 10.8182 14.4318 10.9545 14.3864L11.2727 15.4318C11.0379 15.5303 10.7311 15.6288 10.3523 15.7273C9.97727 15.8258 9.57576 15.9072 9.14773 15.9716C8.72349 16.036 8.31818 16.0682 7.93182 16.0682ZM7.27273 11.5455C7.7803 11.5455 8.19129 11.4432 8.50568 11.2386C8.82008 11.0341 9.04924 10.7254 9.19318 10.3125C9.33712 9.89962 9.40909 9.37879 9.40909 8.75C9.40909 8.11364 9.32955 7.61742 9.17045 7.26136C9.01136 6.9053 8.77652 6.6553 8.46591 6.51136C8.1553 6.36742 7.77273 6.29545 7.31818 6.29545C6.88636 6.29545 6.51705 6.40909 6.21023 6.63636C5.9072 6.85985 5.67424 7.15909 5.51136 7.53409C5.35227 7.9053 5.27273 8.31061 5.27273 8.75C5.27273 9.23485 5.33712 9.69129 5.46591 10.1193C5.5947 10.5436 5.80492 10.8883 6.09659 11.1534C6.38826 11.4148 6.7803 11.5455 7.27273 11.5455ZM20.098 4.27273V5.40909H15.3935V4.27273H20.098ZM16.8026 13V3.06818C16.8026 2.56818 16.92 2.15151 17.1548 1.81818C17.3897 1.48485 17.6946 1.23485 18.0696 1.06818C18.4446 0.901514 18.8404 0.818181 19.2571 0.818181C19.5866 0.818181 19.8556 0.844696 20.0639 0.897727C20.2723 0.950757 20.4276 0.999999 20.5298 1.04545L20.1435 2.20455C20.0753 2.18182 19.9806 2.15341 19.8594 2.11932C19.742 2.08523 19.5866 2.06818 19.3935 2.06818C18.9503 2.06818 18.6302 2.17992 18.4332 2.40341C18.2401 2.62689 18.1435 2.95455 18.1435 3.38636V13H16.8026ZM23.3182 1.36364V13H21.9773V1.36364H23.3182ZM29.3196 13.1818C28.5317 13.1818 27.8404 12.9943 27.2457 12.6193C26.6548 12.2443 26.1927 11.7197 25.8594 11.0455C25.5298 10.3712 25.3651 9.58333 25.3651 8.68182C25.3651 7.77273 25.5298 6.97917 25.8594 6.30114C26.1927 5.62311 26.6548 5.09659 27.2457 4.72159C27.8404 4.34659 28.5317 4.15909 29.3196 4.15909C30.1075 4.15909 30.7969 4.34659 31.3878 4.72159C31.9825 5.09659 32.4446 5.62311 32.7741 6.30114C33.1075 6.97917 33.2741 7.77273 33.2741 8.68182C33.2741 9.58333 33.1075 10.3712 32.7741 11.0455C32.4446 11.7197 31.9825 12.2443 31.3878 12.6193C30.7969 12.9943 30.1075 13.1818 29.3196 13.1818ZM29.3196 11.9773C29.9181 11.9773 30.4105 11.8239 30.7969 11.517C31.1832 11.2102 31.4692 10.8068 31.6548 10.3068C31.8404 9.80682 31.9332 9.26515 31.9332 8.68182C31.9332 8.09848 31.8404 7.55492 31.6548 7.05114C31.4692 6.54735 31.1832 6.14015 30.7969 5.82955C30.4105 5.51894 29.9181 5.36364 29.3196 5.36364C28.7211 5.36364 28.2287 5.51894 27.8423 5.82955C27.456 6.14015 27.17 6.54735 26.9844 7.05114C26.7988 7.55492 26.706 8.09848 26.706 8.68182C26.706 9.26515 26.7988 9.80682 26.9844 10.3068C27.17 10.8068 27.456 11.2102 27.8423 11.517C28.2287 11.8239 28.7211 11.9773 29.3196 11.9773ZM36.2983 13.0909C36.018 13.0909 35.7775 12.9905 35.5767 12.7898C35.3759 12.589 35.2756 12.3485 35.2756 12.0682C35.2756 11.7879 35.3759 11.5473 35.5767 11.3466C35.7775 11.1458 36.018 11.0455 36.2983 11.0455C36.5786 11.0455 36.8191 11.1458 37.0199 11.3466C37.2206 11.5473 37.321 11.7879 37.321 12.0682C37.321 12.2538 37.2737 12.4242 37.179 12.5795C37.0881 12.7348 36.965 12.8598 36.8097 12.9545C36.6581 13.0455 36.4877 13.0909 36.2983 13.0909ZM39.9091 13V1.36364H41.3182V11.75H46.7273V13H39.9091ZM50.3182 1.36364V13H48.9091V1.36364H50.3182ZM53.6207 1.36364L57.0753 11.1591H57.2116L60.6662 1.36364H62.1435L57.8707 13H56.4162L52.1435 1.36364H53.6207ZM63.956 13V1.36364H70.9787V2.61364H65.3651V6.54545H70.6151V7.79545H65.3651V11.75H71.0696V13H63.956Z" fill="white"/>
</svg>
