<svg xmlns="http://www.w3.org/2000/svg" width="64" height="36" viewBox="0 0 64 36" fill="none">
  <g clip-path="url(#clip0_3106_2862)">
    <path d="M21.3853 29.3262V35.4161H24.6573V34.5106H22.4945V29.3262H21.3853Z" fill="white"/>
    <path d="M28.4396 29.3262H27.3308V35.4161H28.4396V29.3262Z" fill="white"/>
    <path d="M35.5825 29.3272L34.317 32.6266C34.1226 33.1159 33.9835 33.5229 33.8635 33.8745H33.8454C33.7166 33.5125 33.577 33.1076 33.4017 32.6359L32.1269 29.3262H30.9167L33.4017 35.4534H34.2979L36.7838 29.3262L35.5825 29.3272Z" fill="white"/>
    <path d="M39.1489 29.3277V35.4177H42.5228V34.5122H40.2582V32.7652H42.2084V31.8587H40.2582V30.2317H42.2161L42.513 29.3262L39.1489 29.3277Z" fill="white"/>
    <path d="M30.0263 25.5546C30.0281 25.6077 30.0134 25.66 29.9844 25.7045C29.9493 25.7503 29.9027 25.7859 29.8494 25.808C29.7669 25.8427 29.6798 25.8652 29.5908 25.8747C29.4492 25.8912 29.3067 25.8986 29.1642 25.8969C29.0251 25.8984 28.886 25.891 28.7479 25.8747C28.657 25.8649 28.5678 25.8424 28.4831 25.808C28.4285 25.7879 28.3813 25.7519 28.3476 25.7045C28.3224 25.6587 28.3098 25.6069 28.3114 25.5546V10.7072C28.3104 10.6532 28.3229 10.5999 28.3476 10.552C28.3794 10.501 28.427 10.4618 28.4831 10.4403C28.5679 10.4063 28.657 10.3841 28.7479 10.3741C28.886 10.3575 29.0251 10.35 29.1642 10.3519C29.3067 10.3499 29.4493 10.3573 29.5908 10.3741C29.6797 10.3838 29.7668 10.406 29.8494 10.4403C29.9042 10.4638 29.9511 10.5026 29.9844 10.552C30.0127 10.5987 30.0273 10.6525 30.0263 10.7072V25.5546Z" fill="white"/>
    <path d="M41.4056 20.3063C41.413 21.0576 41.3016 21.8053 41.0757 22.5218C40.8732 23.1657 40.5385 23.7601 40.0931 24.2672C39.6401 24.7671 39.0798 25.158 38.4543 25.4106C37.7283 25.697 36.9528 25.8364 36.1726 25.8207C35.4226 25.8361 34.6762 25.7133 33.9706 25.4587C33.3729 25.2371 32.8362 24.877 32.4046 24.4079C31.9754 23.925 31.6576 23.3537 31.4737 22.7344C31.2583 22.0103 31.1537 21.2577 31.1635 20.5023C31.1561 19.7515 31.2655 19.0041 31.4877 18.2869C31.6871 17.6426 32.0207 17.0479 32.4667 16.542C32.9174 16.0435 33.476 15.6543 34.0998 15.4043C34.8284 15.1207 35.6056 14.9831 36.3872 14.9993C37.1374 14.9839 37.884 15.1066 38.5898 15.3614C39.1868 15.5829 39.7229 15.9427 40.1541 16.4112C40.5842 16.8949 40.9046 17.466 41.0933 18.0852C41.31 18.8051 41.4147 19.5541 41.4036 20.3058M39.458 20.4263C39.4604 19.919 39.4084 19.413 39.3029 18.9168C39.2125 18.4733 39.0405 18.0505 38.7956 17.6699C38.553 17.3082 38.2204 17.0159 37.8306 16.8218C37.3569 16.6001 36.8375 16.4937 36.3148 16.5115C35.8194 16.4983 35.3273 16.5953 34.874 16.7954C34.4812 16.9769 34.1394 17.253 33.8795 17.5991C33.6085 17.9679 33.4116 18.386 33.2998 18.8299C33.1695 19.3366 33.1059 19.8582 33.1105 20.3813C33.1073 20.8924 33.1593 21.4024 33.2657 21.9023C33.3561 22.3456 33.5318 22.7671 33.7828 23.1434C34.0292 23.5023 34.3631 23.7923 34.753 23.9859C35.2265 24.2079 35.7461 24.3143 36.2688 24.2962C36.7624 24.3079 37.2525 24.2108 37.7044 24.0117C38.0979 23.8316 38.441 23.5574 38.7035 23.2133C38.9744 22.8472 39.1694 22.4306 39.277 21.9881C39.4039 21.4765 39.4657 20.9509 39.4611 20.4237" fill="white"/>
    <path d="M27.7301 11.2178C27.2756 10.7909 26.72 10.4868 26.1155 10.334C25.5754 10.1689 25.0078 10.1132 24.4459 10.17C23.884 10.2268 23.3391 10.3951 22.843 10.665C22.6087 10.8017 22.4002 10.9785 22.2271 11.1873C21.9405 11.5485 21.7379 11.969 21.6339 12.4181C21.4954 13.0079 21.4306 13.6126 21.441 14.2183V15.2526H19.7752C19.7211 15.2516 19.6676 15.2648 19.6201 15.2909C19.5705 15.3233 19.5319 15.37 19.5094 15.4249C19.4763 15.5012 19.4541 15.5818 19.4432 15.6643C19.4267 15.7825 19.4191 15.9018 19.4205 16.0211C19.4086 16.2183 19.4389 16.4158 19.5094 16.6003C19.5308 16.6534 19.5676 16.6987 19.6151 16.7306C19.6626 16.7624 19.7186 16.7792 19.7758 16.7788H21.4415V25.5703C21.4392 25.6238 21.4546 25.6765 21.4855 25.7203C21.5247 25.7678 21.5762 25.8035 21.6344 25.8237C21.7252 25.8581 21.8201 25.8806 21.9168 25.8904C22.2115 25.9203 22.5084 25.9203 22.8032 25.8904C22.8998 25.8809 22.9948 25.8584 23.0855 25.8237C23.1439 25.8037 23.1957 25.7679 23.235 25.7203C23.266 25.6766 23.2818 25.6239 23.28 25.5703V16.7788H26.1517C26.2085 16.7773 26.2636 16.7598 26.3108 16.7282C26.3579 16.6966 26.3951 16.6523 26.418 16.6003C26.4966 16.4179 26.5306 16.2194 26.5173 16.0211C26.5192 15.9016 26.5102 15.7822 26.4904 15.6643C26.4755 15.5813 26.4492 15.5007 26.4124 15.4249C26.3875 15.3715 26.3494 15.3254 26.3017 15.2909C26.2563 15.2642 26.2043 15.2509 26.1517 15.2526H23.28V14.1604C23.2752 13.7931 23.3008 13.4261 23.3565 13.063C23.3938 12.8039 23.4803 12.5543 23.6115 12.3276C23.7217 12.1451 23.8837 11.9995 24.0769 11.9093C24.2975 11.815 24.5358 11.7695 24.7756 11.7758C24.9521 11.7742 25.1282 11.7915 25.301 11.8276C25.4347 11.856 25.5663 11.8933 25.6951 11.9393C25.7432 11.9568 25.7861 11.9734 25.8275 11.991L26.1377 12.128C26.9502 12.6214 27.2026 12.3799 27.2026 12.3799L27.7678 11.7221C27.923 11.5064 27.7295 11.2189 27.7295 11.2189" fill="white"/>
    <path d="M41.3396 24.0555C41.3397 24.3576 41.4294 24.6529 41.5973 24.9041C41.7652 25.1552 42.0038 25.3509 42.2829 25.4665C42.562 25.582 42.8691 25.6123 43.1654 25.5533C43.4617 25.4943 43.7339 25.3488 43.9475 25.1352C44.1611 24.9216 44.3066 24.6495 44.3656 24.3532C44.4245 24.0569 44.3943 23.7498 44.2787 23.4706C44.1632 23.1915 43.9674 22.9529 43.7163 22.785C43.4652 22.6171 43.1699 22.5274 42.8678 22.5273C42.6671 22.5272 42.4683 22.5666 42.2828 22.6434C42.0973 22.7201 41.9288 22.8327 41.7869 22.9746C41.645 23.1166 41.5324 23.2851 41.4556 23.4706C41.3789 23.656 41.3395 23.8548 41.3396 24.0555Z" fill="white"/>
    <path d="M48.3779 32.9791H64.0021V0.544922H0V32.9791H15.635V31.8894H1.09946V1.63611H62.899V31.8894H48.3779V32.9791Z" fill="white"/>
  </g>
  <defs>
    <clipPath id="clip0_3106_2862">
      <rect width="64" height="34.9092" fill="white" transform="translate(0 0.544922)"/>
    </clipPath>
  </defs>
</svg>