<svg width="20" height="20" viewBox="0 0 20 20" fill="none" xmlns="http://www.w3.org/2000/svg">
<g clip-path="url(#clip0_3852_2038)">
<path fill-rule="evenodd" clip-rule="evenodd" d="M18.213 12.5841L19.229 16.376L15.4371 17.392L14.9822 15.6943L15.8758 15.4548L9.9999 12.0624L4.12402 15.4548L5.01757 15.6943L4.56265 17.392L0.770752 16.376L1.7868 12.5841L3.48453 13.039L3.24512 13.9325L9.12099 10.5401V3.75518L8.46686 4.40932L7.22401 3.16651L9.9999 0.390625L12.7758 3.16651L11.5329 4.40932L10.8788 3.75518V10.5401L16.7547 13.9325L16.5153 13.039L18.213 12.5841Z" stroke="black" stroke-miterlimit="22.9256" stroke-linecap="round" stroke-linejoin="round"/>
<path d="M5.19957 12.7038C5.01571 12.171 4.92187 11.6112 4.92188 11.0475C4.92188 8.61539 6.64632 6.52473 9.03409 6.06216M13.8346 14.3766C13.465 14.8023 13.0272 15.1634 12.539 15.4453C10.4328 16.6614 7.75995 16.2133 6.16546 14.3767M10.9658 6.06212C11.5192 6.16934 12.0509 6.36794 12.539 6.64977C14.6453 7.86586 15.5936 10.4046 14.8004 12.7037M9.99998 16.3209V19.2187M11.2047 18.4046L9.99998 19.6094L8.79526 18.4046M14.5669 8.41082L17.0765 6.96192M15.7691 6.32563L17.4148 6.76661L16.9738 8.41227M5.43305 8.41082L2.92349 6.96188M3.02614 8.41227L2.58521 6.76661L4.23086 6.32563" stroke="black" stroke-miterlimit="22.9256" stroke-linecap="round" stroke-linejoin="round"/>
</g>
<defs>
<clipPath id="clip0_3852_2038">
<rect width="20" height="20" fill="white"/>
</clipPath>
</defs>
</svg>
