<svg width="20" height="20" viewBox="0 0 20 20" fill="none" xmlns="http://www.w3.org/2000/svg">
<g clip-path="url(#clip0_3891_438)">
<path d="M17.866 12.8632C17.7817 12.8632 17.701 12.8966 17.6414 12.9562C17.5819 13.0157 17.5484 13.0965 17.5484 13.1807V13.3197C17.5484 13.4039 17.5819 13.4847 17.6414 13.5443C17.701 13.6038 17.7818 13.6373 17.866 13.6373C17.9503 13.6373 18.0311 13.6038 18.0906 13.5443C18.1502 13.4847 18.1837 13.4039 18.1837 13.3197V13.1807C18.1836 13.139 18.1754 13.0977 18.1595 13.0592C18.1435 13.0206 18.1201 12.9856 18.0906 12.9561C18.0611 12.9266 18.0261 12.9032 17.9875 12.8873C17.949 12.8713 17.9077 12.8631 17.866 12.8631V12.8632ZM17.866 14.8178C17.7817 14.8178 17.701 14.8513 17.6414 14.9108C17.5819 14.9704 17.5484 15.0511 17.5484 15.1354V15.2743C17.5484 15.3586 17.5819 15.4394 17.6414 15.4989C17.701 15.5585 17.7818 15.592 17.866 15.592C17.9503 15.592 18.0311 15.5585 18.0906 15.4989C18.1502 15.4394 18.1837 15.3586 18.1837 15.2743V15.1354C18.1836 15.0936 18.1754 15.0523 18.1595 15.0138C18.1435 14.9753 18.1201 14.9403 18.0906 14.9108C18.0611 14.8813 18.0261 14.8579 17.9875 14.8419C17.949 14.826 17.9077 14.8178 17.866 14.8178V14.8178ZM16.9582 13.9099H16.8192C16.7775 13.9099 16.7362 13.9181 16.6976 13.9341C16.6591 13.9501 16.6241 13.9735 16.5946 14.003C16.5651 14.0325 16.5417 14.0675 16.5258 14.1061C16.5098 14.1446 16.5016 14.1859 16.5017 14.2276C16.5017 14.2693 16.5099 14.3106 16.5258 14.3491C16.5418 14.3877 16.5652 14.4227 16.5947 14.4522C16.6242 14.4816 16.6592 14.505 16.6977 14.521C16.7362 14.5369 16.7775 14.5451 16.8192 14.5451H16.9582C16.9999 14.5451 17.0412 14.5369 17.0797 14.521C17.1183 14.505 17.1533 14.4816 17.1828 14.4521C17.2122 14.4227 17.2356 14.3877 17.2516 14.3491C17.2675 14.3106 17.2758 14.2693 17.2758 14.2276C17.2758 14.1859 17.2676 14.1446 17.2516 14.106C17.2357 14.0675 17.2123 14.0325 17.1828 14.003C17.1533 13.9735 17.1183 13.9501 17.0798 13.9341C17.0412 13.9181 16.9999 13.9099 16.9582 13.9099H16.9582ZM18.9129 13.9099H18.7738C18.7321 13.9099 18.6908 13.9181 18.6523 13.9341C18.6138 13.9501 18.5787 13.9735 18.5493 14.003C18.5198 14.0325 18.4964 14.0675 18.4804 14.1061C18.4645 14.1446 18.4563 14.1859 18.4563 14.2276C18.4563 14.2693 18.4645 14.3106 18.4805 14.3491C18.4964 14.3877 18.5198 14.4227 18.5493 14.4522C18.5788 14.4816 18.6138 14.505 18.6524 14.521C18.6909 14.5369 18.7322 14.5451 18.7739 14.5451H18.9129C18.9546 14.5451 18.9959 14.5369 19.0344 14.521C19.0729 14.505 19.1079 14.4816 19.1374 14.4521C19.1669 14.4227 19.1903 14.3877 19.2062 14.3491C19.2222 14.3106 19.2304 14.2693 19.2304 14.2276C19.2304 14.1859 19.2222 14.1446 19.2063 14.106C19.1903 14.0675 19.1669 14.0325 19.1374 14.003C19.108 13.9735 19.0729 13.9501 19.0344 13.9341C18.9959 13.9181 18.9545 13.9099 18.9128 13.9099H18.9129ZM15.024 16.5834C14.9823 16.5834 14.941 16.5916 14.9025 16.6076C14.8639 16.6235 14.8289 16.6469 14.7994 16.6764C14.77 16.7059 14.7466 16.7409 14.7306 16.7794C14.7147 16.818 14.7065 16.8593 14.7065 16.901V17.04C14.7064 17.0817 14.7146 17.123 14.7306 17.1615C14.7466 17.2001 14.7699 17.2351 14.7994 17.2646C14.8289 17.294 14.8639 17.3174 14.9025 17.3334C14.941 17.3493 14.9823 17.3575 15.024 17.3575C15.0657 17.3575 15.107 17.3493 15.1456 17.3334C15.1841 17.3174 15.2191 17.294 15.2486 17.2645C15.2781 17.235 15.3015 17.2 15.3174 17.1615C15.3334 17.1229 15.3416 17.0816 15.3415 17.0399V16.9009C15.3415 16.8592 15.3333 16.8179 15.3174 16.7794C15.3014 16.7409 15.278 16.7059 15.2485 16.6764C15.2191 16.6469 15.1841 16.6235 15.1455 16.6076C15.107 16.5916 15.0657 16.5834 15.024 16.5834ZM15.024 18.538C14.9823 18.538 14.941 18.5463 14.9025 18.5622C14.8639 18.5782 14.8289 18.6016 14.7994 18.6311C14.77 18.6605 14.7466 18.6956 14.7306 18.7341C14.7147 18.7726 14.7065 18.8139 14.7065 18.8556V18.9946C14.7065 19.0363 14.7147 19.0776 14.7306 19.1161C14.7466 19.1547 14.77 19.1897 14.7995 19.2192C14.829 19.2487 14.864 19.272 14.9025 19.288C14.941 19.304 14.9823 19.3122 15.024 19.3121C15.0657 19.3121 15.107 19.3039 15.1456 19.288C15.1841 19.272 15.2191 19.2486 15.2486 19.2191C15.2781 19.1896 15.3014 19.1546 15.3174 19.1161C15.3333 19.0776 15.3416 19.0363 15.3415 18.9946V18.8556C15.3415 18.8139 15.3333 18.7726 15.3174 18.7341C15.3014 18.6955 15.278 18.6605 15.2485 18.631C15.2191 18.6016 15.1841 18.5782 15.1455 18.5622C15.107 18.5463 15.0657 18.538 15.024 18.538ZM14.1163 17.6303H13.9772C13.9355 17.6303 13.8942 17.6385 13.8557 17.6544C13.8172 17.6704 13.7822 17.6938 13.7527 17.7233C13.7232 17.7528 13.6998 17.7878 13.6838 17.8263C13.6679 17.8648 13.6597 17.9061 13.6597 17.9479C13.6597 17.9896 13.6679 18.0309 13.6839 18.0694C13.6998 18.1079 13.7232 18.1429 13.7527 18.1724C13.7822 18.2019 13.8172 18.2253 13.8558 18.2412C13.8943 18.2572 13.9356 18.2654 13.9773 18.2654H14.1163C14.2005 18.2654 14.2813 18.2319 14.3408 18.1724C14.4004 18.1128 14.4338 18.032 14.4338 17.9478C14.4338 17.9061 14.4256 17.8648 14.4096 17.8263C14.3937 17.7878 14.3703 17.7528 14.3408 17.7233C14.3113 17.6938 14.2763 17.6704 14.2378 17.6545C14.1992 17.6385 14.1579 17.6303 14.1162 17.6303H14.1163ZM16.0709 17.6303H15.9319C15.8477 17.6303 15.7669 17.6638 15.7074 17.7233C15.6478 17.7829 15.6144 17.8636 15.6144 17.9479C15.6144 18.0321 15.6478 18.1128 15.7074 18.1724C15.7669 18.2319 15.8477 18.2654 15.9319 18.2654H16.0709C16.1551 18.2654 16.2359 18.2319 16.2955 18.1724C16.355 18.1128 16.3885 18.032 16.3885 17.9478C16.3885 17.9061 16.3802 17.8648 16.3643 17.8263C16.3483 17.7878 16.3249 17.7528 16.2955 17.7233C16.266 17.6938 16.231 17.6704 16.1924 17.6545C16.1539 17.6385 16.1126 17.6303 16.0709 17.6303ZM4.88439 15.8057C4.84269 15.8057 4.8014 15.8139 4.76287 15.8298C4.72434 15.8458 4.68934 15.8692 4.65985 15.8987C4.63036 15.9281 4.60697 15.9632 4.59102 16.0017C4.57506 16.0402 4.56685 16.0815 4.56685 16.1232V16.2622C4.56685 16.3464 4.60031 16.4272 4.65986 16.4868C4.71941 16.5463 4.80018 16.5798 4.88439 16.5798C4.96861 16.5798 5.04938 16.5463 5.10893 16.4868C5.16848 16.4272 5.20193 16.3464 5.20193 16.2622V16.1232C5.20193 16.0815 5.19372 16.0402 5.17776 16.0017C5.1618 15.9631 5.13841 15.9281 5.10893 15.8986C5.07944 15.8692 5.04443 15.8458 5.00591 15.8298C4.96738 15.8139 4.92609 15.8057 4.88439 15.8057ZM4.88439 17.7603C4.84269 17.7603 4.8014 17.7685 4.76287 17.7845C4.72434 17.8004 4.68934 17.8238 4.65985 17.8533C4.63036 17.8828 4.60697 17.9178 4.59102 17.9563C4.57506 17.9949 4.56685 18.0362 4.56685 18.0779V18.2169C4.56684 18.2586 4.57504 18.2999 4.591 18.3384C4.60695 18.3769 4.63034 18.4119 4.65983 18.4414C4.68932 18.4709 4.72433 18.4943 4.76286 18.5103C4.80139 18.5262 4.84269 18.5344 4.88439 18.5344C4.9261 18.5344 4.96739 18.5262 5.00593 18.5103C5.04446 18.4943 5.07947 18.4709 5.10896 18.4414C5.13845 18.4119 5.16184 18.3769 5.17779 18.3384C5.19375 18.2999 5.20195 18.2586 5.20193 18.2169V18.0779C5.20194 18.0362 5.19373 17.9949 5.17777 17.9563C5.16182 17.9178 5.13843 17.8828 5.10894 17.8533C5.07945 17.8238 5.04445 17.8004 5.00592 17.7845C4.96739 17.7685 4.9261 17.7603 4.88439 17.7603ZM3.97666 16.8526H3.83764C3.79594 16.8526 3.75464 16.8608 3.71611 16.8767C3.67759 16.8927 3.64258 16.9161 3.61309 16.9456C3.5836 16.9751 3.56021 17.0101 3.54426 17.0486C3.5283 17.0871 3.52009 17.1284 3.5201 17.1701C3.52009 17.2118 3.5283 17.2531 3.54426 17.2917C3.56022 17.3302 3.58361 17.3652 3.6131 17.3947C3.6426 17.4242 3.67761 17.4476 3.71614 17.4635C3.75467 17.4795 3.79597 17.4877 3.83768 17.4877H3.97666C4.01836 17.4877 4.05966 17.4795 4.09819 17.4635C4.13672 17.4475 4.17173 17.4241 4.20122 17.3946C4.23071 17.3652 4.2541 17.3301 4.27005 17.2916C4.286 17.2531 4.29421 17.2118 4.2942 17.1701C4.29418 17.0859 4.26071 17.0051 4.20115 16.9456C4.1416 16.886 4.06087 16.8526 3.97666 16.8526ZM5.93131 16.8526H5.79228C5.75057 16.8526 5.70927 16.8608 5.67073 16.8767C5.63219 16.8927 5.59717 16.9161 5.56767 16.9456C5.53817 16.975 5.51477 17.01 5.4988 17.0486C5.48282 17.0871 5.4746 17.1284 5.47459 17.1701C5.4746 17.2118 5.48282 17.2531 5.4988 17.2917C5.51477 17.3302 5.53817 17.3652 5.56767 17.3947C5.59717 17.4242 5.63219 17.4476 5.67073 17.4635C5.70927 17.4795 5.75057 17.4877 5.79228 17.4877H5.93131C6.01553 17.4876 6.0963 17.4542 6.15584 17.3946C6.21539 17.3351 6.24885 17.2543 6.24885 17.1701C6.24883 17.0859 6.21536 17.0051 6.1558 16.9456C6.09625 16.886 6.01552 16.8526 5.93131 16.8526ZM3.94264 2.97695C4.02686 2.97696 4.10764 2.94352 4.16721 2.88398C4.22678 2.82444 4.26026 2.74368 4.26029 2.65945V2.52043C4.26029 2.47872 4.25207 2.43743 4.2361 2.3989C4.22013 2.36037 4.19673 2.32536 4.16723 2.29588C4.13773 2.2664 4.10272 2.24301 4.06418 2.22706C4.02564 2.21112 3.98434 2.20291 3.94264 2.20293C3.90093 2.20292 3.85964 2.21112 3.82111 2.22708C3.78258 2.24303 3.74757 2.26641 3.71808 2.2959C3.68859 2.32538 3.66519 2.36038 3.64923 2.39891C3.63327 2.43744 3.62506 2.47873 3.62506 2.52043V2.65945C3.62505 2.70116 3.63326 2.74246 3.64922 2.78099C3.66518 2.81952 3.68857 2.85453 3.71807 2.88401C3.74756 2.9135 3.78257 2.93689 3.8211 2.95284C3.85963 2.9688 3.90093 2.97696 3.94264 2.97695ZM3.94264 4.93164C4.02687 4.93165 4.10765 4.8982 4.16722 4.83865C4.22679 4.77911 4.26027 4.69833 4.26029 4.6141V4.47512C4.25937 4.3915 4.2255 4.31161 4.16604 4.25281C4.10658 4.194 4.02632 4.16102 3.94269 4.16102C3.85907 4.16102 3.77881 4.194 3.71935 4.25281C3.65989 4.31161 3.62602 4.3915 3.6251 4.47512V4.6141C3.62511 4.69832 3.65857 4.77908 3.71811 4.83862C3.77766 4.89817 3.85842 4.93163 3.94264 4.93164ZM2.89588 3.88488H3.03486C3.1191 3.88488 3.19989 3.85142 3.25945 3.79186C3.31902 3.73229 3.35248 3.6515 3.35248 3.56727C3.35248 3.48303 3.31902 3.40224 3.25945 3.34268C3.19989 3.28311 3.1191 3.24965 3.03486 3.24965H2.89588C2.81164 3.24965 2.73085 3.28311 2.67129 3.34268C2.61172 3.40224 2.57826 3.48303 2.57826 3.56727C2.57826 3.6515 2.61172 3.73229 2.67129 3.79186C2.73085 3.85142 2.81164 3.88488 2.89588 3.88488ZM4.85053 3.88488H4.98951C5.03123 3.88489 5.07254 3.87667 5.11108 3.86071C5.14962 3.84474 5.18463 3.82134 5.21413 3.79184C5.24362 3.76233 5.26701 3.72731 5.28296 3.68876C5.29891 3.65022 5.30711 3.6089 5.30709 3.56719C5.30709 3.52548 5.29888 3.48419 5.28292 3.44566C5.26697 3.40713 5.24357 3.37212 5.21408 3.34263C5.18459 3.31314 5.14958 3.28975 5.11105 3.2738C5.07251 3.25784 5.03122 3.24964 4.98951 3.24965H4.85053C4.80882 3.24964 4.76752 3.25785 4.72898 3.2738C4.69045 3.28976 4.65543 3.31315 4.62594 3.34264C4.59645 3.37213 4.57306 3.40715 4.5571 3.44568C4.54115 3.48422 4.53294 3.52552 4.53295 3.56723C4.53293 3.60894 4.54114 3.65025 4.55709 3.68879C4.57304 3.72733 4.59643 3.76235 4.62593 3.79185C4.65542 3.82135 4.69043 3.84475 4.72897 3.86071C4.76751 3.87667 4.80881 3.88489 4.85053 3.88488ZM16.285 4.17785C16.3267 4.17785 16.368 4.16963 16.4065 4.15366C16.4451 4.13769 16.4801 4.11428 16.5096 4.08478C16.5391 4.05528 16.5625 4.02026 16.5784 3.98172C16.5944 3.94318 16.6026 3.90187 16.6026 3.86016V3.72117C16.6026 3.63693 16.5691 3.55615 16.5095 3.49658C16.45 3.43702 16.3692 3.40355 16.2849 3.40355C16.2007 3.40355 16.1199 3.43702 16.0604 3.49658C16.0008 3.55615 15.9673 3.63693 15.9673 3.72117V3.86016C15.9673 3.90188 15.9755 3.94319 15.9915 3.98173C16.0075 4.02027 16.0309 4.0553 16.0604 4.0848C16.0898 4.1143 16.1249 4.1377 16.1634 4.15367C16.202 4.16963 16.2433 4.17785 16.285 4.17785ZM16.285 6.1325C16.3267 6.1325 16.368 6.12427 16.4065 6.1083C16.4451 6.09234 16.4801 6.06893 16.5096 6.03943C16.5391 6.00993 16.5625 5.97491 16.5784 5.93637C16.5944 5.89783 16.6026 5.85652 16.6026 5.81481V5.67582C16.6026 5.59158 16.5691 5.5108 16.5095 5.45123C16.45 5.39167 16.3692 5.3582 16.2849 5.3582C16.2007 5.3582 16.1199 5.39167 16.0604 5.45123C16.0008 5.5108 15.9673 5.59158 15.9673 5.67582V5.81481C15.9673 5.85652 15.9755 5.89783 15.9915 5.93638C16.0075 5.97492 16.0309 6.00995 16.0604 6.03945C16.0898 6.06895 16.1249 6.09235 16.1634 6.10832C16.202 6.12428 16.2433 6.1325 16.285 6.1325ZM15.2381 5.08559H15.3771C15.5526 5.08559 15.6947 4.9434 15.6947 4.76805C15.6947 4.5927 15.5526 4.45055 15.3771 4.45055H15.2381C15.0626 4.45055 14.9205 4.59273 14.9205 4.76809C14.9205 4.94344 15.0626 5.08559 15.2381 5.08559ZM17.1928 5.08559H17.3317C17.4151 5.08428 17.4946 5.05025 17.5531 4.99084C17.6116 4.93143 17.6443 4.85141 17.6443 4.76805C17.6443 4.68468 17.6116 4.60466 17.5531 4.54525C17.4946 4.48585 17.4151 4.45182 17.3317 4.45051H17.1928C17.0173 4.45051 16.8752 4.59273 16.8752 4.76809C16.8752 4.94344 17.0173 5.08559 17.1928 5.08559ZM12.3034 0.774219C12.3451 0.774219 12.3864 0.766002 12.4249 0.750036C12.4635 0.734071 12.4985 0.710671 12.528 0.681172C12.5574 0.651674 12.5808 0.616655 12.5968 0.578115C12.6127 0.539576 12.6209 0.498272 12.6209 0.456563V0.3175C12.6209 0.142227 12.4788 0 12.3033 0C12.1278 0 11.9858 0.142188 11.9858 0.317539V0.456563C11.9858 0.540793 12.0193 0.621579 12.0788 0.681149C12.1384 0.740721 12.2191 0.774198 12.3034 0.774219ZM12.3034 2.72871C12.3451 2.72872 12.3864 2.72051 12.4249 2.70455C12.4634 2.6886 12.4984 2.66521 12.5279 2.63573C12.5574 2.60625 12.5808 2.57125 12.5967 2.53272C12.6127 2.4942 12.6209 2.45291 12.6209 2.41121V2.27219C12.6209 2.09672 12.4788 1.95465 12.3033 1.95465C12.1278 1.95465 11.9858 2.09672 11.9858 2.27219V2.41121C11.9859 2.49542 12.0193 2.57617 12.0789 2.63571C12.1384 2.69525 12.2192 2.7287 12.3034 2.72871ZM11.2566 1.68199H11.3956C11.4798 1.68199 11.5606 1.64853 11.6202 1.58896C11.6798 1.5294 11.7132 1.44861 11.7132 1.36438C11.7132 1.28014 11.6798 1.19935 11.6202 1.13979C11.5606 1.08022 11.4798 1.04676 11.3956 1.04676H11.2566C11.2149 1.04676 11.1736 1.05498 11.1351 1.07094C11.0965 1.08691 11.0615 1.11032 11.032 1.13982C11.0025 1.16932 10.9792 1.20434 10.9632 1.24289C10.9473 1.28143 10.9391 1.32274 10.9391 1.36445C10.9391 1.40615 10.9473 1.44745 10.9632 1.48598C10.9792 1.5245 11.0026 1.55951 11.0321 1.589C11.0616 1.61849 11.0966 1.64188 11.1351 1.65783C11.1736 1.67379 11.2149 1.682 11.2566 1.68199ZM13.2112 1.68199H13.3503C13.4345 1.68199 13.5153 1.64853 13.5749 1.58896C13.6344 1.5294 13.6679 1.44861 13.6679 1.36438C13.6679 1.28014 13.6344 1.19935 13.5749 1.13979C13.5153 1.08022 13.4345 1.04676 13.3503 1.04676H13.2112C13.1695 1.04676 13.1282 1.05499 13.0897 1.07096C13.0512 1.08693 13.0162 1.11033 12.9867 1.13983C12.9572 1.16933 12.9338 1.20436 12.9179 1.2429C12.9019 1.28144 12.8937 1.32274 12.8937 1.36445C12.8937 1.40615 12.9019 1.44745 12.9179 1.48598C12.9338 1.5245 12.9572 1.55951 12.9867 1.589C13.0162 1.61849 13.0512 1.64188 13.0897 1.65783C13.1283 1.67379 13.1696 1.682 13.2113 1.68199H13.2112ZM8.76271 6.36414C8.80442 6.36415 8.84573 6.35595 8.88427 6.33999C8.92281 6.32404 8.95783 6.30065 8.98733 6.27117C9.01683 6.24168 9.04023 6.20667 9.0562 6.16814C9.07217 6.12961 9.0804 6.08831 9.08041 6.0466C9.08041 5.33113 9.66236 4.74898 10.3779 4.74898C11.0932 4.74898 11.6753 5.33113 11.6753 6.0466C11.6753 6.76191 11.0932 7.34406 10.3779 7.34406H3.2958C3.25409 7.34404 3.21279 7.35224 3.17426 7.36819C3.13572 7.38414 3.10071 7.40753 3.07122 7.43702C3.04173 7.46651 3.01834 7.50153 3.00239 7.54006C2.98644 7.5786 2.97824 7.6199 2.97826 7.6616C2.97826 7.7033 2.98647 7.7446 3.00242 7.78313C3.01838 7.82165 3.04177 7.85666 3.07125 7.88615C3.10074 7.91564 3.13575 7.93902 3.17428 7.95498C3.21281 7.97094 3.2541 7.97915 3.2958 7.97914H10.3778C11.4434 7.97914 12.3104 7.11211 12.3104 6.0466C12.3104 4.98094 11.4434 4.11391 10.3779 4.11391C9.31221 4.11391 8.44518 4.98094 8.44518 6.0466C8.44519 6.13082 8.47865 6.21159 8.53821 6.27114C8.59776 6.33069 8.67849 6.36414 8.76271 6.36414ZM10.3779 13.0652H3.2958C3.25409 13.0652 3.21278 13.0734 3.17425 13.0894C3.13571 13.1054 3.1007 13.1288 3.07121 13.1583C3.04172 13.1878 3.01834 13.2228 3.00239 13.2613C2.98644 13.2999 2.97824 13.3412 2.97826 13.3829C2.97826 13.4246 2.98647 13.4659 3.00243 13.5044C3.01839 13.5429 3.04178 13.5779 3.07127 13.6074C3.10076 13.6369 3.13576 13.6603 3.17429 13.6762C3.21281 13.6922 3.2541 13.7004 3.2958 13.7004H10.3778C11.0932 13.7004 11.6753 14.2824 11.6753 14.9979C11.6753 15.7134 11.0932 16.2953 10.3779 16.2953C9.66236 16.2953 9.08041 15.7134 9.08041 14.9979C9.08041 14.9136 9.04695 14.8328 8.98738 14.7733C8.92782 14.7137 8.84703 14.6802 8.76279 14.6802C8.67856 14.6802 8.59777 14.7137 8.5382 14.7733C8.47864 14.8328 8.44518 14.9136 8.44518 14.9979C8.44518 16.0636 9.31221 16.9305 10.3779 16.9305C11.4434 16.9305 12.3104 16.0636 12.3104 14.9979C12.3104 13.9321 11.4434 13.0652 10.3779 13.0652ZM18.0672 6.97434C17.0017 6.97434 16.1347 7.84133 16.1347 8.90703C16.1347 8.94873 16.1429 8.99002 16.1589 9.02854C16.1748 9.06707 16.1982 9.10207 16.2277 9.13155C16.2572 9.16104 16.2922 9.18442 16.3307 9.20038C16.3693 9.21633 16.4105 9.22454 16.4522 9.22453C16.4939 9.22454 16.5352 9.21633 16.5738 9.20038C16.6123 9.18442 16.6473 9.16104 16.6768 9.13155C16.7063 9.10207 16.7297 9.06707 16.7456 9.02854C16.7616 8.99002 16.7698 8.94873 16.7698 8.90703C16.7698 8.19152 17.3519 7.60957 18.0672 7.60957C18.7827 7.60957 19.3649 8.19152 19.3649 8.90703C19.3649 9.6225 18.7827 10.2045 18.0672 10.2045H0.31748C0.234126 10.2058 0.154628 10.2398 0.0961451 10.2992C0.0376618 10.3586 0.00488281 10.4386 0.00488281 10.522C0.00488281 10.6054 0.0376618 10.6854 0.0961451 10.7448C0.154628 10.8042 0.234126 10.8382 0.31748 10.8395H18.0672C19.1329 10.8395 19.9999 9.97254 19.9999 8.90703C19.9999 7.84133 19.1329 6.97434 18.0672 6.97434Z" fill="black"/>
</g>
<defs>
<clipPath id="clip0_3891_438">
<rect width="20" height="20" fill="white"/>
</clipPath>
</defs>
</svg>
