<svg width="20" height="20" viewBox="0 0 20 20" fill="none" xmlns="http://www.w3.org/2000/svg">
<path d="M13.9066 7.35221C13.7698 7.18861 13.5266 7.16498 13.3605 7.3001C13.1935 7.43604 13.1681 7.6817 13.3037 7.84904C13.3403 7.89462 13.3866 7.93138 13.4394 7.95661C13.4921 7.98183 13.5498 7.99488 13.6082 7.99479C13.702 7.99479 13.796 7.96123 13.8709 7.89318C14.0269 7.75131 14.0417 7.51201 13.9066 7.35221Z" fill="black"/>
<path d="M10.8217 15.0963C10.976 15.106 11.1292 15.1108 11.2814 15.1108C13.0281 15.1108 14.6178 14.4754 15.7969 13.2963C16.1071 12.9861 16.4108 12.3697 16.0957 11.1952C15.8788 10.3874 15.4 9.42986 14.7108 8.42591C14.5887 8.24806 14.3456 8.20283 14.1677 8.32498C13.9898 8.44705 13.9446 8.69025 14.0667 8.8681C14.7063 9.79982 15.1469 10.6745 15.341 11.3977C15.5114 12.033 15.4771 12.5111 15.2443 12.7439C14.8927 13.0955 14.0173 12.9907 12.9029 12.4635C12.0696 12.0694 11.1657 11.4751 10.2661 10.7362C10.796 10.0882 10.8356 9.17056 10.3849 8.48224L12.4179 6.44927C12.5947 6.53886 12.7902 6.58553 12.9884 6.58548C13.311 6.58548 13.6336 6.46267 13.8792 6.21712C14.3703 5.72591 14.3703 4.92673 13.8792 4.43556C13.388 3.94443 12.5888 3.94439 12.0976 4.43556C11.7029 4.83033 11.6257 5.42396 11.8655 5.89685L9.83265 7.92966C9.52448 7.72709 9.16397 7.61814 8.78659 7.61814C8.34206 7.61814 7.92081 7.76908 7.58112 8.04646C6.85226 7.15552 6.26554 6.26115 5.87519 5.43584C5.34808 4.3213 5.24323 3.44603 5.59483 3.09443C6.12073 2.56845 7.96718 3.03142 10.3531 4.92537C10.5221 5.05947 10.7678 5.03126 10.9019 4.86228C11.036 4.6933 11.0078 4.44759 10.8389 4.31345C9.66749 3.38361 8.52409 2.70935 7.53237 2.36357C6.1162 1.86974 5.3969 2.18779 5.04276 2.54169L5.04245 2.54197C3.76065 3.8238 3.12136 5.59068 3.24245 7.51712C3.36233 9.42509 4.21581 11.2633 5.64562 12.6931C5.89682 12.9443 6.1632 13.1798 6.44327 13.3983C6.44226 13.4012 6.44097 13.404 6.44003 13.407L5.35257 16.872H4.42261C2.91323 16.872 1.6853 18.1 1.6853 19.6094C1.6853 19.8251 1.86022 20 2.07593 20H12.7718C12.9875 20 13.1625 19.8251 13.1625 19.6094C13.1625 18.1 11.9345 16.872 10.4252 16.872H9.14444V14.7976C9.6914 14.9593 10.2534 15.0606 10.8217 15.0963ZM12.65 4.98791C12.6944 4.94343 12.7472 4.90817 12.8052 4.88415C12.8633 4.86013 12.9255 4.84783 12.9884 4.84794C13.1109 4.84794 13.2335 4.89459 13.3267 4.98787C13.5133 5.17443 13.5133 5.47802 13.3267 5.66459C13.1402 5.85115 12.8366 5.85115 12.65 5.66459C12.4634 5.47806 12.4634 5.17447 12.65 4.98791ZM8.78659 8.39931C9.08792 8.39931 9.37124 8.51658 9.58437 8.72955L9.58472 8.72994L9.58511 8.73029C9.99319 9.13876 10.0222 9.78451 9.67265 10.227C9.39833 9.9815 9.13087 9.72843 8.87058 9.4681C8.60225 9.19983 8.34164 8.92393 8.08909 8.64076C8.28726 8.48439 8.5303 8.39931 8.78659 8.39931ZM7.11319 13.871C7.51033 14.1234 7.92854 14.341 8.36315 14.5213V16.872H6.17132L7.11319 13.871ZM10.4251 17.6533C11.37 17.6533 12.1605 18.3266 12.3419 19.2187H2.50565C2.68714 18.3266 3.47769 17.6533 4.42253 17.6533H10.4251ZM6.198 12.1407C4.9028 10.8455 4.13003 9.18607 4.02206 7.4681C3.95046 6.32814 4.17862 5.25419 4.67468 4.33212C4.75679 4.76412 4.92136 5.24638 5.16894 5.76982C5.80636 7.11751 6.9248 8.62712 8.31819 10.0205C9.71163 11.414 11.2212 12.5324 12.5689 13.1698C13.0913 13.4169 13.5727 13.5813 14.0041 13.6636C11.6511 14.9231 8.43179 14.3745 6.198 12.1407ZM12.9943 2.08533C12.7786 2.08533 12.6037 2.26021 12.6037 2.47595C12.6037 2.69169 12.7786 2.86658 12.9943 2.86658C14.3473 2.86658 15.4481 3.96732 15.4481 5.32033C15.4481 5.53607 15.623 5.71095 15.8387 5.71095C16.0544 5.71095 16.2293 5.53607 16.2293 5.32033C16.2294 3.53654 14.7781 2.08533 12.9943 2.08533Z" fill="black"/>
<path d="M12.9944 0C12.7787 0 12.6038 0.174883 12.6038 0.390625C12.6038 0.606367 12.7787 0.78125 12.9944 0.78125C15.4972 0.78125 17.5335 2.81746 17.5335 5.32035C17.5335 5.53609 17.7084 5.71098 17.9241 5.71098C18.1398 5.71098 18.3147 5.53609 18.3147 5.32035C18.3147 2.38672 15.9281 0 12.9944 0Z" fill="black"/>
</svg>
