<svg width="20" height="20" viewBox="0 0 20 20" fill="none" xmlns="http://www.w3.org/2000/svg">
<path d="M14.375 15.9375H12.5C12.4171 15.9375 12.3377 15.9045 12.2791 15.8459L11.7456 15.3125H11.3794L10.8459 15.8459C10.7873 15.9045 10.7079 15.9375 10.625 15.9375H10C9.91713 15.9375 9.83765 15.9045 9.77906 15.8459L8.52906 14.5959C8.47048 14.5373 8.43757 14.4579 8.43757 14.375C8.43757 14.2921 8.47048 14.2127 8.52906 14.1541L8.93313 13.75L8.125 12.9419L7.72094 13.3459C7.66235 13.4045 7.58287 13.4375 7.5 13.4375H7.00437L6.47094 13.9709C6.42459 14.0173 6.36483 14.048 6.30011 14.0585C6.23538 14.0691 6.16899 14.059 6.11031 14.0297L4.86031 13.4047C4.83024 13.3896 4.80281 13.3698 4.77906 13.3459L4.24563 12.8125H3.75C3.66713 12.8125 3.58765 12.7795 3.52906 12.7209L2.90406 12.0959C2.84545 12.0373 2.81252 11.9579 2.8125 11.875V11.3794L1.65406 10.2209C1.63023 10.1972 1.6104 10.1698 1.59531 10.1397L0.970313 8.88969C0.948689 8.8463 0.937455 8.79848 0.9375 8.75V8.125C0.937473 8.06693 0.953628 8.01 0.984153 7.96059C1.01468 7.91119 1.05836 7.87127 1.11031 7.84531L2.1875 7.30688V6.875C2.18752 6.79213 2.22045 6.71265 2.27906 6.65406L2.8125 6.12063V5C2.8125 4.91712 2.84542 4.83763 2.90403 4.77903C2.96263 4.72042 3.04212 4.6875 3.125 4.6875H4.0625V4.375C4.06251 4.3132 4.08085 4.2528 4.11519 4.20142C4.14953 4.15004 4.19833 4.11 4.25542 4.08635C4.31251 4.0627 4.37534 4.05652 4.43595 4.06857C4.49656 4.08062 4.55223 4.11037 4.59594 4.15406L5.84594 5.40406C5.90455 5.46265 5.93748 5.54213 5.9375 5.625V5.9375H6.25C6.33287 5.93752 6.41235 5.97045 6.47094 6.02906L7.00437 6.5625H7.5C7.58288 6.5625 7.66237 6.59542 7.72097 6.65403C7.77958 6.71263 7.8125 6.79212 7.8125 6.875V7.1875H8.62063L9.15406 6.65406C9.21266 6.59548 9.29214 6.56257 9.375 6.56257C9.45786 6.56257 9.53734 6.59548 9.59594 6.65406L10.1294 7.1875H11.1206L11.6541 6.65406C11.7127 6.59545 11.7921 6.56252 11.875 6.5625H12.1875V6.25C12.1875 6.16712 12.2204 6.08763 12.279 6.02903C12.3376 5.97042 12.4171 5.9375 12.5 5.9375H12.9956L13.5291 5.40406C13.5606 5.37243 13.5985 5.34792 13.6403 5.33219L13.6206 5.3125H13.125C13.0421 5.3125 12.9626 5.27958 12.904 5.22097C12.8454 5.16237 12.8125 5.08288 12.8125 5V3.75C12.8125 3.66712 12.8454 3.58763 12.904 3.52903C12.9626 3.47042 13.0421 3.4375 13.125 3.4375H13.4375V2.5C13.4375 2.41713 13.4705 2.33765 13.5291 2.27906L14.1541 1.65406C14.2127 1.59545 14.2921 1.56252 14.375 1.5625H15C15.0829 1.56252 15.1623 1.59545 15.2209 1.65406L15.7544 2.1875H16.25C16.3083 2.18718 16.3656 2.2032 16.4153 2.23374C16.465 2.26428 16.5052 2.30813 16.5312 2.36031L17.1334 3.56469L17.6294 4.0625H18.125C18.2079 4.06252 18.2873 4.09545 18.3459 4.15406L18.9709 4.77906C19.0295 4.83765 19.0625 4.91713 19.0625 5V6.25C19.0625 6.33288 19.0296 6.41237 18.971 6.47097C18.9124 6.52958 18.8329 6.5625 18.75 6.5625H18.4375V6.875C18.4375 6.95787 18.4045 7.03735 18.3459 7.09594L17.0959 8.34594C17.0373 8.40455 16.9579 8.43748 16.875 8.4375H16.3794L15.8459 8.97094C15.809 9.00795 15.7633 9.03509 15.7131 9.04987C15.6629 9.06465 15.6098 9.06659 15.5587 9.05551C15.5076 9.04444 15.46 9.02071 15.4205 8.9865C15.3809 8.95228 15.3505 8.90868 15.3322 8.85969L15.2209 8.97094C15.1894 9.00257 15.1515 9.02708 15.1097 9.04281L15.2209 9.15406C15.2795 9.21265 15.3125 9.29213 15.3125 9.375V9.49438L16.1103 9.09531C16.158 9.0715 16.2109 9.06026 16.2641 9.06267C16.3174 9.06508 16.3691 9.08106 16.4144 9.10908C16.4597 9.13711 16.4971 9.17625 16.523 9.22279C16.5489 9.26933 16.5625 9.32173 16.5625 9.375V10C16.5625 10.0829 16.5295 10.1623 16.4709 10.2209L15.9375 10.7544V11.1206L16.4709 11.6541C16.5295 11.7127 16.5625 11.7921 16.5625 11.875V13.75C16.563 13.7984 16.5523 13.8462 16.5312 13.8897L15.9062 15.1397C15.8802 15.1919 15.84 15.2357 15.7903 15.2663C15.7406 15.2968 15.6833 15.3128 15.625 15.3125H15.1294L14.5959 15.8459C14.5373 15.9045 14.4579 15.9375 14.375 15.9375ZM12.6294 15.3125H14.2456L14.7791 14.7791C14.8377 14.7205 14.9171 14.6875 15 14.6875H15.4319L15.9375 13.6763V12.0044L15.4041 11.4709C15.3455 11.4123 15.3125 11.3329 15.3125 11.25V10.625C15.3125 10.5421 15.3455 10.4627 15.4041 10.4041L15.9175 9.89062L15.1397 10.2812C15.0919 10.3051 15.0388 10.3164 14.9855 10.3139C14.9321 10.3114 14.8803 10.2953 14.8349 10.2671C14.7896 10.2389 14.7522 10.1995 14.7264 10.1528C14.7006 10.106 14.6872 10.0534 14.6875 10V9.50437L14.1541 8.97094C14.1104 8.92723 14.0806 8.87156 14.0686 8.81095C14.0565 8.75034 14.0627 8.68751 14.0864 8.63042C14.11 8.57333 14.15 8.52453 14.2014 8.49019C14.2528 8.45585 14.3132 8.43751 14.375 8.4375H14.8706L15.4041 7.90406C15.441 7.86705 15.4867 7.83991 15.5369 7.82513C15.5871 7.81035 15.6402 7.80841 15.6913 7.81949C15.7424 7.83056 15.79 7.85429 15.8295 7.8885C15.8691 7.92272 15.8995 7.96632 15.9178 8.01531L16.0291 7.90406C16.0877 7.84545 16.1671 7.81252 16.25 7.8125H16.7456L17.8125 6.74563V6.25C17.8125 6.16712 17.8454 6.08763 17.904 6.02903C17.9626 5.97042 18.0421 5.9375 18.125 5.9375H18.4375V5.12937L17.9956 4.6875H17.5C17.4171 4.68748 17.3377 4.65455 17.2791 4.59594L16.6541 3.97094C16.6302 3.94719 16.6104 3.91976 16.5953 3.88969L16.0569 2.8125H15.625C15.5421 2.81248 15.4627 2.77955 15.4041 2.72094L14.8706 2.1875H14.5044L14.0625 2.62937V3.75C14.0625 3.83288 14.0296 3.91237 13.971 3.97097C13.9124 4.02958 13.8329 4.0625 13.75 4.0625H13.4375V4.6875H13.75C13.8329 4.68752 13.9123 4.72045 13.9709 4.77906L14.5959 5.40406C14.6396 5.44777 14.6694 5.50344 14.6814 5.56405C14.6935 5.62466 14.6873 5.68749 14.6636 5.74458C14.64 5.80167 14.6 5.85047 14.5486 5.88481C14.4972 5.91915 14.4368 5.93749 14.375 5.9375H13.8794L13.3459 6.47094C13.2873 6.52955 13.2079 6.56248 13.125 6.5625H12.8125V6.875C12.8125 6.95788 12.7796 7.03737 12.721 7.09597C12.6624 7.15458 12.5829 7.1875 12.5 7.1875H12.0044L11.4709 7.72094C11.4123 7.77955 11.3329 7.81248 11.25 7.8125H10C9.91713 7.81248 9.83765 7.77955 9.77906 7.72094L9.375 7.31687L8.97094 7.72094C8.91235 7.77955 8.83287 7.81248 8.75 7.8125H7.5C7.41712 7.8125 7.33763 7.77958 7.27903 7.72097C7.22042 7.66237 7.1875 7.58288 7.1875 7.5V7.1875H6.875C6.79213 7.18748 6.71265 7.15455 6.65406 7.09594L6.12063 6.5625H5.625C5.54212 6.5625 5.46263 6.52958 5.40403 6.47097C5.34542 6.41237 5.3125 6.33288 5.3125 6.25V5.75437L4.66781 5.10969C4.64547 5.16929 4.60546 5.22065 4.55313 5.2569C4.5008 5.29314 4.43865 5.31254 4.375 5.3125H3.4375V6.25C3.43748 6.33287 3.40455 6.41235 3.34594 6.47094L2.8125 7.00437V7.5C2.81253 7.55807 2.79637 7.615 2.76585 7.66441C2.73532 7.71381 2.69164 7.75373 2.63969 7.77969L1.5625 8.31812V8.67625L2.13188 9.81469L3.34594 11.0291C3.40455 11.0877 3.43748 11.1671 3.4375 11.25V11.7456L3.87937 12.1875H4.375C4.45787 12.1875 4.53735 12.2205 4.59594 12.2791L5.18531 12.8681L6.18844 13.3697L6.65406 12.9041C6.71265 12.8455 6.79213 12.8125 6.875 12.8125H7.37063L7.90406 12.2791C7.96266 12.2205 8.04214 12.1876 8.125 12.1876C8.20786 12.1876 8.28734 12.2205 8.34594 12.2791L9.59594 13.5291C9.65452 13.5877 9.68743 13.6671 9.68743 13.75C9.68743 13.8329 9.65452 13.9123 9.59594 13.9709L9.19187 14.375L10.1294 15.3125H10.4956L11.0291 14.7791C11.0877 14.7205 11.1671 14.6875 11.25 14.6875H11.875C11.9579 14.6875 12.0373 14.7205 12.0959 14.7791L12.6294 15.3125ZM13.125 18.4375H12.5C12.4171 18.4375 12.3377 18.4045 12.2791 18.3459L11.6541 17.7209C11.5955 17.6623 11.5626 17.5829 11.5626 17.5C11.5626 17.4171 11.5955 17.3377 11.6541 17.2791L12.2791 16.6541C12.3377 16.5955 12.4171 16.5625 12.5 16.5625H13.125C13.2079 16.5625 13.2873 16.5955 13.3459 16.6541L13.9709 17.2791C14.0295 17.3377 14.0624 17.4171 14.0624 17.5C14.0624 17.5829 14.0295 17.6623 13.9709 17.7209L13.3459 18.3459C13.2873 18.4045 13.2079 18.4375 13.125 18.4375ZM12.6294 17.8125H12.9956L13.3081 17.5L12.9956 17.1875H12.6294L12.3169 17.5L12.6294 17.8125Z" fill="black"/>
<path d="M9.48122 12.5437C9.41517 12.5437 9.35084 12.5227 9.29747 12.4837L8.31403 11.7697L7.33091 12.4837C7.27752 12.5225 7.21322 12.5435 7.14721 12.5435C7.08121 12.5435 7.0169 12.5226 6.9635 12.4838C6.9101 12.445 6.87035 12.3903 6.84996 12.3275C6.82956 12.2648 6.82957 12.1971 6.84997 12.1344L7.22497 10.9781L6.24185 10.2637C6.18848 10.225 6.14875 10.1703 6.12835 10.1075C6.10795 10.0448 6.10793 9.97722 6.12829 9.91447C6.14866 9.85172 6.18835 9.79703 6.2417 9.75822C6.29505 9.71941 6.35931 9.69848 6.42528 9.69843H7.64091L8.01591 8.54218C8.03646 8.47965 8.07622 8.42522 8.12953 8.38662C8.18284 8.34803 8.24697 8.32725 8.31278 8.32725C8.3786 8.32725 8.44273 8.34803 8.49604 8.38662C8.54935 8.42522 8.58911 8.47965 8.60966 8.54218L8.98466 9.69843H10.1997C10.2657 9.69841 10.33 9.7193 10.3834 9.75808C10.4368 9.79686 10.4765 9.85156 10.4969 9.91432C10.5173 9.97709 10.5173 10.0447 10.4969 10.1075C10.4765 10.1702 10.4368 10.2249 10.3834 10.2637L9.4031 10.9787L9.7781 12.135C9.79334 12.1819 9.79726 12.2317 9.78954 12.2804C9.78183 12.3291 9.7627 12.3753 9.73371 12.4152C9.70473 12.4551 9.66671 12.4876 9.62277 12.51C9.57884 12.5324 9.53022 12.544 9.48091 12.5441L9.48122 12.5437ZM8.31403 11.0709C8.38008 11.0708 8.44445 11.0917 8.49778 11.1306L8.88685 11.4119L8.73841 10.9547C8.71801 10.8919 8.718 10.8243 8.73838 10.7616C8.75875 10.6988 8.79847 10.6441 8.85185 10.6053L9.2406 10.324H8.75997C8.69402 10.3241 8.62975 10.3032 8.57637 10.2645C8.52299 10.2258 8.48323 10.1711 8.46278 10.1084L8.31403 9.65124L8.16591 10.1081C8.14552 10.1709 8.10578 10.2256 8.0524 10.2644C7.99901 10.3032 7.93471 10.324 7.86872 10.324H7.3881L7.77685 10.6053C7.83028 10.6441 7.87005 10.6989 7.89043 10.7617C7.91081 10.8245 7.91076 10.8922 7.89028 10.955L7.74153 11.4115L8.1306 11.1303C8.18388 11.0915 8.24813 11.0707 8.31403 11.0709ZM13.5047 12.7125C13.4386 12.7124 13.3743 12.6914 13.3209 12.6525L13.1118 12.5L12.9028 12.6516C12.8495 12.6902 12.7853 12.711 12.7194 12.711C12.6536 12.711 12.5894 12.6902 12.5361 12.6516C12.4828 12.6129 12.443 12.5584 12.4225 12.4959C12.402 12.4333 12.4017 12.3658 12.4218 12.3031L12.5018 12.0578L12.2928 11.9059C12.2394 11.8671 12.1997 11.8124 12.1793 11.7497C12.1589 11.6869 12.1589 11.6193 12.1793 11.5565C12.1997 11.4937 12.2394 11.4391 12.2928 11.4003C12.3462 11.3615 12.4105 11.3406 12.4765 11.3406H12.7347L12.8147 11.0947C12.8351 11.032 12.8749 10.9773 12.9282 10.9386C12.9816 10.8999 13.0459 10.879 13.1118 10.8791C13.1778 10.8791 13.2421 10.8999 13.2955 10.9387C13.3489 10.9775 13.3886 11.0322 13.409 11.095L13.4887 11.3406H13.7472C13.8132 11.3406 13.8775 11.3615 13.9309 11.4003C13.9843 11.4391 14.024 11.4937 14.0444 11.5565C14.0648 11.6193 14.0648 11.6869 14.0444 11.7497C14.024 11.8124 13.9843 11.8671 13.9309 11.9059L13.7218 12.0578L13.8018 12.3031C13.8171 12.35 13.8211 12.3999 13.8134 12.4487C13.8057 12.4974 13.7866 12.5436 13.7576 12.5836C13.7286 12.6235 13.6906 12.656 13.6466 12.6784C13.6027 12.7008 13.554 12.7125 13.5047 12.7125ZM11.8437 14.2378C11.7916 14.2378 11.7403 14.2248 11.6945 14.1999C11.6487 14.175 11.6099 14.139 11.5815 14.0953L11.4406 13.8787L11.1906 13.9459C11.1266 13.9636 11.0585 13.9605 10.9964 13.9369C10.9343 13.9133 10.8813 13.8705 10.8452 13.8148C10.809 13.7591 10.7916 13.6933 10.7953 13.6269C10.7991 13.5606 10.824 13.4972 10.8662 13.4459L11.029 13.245L10.8884 13.0284C10.8523 12.973 10.8347 12.9076 10.8382 12.8415C10.8416 12.7755 10.8659 12.7122 10.9076 12.6609C10.9493 12.6095 11.0062 12.5727 11.0702 12.5558C11.1341 12.5388 11.2018 12.5426 11.2634 12.5666L11.505 12.6603L11.6672 12.4594C11.7087 12.4081 11.7654 12.3712 11.8291 12.3541C11.8928 12.337 11.9603 12.3405 12.022 12.3642C12.0836 12.3878 12.1361 12.4303 12.1721 12.4856C12.2081 12.541 12.2256 12.6063 12.2222 12.6722L12.209 12.93L12.45 13.0237C12.5116 13.0474 12.5642 13.0899 12.6002 13.1453C12.6362 13.2007 12.6537 13.266 12.6502 13.332C12.6468 13.3979 12.6225 13.4611 12.5809 13.5124C12.5393 13.5637 12.4825 13.6005 12.4187 13.6175L12.1687 13.6847L12.1553 13.9425C12.1518 14.0085 12.1276 14.0716 12.086 14.123C12.0444 14.1743 11.9876 14.2111 11.9237 14.2281C11.8976 14.2349 11.8707 14.2382 11.8437 14.2378ZM11.8097 9.59374C11.7547 9.59385 11.7007 9.57946 11.6531 9.55203C11.6054 9.52459 11.5659 9.48509 11.5384 9.43749L11.4103 9.21311L11.1572 9.26593C11.0926 9.27934 11.0254 9.27197 10.9652 9.24487C10.9051 9.21777 10.8551 9.17234 10.8223 9.11507C10.7896 9.0578 10.7758 8.99164 10.783 8.92606C10.7901 8.86048 10.8178 8.79885 10.8622 8.74999L11.0356 8.55843L10.9075 8.33405C10.8747 8.27675 10.8609 8.21056 10.8681 8.14495C10.8753 8.07934 10.9031 8.01769 10.9475 7.96884C10.9918 7.91998 11.0505 7.88644 11.1152 7.873C11.1798 7.85957 11.247 7.86693 11.3072 7.89405L11.5428 8.0003L11.7162 7.80905C11.7606 7.76011 11.8193 7.72648 11.8839 7.71299C11.9486 7.69949 12.0158 7.70682 12.0761 7.73393C12.1363 7.76104 12.1864 7.80653 12.2191 7.86387C12.2519 7.92122 12.2656 7.98747 12.2584 8.05311L12.2303 8.30999L12.4659 8.41593C12.5261 8.44299 12.5762 8.48842 12.609 8.5457C12.6418 8.60298 12.6556 8.66917 12.6484 8.73478C12.6413 8.80039 12.6135 8.86206 12.5692 8.91094C12.5248 8.95981 12.4661 8.99339 12.4015 9.00686L12.1484 9.05936L12.1203 9.31624C12.1131 9.38181 12.0853 9.44343 12.041 9.49227C11.9967 9.5411 11.938 9.57465 11.8734 9.58811C11.8524 9.59213 11.831 9.59401 11.8097 9.59374Z" fill="black"/>
<path d="M12.8868 10.8925C12.8693 10.8925 12.8518 10.8912 12.8346 10.8884C12.7694 10.8773 12.7094 10.8459 12.6633 10.7985C12.6171 10.7512 12.5871 10.6904 12.5777 10.625L12.5399 10.3694L12.2852 10.3262C12.22 10.3153 12.16 10.284 12.1137 10.2368C12.0675 10.1896 12.0374 10.1289 12.0277 10.0635C12.0181 9.99814 12.0295 9.93139 12.0602 9.87286C12.0909 9.81434 12.1394 9.76705 12.1986 9.73781L12.4299 9.62343L12.3924 9.36781C12.3831 9.30278 12.3946 9.2365 12.4252 9.17837C12.4558 9.12024 12.5039 9.07322 12.5627 9.04399C12.6215 9.01475 12.688 9.00479 12.7528 9.01552C12.8176 9.02625 12.8774 9.05712 12.9236 9.10375L13.1043 9.28843L13.3358 9.17343C13.395 9.14404 13.462 9.13415 13.5271 9.14519C13.5922 9.15624 13.6522 9.18764 13.6984 9.23489C13.7445 9.28214 13.7746 9.34281 13.7841 9.40818C13.7936 9.47356 13.7822 9.54027 13.7515 9.59875L13.6318 9.8275L13.8124 10.0122C13.8586 10.0593 13.8888 10.1199 13.8984 10.1853C13.9081 10.2506 13.8968 10.3173 13.8662 10.3759C13.8356 10.4344 13.7872 10.4817 13.728 10.511C13.6688 10.5403 13.6019 10.5502 13.5368 10.5391L13.2821 10.4956L13.1624 10.7244C13.1361 10.7748 13.0965 10.8172 13.048 10.8468C12.9994 10.8764 12.9437 10.8922 12.8868 10.8925Z" fill="black"/>
</svg>
