<svg width="20" height="20" viewBox="0 0 20 20" fill="none" xmlns="http://www.w3.org/2000/svg">
<path d="M0 8.82353H5.88235V11.1765H0V8.82353Z" fill="black"/>
<path d="M2.09704 16.2392L6.2565 12.0797L7.92028 13.7435L3.76082 17.903L2.09704 16.2392Z" fill="black"/>
<path d="M8.82353 20V14.1176H11.1765V20H8.82353Z" fill="black"/>
<path d="M16.2392 17.903L12.0797 13.7435L13.7435 12.0797L17.903 16.2392L16.2392 17.903Z" fill="black"/>
<path d="M20 11.1765H14.1177V8.82353H20V11.1765Z" fill="black"/>
<path d="M17.903 3.76082L13.7435 7.92027L12.0797 6.25649L16.2392 2.09704L17.903 3.76082Z" fill="black"/>
<path d="M11.1765 0V5.88235H8.82353V0H11.1765Z" fill="black"/>
<path d="M3.76083 2.09704L7.92028 6.25649L6.2565 7.92028L2.09704 3.76082L3.76083 2.09704Z" fill="black"/>
</svg>
