<svg width="20" height="20" viewBox="0 0 20 20" fill="none" xmlns="http://www.w3.org/2000/svg">
<g clip-path="url(#clip0_3852_2054)">
<path d="M11.6227 0.732372C11.3907 0.621705 11.1173 0.651038 10.9173 0.812372L4.432 6.00037H1.33333C0.598667 6.00037 0 6.59904 0 7.33371V12.667C0 13.4017 0.598667 14.0004 1.33333 14.0004H4.432L10.916 19.1884C11.0348 19.2824 11.1818 19.3336 11.3333 19.3337C11.432 19.3337 11.5307 19.3124 11.6227 19.2684C11.7357 19.2137 11.831 19.1283 11.8977 19.0219C11.9644 18.9156 11.9999 18.7926 12 18.667V1.33371C11.9999 1.20816 11.9644 1.08518 11.8977 0.978836C11.831 0.872492 11.7357 0.78708 11.6227 0.732372ZM4 12.667H1.33333V7.33371H4V12.667ZM10.6667 17.279L5.33333 13.0124V6.98837L10.6667 2.72171V17.279ZM15.376 5.28571C15.1133 5.02571 14.692 5.02971 14.4333 5.29104C14.1747 5.55371 14.1773 5.97504 14.4387 6.23371C15.4453 7.2297 16 8.56704 16 10.0004C16 11.4337 15.4453 12.771 14.4387 13.767C14.176 14.0257 14.1733 14.447 14.4333 14.7097C14.4952 14.7723 14.5689 14.822 14.6502 14.8559C14.7314 14.8898 14.8186 14.9072 14.9067 14.907C15.076 14.907 15.2453 14.843 15.376 14.7137C16.6387 13.467 17.3333 11.7937 17.3333 10.0004C17.3333 8.20704 16.6387 6.53371 15.376 5.28571Z" fill="black"/>
<path d="M17.256 3.40702C16.9947 3.14836 16.572 3.14969 16.3134 3.41102C16.0547 3.67236 16.056 4.09502 16.3174 4.35369C17.832 5.85636 18.6667 7.86169 18.6667 10.0004C18.6667 12.139 17.832 14.1444 16.3174 15.647C16.056 15.9057 16.0547 16.3284 16.3134 16.5897C16.3752 16.6524 16.4489 16.7022 16.5302 16.736C16.6114 16.7699 16.6986 16.7873 16.7867 16.787C16.956 16.787 17.1254 16.723 17.256 16.5937C19.0254 14.839 20 12.4977 20 10.0004C20 7.50303 19.0254 5.16169 17.256 3.40702Z" fill="black"/>
</g>
<defs>
<clipPath id="clip0_3852_2054">
<rect width="20" height="20" fill="white"/>
</clipPath>
</defs>
</svg>
