<svg width="20" height="20" viewBox="0 0 20 20" fill="none" xmlns="http://www.w3.org/2000/svg">
<g clip-path="url(#clip0_3856_3192)">
<path d="M6.24992 7.5H3.74992C3.63941 7.5 3.53343 7.4561 3.45529 7.37796C3.37715 7.29982 3.33325 7.19384 3.33325 7.08333V1.66667C3.33325 0.7475 4.08075 0 4.99992 0C5.91909 0 6.66659 0.7475 6.66659 1.66667V7.08333C6.66659 7.19384 6.62269 7.29982 6.54455 7.37796C6.46641 7.4561 6.36043 7.5 6.24992 7.5ZM4.16659 6.66667H5.83325V1.66667C5.82365 1.4521 5.73166 1.2495 5.57643 1.10106C5.4212 0.952623 5.2147 0.869777 4.99992 0.869777C4.78514 0.869777 4.57863 0.952623 4.4234 1.10106C4.26817 1.2495 4.17618 1.4521 4.16659 1.66667V6.66667Z" fill="black"/>
<path d="M5 15.8333C3.62167 15.8333 2.5 14.7116 2.5 13.3333V7.91663C2.5 7.22746 3.06083 6.66663 3.75 6.66663H6.25C6.93917 6.66663 7.5 7.22746 7.5 7.91663V13.3333C7.5 14.7116 6.37833 15.8333 5 15.8333ZM3.75 7.49996C3.63949 7.49996 3.53351 7.54386 3.45537 7.622C3.37723 7.70014 3.33333 7.80612 3.33333 7.91663V13.3333C3.33333 14.2525 4.08083 15 5 15C5.91917 15 6.66667 14.2525 6.66667 13.3333V7.91663C6.66667 7.80612 6.62277 7.70014 6.54463 7.622C6.46649 7.54386 6.36051 7.49996 6.25 7.49996H3.75ZM6.25 4.99996H3.75C3.63949 4.99996 3.53351 4.95606 3.45537 4.87792C3.37723 4.79978 3.33333 4.6938 3.33333 4.58329C3.33333 4.47279 3.37723 4.36681 3.45537 4.28866C3.53351 4.21052 3.63949 4.16663 3.75 4.16663H6.25C6.36051 4.16663 6.46649 4.21052 6.54463 4.28866C6.62277 4.36681 6.66667 4.47279 6.66667 4.58329C6.66667 4.6938 6.62277 4.79978 6.54463 4.87792C6.46649 4.95606 6.36051 4.99996 6.25 4.99996Z" fill="black"/>
<path d="M4.99992 13.3334C4.88941 13.3334 4.78343 13.2895 4.70529 13.2113C4.62715 13.1332 4.58325 13.0272 4.58325 12.9167V9.58337C4.58325 9.47287 4.62715 9.36689 4.70529 9.28875C4.78343 9.21061 4.88941 9.16671 4.99992 9.16671C5.11043 9.16671 5.21641 9.21061 5.29455 9.28875C5.37269 9.36689 5.41659 9.47287 5.41659 9.58337V12.9167C5.41659 13.0272 5.37269 13.1332 5.29455 13.2113C5.21641 13.2895 5.11043 13.3334 4.99992 13.3334ZM17.0833 20C16.9727 20 16.8668 19.9561 16.7886 19.878C16.7105 19.7999 16.6666 19.6939 16.6666 19.5834V9.16671C16.6666 7.78837 15.5449 6.66671 14.1666 6.66671C12.7883 6.66671 11.6666 7.78837 11.6666 9.16671V16.6667C11.6666 18.505 10.1716 20 8.33325 20H7.91659C6.07825 20 4.58325 18.505 4.58325 16.6667V15.4167C4.58325 15.3062 4.62715 15.2002 4.70529 15.1221C4.78343 15.0439 4.88941 15 4.99992 15C5.11043 15 5.21641 15.0439 5.29455 15.1221C5.37269 15.2002 5.41659 15.3062 5.41659 15.4167V16.6667C5.41659 18.045 6.53825 19.1667 7.91659 19.1667H8.33325C9.71159 19.1667 10.8333 18.045 10.8333 16.6667V9.16671C10.8333 7.32837 12.3283 5.83337 14.1666 5.83337C16.0049 5.83337 17.4999 7.32837 17.4999 9.16671V19.5834C17.4999 19.6939 17.456 19.7999 17.3779 19.878C17.2997 19.9561 17.1938 20 17.0833 20Z" fill="black"/>
</g>
<defs>
<clipPath id="clip0_3856_3192">
<rect width="20" height="20" fill="white"/>
</clipPath>
</defs>
</svg>
