<svg width="20" height="20" viewBox="0 0 20 20" fill="none" xmlns="http://www.w3.org/2000/svg">
<g clip-path="url(#clip0_3891_336)">
<path d="M3.50006 0.03125H0.500062C0.223969 0.03125 0 0.255172 0 0.531312V3.53131C0 3.8074 0.223922 4.03137 0.500062 4.03137C0.776203 4.03137 0.999937 3.80745 0.999937 3.53131V1.03137H3.50006C3.77615 1.03137 3.99993 0.807452 3.99993 0.531312C3.99993 0.255172 3.7762 0.03125 3.50006 0.03125ZM3.50006 15.0312H0.999937V12.5313C0.999937 12.2552 0.776203 12.0312 0.500062 12.0312C0.223922 12.0312 0 12.2552 0 12.5313V15.5313C0 15.8074 0.223922 16.0314 0.500062 16.0314H3.50006C3.77615 16.0314 3.99993 15.8074 3.99993 15.5313C3.99993 15.2552 3.7762 15.0312 3.50006 15.0312ZM19.5 0.03125H16.5C16.2239 0.03125 15.9999 0.255172 15.9999 0.531312C15.9999 0.807452 16.2238 1.03137 16.5 1.03137H18.9999V3.53131C18.9999 3.8074 19.2238 4.03137 19.5 4.03137C19.7761 4.03137 20 3.80745 20 3.53131V0.531312C20 0.255219 19.7761 0.03125 19.5 0.03125ZM19.5 12.0312C19.2239 12.0312 18.9999 12.2552 18.9999 12.5313V15.0312H16.5C16.2239 15.0312 15.9999 15.2552 15.9999 15.5313C15.9999 15.8074 16.2238 16.0314 16.5 16.0314H19.5C19.7761 16.0314 20 15.8074 20 15.5313V12.5313C20 12.2552 19.7761 12.0312 19.5 12.0312ZM3.50006 3.03125C3.22397 3.03125 3 3.25517 3 3.53131V12.5313C3 12.8074 3.22392 13.0314 3.50006 13.0314C3.7762 13.0314 3.99993 12.8074 3.99993 12.5313V3.53131C3.99993 3.25522 3.7762 3.03125 3.50006 3.03125ZM5.49993 3.03125H6.50006C6.77615 3.03125 6.99993 3.25517 6.99993 3.53131V12.5313C6.99993 12.8074 6.7762 13.0314 6.50006 13.0314H5.49993C5.22384 13.0314 5.00006 12.8074 5.00006 12.5313V3.53131C5.00006 3.25522 5.22379 3.03125 5.49993 3.03125ZM8.49993 3.03125C8.22384 3.03125 8.00006 3.25517 8.00006 3.53131V12.5313C8.00006 12.8074 8.22379 13.0314 8.49993 13.0314C8.77607 13.0314 8.99999 12.8074 8.99999 12.5313V3.53131C8.99999 3.25522 8.77607 3.03125 8.49993 3.03125ZM10.5 3.03125H11.4999C11.776 3.03125 12 3.25517 12 3.53131V12.5313C12 12.8074 11.7761 13.0314 11.4999 13.0314H10.5C10.2239 13.0314 9.99993 12.8074 9.99993 12.5313V3.53131C9.99993 3.25522 10.2239 3.03125 10.5 3.03125ZM13.5 3.03125C13.2239 3.03125 12.9999 3.25517 12.9999 3.53131V12.5313C12.9999 12.8074 13.2239 13.0314 13.5 13.0314C13.7761 13.0314 14.0001 12.8074 14.0001 12.5313V3.53131C14.0001 3.25522 13.7761 3.03125 13.5 3.03125ZM15.5001 3.03125H16.5C16.7761 3.03125 17 3.25517 17 3.53131V12.5313C17 12.8074 16.7761 13.0314 16.5 13.0314H15.5001C15.224 13.0314 15 12.8074 15 12.5313V3.53131C15 3.25522 15.2239 3.03125 15.5001 3.03125Z" fill="black"/>
</g>
<defs>
<clipPath id="clip0_3891_336">
<rect width="20" height="20" fill="white"/>
</clipPath>
</defs>
</svg>
