<svg width="20" height="20" viewBox="0 0 20 20" fill="none" xmlns="http://www.w3.org/2000/svg">
<path d="M10.4169 10L14.75 6.75C14.8277 6.69186 14.8908 6.6164 14.9343 6.5296C14.9778 6.44281 15.0004 6.34707 15.0004 6.25C15.0004 6.15293 14.9778 6.05719 14.9343 5.9704C14.8908 5.8836 14.8277 5.80814 14.75 5.75L9.75 2C9.65715 1.93036 9.54673 1.88795 9.43113 1.87753C9.31553 1.8671 9.19931 1.88908 9.09549 1.94098C8.99168 1.99289 8.90437 2.07268 8.84335 2.17142C8.78232 2.27015 8.75 2.38393 8.75 2.5V8.75L6 6.6875C5.93434 6.63825 5.85962 6.60242 5.78012 6.58205C5.70061 6.56168 5.61787 6.55717 5.53661 6.56878C5.45536 6.58039 5.37719 6.60789 5.30657 6.6497C5.23594 6.69152 5.17425 6.74684 5.125 6.8125C5.07576 6.87816 5.03993 6.95288 5.01956 7.03239C4.99919 7.1119 4.99468 7.19464 5.00628 7.27589C5.01789 7.35714 5.04539 7.43531 5.08721 7.50593C5.12902 7.57656 5.18434 7.63825 5.25 7.6875L8.33313 10L5.25 12.3125C5.18434 12.3617 5.12902 12.4234 5.08721 12.4941C5.04539 12.5647 5.01789 12.6429 5.00628 12.7241C4.98284 12.8882 5.02555 13.0549 5.125 13.1875C5.22446 13.3201 5.37252 13.4078 5.53661 13.4312C5.70071 13.4547 5.86739 13.412 6 13.3125L8.75 11.25V17.5C8.75 17.6161 8.78232 17.7298 8.84335 17.8286C8.90437 17.9273 8.99168 18.0071 9.09549 18.059C9.19931 18.1109 9.31553 18.1329 9.43113 18.1225C9.54673 18.1121 9.65715 18.0696 9.75 18L14.75 14.25C14.8277 14.1919 14.8908 14.1164 14.9343 14.0296C14.9778 13.9428 15.0004 13.8471 15.0004 13.75C15.0004 13.6529 14.9778 13.5572 14.9343 13.4704C14.8908 13.3836 14.8277 13.3081 14.75 13.25L10.4169 10ZM10 3.75L13.3331 6.25L10 8.75V3.75ZM10 16.25V11.25L13.3331 13.75L10 16.25Z" fill="black"/>
</svg>
