<?xml version="1.0" encoding="UTF-8"?>
<svg width="1200pt" height="1200pt" version="1.1" viewBox="0 0 1200 1200" xmlns="http://www.w3.org/2000/svg">
 <g fill-rule="evenodd">
  <path d="m775.95 135-241.84 241.88c-25.383 25.383-43.641 57-52.93 91.672-9.293 34.676-9.293 71.184 0 105.86 9.2891 34.676 27.547 66.289 52.93 91.672 8.4531 8.4531 20.773 11.758 32.324 8.6602 11.547-3.0938 20.566-12.113 23.66-23.66s-0.20703-23.871-8.6602-32.324c-25.785-25.805-40.27-60.793-40.27-97.273 0-36.48 14.484-71.469 40.27-97.277l241.88-241.88c34.754-34.746 85.402-48.312 132.87-35.59 47.469 12.727 84.543 49.805 97.258 97.277 12.711 47.469-0.86328 98.117-35.617 132.86l-241.88 241.88c-6.2734 6.2852-9.7969 14.809-9.7891 23.688 0.007813 8.8828 3.543 17.398 9.8281 23.676 6.2852 6.2734 14.805 9.7969 23.688 9.7891 8.8828-0.007813 17.398-3.543 23.676-9.8281l241.8-241.88h-0.003906c38.352-38.348 59.898-90.363 59.898-144.6 0-54.238-21.547-106.25-59.898-144.6-38.348-38.352-90.363-59.895-144.6-59.895s-106.25 21.543-144.6 59.895z"  fill="#ADB5BD" stroke-width="1.5" stroke-linecap="round" stroke-linejoin="round"/>
  <path d="m618.52 534.11c-6.2695 6.2773-9.7891 14.789-9.7891 23.66 0 8.875 3.5195 17.387 9.7891 23.664 25.785 25.805 40.27 60.793 40.27 97.273 0 36.48-14.484 71.469-40.27 97.277l-241.88 241.88c-34.75 34.746-85.402 48.312-132.87 35.59-47.465-12.727-84.539-49.805-97.254-97.277-12.715-47.469 0.85937-98.117 35.613-132.86l241.88-241.88c8.4531-8.4688 11.75-20.801 8.6445-32.355-3.1055-11.555-12.141-20.574-23.703-23.664-11.559-3.0859-23.887 0.22656-32.34 8.6953l-241.61 241.88c-36.262 38.742-56.039 90.062-55.16 143.12 0.87891 53.055 22.352 103.69 59.875 141.21 37.523 37.52 88.164 58.984 141.22 59.859 53.055 0.87109 104.38-18.914 143.11-55.18l241.8-241.88c38.34-38.355 59.883-90.367 59.883-144.6 0-54.23-21.543-106.25-59.883-144.6-6.3047-6.2461-14.828-9.7344-23.703-9.6992-8.8711 0.035157-17.371 3.5898-23.625 9.8867z"  fill="#ADB5BD" stroke-width="1.5" stroke-linecap="round" stroke-linejoin="round"/>
 </g>
</svg>
