<?xml version="1.0" encoding="UTF-8"?>
<svg width="1200pt" height="1200pt" version="1.1" viewBox="0 0 1200 1200" xmlns="http://www.w3.org/2000/svg">
 <path d="m1107.9 559.1c-1.3008 0-2.5898 0.046875-3.8711 0.125l-43.934-162.93c20.309-10.211 34.277-31.242 34.277-55.48 0-34.223-27.844-62.066-62.066-62.066-17.336 0-33.035 7.1484-44.305 18.648l-128.32-82.984c2.7539-7.0117 4.2695-14.645 4.2695-22.621 0-34.223-27.844-62.066-62.066-62.066-27.793 0-51.375 18.363-59.258 43.594l-166.61-16.902c-3.1211-31.324-29.625-55.867-61.758-55.867-34.219 0-62.066 27.844-62.066 62.066 0 2.6484 0.16797 5.2617 0.49219 7.8242l-177.35 60.238c-10.781-18.395-30.762-30.777-53.582-30.777-34.219 0-62.066 27.836-62.066 62.059 0 18.438 8.0859 35.02 20.895 46.398l-68.82 118.91c-6.2031-2.0859-12.84-3.2188-19.734-3.2188-34.223 0.003906-62.066 27.848-62.066 62.07 0 34.223 27.844 62.066 62.066 62.066 4.2578 0 8.418-0.43359 12.438-1.2539l51.68 121.3c-16.203 11.211-26.836 29.918-26.836 51.066 0 34.223 27.844 62.066 62.066 62.066 19.766 0 37.398-9.2891 48.77-23.727l89.297 44.809c-1.3984 5.168-2.1484 10.598-2.1484 16.199 0 34.223 27.844 62.066 62.066 62.066 34.223 0 62.066-27.844 62.066-62.066 0-0.35156-0.007813-0.70312-0.011719-1.0508l105.51-23.367c9.6914 21.672 31.457 36.812 56.691 36.812 8.8047 0 17.18-1.8477 24.773-5.1641l118.45 168.87c-10.539 11.129-17.016 26.145-17.016 42.645 0 34.223 27.844 62.066 62.066 62.066 34.219 0 62.066-27.844 62.066-62.066 0-21.402-10.891-40.309-27.422-51.473l52.953-128.3c3.8047 0.73047 7.7305 1.1211 11.746 1.1211 34.223 0 62.066-27.844 62.066-62.066 0-10.836-2.7969-21.031-7.6992-29.91l113.99-96.801c10.559 8.3086 23.867 13.266 38.312 13.266 34.223 0 62.066-27.836 62.066-62.059-0.011719-34.223-27.855-62.07-62.078-62.07zm-75.594-255.57c20.559 0 37.285 16.723 37.285 37.285 0 20.555-16.723 37.277-37.285 37.277-20.559 0-37.285-16.723-37.285-37.277 0-20.562 16.727-37.285 37.285-37.285zm-43.723 81.285c4.4062 4.3789 9.4648 8.0977 15.016 11.008l-97.465 338.98c-1.6172-0.125-3.2539-0.19531-4.9023-0.19531-2.4375 0-4.8398 0.14453-7.2031 0.42188l-61.395-186.9c18.695-10.703 31.32-30.852 31.32-53.895 0-8.2695-1.6289-16.164-4.582-23.387zm-186.7 146.7c-20.559 0-37.281-16.723-37.281-37.277 0-20.559 16.723-37.281 37.281-37.281s37.281 16.723 37.281 37.281c0 20.555-16.723 37.277-37.281 37.277zm44.305-296.3 128.32 82.984c-2.7539 7.0117-4.2695 14.645-4.2695 22.621 0 8.2695 1.6328 16.164 4.582 23.387l-129.21 86.031c-8.4336-8.3789-19.25-14.359-31.336-16.82l-0.003906-180.8c12.363-2.5156 23.402-8.7188 31.914-17.406zm-44.305-80.695c20.559 0 37.281 16.723 37.281 37.281 0 20.559-16.723 37.285-37.281 37.285s-37.281-16.723-37.281-37.285c0-20.559 16.723-37.281 37.281-37.281zm-38.23 86.141c7.4414 5.8359 16.242 10.008 25.84 11.961v180.8c-9.2969 1.8906-17.84 5.8672-25.129 11.418l-83.461-73.234c5.207-9.0781 8.1914-19.59 8.1914-30.785 0-10.879-2.8203-21.109-7.7539-30.008zm-211.56 281.68 59.355-121.43c4.9805 1.293 10.199 1.9805 15.578 1.9805 14.086 0 27.09-4.7188 37.52-12.66l83.461 73.23c-5.207 9.0781-8.1914 19.594-8.1914 30.789 0 16.746 6.668 31.957 17.488 43.133l-119.54 174.43c-7.4297-3.1484-15.59-4.8945-24.152-4.8945-5.625 0-11.074 0.75781-16.262 2.1641l-44.699-88.848c14.41-11.375 23.676-28.992 23.676-48.734 0.003907-19.988-9.5039-37.801-24.234-49.16zm-22.246-10.918c-4.9805-1.293-10.203-1.9805-15.578-1.9805-18.195 0-34.59 7.8711-45.953 20.391l-70-41.539c2.2266-6.3867 3.4414-13.242 3.4414-20.379 0-18.551-8.1875-35.227-21.133-46.609l114.21-199.73c6.1172 2.0195 12.648 3.1211 19.43 3.1211 7.7617 0 15.195-1.4375 22.047-4.0508l47.742 75.449c-11.758 11.301-19.086 27.18-19.086 44.734 0 19.996 9.5039 37.809 24.234 49.164zm21.699 60.086c0 20.559-16.723 37.281-37.285 37.281-20.559 0-37.281-16.723-37.281-37.281 0-20.559 16.723-37.285 37.281-37.285 20.562 0 37.285 16.723 37.285 37.285zm38.207-230.68c0-20.559 16.723-37.285 37.277-37.285 20.559 0 37.281 16.723 37.281 37.285 0 20.555-16.723 37.277-37.281 37.277-20.555 0-37.277-16.727-37.277-37.277zm-16.227-159.73 166.6 16.902c0.85156 8.5664 3.457 16.625 7.4453 23.812l-82.32 70.156c-10.543-8.2695-23.82-13.203-38.227-13.203-7.7617 0-15.191 1.4375-22.047 4.0508l-47.742-75.449c7.4609-7.1641 13.133-16.164 16.289-26.27zm-59.262-55.746c20.559 0 37.285 16.723 37.285 37.281 0 20.559-16.723 37.285-37.285 37.285-20.559 0-37.281-16.723-37.281-37.285 0-20.559 16.723-37.281 37.281-37.281zm-230.44 136.62c0-2.6484-0.16797-5.2617-0.49219-7.8242l177.35-60.234c3.3789 5.7656 7.6641 10.941 12.652 15.328l-114.21 199.73c-6.1172-2.0195-12.648-3.1211-19.434-3.1211-6.7969 0-13.348 1.1016-19.473 3.1328l-57.5-100.42c12.934-11.383 21.109-28.051 21.109-46.59zm93.145 205.95c0 20.559-16.723 37.285-37.281 37.285s-37.285-16.723-37.285-37.285c0-20.559 16.723-37.281 37.285-37.281 20.559-0.003906 37.281 16.719 37.281 37.281zm-155.21-243.22c20.559 0 37.285 16.723 37.285 37.277 0 20.559-16.723 37.281-37.285 37.281-20.559 0-37.281-16.723-37.281-37.281 0-20.555 16.723-37.277 37.281-37.277zm-129.73 298.71c-20.559 0-37.285-16.723-37.285-37.285 0-20.559 16.723-37.281 37.285-37.281 20.559 0 37.285 16.723 37.285 37.281-0.003906 20.562-16.727 37.285-37.285 37.285zm35.223 13.789c16.203-11.211 26.84-29.922 26.84-51.07 0-18.438-8.0859-35.02-20.895-46.398l68.82-118.91c6.2031 2.0859 12.84 3.2188 19.734 3.2188 6.7969 0 13.34-1.1016 19.469-3.1289l57.5 100.42c-12.93 11.383-21.105 28.047-21.105 46.586 0 18.254 7.9219 34.688 20.508 46.055l-86.52 146.66c-6.3438-2.1953-13.148-3.3867-20.227-3.3867-4.2617 0-8.4219 0.43359-12.445 1.2539zm64.125 219.39c-20.559 0-37.285-16.723-37.285-37.285 0-20.559 16.723-37.281 37.285-37.281 20.555 0 37.277 16.723 37.277 37.281 0 20.562-16.723 37.285-37.277 37.285zm41.559-83.336 86.523-146.66c6.3438 2.1914 13.148 3.3867 20.227 3.3867 18.199 0 34.59-7.8711 45.953-20.391l70.004 41.539c-2.2266 6.3867-3.4414 13.242-3.4414 20.379 0 4.8281 0.55469 9.5312 1.6055 14.047l-212.32 97.191c-2.5234-3.4492-5.3906-6.6289-8.5547-9.4883zm156.42 182.68c-20.559 0-37.285-16.723-37.285-37.281 0-20.559 16.723-37.285 37.285-37.285 20.559 0 37.285 16.723 37.285 37.285 0 20.559-16.723 37.281-37.285 37.281zm162.19-86.953c0 0.35156 0.007813 0.70312 0.015625 1.0508l-105.51 23.371c-9.6914-21.672-31.457-36.812-56.691-36.812-19.766 0-37.402 9.2891-48.777 23.73l-89.297-44.812c1.3984-5.168 2.1484-10.598 2.1484-16.203 0-4.832-0.55469-9.5352-1.6055-14.051l212.32-97.191c11.301 15.445 29.555 25.5 50.113 25.5 5.625 0 11.078-0.75781 16.262-2.1641l44.695 88.848c-14.398 11.375-23.668 28.992-23.668 48.734zm62.066 37.281c-20.559 0-37.285-16.723-37.285-37.285 0-20.559 16.723-37.281 37.285-37.281 20.559 0 37.285 16.723 37.285 37.281 0 20.562-16.723 37.285-37.285 37.285zm164.12-254.86c7.4258 3.1484 15.59 4.8945 24.152 4.8945 2.4375 0 4.8398-0.14453 7.2031-0.42188l61.391 186.9c-13.566 7.7695-23.93 20.516-28.598 35.73l-166.54-16.039c-1.4844-14.16-7.75-26.922-17.148-36.629zm61.438 485.99c0 20.559-16.723 37.281-37.281 37.281s-37.281-16.723-37.281-37.281c0-20.559 16.723-37.281 37.281-37.281s37.281 16.723 37.281 37.281zm-25.531-60.945c-3.8047-0.73438-7.7344-1.1211-11.75-1.1211-8.8008 0-17.184 1.8477-24.777 5.168l-118.45-168.87c6.5039-6.8672 11.461-15.215 14.301-24.48l166.54 16.039c1.957 18.695 12.246 34.949 27.078 44.965zm87.59-142.49c-20.551 0-37.277-16.723-37.277-37.285 0-20.559 16.723-37.281 37.277-37.281 20.559 0 37.285 16.723 37.285 37.281 0 20.562-16.723 37.285-37.285 37.285zm144.61-212.79c0 10.84 2.7969 21.035 7.6992 29.91l-113.99 96.801c-2.9922-2.3555-6.2031-4.4375-9.6016-6.2148l97.469-338.98c1.6172 0.125 3.25 0.19141 4.8945 0.19141 1.3008 0 2.5859-0.042969 3.8672-0.125l43.938 162.93c-20.309 10.215-34.277 31.25-34.277 55.484zm62.066 37.277c-20.559 0-37.285-16.723-37.285-37.277 0-20.559 16.723-37.281 37.285-37.281 20.559 0 37.285 16.723 37.285 37.281 0 20.555-16.727 37.277-37.285 37.277z" />
</svg>
