<?xml version="1.0" encoding="UTF-8"?>
<svg width="1200pt" height="1200pt" version="1.1" viewBox="0 0 1200 1200" xmlns="http://www.w3.org/2000/svg">
 <path d="m428.11 357.05h286.75v-90.457h-388.3v554.13h90.438v-452.56c0-6.1328 4.9805-11.113 11.113-11.113zm286.75 22.227h-275.63v554.12h434.22v-395.54h-147.47c-6.1328 0-11.113-4.9805-11.113-11.113zm22.227-15.715 155.34 155.34 0.48828 0.52344 0.24609 0.28516 0.25391 0.31641 0.25391 0.35156 0.070313 0.10547 0.31641 0.47656 0.12109 0.21484 0.47656 0.89062v0.015625c0.65625 1.4219 1.0312 3.0039 1.0312 4.6719l-0.003906 0.29297v417.47c0 6.1328-4.9805 11.113-11.113 11.113h-456.45c-6.1328 0-11.113-4.9805-11.113-11.113v-101.56h-101.55c-6.1328 0-11.113-4.9805-11.113-11.113v-576.36c0-6.1328 4.9805-11.113 11.113-11.113h410.52c6.1328 0 11.113 4.9805 11.113 11.113zm120.64 152.08-120.64-120.64v120.64zm-279.75 172.12c-6.1328 0-11.113-4.9805-11.113-11.113 0-6.1328 4.9805-11.113 11.113-11.113h156.73c6.1328 0 11.113 4.9805 11.113 11.113 0 6.1328-4.9805 11.113-11.113 11.113zm0 117.98c-6.1328 0-11.113-4.9805-11.113-11.113 0-6.1328 4.9805-11.113 11.113-11.113h156.73c6.1328 0 11.113 4.9805 11.113 11.113 0 6.1328-4.9805 11.113-11.113 11.113z" stroke="#ADB5BD" stroke-width="1.5" stroke-linecap="round" stroke-linejoin="round"/>
</svg>
