<svg width="20" height="20" viewBox="0 0 20 20" fill="none" xmlns="http://www.w3.org/2000/svg">
<path d="M1.31396 4.67999V15.344H18.686V4.67999H1.31396ZM5.58396 4.77999H14.384V15.244H5.58396V4.77999Z" fill="black"/>
<path d="M13.7259 10.12C13.7259 10.12 13.2579 10.04 13.1939 9.75001C13.1299 9.46001 13.5799 8.50801 13.5799 8.50801C13.2374 8.6157 12.887 8.69661 12.5319 8.75001C12.2259 8.76601 12.1779 8.20201 12.1779 8.20201C12.1779 8.20201 11.3999 9.36201 11.1999 9.18601C10.9999 9.01001 11.6179 6.91401 11.6179 6.91401C11.6179 6.91401 11.2759 7.40001 10.9219 7.34801C10.5679 7.29601 10.0999 6.17401 10.0679 6.10001C10.0379 6.17401 9.5579 7.30001 9.2139 7.34801C8.8699 7.39601 8.5219 6.91401 8.5219 6.91401C8.5219 6.91401 9.1459 9.00001 8.9359 9.18601C8.7259 9.37201 7.9539 8.20001 7.9539 8.20001C7.9539 8.20001 7.9059 8.76401 7.5999 8.74801C7.24483 8.69461 6.89444 8.6137 6.5519 8.50601C6.5519 8.50601 6.9999 9.46001 6.9379 9.75001C6.8759 10.04 6.3999 10.12 6.3999 10.12C6.3999 10.12 7.7519 11.248 7.7679 11.618C7.76624 11.8734 7.69725 12.1238 7.5679 12.344C7.5679 12.344 9.3999 11.988 9.6939 12.038C9.9879 12.088 9.9359 12.52 9.9359 12.73C9.9359 12.94 9.9039 13.954 9.9039 13.954H10.2279C10.2279 13.954 10.1999 12.94 10.1999 12.73C10.1999 12.52 10.1519 12.086 10.4419 12.038C10.7319 11.99 12.5699 12.344 12.5699 12.344C12.4402 12.124 12.3712 11.8734 12.3699 11.618C12.3719 11.248 13.7259 10.12 13.7259 10.12Z" fill="black"/>
</svg>
