<svg width="20" height="20" viewBox="0 0 20 20" fill="none" xmlns="http://www.w3.org/2000/svg">
<g clip-path="url(#clip0_3856_3052)">
<path d="M0.435546 4.34767C0.537281 4.34767 0.639872 4.312 0.722491 4.23986C3.19805 2.06605 6.49356 0.869558 10.0004 0.869558C13.5081 0.869558 16.8028 2.06605 19.2774 4.239C19.4583 4.39638 19.7322 4.37901 19.8913 4.19902C19.929 4.15609 19.9578 4.10616 19.9762 4.05207C19.9946 3.99798 20.0022 3.9408 19.9985 3.8838C19.9947 3.82679 19.9798 3.77108 19.9546 3.71983C19.9293 3.66859 19.8942 3.62282 19.8513 3.58514C17.2183 1.27299 13.7194 0 10.0004 0C6.28226 0 2.78328 1.27385 0.14856 3.58596C0.105621 3.62364 0.0705249 3.66941 0.0452762 3.72065C0.0200276 3.77189 0.00512108 3.82761 0.00140802 3.88461C-0.00230504 3.94162 0.0052481 3.9988 0.0236361 4.05288C0.042024 4.10697 0.0708866 4.1569 0.108575 4.19983C0.149452 4.24628 0.199754 4.28349 0.256132 4.30898C0.312511 4.33447 0.373673 4.34766 0.435546 4.34767Z" fill="black"/>
<path d="M16.1175 7.71013C16.294 7.54665 16.3044 7.27189 16.1418 7.09536C14.5028 5.32327 12.322 4.34766 10.0003 4.34766C7.67868 4.34766 5.49789 5.32327 3.85884 7.09536C3.69625 7.27189 3.70669 7.5475 3.88317 7.71013C4.05881 7.87272 4.3336 7.86229 4.49795 7.68666C5.96919 6.09452 7.92388 5.21717 10.0003 5.21717C12.0768 5.21717 14.0315 6.09452 15.5036 7.68666C15.5443 7.73058 15.5937 7.76562 15.6486 7.78955C15.7035 7.81349 15.7628 7.82582 15.8227 7.82577C15.9279 7.82577 16.034 7.78749 16.1175 7.71013ZM12.5916 10.7291C12.6323 10.7734 12.6818 10.8086 12.7368 10.8327C12.7919 10.8568 12.8514 10.8692 12.9116 10.8691C13.0209 10.8694 13.1263 10.828 13.2063 10.7535C13.3829 10.59 13.3933 10.3153 13.2307 10.1396C12.3698 9.20836 11.2229 8.69532 10.0004 8.69532C8.77779 8.69532 7.63091 9.20836 6.77007 10.1396C6.60659 10.3153 6.61792 10.5909 6.7944 10.7535C6.97004 10.9161 7.24569 10.9066 7.40918 10.7292C8.10306 9.97875 9.02304 9.56488 10.0004 9.56488C10.9777 9.56484 11.8977 9.97871 12.5916 10.7291ZM14.4741 13.9307C14.2923 13.8759 14.0924 13.9472 13.9863 14.1055L12.6089 16.1724L11.2316 14.1064C11.1255 13.9472 10.9264 13.8759 10.7438 13.9316C10.6544 13.9583 10.5761 14.0133 10.5204 14.0882C10.4648 14.163 10.4349 14.2539 10.4351 14.3472V19.5644C10.4351 19.8044 10.6299 19.9992 10.8699 19.9992C11.1099 19.9992 11.3047 19.8044 11.3047 19.5644V15.7828L12.2472 17.1966C12.409 17.4375 12.8089 17.4375 12.9707 17.1966L13.9132 15.7828V19.5644C13.9132 19.8044 14.108 19.9992 14.348 19.9992C14.588 19.9992 14.7828 19.8044 14.7828 19.5644V14.3472C14.7828 14.1551 14.6576 13.9864 14.4741 13.9307ZM6.52221 13.9125H5.6527C5.41271 13.9125 5.21792 14.1073 5.21792 14.3472V19.5644C5.21792 19.8044 5.41271 19.9992 5.6527 19.9992H6.52221C8.2004 19.9992 9.56559 18.6341 9.56559 16.9558C9.56559 15.2776 8.2004 13.9125 6.52221 13.9125ZM6.52221 19.1297H6.08743V14.782H6.52221C7.72041 14.782 8.69603 15.7568 8.69603 16.9558C8.69603 18.1549 7.72041 19.1297 6.52221 19.1297ZM19.9773 19.427L18.2383 14.2098C18.12 13.8551 17.5313 13.8551 17.4139 14.2098L15.6749 19.427C15.5992 19.6548 15.7218 19.9009 15.9496 19.9774C16.18 20.054 16.4235 19.9287 16.4992 19.7027L16.9801 18.2601H18.6722L19.153 19.7018C19.182 19.7883 19.2373 19.8635 19.3112 19.9169C19.3852 19.9702 19.474 19.999 19.5652 19.9992C19.6104 19.9992 19.6565 19.9922 19.7026 19.9775C19.9304 19.9009 20.053 19.6549 19.9773 19.427ZM17.2696 17.3906L17.8261 15.722L18.3826 17.3906H17.2696ZM2.17455 14.782H3.91362C4.15361 14.782 4.3484 14.5872 4.3484 14.3472C4.3484 14.1073 4.15361 13.9125 3.91362 13.9125H2.17455C0.976346 13.9125 0.000732422 14.8872 0.000732422 16.0863V17.8254C0.000732422 19.0245 0.976346 19.9992 2.17455 19.9992H3.91362C4.15361 19.9992 4.3484 19.8044 4.3484 19.5644C4.3484 19.3244 4.15361 19.1296 3.91362 19.1296H2.17455C1.45543 19.1296 0.87025 18.5444 0.87025 17.8253V16.0862C0.87025 15.3672 1.45547 14.782 2.17455 14.782Z" fill="black"/>
</g>
<defs>
<clipPath id="clip0_3856_3052">
<rect width="20" height="20" fill="white"/>
</clipPath>
</defs>
</svg>
