<?xml version="1.0" encoding="UTF-8"?>
<svg width="1200pt" height="1200pt" version="1.1" viewBox="0 0 1200 1200" xmlns="http://www.w3.org/2000/svg">
 <g fill="#1f4dbb">
  <path d="m600 30c-314.3 0-570 255.7-570 570s255.7 570 570 570 570-255.7 570-570-255.7-570-570-570zm0 1080c-281.21 0-510-228.79-510-510s228.79-510 510-510 510 228.79 510 510-228.79 510-510 510z"/>
  <path d="m890.88 362.79-410.79 410.79-170.98-170.96c-11.719-11.719-30.703-11.719-42.422 0s-11.719 30.715 0 42.422l192.19 192.18c5.8594 5.8594 13.535 8.7891 21.211 8.7891s15.352-2.9297 21.211-8.7891l432-432c11.719-11.719 11.719-30.703 0-42.422s-30.703-11.719-42.422 0z"/>
 </g>
</svg>
