<svg width="20" height="20" viewBox="0 0 20 20" fill="none" xmlns="http://www.w3.org/2000/svg">
<g clip-path="url(#clip0_3531_2712)">
<path d="M18.75 7.8125C18.8329 7.8125 18.9124 7.77958 18.971 7.72097C19.0296 7.66237 19.0625 7.58288 19.0625 7.5V5C19.0625 4.91712 19.0296 4.83763 18.971 4.77903C18.9124 4.72042 18.8329 4.6875 18.75 4.6875H10.625C10.5421 4.6875 10.4626 4.72042 10.404 4.77903C10.3454 4.83763 10.3125 4.91712 10.3125 5V7.5C10.3125 7.58288 10.3454 7.66237 10.404 7.72097C10.4626 7.77958 10.5421 7.8125 10.625 7.8125H10.9375V8.4375H10.625C10.5421 8.4375 10.4626 8.47042 10.404 8.52903C10.3454 8.58763 10.3125 8.66712 10.3125 8.75V11.25C10.3125 11.3329 10.3454 11.4124 10.404 11.471C10.4626 11.5296 10.5421 11.5625 10.625 11.5625H10.9375V12.1875H10.625C10.5421 12.1875 10.4626 12.2204 10.404 12.279C10.3454 12.3376 10.3125 12.4171 10.3125 12.5V15C10.3125 15.0829 10.3454 15.1624 10.404 15.221C10.4626 15.2796 10.5421 15.3125 10.625 15.3125H18.75C18.8329 15.3125 18.9124 15.2796 18.971 15.221C19.0296 15.1624 19.0625 15.0829 19.0625 15V12.5C19.0625 12.4171 19.0296 12.3376 18.971 12.279C18.9124 12.2204 18.8329 12.1875 18.75 12.1875H18.4375V11.5625H18.75C18.8329 11.5625 18.9124 11.5296 18.971 11.471C19.0296 11.4124 19.0625 11.3329 19.0625 11.25V8.75C19.0625 8.66712 19.0296 8.58763 18.971 8.52903C18.9124 8.47042 18.8329 8.4375 18.75 8.4375H18.4375V7.8125H18.75ZM10.9375 5.3125H18.4375V7.1875H10.9375V5.3125ZM18.4375 14.6875H10.9375V12.8125H18.4375V14.6875ZM17.8125 12.1875H11.5625V11.5625H17.8125V12.1875ZM18.4375 10.9375H10.9375V9.0625H18.4375V10.9375ZM17.8125 8.4375H11.5625V7.8125H17.8125V8.4375Z" fill="black"/>
<path d="M11.875 6.5625H14.375C14.4579 6.5625 14.5374 6.52958 14.596 6.47097C14.6546 6.41237 14.6875 6.33288 14.6875 6.25C14.6875 6.16712 14.6546 6.08763 14.596 6.02903C14.5374 5.97042 14.4579 5.9375 14.375 5.9375H11.875C11.7921 5.9375 11.7126 5.97042 11.654 6.02903C11.5954 6.08763 11.5625 6.16712 11.5625 6.25C11.5625 6.33288 11.5954 6.41237 11.654 6.47097C11.7126 6.52958 11.7921 6.5625 11.875 6.5625Z" fill="black"/>
<path d="M17.5 6.5625C17.6726 6.5625 17.8125 6.42259 17.8125 6.25C17.8125 6.07741 17.6726 5.9375 17.5 5.9375C17.3274 5.9375 17.1875 6.07741 17.1875 6.25C17.1875 6.42259 17.3274 6.5625 17.5 6.5625Z" fill="black"/>
<path d="M14.375 9.6875H11.875C11.7921 9.6875 11.7126 9.72042 11.654 9.77903C11.5954 9.83763 11.5625 9.91712 11.5625 10C11.5625 10.0829 11.5954 10.1624 11.654 10.221C11.7126 10.2796 11.7921 10.3125 11.875 10.3125H14.375C14.4579 10.3125 14.5374 10.2796 14.596 10.221C14.6546 10.1624 14.6875 10.0829 14.6875 10C14.6875 9.91712 14.6546 9.83763 14.596 9.77903C14.5374 9.72042 14.4579 9.6875 14.375 9.6875Z" fill="black"/>
<path d="M17.5 10.3125C17.6726 10.3125 17.8125 10.1726 17.8125 10C17.8125 9.82741 17.6726 9.6875 17.5 9.6875C17.3274 9.6875 17.1875 9.82741 17.1875 10C17.1875 10.1726 17.3274 10.3125 17.5 10.3125Z" fill="black"/>
<path d="M14.375 13.4375H11.875C11.7921 13.4375 11.7126 13.4704 11.654 13.529C11.5954 13.5876 11.5625 13.6671 11.5625 13.75C11.5625 13.8329 11.5954 13.9124 11.654 13.971C11.7126 14.0296 11.7921 14.0625 11.875 14.0625H14.375C14.4579 14.0625 14.5374 14.0296 14.596 13.971C14.6546 13.9124 14.6875 13.8329 14.6875 13.75C14.6875 13.6671 14.6546 13.5876 14.596 13.529C14.5374 13.4704 14.4579 13.4375 14.375 13.4375Z" fill="black"/>
<path d="M17.5 14.0625C17.6726 14.0625 17.8125 13.9226 17.8125 13.75C17.8125 13.5774 17.6726 13.4375 17.5 13.4375C17.3274 13.4375 17.1875 13.5774 17.1875 13.75C17.1875 13.9226 17.3274 14.0625 17.5 14.0625Z" fill="black"/>
<path d="M5 13.75C5.86293 13.75 6.5625 13.0504 6.5625 12.1875C6.56184 11.0735 5.90371 10.0649 4.88438 9.61563C5.70891 8.98914 5.86941 7.81285 5.24293 6.98832C4.61645 6.16379 3.44016 6.00328 2.61562 6.62977C1.79109 7.25625 1.63059 8.43254 2.25707 9.25707C2.35981 9.39227 2.48043 9.51289 2.61562 9.61563C1.59629 10.0649 0.938164 11.0735 0.9375 12.1875C0.9375 13.0504 1.63707 13.75 2.5 13.75H5ZM2.5 8.125C2.5 7.43465 3.05965 6.875 3.75 6.875C4.44035 6.875 5 7.43465 5 8.125C5 8.81535 4.44035 9.375 3.75 9.375C3.05965 9.375 2.5 8.81535 2.5 8.125ZM1.5625 12.1875C1.5625 10.9794 2.54188 10 3.75 10C4.95813 10 5.9375 10.9794 5.9375 12.1875C5.9375 12.7053 5.51777 13.125 5 13.125H2.5C1.98223 13.125 1.5625 12.7053 1.5625 12.1875ZM16.4375 4L17.6875 3.0625C17.7538 3.01277 17.7976 2.93874 17.8094 2.85669C17.8211 2.77465 17.7997 2.6913 17.75 2.625C17.7003 2.5587 17.6262 2.51486 17.5442 2.50314C17.4621 2.49142 17.3788 2.51277 17.3125 2.5625L16.5625 3.125V2.5C16.5625 1.63707 15.8629 0.9375 15 0.9375H5C4.13707 0.9375 3.4375 1.63707 3.4375 2.5V4.375C3.4375 4.45788 3.47042 4.53737 3.52903 4.59597C3.58763 4.65458 3.66712 4.6875 3.75 4.6875C3.83288 4.6875 3.91237 4.65458 3.97097 4.59597C4.02958 4.53737 4.0625 4.45788 4.0625 4.375V2.5C4.0625 1.98223 4.48223 1.5625 5 1.5625H15C15.5178 1.5625 15.9375 1.98223 15.9375 2.5V3.125L15.1875 2.5625C15.1212 2.51277 15.0379 2.49142 14.9558 2.50314C14.8738 2.51486 14.7997 2.5587 14.75 2.625C14.7003 2.6913 14.6789 2.77465 14.6906 2.85669C14.7024 2.93874 14.7462 3.01277 14.8125 3.0625L16.0625 4C16.1186 4.03909 16.1855 4.05977 16.2539 4.05918C16.3196 4.0582 16.3836 4.0376 16.4375 4ZM3.56562 15.375L2.31562 16.3125C2.24926 16.3622 2.20535 16.4361 2.19353 16.5182C2.18171 16.6002 2.20297 16.6836 2.25262 16.7499C2.30227 16.8163 2.37625 16.8602 2.45828 16.872C2.54031 16.8838 2.62368 16.8626 2.69004 16.8129L2.69062 16.8125L3.4375 16.25V17.5C3.4375 18.3629 4.13707 19.0625 5 19.0625H15C15.8629 19.0625 16.5625 18.3629 16.5625 17.5V16.25C16.5625 16.1671 16.5296 16.0876 16.471 16.029C16.4124 15.9704 16.3329 15.9375 16.25 15.9375C16.1671 15.9375 16.0876 15.9704 16.029 16.029C15.9704 16.0876 15.9375 16.1671 15.9375 16.25V17.5C15.9375 18.0178 15.5178 18.4375 15 18.4375H5C4.48223 18.4375 4.0625 18.0178 4.0625 17.5V16.25L4.8125 16.8125C4.84533 16.8371 4.88268 16.8551 4.92244 16.8652C4.9622 16.8754 5.00357 16.8777 5.0442 16.8719C5.08483 16.8661 5.12391 16.8523 5.15923 16.8314C5.19454 16.8105 5.22538 16.7828 5.25 16.75C5.27462 16.7172 5.29254 16.6798 5.30272 16.6401C5.31291 16.6003 5.31516 16.5589 5.30936 16.5183C5.30356 16.4777 5.28981 16.4386 5.2689 16.4033C5.24799 16.368 5.22033 16.3371 5.1875 16.3125L3.9375 15.375C3.91918 15.36 3.85121 15.3081 3.75016 15.3086C3.65086 15.3091 3.58414 15.3598 3.56562 15.375Z" fill="black"/>
</g>
<defs>
<clipPath id="clip0_3531_2712">
<rect width="20" height="20" fill="white"/>
</clipPath>
</defs>
</svg>
