<svg xmlns="http://www.w3.org/2000/svg" width="24" height="24" viewBox="0 0 24 24" fill="none">
  <g clip-path="url(#clip0_3011_4213)">
    <path d="M14.73 0.0562542C14.0925 -0.173433 13.4288 0.290629 13.245 1.0875L8.44504 22.0875C8.26129 22.8844 8.63254 23.7141 9.27004 23.9438C9.90754 24.1734 10.5713 23.7094 10.755 22.9125L15.555 1.9125C15.7388 1.11563 15.3675 0.285942 14.73 0.0562542ZM17.7525 5.68594C17.2838 6.27188 17.2838 7.22344 17.7525 7.80938L21.1013 12L17.7488 16.1906C17.28 16.7766 17.28 17.7281 17.7488 18.3141C18.2175 18.9 18.9788 18.9 19.4475 18.3141L23.6475 13.0641C24.1163 12.4781 24.1163 11.5266 23.6475 10.9406L19.4475 5.69063C18.9788 5.10469 18.2175 5.10469 17.7488 5.69063L17.7525 5.68594ZM6.25129 5.68594C5.78254 5.1 5.02129 5.1 4.55254 5.68594L0.352539 10.9359C-0.116211 11.5219 -0.116211 12.4734 0.352539 13.0594L4.55254 18.3094C5.02129 18.8953 5.78254 18.8953 6.25129 18.3094C6.72004 17.7234 6.72004 16.7719 6.25129 16.1859L2.89879 12L6.25129 7.80938C6.72004 7.22344 6.72004 6.27188 6.25129 5.68594Z" fill="#495057"/>
  </g>
  <defs>
    <clipPath id="clip0_3011_4213">
      <rect width="24" height="24" fill="white"/>
    </clipPath>
  </defs>
</svg>