<svg width="20" height="20" viewBox="0 0 20 20" fill="none" xmlns="http://www.w3.org/2000/svg">
<g clip-path="url(#clip0_3852_2287)">
<path d="M19.1797 16.0938V16.9727C19.1797 17.6199 18.6551 18.1445 18.0078 18.1445H1.99219C1.34492 18.1445 0.820312 17.6199 0.820312 16.9727V8.37891M19.1797 15.5078V8.37891M14.9023 8.37891H5.09766M3.26172 3.65234H18.5352C19.1824 3.65234 19.707 4.17695 19.707 4.82422V8.37891H16.8555M2.67578 3.65234H1.46484C0.817578 3.65234 0.292969 4.17695 0.292969 4.82422V8.37891H3.14453M2.38281 19.1211V18.1445H4.72656V19.1211C4.72656 19.4447 4.46422 19.707 4.14062 19.707H2.96875C2.64516 19.707 2.38281 19.4447 2.38281 19.1211ZM15.2734 19.1211V18.1445H17.6172V19.1211C17.6172 19.4447 17.3548 19.707 17.0312 19.707H15.8594C15.5358 19.707 15.2734 19.4447 15.2734 19.1211Z" stroke="black" stroke-miterlimit="10"/>
<path d="M6.54039 15.8008L4.04039 13.457L6.54039 11.1133M13.4596 11.1133L15.9596 13.457L13.4596 15.8008M7.91016 15.8008L12.4046 11.3063M9.12109 6.01562H9.70703M10.293 6.01562H10.8789M4.12109 10.1631C3.58176 10.1631 3.14453 9.7259 3.14453 9.18656V6.60613H5.09766V9.18656C5.09766 9.72594 4.66043 10.1631 4.12109 10.1631ZM15.8789 10.1631C15.3396 10.1631 14.9023 9.7259 14.9023 9.18656V6.60613H16.8555V9.18656C16.8555 9.72594 16.4182 10.1631 15.8789 10.1631ZM5.19703 3.41797V3.65234H7.15016V3.22266C7.15016 2.57543 7.6748 2.05078 8.32203 2.05078H11.678C12.3252 2.05078 12.8498 2.57543 12.8498 3.22266V3.65234H14.803V3.41797C14.803 1.69207 13.4039 0.292969 11.678 0.292969H8.32203C6.59613 0.292969 5.19703 1.69207 5.19703 3.41797Z" stroke="black" stroke-miterlimit="10"/>
</g>
<defs>
<clipPath id="clip0_3852_2287">
<rect width="20" height="20" fill="white"/>
</clipPath>
</defs>
</svg>
