<svg width="20" height="20" viewBox="0 0 20 20" fill="none" xmlns="http://www.w3.org/2000/svg">
<g clip-path="url(#clip0_3852_2304)">
<path d="M19.6875 8.125V1.25C19.6875 0.733125 19.2669 0.3125 18.75 0.3125H6.875C6.35813 0.3125 5.9375 0.733125 5.9375 1.25V2.82344C5.83348 2.81633 5.72926 2.81268 5.625 2.8125C2.69563 2.8125 0.3125 5.19563 0.3125 8.125C0.3125 10.6231 2.04781 12.7184 4.375 13.2828V14.375C4.375 14.5428 4.42281 14.6981 4.50031 14.8347C4.36655 14.9187 4.25625 15.0353 4.17969 15.1735C4.10314 15.3117 4.06282 15.467 4.0625 15.625V18.125C4.0625 18.9866 4.76344 19.6875 5.625 19.6875C6.48656 19.6875 7.1875 18.9866 7.1875 18.125V15.625C7.18718 15.467 7.14687 15.3117 7.07031 15.1735C6.99375 15.0353 6.88345 14.9187 6.74969 14.8347C6.82719 14.6981 6.875 14.5428 6.875 14.375V13.2828C8.13054 12.9762 9.23163 12.2232 9.97281 11.1644L10.2044 11.6144C10.0912 11.8359 9.995 12.0691 9.91719 12.3109L9.0625 12.5847V14.9156L9.91687 15.1894C9.99469 15.4316 10.0909 15.6647 10.2041 15.8859L9.79406 16.6825L11.4422 18.3306L12.2388 17.9206C12.4603 18.0338 12.6934 18.13 12.9353 18.2078L13.2097 19.0625H15.5406L15.8144 18.2081C16.0539 18.1313 16.2868 18.0352 16.5109 17.9209L17.3075 18.3309L18.9553 16.6828L18.5456 15.8862C18.6588 15.665 18.755 15.4316 18.8328 15.1897L19.6875 14.9153V12.5844L18.8331 12.3106C18.7562 12.0711 18.6602 11.8382 18.5459 11.6141L18.9556 10.8175L17.3078 9.16937L16.5112 9.57937C16.2894 9.46594 16.0562 9.37 15.8147 9.29219L15.7406 9.0625H18.75C19.2669 9.0625 19.6875 8.64188 19.6875 8.125ZM6.875 9.0625H8.92688C8.51437 10.5309 7.18156 11.5625 5.625 11.5625C3.72969 11.5625 2.1875 10.0203 2.1875 8.125C2.1875 6.22969 3.72969 4.6875 5.625 4.6875C5.725 4.6875 5.82937 4.69438 5.9375 4.70531V8.125C5.9375 8.64188 6.35813 9.0625 6.875 9.0625ZM6.5625 18.125C6.5625 18.6419 6.14187 19.0625 5.625 19.0625C5.10813 19.0625 4.6875 18.6419 4.6875 18.125V15.625C4.6875 15.5421 4.72042 15.4626 4.77903 15.404C4.83763 15.3454 4.91712 15.3125 5 15.3125H6.25C6.33288 15.3125 6.41237 15.3454 6.47097 15.404C6.52958 15.4626 6.5625 15.5421 6.5625 15.625V18.125ZM6.25 14.375C6.25 14.4579 6.21708 14.5374 6.15847 14.596C6.09987 14.6546 6.02038 14.6875 5.9375 14.6875H5.3125C5.22962 14.6875 5.15013 14.6546 5.09153 14.596C5.03292 14.5374 5 14.4579 5 14.375V13.3975C5.20531 13.4216 5.41313 13.4375 5.625 13.4375C5.83656 13.4375 6.04437 13.4206 6.25 13.3962V14.375ZM5.625 12.8125C3.04031 12.8125 0.9375 10.7097 0.9375 8.125C0.9375 5.54031 3.04031 3.4375 5.625 3.4375C5.72406 3.4375 5.82812 3.4425 5.9375 3.45094V4.07656C5.83357 4.06763 5.72931 4.06294 5.625 4.0625C3.385 4.0625 1.5625 5.885 1.5625 8.125C1.5625 10.365 3.385 12.1875 5.625 12.1875C6.53916 12.1894 7.42699 11.8814 8.14366 11.3139C8.86033 10.7464 9.36355 9.95276 9.57125 9.0625H10.2109C9.7725 11.2231 7.86188 12.8125 5.625 12.8125ZM10.8444 9.0625H13.0091L12.9356 9.29187C12.6941 9.36969 12.4606 9.46562 12.2391 9.57906L11.4425 9.16906L10.5719 10.0397C10.6928 9.72781 10.7841 9.40125 10.8444 9.0625ZM15.32 9.79875L15.4816 9.84438C15.786 9.92981 16.0794 10.0507 16.3556 10.2047L16.5019 10.2866L17.1878 9.93375L18.1912 10.9372L17.8384 11.6228L17.9203 11.7694C18.0743 12.0456 18.1952 12.339 18.2806 12.6434L18.3263 12.805L19.0625 13.0403V14.4594L18.3263 14.695L18.2806 14.8566C18.1931 15.1659 18.0719 15.46 17.9206 15.7306L17.8384 15.8769L18.1912 16.5628L17.1878 17.5666L16.5022 17.2134L16.3556 17.2953C16.0847 17.4469 15.7906 17.5684 15.4816 17.6559L15.32 17.7016L15.0847 18.4375H13.6656L13.43 17.7013L13.2684 17.6556C12.9591 17.5681 12.665 17.4469 12.3944 17.2956L12.2481 17.2134L11.5622 17.5666L10.5584 16.5628L10.9116 15.8769L10.8294 15.7306C10.6756 15.4543 10.5547 15.161 10.4691 14.8566L10.4234 14.695L9.6875 14.4597V13.0406L10.4237 12.805L10.4694 12.6434C10.5569 12.3341 10.6781 12.04 10.8294 11.7694L10.9116 11.6231L10.5584 10.9372L11.5622 9.93375L12.2481 10.2866L12.3944 10.2047C12.6705 10.0506 12.9639 9.92967 13.2684 9.84438L13.43 9.79875L13.6653 9.0625H15.0844L15.32 9.79875ZM13.2097 8.4375H6.875C6.7025 8.4375 6.5625 8.29719 6.5625 8.125V1.25C6.5625 1.07781 6.7025 0.9375 6.875 0.9375H18.75C18.9225 0.9375 19.0625 1.07781 19.0625 1.25V8.125C19.0625 8.29719 18.9225 8.4375 18.75 8.4375H15.5403H13.2097Z" fill="black"/>
<path d="M16.875 1.5625C16.0134 1.5625 15.3125 2.26344 15.3125 3.125C15.3125 3.3 15.3481 3.46563 15.4012 3.62281L14.0119 4.43344C13.896 4.31591 13.7579 4.2226 13.6057 4.15892C13.4534 4.09524 13.29 4.06246 13.125 4.0625C12.8237 4.0625 12.5509 4.17375 12.335 4.35187L10.8478 3.27031C10.9064 3.12475 10.9368 2.9694 10.9375 2.8125C10.9375 2.12312 10.3769 1.5625 9.6875 1.5625C8.99813 1.5625 8.4375 2.12312 8.4375 2.8125C8.43786 3.01118 8.4857 3.20689 8.57702 3.38334C8.66834 3.55978 8.80051 3.71185 8.9625 3.82688L8.14969 5.94C8.14125 5.93969 8.13344 5.9375 8.125 5.9375C7.60813 5.9375 7.1875 6.35813 7.1875 6.875C7.1875 7.39187 7.60813 7.8125 8.125 7.8125C8.64187 7.8125 9.0625 7.39187 9.0625 6.875C9.06207 6.74003 9.03231 6.60677 8.97527 6.48445C8.91824 6.36212 8.83529 6.25366 8.73219 6.16656L9.54719 4.04813C9.59375 4.05375 9.63938 4.0625 9.6875 4.0625C9.97655 4.06126 10.256 3.95889 10.4775 3.77313L11.9647 4.85469C11.9061 5.00025 11.8757 5.1556 11.875 5.3125C11.875 6.00187 12.4356 6.5625 13.125 6.5625C13.8144 6.5625 14.375 6.00187 14.375 5.3125C14.375 5.195 14.3534 5.08344 14.3231 4.97531L15.7159 4.16281C16.0022 4.48219 16.4134 4.6875 16.875 4.6875C17.7366 4.6875 18.4375 3.98656 18.4375 3.125C18.4375 2.26344 17.7366 1.5625 16.875 1.5625ZM8.125 7.1875C8.04454 7.1839 7.96856 7.1494 7.9129 7.09119C7.85723 7.03298 7.82617 6.95554 7.82617 6.875C7.82617 6.79446 7.85723 6.71702 7.9129 6.65881C7.96856 6.6006 8.04454 6.5661 8.125 6.5625C8.20546 6.5661 8.28144 6.6006 8.3371 6.65881C8.39277 6.71702 8.42383 6.79446 8.42383 6.875C8.42383 6.95554 8.39277 7.03298 8.3371 7.09119C8.28144 7.1494 8.20546 7.1839 8.125 7.1875ZM9.6875 3.4375C9.34281 3.4375 9.0625 3.15719 9.0625 2.8125C9.0625 2.46781 9.34281 2.1875 9.6875 2.1875C10.0322 2.1875 10.3125 2.46781 10.3125 2.8125C10.3125 3.15719 10.0322 3.4375 9.6875 3.4375ZM13.125 5.9375C12.7803 5.9375 12.5 5.65719 12.5 5.3125C12.5 4.96781 12.7803 4.6875 13.125 4.6875C13.4697 4.6875 13.75 4.96781 13.75 5.3125C13.75 5.65719 13.4697 5.9375 13.125 5.9375ZM16.875 4.0625C16.3581 4.0625 15.9375 3.64188 15.9375 3.125C15.9375 2.60812 16.3581 2.1875 16.875 2.1875C17.3919 2.1875 17.8125 2.60812 17.8125 3.125C17.8125 3.64188 17.3919 4.0625 16.875 4.0625ZM15.3125 7.1875H15.9375V7.8125H15.3125V7.1875ZM16.5625 7.1875H17.1875V7.8125H16.5625V7.1875ZM17.8125 7.1875H18.4375V7.8125H17.8125V7.1875ZM15.3125 5.9375H18.4375V6.5625H15.3125V5.9375ZM3.4375 8.125H2.8125C2.8125 9.67562 4.07406 10.9375 5.625 10.9375V10.3125C4.41906 10.3125 3.4375 9.33125 3.4375 8.125ZM16.5625 13.75H15.9375C15.9375 14.6116 15.2366 15.3125 14.375 15.3125V15.9375C15.5809 15.9375 16.5625 14.9559 16.5625 13.75Z" fill="black"/>
<path d="M10.9375 13.75C10.9375 15.6453 12.4797 17.1875 14.375 17.1875C16.2703 17.1875 17.8125 15.6453 17.8125 13.75C17.8125 11.8547 16.2703 10.3125 14.375 10.3125C12.4797 10.3125 10.9375 11.8547 10.9375 13.75ZM14.375 10.9375C15.9259 10.9375 17.1875 12.1991 17.1875 13.75C17.1875 15.3009 15.9259 16.5625 14.375 16.5625C12.8241 16.5625 11.5625 15.3009 11.5625 13.75C11.5625 12.1991 12.8241 10.9375 14.375 10.9375Z" fill="black"/>
</g>
<defs>
<clipPath id="clip0_3852_2304">
<rect width="20" height="20" fill="white"/>
</clipPath>
</defs>
</svg>
