<svg width="20" height="20" viewBox="0 0 20 20" fill="none" xmlns="http://www.w3.org/2000/svg">
<path d="M1.875 8.125C2.04076 8.125 2.19973 8.05915 2.31694 7.94194C2.43415 7.82473 2.5 7.66576 2.5 7.5V3.3875L7.05625 7.94375C7.11435 8.00233 7.18348 8.04883 7.25964 8.08056C7.3358 8.11229 7.41749 8.12862 7.5 8.12862C7.58251 8.12862 7.6642 8.11229 7.74036 8.08056C7.81652 8.04883 7.88565 8.00233 7.94375 7.94375C8.06016 7.82665 8.1255 7.66824 8.1255 7.50313C8.1255 7.33801 8.06016 7.1796 7.94375 7.0625L3.38125 2.5H7.5C7.66576 2.5 7.82473 2.43415 7.94194 2.31694C8.05915 2.19973 8.125 2.04076 8.125 1.875C8.125 1.70924 8.05915 1.55027 7.94194 1.43306C7.82473 1.31585 7.66576 1.25 7.5 1.25H2.5C2.16848 1.25 1.85054 1.3817 1.61612 1.61612C1.3817 1.85054 1.25 2.16848 1.25 2.5V7.5C1.25 7.66576 1.31585 7.82473 1.43306 7.94194C1.55027 8.05915 1.70924 8.125 1.875 8.125ZM2.5 18.75H7.5C7.66576 18.75 7.82473 18.6842 7.94194 18.5669C8.05915 18.4497 8.125 18.2908 8.125 18.125C8.125 17.9592 8.05915 17.8003 7.94194 17.6831C7.82473 17.5658 7.66576 17.5 7.5 17.5H3.38125L7.94375 12.9437C8.06016 12.8266 8.1255 12.6682 8.1255 12.5031C8.1255 12.338 8.06016 12.1796 7.94375 12.0625C7.88565 12.0039 7.81652 11.9574 7.74036 11.9257C7.6642 11.894 7.58251 11.8776 7.5 11.8776C7.41749 11.8776 7.3358 11.894 7.25964 11.9257C7.18348 11.9574 7.11435 12.0039 7.05625 12.0625L2.5 16.6187V12.5C2.5 12.3342 2.43415 12.1753 2.31694 12.0581C2.19973 11.9408 2.04076 11.875 1.875 11.875C1.70924 11.875 1.55027 11.9408 1.43306 12.0581C1.31585 12.1753 1.25 12.3342 1.25 12.5V17.5C1.25 17.8315 1.3817 18.1495 1.61612 18.3839C1.85054 18.6183 2.16848 18.75 2.5 18.75ZM17.5 1.25H12.5C12.3342 1.25 12.1753 1.31585 12.0581 1.43306C11.9408 1.55027 11.875 1.70924 11.875 1.875C11.875 2.04076 11.9408 2.19973 12.0581 2.31694C12.1753 2.43415 12.3342 2.5 12.5 2.5H16.6187L12.0563 7.0625C11.9398 7.1796 11.8745 7.33801 11.8745 7.50313C11.8745 7.66824 11.9398 7.82665 12.0563 7.94375C12.1144 8.00233 12.1835 8.04883 12.2596 8.08056C12.3358 8.11229 12.4175 8.12862 12.5 8.12862C12.5825 8.12862 12.6642 8.11229 12.7404 8.08056C12.8165 8.04883 12.8856 8.00233 12.9437 7.94375L17.5 3.3875V7.5C17.5 7.66576 17.5658 7.82473 17.6831 7.94194C17.8003 8.05915 17.9592 8.125 18.125 8.125C18.2908 8.125 18.4497 8.05915 18.5669 7.94194C18.6842 7.82473 18.75 7.66576 18.75 7.5V2.5C18.75 2.16848 18.6183 1.85054 18.3839 1.61612C18.1495 1.3817 17.8315 1.25 17.5 1.25ZM18.125 11.875C17.9592 11.875 17.8003 11.9408 17.6831 12.0581C17.5658 12.1753 17.5 12.3342 17.5 12.5V16.6187L12.9437 12.0625C12.8856 12.0039 12.8165 11.9574 12.7404 11.9257C12.6642 11.894 12.5825 11.8776 12.5 11.8776C12.4175 11.8776 12.3358 11.894 12.2596 11.9257C12.1835 11.9574 12.1144 12.0039 12.0563 12.0625C11.9398 12.1796 11.8745 12.338 11.8745 12.5031C11.8745 12.6682 11.9398 12.8266 12.0563 12.9437L16.6187 17.5H12.5C12.3342 17.5 12.1753 17.5658 12.0581 17.6831C11.9408 17.8003 11.875 17.9592 11.875 18.125C11.875 18.2908 11.9408 18.4497 12.0581 18.5669C12.1753 18.6842 12.3342 18.75 12.5 18.75H17.5C17.8315 18.75 18.1495 18.6183 18.3839 18.3839C18.6183 18.1495 18.75 17.8315 18.75 17.5V12.5C18.75 12.3342 18.6842 12.1753 18.5669 12.0581C18.4497 11.9408 18.2908 11.875 18.125 11.875Z" fill="black"/>
</svg>
