<svg width="20" height="20" viewBox="0 0 20 20" fill="none" xmlns="http://www.w3.org/2000/svg">
<path d="M7.5 2.5H5.83333C4 2.5 2.5 4 2.5 5.83333V7.5C2.5 8 2.83333 8.33333 3.33333 8.33333C3.83333 8.33333 4.16667 8 4.16667 7.5V5.83333C4.16667 4.91667 4.91667 4.16667 5.83333 4.16667H7.5C8 4.16667 8.33333 3.83333 8.33333 3.33333C8.33333 2.83333 8 2.5 7.5 2.5ZM14.1667 2.5H12.5C12 2.5 11.6667 2.83333 11.6667 3.33333C11.6667 3.83333 12 4.16667 12.5 4.16667H14.1667C15.0833 4.16667 15.8333 4.91667 15.8333 5.83333V7.5C15.8333 8 16.1667 8.33333 16.6667 8.33333C17.1667 8.33333 17.5 8 17.5 7.5V5.83333C17.5 4 16 2.5 14.1667 2.5ZM7.5 15.8333H5.83333C4.91667 15.8333 4.16667 15.0833 4.16667 14.1667V12.5C4.16667 12 3.83333 11.6667 3.33333 11.6667C2.83333 11.6667 2.5 12 2.5 12.5V14.1667C2.5 16 4 17.5 5.83333 17.5H7.5C8 17.5 8.33333 17.1667 8.33333 16.6667C8.33333 16.1667 8 15.8333 7.5 15.8333ZM16.6667 11.6667C16.1667 11.6667 15.8333 12 15.8333 12.5V14.1667C15.8333 15.0833 15.0833 15.8333 14.1667 15.8333H12.5C12 15.8333 11.6667 16.1667 11.6667 16.6667C11.6667 17.1667 12 17.5 12.5 17.5H14.1667C16 17.5 17.5 16 17.5 14.1667V12.5C17.5 12 17.1667 11.6667 16.6667 11.6667Z" fill="black"/>
</svg>
