<svg width="20" height="20" viewBox="0 0 20 20" fill="none" xmlns="http://www.w3.org/2000/svg">
<g clip-path="url(#clip0_3860_3280)">
<path d="M17.9167 18.3333H2.08333C1.531 18.3326 1.00148 18.1129 0.610925 17.7224C0.220367 17.3318 0.000661607 16.8023 0 16.25L0 3.74996C0 2.60079 0.935 1.66663 2.08333 1.66663H17.9167C19.065 1.66663 20 2.60079 20 3.74996V16.25C20 17.3991 19.065 18.3333 17.9167 18.3333ZM2.08333 2.49996C1.39417 2.49996 0.833333 3.06079 0.833333 3.74996V16.25C0.833333 16.9391 1.39417 17.5 2.08333 17.5H17.9167C18.6058 17.5 19.1667 16.9391 19.1667 16.25V3.74996C19.1667 3.06079 18.6058 2.49996 17.9167 2.49996H2.08333Z" fill="black"/>
<path d="M2.91667 8.33329C2.80616 8.33329 2.70018 8.28939 2.62204 8.21125C2.5439 8.13311 2.5 8.02713 2.5 7.91663V6.24996C2.5 5.10079 3.435 4.16663 4.58333 4.16663H6.25C6.36051 4.16663 6.46649 4.21052 6.54463 4.28866C6.62277 4.36681 6.66667 4.47279 6.66667 4.58329C6.66667 4.6938 6.62277 4.79978 6.54463 4.87792C6.46649 4.95606 6.36051 4.99996 6.25 4.99996H4.58333C3.89417 4.99996 3.33333 5.56079 3.33333 6.24996V7.91663C3.33333 8.02713 3.28943 8.13311 3.21129 8.21125C3.13315 8.28939 3.02717 8.33329 2.91667 8.33329ZM15.4167 15.8333H13.75C13.6395 15.8333 13.5335 15.7894 13.4554 15.7113C13.3772 15.6331 13.3333 15.5271 13.3333 15.4166C13.3333 15.3061 13.3772 15.2001 13.4554 15.122C13.5335 15.0439 13.6395 15 13.75 15H15.4167C16.1058 15 16.6667 14.4391 16.6667 13.75V12.0833C16.6667 11.9728 16.7106 11.8668 16.7887 11.7887C16.8668 11.7105 16.9728 11.6666 17.0833 11.6666C17.1938 11.6666 17.2998 11.7105 17.378 11.7887C17.4561 11.8668 17.5 11.9728 17.5 12.0833V13.75C17.5 14.8991 16.565 15.8333 15.4167 15.8333Z" fill="black"/>
</g>
<defs>
<clipPath id="clip0_3860_3280">
<rect width="20" height="20" fill="white"/>
</clipPath>
</defs>
</svg>
