<svg width="20" height="20" viewBox="0 0 20 20" fill="none" xmlns="http://www.w3.org/2000/svg">
<g clip-path="url(#clip0_3490_3075)">
<path d="M2.66659 16H11.9999C12.7363 16 13.3333 15.403 13.3333 14.6667V3.33333C13.3332 3.24494 13.2981 3.16017 13.2356 3.09767L10.2356 0.0976667C10.1731 0.0351541 10.0883 2.34548e-05 9.99992 0L2.66659 0C1.93025 0 1.33325 0.597 1.33325 1.33333V14.6667C1.33325 15.403 1.93025 16 2.66659 16ZM1.99992 1.33333C1.99992 0.965167 2.29842 0.666667 2.66659 0.666667H9.86192L12.6666 3.47138V14.6667C12.6666 15.0348 12.3681 15.3333 11.9999 15.3333H2.66659C2.29842 15.3333 1.99992 15.0348 1.99992 14.6667V1.33333Z" fill="black"/>
<path d="M3.33333 14.3334H11.3333C11.4217 14.3334 11.5065 14.2982 11.569 14.2357C11.6315 14.1732 11.6667 14.0884 11.6667 14V7.33335C11.6667 7.24495 11.6315 7.16016 11.569 7.09765C11.5065 7.03514 11.4217 7.00002 11.3333 7.00002H3.33333C3.24493 7.00002 3.16014 7.03514 3.09763 7.09765C3.03512 7.16016 3 7.24495 3 7.33335V14C3 14.0884 3.03512 14.1732 3.09763 14.2357C3.16014 14.2982 3.24493 14.3334 3.33333 14.3334ZM3.66667 11.6667H5V13.6667H3.66667V11.6667ZM7.66667 9.33335V7.66669H9V11H3.66667V9.66669H7.33333C7.42174 9.66669 7.50652 9.63157 7.56904 9.56906C7.63155 9.50655 7.66667 9.42176 7.66667 9.33335ZM7 11.6667V13.6667H5.66667V11.6667H7ZM7.66667 11.6667H9V13.6667H7.66667V11.6667ZM11 13.6667H9.66667V7.66669H11V13.6667ZM7 7.66669V9.00002H3.66667V7.66669H7ZM3 1.66669H3.66667V2.33335H3V1.66669ZM4.33333 1.66669H6.66667V2.33335H4.33333V1.66669ZM3 3.00002H7.66667V3.66669H3V3.00002Z" fill="black"/>
<path d="M18.0001 7.47138V18.6667C18.0001 19.0348 17.7016 19.3333 17.3334 19.3333H8.00008C7.63191 19.3333 7.33341 19.0348 7.33341 18.6667V16.6667H6.66675V18.6667C6.66675 19.403 7.26375 20 8.00008 20H17.3334C18.0697 20 18.6667 19.403 18.6667 18.6667V7.33333C18.6667 7.24494 18.6316 7.16017 18.5691 7.09767L15.5691 4.09767C15.5066 4.03515 15.4218 4.00002 15.3334 4H14.0001V4.66667H15.1954L18.0001 7.47138Z" fill="black"/>
<path d="M14.6667 17.6667H13V16.6667H12.3333V17.6667H11V16.6667H10.3333V17.6667H9V16.6667H8.33333V18C8.33333 18.0884 8.36845 18.1732 8.43096 18.2357C8.49348 18.2982 8.57826 18.3334 8.66667 18.3334H16.6667C16.7551 18.3334 16.8399 18.2982 16.9024 18.2357C16.9649 18.1732 17 18.0884 17 18V11.3334C17 11.2449 16.9649 11.1602 16.9024 11.0977C16.8399 11.0351 16.7551 11 16.6667 11H14V11.6667H14.6667V15H14V15.6667H14.6667V17.6667ZM16.3333 11.6667V17.6667H15.3333V11.6667H16.3333ZM19.3333 11H20V17.3334H19.3333V11ZM19.3333 18H20V18.6667H19.3333V18ZM0 1.66669H0.666667V11.3334H0V1.66669Z" fill="black"/>
</g>
<defs>
<clipPath id="clip0_3490_3075">
<rect width="20" height="20" fill="white"/>
</clipPath>
</defs>
</svg>
