<svg width="20" height="20" viewBox="0 0 20 20" fill="none" xmlns="http://www.w3.org/2000/svg">
<path d="M7.32086 16.9639C7.32086 17.2527 7.0868 17.4867 6.79809 17.4867C6.50938 17.4867 6.27531 17.2527 6.27531 16.9639C6.27531 16.6752 6.50941 16.4412 6.79809 16.4412C7.08676 16.4412 7.32086 16.6753 7.32086 16.9639ZM11.0997 18.4308C11.0997 18.7195 10.8656 18.9536 10.577 18.9536C10.2883 18.9536 10.0542 18.7195 10.0542 18.4308C10.0542 18.1421 10.2882 17.908 10.577 17.908C10.8657 17.908 11.0997 18.1421 11.0997 18.4308ZM15.3679 14.3349C15.0792 14.3349 14.845 14.5689 14.845 14.8576C14.845 15.1463 15.079 15.3804 15.3679 15.3804C15.6566 15.3804 15.8907 15.1463 15.8907 14.8576C15.8907 14.5689 15.6566 14.3349 15.3679 14.3349ZM14.8451 17.7096C14.5563 17.7096 14.3223 17.9436 14.3223 18.2324C14.3223 18.5211 14.5563 18.7552 14.8451 18.7552C15.1338 18.7552 15.3679 18.5211 15.3679 18.2324C15.3679 17.9436 15.1338 17.7096 14.8451 17.7096ZM18.8111 16.2082C18.8111 16.4969 18.5771 16.7309 18.2883 16.7309C17.9996 16.7309 17.7655 16.4969 17.7655 16.2082C17.7655 15.9195 17.9996 15.6854 18.2883 15.6854C18.5771 15.6854 18.8111 15.9195 18.8111 16.2082ZM19.4772 12.8214C19.1884 12.8214 18.9545 13.0554 18.9545 13.3443C18.9545 13.6329 19.1884 13.867 19.4772 13.867C19.7659 13.867 20 13.633 20 13.3443C20 13.0554 19.7659 12.8214 19.4772 12.8214ZM14.3222 12.4355C14.3222 12.7241 14.5563 12.9582 14.845 12.9582C15.1338 12.9582 15.3679 12.7241 15.3679 12.4355C15.3679 12.1466 15.1338 11.9127 14.845 11.9127C14.5563 11.9127 14.3222 12.1466 14.3222 12.4355ZM14.8451 5.3325C15.1338 5.3325 15.3679 5.09844 15.3679 4.80973C15.3679 4.52102 15.1338 4.28695 14.8451 4.28695C14.5563 4.28695 14.3223 4.52102 14.3223 4.80973C14.3223 5.09844 14.5563 5.3325 14.8451 5.3325ZM8.70195 0.522773C8.70195 0.811445 8.46785 1.04555 8.17918 1.04555C7.89051 1.04555 7.65641 0.811445 7.65641 0.522773C7.65641 0.234102 7.89047 0 8.17918 0C8.46789 0 8.70195 0.234063 8.70195 0.522773ZM18.2883 2.92773C18.2883 3.21641 18.0542 3.45047 17.7655 3.45047C17.4768 3.45047 17.2427 3.21641 17.2427 2.9277C17.2427 2.63887 17.4768 2.40492 17.7655 2.40492C18.0542 2.40492 18.2883 2.63891 18.2883 2.92773ZM12.7815 1.04555C12.7815 1.33422 12.5475 1.56828 12.2587 1.56828C11.97 1.56828 11.736 1.33422 11.736 1.04555C11.736 0.756875 11.9701 0.522773 12.2587 0.522773C12.5474 0.522773 12.7815 0.756836 12.7815 1.04555ZM6.27531 3.76418C6.27531 4.05285 6.04125 4.28695 5.75258 4.28695C5.46371 4.28695 5.2298 4.05289 5.2298 3.76418C5.2298 3.47547 5.46371 3.24141 5.75258 3.24141C6.04125 3.24141 6.27531 3.47551 6.27531 3.76418ZM3.2434 7.50367H10.2127C11.2614 7.50367 12.1146 6.65055 12.1146 5.6018C12.1146 4.5532 11.2614 3.69996 10.2127 3.69996C9.16414 3.69996 8.31086 4.55324 8.31086 5.6018C8.3102 5.64325 8.3178 5.68442 8.33321 5.72291C8.34862 5.7614 8.37154 5.79644 8.40062 5.82598C8.4297 5.85553 8.46438 5.87899 8.50262 5.89501C8.54086 5.91103 8.5819 5.91928 8.62336 5.91928C8.66482 5.91928 8.70586 5.91103 8.7441 5.89501C8.78234 5.87899 8.81701 5.85553 8.8461 5.82598C8.87518 5.79644 8.8981 5.7614 8.91351 5.72291C8.92892 5.68442 8.93651 5.64325 8.93586 5.6018C8.93586 4.89777 9.50867 4.32512 10.2127 4.32512C10.9168 4.32512 11.4896 4.89777 11.4896 5.6018C11.4896 6.30582 10.9168 6.87867 10.2127 6.87867H3.2434C3.16052 6.87867 3.08103 6.9116 3.02243 6.9702C2.96382 7.02881 2.9309 7.10829 2.9309 7.19117C2.9309 7.27405 2.96382 7.35354 3.02243 7.41214C3.08103 7.47075 3.16052 7.50367 3.2434 7.50367ZM10.2127 12.5089H3.2434C3.16052 12.5089 3.08103 12.5418 3.02243 12.6004C2.96382 12.659 2.9309 12.7385 2.9309 12.8214C2.93089 12.8624 2.93896 12.9031 2.95466 12.941C2.97036 12.9789 2.99338 13.0134 3.0224 13.0424C3.05142 13.0714 3.08587 13.0945 3.12379 13.1102C3.16171 13.1259 3.20235 13.134 3.2434 13.134H10.2127C10.9168 13.134 11.4896 13.7066 11.4896 14.4107C11.4896 15.1148 10.9168 15.6876 10.2127 15.6876C9.50867 15.6876 8.93586 15.1148 8.93586 14.4107C8.93586 14.3278 8.90294 14.2483 8.84433 14.1897C8.78573 14.1311 8.70624 14.0982 8.62336 14.0982C8.54048 14.0982 8.46099 14.1311 8.40239 14.1897C8.34378 14.2483 8.31086 14.3278 8.31086 14.4107C8.31086 15.4595 9.16414 16.3126 10.2127 16.3126C11.2614 16.3126 12.1146 15.4595 12.1146 14.4107C12.1146 13.3621 11.2614 12.5089 10.2127 12.5089ZM19.6817 8.41676C19.6817 7.36816 18.8284 6.51488 17.7798 6.51488C16.7311 6.51488 15.878 7.36816 15.878 8.41676C15.8774 8.45821 15.885 8.49938 15.9004 8.53787C15.9158 8.57636 15.9387 8.6114 15.9678 8.64094C15.9969 8.67049 16.0315 8.69396 16.0698 8.70997C16.108 8.72599 16.149 8.73424 16.1905 8.73424C16.232 8.73424 16.273 8.72599 16.3113 8.70997C16.3495 8.69396 16.3842 8.67049 16.4132 8.64094C16.4423 8.6114 16.4652 8.57636 16.4807 8.53787C16.4961 8.49938 16.5037 8.45821 16.503 8.41676C16.503 7.7127 17.0758 7.14004 17.7798 7.14004C18.4839 7.14004 19.0566 7.7127 19.0566 8.41676C19.0566 9.12082 18.4839 9.69359 17.7798 9.69359H0.3125C0.22962 9.69359 0.150134 9.72652 0.0915291 9.78512C0.032924 9.84373 0 9.92321 0 10.0061C0 10.089 0.032924 10.1685 0.0915291 10.2271C0.150134 10.2857 0.22962 10.3186 0.3125 10.3186H17.7798C18.8284 10.3186 19.6817 9.46547 19.6817 8.41676Z" fill="black"/>
</svg>
