<svg width="20" height="20" viewBox="0 0 20 20" fill="none" xmlns="http://www.w3.org/2000/svg">
<path d="M11.5355 19H8.46068C7.77244 19 7.21244 18.44 7.21244 17.7518V14.7994L4.67172 16.2662C4.383 16.433 4.04712 16.4773 3.72456 16.3909C3.4026 16.3046 3.13336 16.098 2.96668 15.8093L1.42928 13.1464C1.2626 12.8577 1.2182 12.5214 1.30456 12.1994C1.3908 11.8773 1.5974 11.608 1.88612 11.4414L4.44292 9.96516L1.90236 8.4984C1.30628 8.15428 1.10128 7.38936 1.4454 6.7932L2.98284 4.13032C3.32692 3.53404 4.09184 3.329 4.68804 3.67336L7.21252 5.13096V2.24832C7.21252 1.56 7.77252 1 8.46076 1H11.5356C12.2238 1 12.7838 1.56 12.7838 2.24832V5.1496L15.3127 3.6896C15.6014 3.5228 15.9374 3.47856 16.2599 3.56492C16.5818 3.65124 16.8511 3.85784 17.0178 4.14656L18.5552 6.80932C18.7219 7.09812 18.7662 7.43452 18.6799 7.75652C18.5936 8.0786 18.387 8.34784 18.0983 8.51448L15.5857 9.9652L18.1145 11.4252C18.7106 11.7694 18.9155 12.5343 18.5714 13.1304L17.034 15.7932C16.6898 16.3894 15.9246 16.594 15.3288 16.2501L12.7838 14.7808V17.7518C12.7838 18.44 12.2238 19 11.5355 19ZM7.52208 13.9534C7.56275 13.9534 7.60302 13.9614 7.64059 13.977C7.67817 13.9925 7.71231 14.0153 7.74107 14.0441C7.76982 14.0729 7.79263 14.107 7.80818 14.1446C7.82374 14.1821 7.83174 14.2224 7.83172 14.2631V17.7518C7.83172 18.0986 8.11392 18.3808 8.46068 18.3808H11.5355C11.8823 18.3808 12.1644 18.0986 12.1644 17.7518V14.2444C12.1644 14.1901 12.1787 14.1367 12.2059 14.0896C12.2331 14.0425 12.2722 14.0035 12.3193 13.9763C12.3663 13.9491 12.4197 13.9348 12.4741 13.9348C12.5285 13.9348 12.5819 13.9491 12.6289 13.9763L15.6383 15.7138C15.9386 15.8874 16.3241 15.7839 16.4976 15.4836L18.035 12.8207C18.2084 12.5204 18.1052 12.1349 17.8048 11.9615L14.8115 10.2334C14.7644 10.2062 14.7253 10.1671 14.6981 10.12C14.6709 10.073 14.6566 10.0196 14.6566 9.9652C14.6566 9.91084 14.6709 9.85744 14.6981 9.81037C14.7253 9.76329 14.7644 9.72421 14.8115 9.69704L17.7886 7.9782C17.8602 7.93705 17.923 7.88211 17.9733 7.81655C18.0236 7.75099 18.0604 7.67611 18.0816 7.59624C18.1032 7.51648 18.1088 7.43323 18.098 7.3513C18.0872 7.26938 18.0603 7.19041 18.0188 7.11896L16.4813 4.4562C16.4402 4.38451 16.3853 4.3217 16.3197 4.27139C16.2541 4.22108 16.1792 4.18428 16.0994 4.16312C16.0196 4.14141 15.9364 4.13579 15.8545 4.14657C15.7725 4.15735 15.6936 4.18432 15.6222 4.22592L12.6289 5.95404C12.5818 5.98126 12.5284 5.99559 12.4741 5.99559C12.4197 5.99559 12.3663 5.98126 12.3192 5.95404C12.2722 5.92688 12.2331 5.8878 12.2059 5.84074C12.1787 5.79367 12.1644 5.74027 12.1644 5.68592V2.24832C12.1644 1.90144 11.8822 1.61924 11.5355 1.61924H8.46064C8.11384 1.61924 7.83168 1.9014 7.83168 2.24832V5.66728C7.83169 5.72163 7.81739 5.77502 7.79022 5.82209C7.76304 5.86916 7.72396 5.90824 7.67688 5.9354C7.62983 5.96262 7.57642 5.97695 7.52206 5.97695C7.4677 5.97695 7.4143 5.96262 7.36724 5.9354L4.37828 4.20968C4.233 4.12576 4.06356 4.10372 3.901 4.14692C3.82112 4.16807 3.74622 4.20486 3.68066 4.25516C3.61509 4.30547 3.56016 4.36828 3.51904 4.43996L1.9816 7.10284C1.80828 7.40316 1.91156 7.78864 2.21192 7.96208L5.21696 9.697C5.26404 9.72417 5.30313 9.76325 5.33031 9.81033C5.35748 9.8574 5.37178 9.9108 5.37176 9.96516C5.37178 10.0195 5.35748 10.0729 5.3303 10.12C5.30313 10.1671 5.26404 10.2061 5.21696 10.2333L2.19568 11.9777C2.12403 12.0188 2.06124 12.0737 2.01093 12.1393C1.96063 12.2048 1.92381 12.2797 1.9026 12.3595C1.88101 12.4393 1.87544 12.5225 1.88624 12.6045C1.89703 12.6864 1.92396 12.7654 1.96548 12.8368L3.50292 15.4997C3.54405 15.5714 3.59898 15.6342 3.66454 15.6845C3.73011 15.7348 3.805 15.7716 3.88488 15.7927C3.96462 15.8142 4.04783 15.8198 4.12971 15.809C4.2116 15.7982 4.29055 15.7714 4.362 15.73L7.36716 13.9949C7.41426 13.9677 7.4677 13.9534 7.52208 13.9534Z" fill="black"/>
<path d="M10.0003 13.336C9.82927 13.336 9.69067 13.1974 9.69067 13.0263C9.69067 12.8553 9.82927 12.7167 10.0003 12.7167C10.149 12.7167 10.2983 12.7046 10.4443 12.6806C10.6126 12.6527 10.7722 12.7673 10.7999 12.9361C10.8276 13.1048 10.7133 13.264 10.5445 13.2917C10.3646 13.3212 10.1826 13.336 10.0003 13.336ZM12.2724 12.3085C12.1971 12.3085 12.1243 12.2811 12.0678 12.2313C12.0062 12.177 11.9687 12.1005 11.9635 12.0185C11.9582 11.9365 11.9858 11.8559 12.04 11.7942C12.2457 11.561 12.4097 11.2942 12.5248 11.0053C12.5398 10.9675 12.5621 10.9331 12.5905 10.9039C12.6188 10.8747 12.6527 10.8514 12.69 10.8354C12.7274 10.8193 12.7676 10.8108 12.8083 10.8103C12.8489 10.8097 12.8893 10.8173 12.9271 10.8324C12.9648 10.8474 12.9993 10.8698 13.0284 10.8981C13.0576 10.9265 13.0808 10.9603 13.0969 10.9977C13.113 11.035 13.1215 11.0752 13.122 11.1158C13.1226 11.1565 13.1151 11.1969 13.1 11.2346C12.9587 11.5893 12.7574 11.917 12.505 12.2035C12.4759 12.2365 12.4401 12.263 12.4 12.2811C12.3599 12.2992 12.3164 12.3085 12.2724 12.3085ZM12.8867 9.39814C12.8209 9.39808 12.7568 9.37704 12.7037 9.33809C12.6506 9.29914 12.6114 9.24429 12.5916 9.1815C12.4981 8.88508 12.3541 8.60704 12.166 8.35962C12.0625 8.2233 12.0891 8.02906 12.2254 7.92578C12.3615 7.82234 12.5559 7.8491 12.6592 7.98518C12.8903 8.28926 13.0672 8.63098 13.1821 8.99526C13.1943 9.03403 13.1988 9.07484 13.1953 9.11534C13.1917 9.15584 13.1802 9.19525 13.1615 9.23131C13.1427 9.26738 13.117 9.29939 13.0859 9.32553C13.0547 9.35166 13.0187 9.3714 12.98 9.38362C12.9498 9.39321 12.9184 9.39811 12.8867 9.39814ZM10.7115 7.36746C10.6876 7.36746 10.6631 7.36454 10.6388 7.35874C10.4944 7.32407 10.3474 7.30124 10.1993 7.2905C10.1587 7.2876 10.1191 7.27673 10.0828 7.25852C10.0464 7.2403 10.014 7.21511 9.98741 7.18436C9.9608 7.15362 9.94051 7.11793 9.9277 7.07934C9.91489 7.04075 9.90981 7.00002 9.91275 6.95946C9.92495 6.78882 10.0741 6.65914 10.2438 6.67294C10.4258 6.68599 10.6063 6.71399 10.7837 6.75666C10.8574 6.77437 10.9221 6.8185 10.9655 6.8807C11.0088 6.9429 11.0278 7.01884 11.0189 7.09414C11.01 7.16943 10.9738 7.23884 10.9172 7.28922C10.8605 7.3396 10.7873 7.36744 10.7115 7.36746Z" fill="black"/>
<path d="M10.0004 13.336C8.16095 13.336 6.66455 11.8395 6.66455 10.0001C6.66455 8.16062 8.16095 6.66418 10.0004 6.66418C10.0824 6.66418 10.1637 6.6671 10.2441 6.67302C10.2847 6.67597 10.3242 6.68687 10.3606 6.70512C10.3969 6.72336 10.4293 6.74859 10.4559 6.77935C10.4825 6.81011 10.5028 6.84581 10.5155 6.88441C10.5283 6.92301 10.5334 6.96375 10.5304 7.0043C10.5181 7.17498 10.3676 7.30366 10.1992 7.29058C10.133 7.28586 10.0667 7.28348 10.0004 7.28346C8.50255 7.28346 7.28387 8.50214 7.28387 10C7.28387 11.498 8.50259 12.7167 10.0004 12.7167C10.0819 12.7176 10.1598 12.7507 10.2171 12.8086C10.2744 12.8666 10.3066 12.9449 10.3066 13.0264C10.3066 13.1079 10.2744 13.1861 10.2171 13.2441C10.1598 13.3021 10.0819 13.3351 10.0004 13.336Z" fill="black"/>
<path d="M10.0002 11.7477C9.03644 11.7477 8.25244 10.9637 8.25244 10C8.25244 9.9179 8.28506 9.83914 8.34313 9.78107C8.4012 9.723 8.47996 9.69038 8.56208 9.69038C8.6442 9.69038 8.72296 9.723 8.78103 9.78107C8.8391 9.83914 8.87172 9.9179 8.87172 10C8.87172 10.6223 9.37792 11.1285 10.0002 11.1285C10.6225 11.1285 11.1287 10.6223 11.1287 10C11.1287 9.3777 10.6225 8.87154 10.0002 8.87154C9.95954 8.87154 9.91927 8.86354 9.8817 8.84798C9.84413 8.83242 9.81 8.80961 9.78124 8.78086C9.75249 8.7521 9.72968 8.71797 9.71412 8.6804C9.69856 8.64283 9.69056 8.60256 9.69056 8.5619C9.69056 8.52123 9.69856 8.48097 9.71412 8.4434C9.72968 8.40583 9.75249 8.37169 9.78124 8.34294C9.81 8.31418 9.84413 8.29138 9.8817 8.27582C9.91927 8.26026 9.95954 8.25225 10.0002 8.25226C10.9639 8.25226 11.748 9.03626 11.748 10C11.748 10.9637 10.964 11.7477 10.0002 11.7477Z" fill="black"/>
</svg>
