<svg width="20" height="20" viewBox="0 0 20 20" fill="none" xmlns="http://www.w3.org/2000/svg">
<path d="M19 2H1C0.447266 2 0 2.44723 0 3.0002V17C0 17.5527 0.447266 18 1 18H19C19.5527 18 20 17.5527 20 17V3.0002C20 2.44723 19.5528 2 19 2ZM19 17H1V3.0002H19V17ZM4 13H5V14.0002H6V16H14V14.0002H15V13H16C16 13 17 13 17 12V5.0002C17 4.0002 16 4.0002 16 4.0002H4C4 4.0002 3.0002 4.0002 3.0002 5.0002V12C3.0002 13 4 13 4 13ZM4 5.0002H5V7H6V5.0002H6.7998V7H7.7998V5.0002H8.59961V7H9.59961V5.0002H10.4006V7H11.4006V5.0002H12.2004V7H13.2004V5.0002H14V7H15V5.0002H15.9786C15.9844 5.00117 15.9922 5.00215 16 5.0041V12H14V13H13V15.0002H7V13H6V12L4.02832 12.0009C4.01953 12 4.00996 11.998 4 11.9961V5.0002Z" fill="black"/>
</svg>
