<svg width="20" height="20" viewBox="0 0 20 20" fill="none" xmlns="http://www.w3.org/2000/svg">
<g clip-path="url(#clip0_3860_3321)">
<path d="M16.2084 1.9245L15.2747 0.990827C15.2438 0.959837 15.2071 0.935251 15.1667 0.918476C15.1262 0.901701 15.0829 0.893066 15.0391 0.893066C14.9953 0.893066 14.952 0.901701 14.9115 0.918476C14.8711 0.935251 14.8343 0.959837 14.8034 0.990827L12.936 2.85821C12.905 2.88913 12.8805 2.92586 12.8637 2.9663C12.847 3.00675 12.8383 3.0501 12.8384 3.09387C12.8384 3.18219 12.8734 3.26688 12.936 3.32954L13.8697 4.26321C13.9347 4.32821 14.0201 4.36087 14.1054 4.36087C14.1907 4.36087 14.276 4.32821 14.341 4.26321L16.2084 2.39583C16.2394 2.36491 16.264 2.32817 16.2807 2.28773C16.2975 2.24729 16.3061 2.20394 16.3061 2.16016C16.3061 2.11639 16.2975 2.07305 16.2807 2.03261C16.2639 1.99217 16.2394 1.95544 16.2084 1.9245ZM14.1054 3.55618L13.643 3.09383L15.0391 1.69782L15.5014 2.16016L14.1054 3.55618Z" fill="black"/>
<path d="M17.1421 2.85811L16.2084 1.92444C16.1775 1.89345 16.1408 1.86887 16.1003 1.85211C16.0599 1.83536 16.0166 1.82675 15.9728 1.82678C15.929 1.82678 15.8857 1.8354 15.8452 1.85215C15.8048 1.86891 15.7681 1.89347 15.7371 1.92444L13.8697 3.79178C13.8387 3.82271 13.8142 3.85944 13.7974 3.89988C13.7806 3.94032 13.772 3.98367 13.772 4.02745C13.772 4.07123 13.7806 4.11458 13.7974 4.15501C13.8142 4.19545 13.8387 4.23219 13.8697 4.26311L14.8034 5.19678C14.8657 5.25944 14.9507 5.29444 15.0391 5.29444C15.1274 5.29444 15.2121 5.25909 15.2747 5.19678L17.1421 3.3294C17.1731 3.29848 17.1977 3.26175 17.2145 3.22131C17.2312 3.18088 17.2399 3.13753 17.2399 3.09376C17.2399 3.04998 17.2312 3.00663 17.2145 2.9662C17.1977 2.92576 17.1731 2.88903 17.1421 2.85811ZM15.0391 4.48983L14.5768 4.02749L15.9728 2.63147L16.4351 3.09381L15.0391 4.48983Z" fill="black"/>
<path d="M18.0758 3.79181L17.1422 2.85814C17.1113 2.82715 17.0745 2.80256 17.0341 2.78579C16.9936 2.76901 16.9503 2.76038 16.9065 2.76038C16.8627 2.76038 16.8194 2.76901 16.7789 2.78579C16.7385 2.80256 16.7018 2.82715 16.6708 2.85814L14.8035 4.72552C14.7408 4.78786 14.7058 4.87286 14.7058 4.96118C14.7058 5.0495 14.7408 5.13419 14.8035 5.19685L15.7371 6.13052C15.8021 6.19552 15.8875 6.22818 15.9728 6.22818C16.0581 6.22818 16.1435 6.19552 16.2085 6.13052L18.0758 4.26314C18.1068 4.2322 18.1314 4.19546 18.1481 4.15502C18.1649 4.11459 18.1735 4.07124 18.1735 4.02747C18.1735 3.9837 18.1649 3.94036 18.1481 3.89992C18.1314 3.85948 18.1068 3.82275 18.0758 3.79181ZM15.9728 5.42353L15.5105 4.96118L16.9065 3.56517L17.3688 4.02751L15.9728 5.42353Z" fill="black"/>
<path d="M19.0096 4.72546L18.0759 3.79175C18.045 3.76076 18.0083 3.73618 17.9678 3.71942C17.9274 3.70267 17.884 3.69406 17.8403 3.69409C17.7965 3.69408 17.7531 3.70271 17.7127 3.71946C17.6723 3.73622 17.6355 3.76078 17.6046 3.79175L15.7372 5.65912C15.7062 5.69005 15.6816 5.72678 15.6649 5.76722C15.6481 5.80766 15.6395 5.85101 15.6395 5.89479C15.6395 5.93857 15.6481 5.98192 15.6649 6.02235C15.6816 6.06279 15.7062 6.09952 15.7372 6.13045L16.6709 7.06412C16.7018 7.09511 16.7385 7.11968 16.779 7.13644C16.8194 7.1532 16.8628 7.16181 16.9065 7.16177C16.9503 7.16178 16.9937 7.15316 17.0341 7.1364C17.0745 7.11965 17.1113 7.09508 17.1422 7.06412L19.0096 5.19674C19.0406 5.16582 19.0651 5.12909 19.0819 5.08865C19.0987 5.04822 19.1073 5.00487 19.1073 4.9611C19.1073 4.91732 19.0987 4.87398 19.0819 4.83354C19.0651 4.79311 19.0406 4.75638 19.0096 4.72546ZM16.9065 6.35713L16.4442 5.89479L17.8402 4.49878L18.3026 4.96112L16.9065 6.35713ZM14.5745 6.8258L13.1738 5.4251C13.0488 5.3001 12.8275 5.3001 12.7025 5.4251L9.66814 8.45982C9.41814 8.70981 9.28048 9.04216 9.28048 9.39583C9.28048 9.7495 9.41814 10.0818 9.66814 10.3318C9.92646 10.5898 10.2651 10.7188 10.6041 10.7188C10.9432 10.7188 11.2822 10.5898 11.5398 10.3315L14.5745 7.29712C14.6055 7.2662 14.6301 7.22947 14.6468 7.18903C14.6636 7.14859 14.6722 7.10524 14.6722 7.06146C14.6722 7.01769 14.6636 6.97435 14.6468 6.93391C14.6301 6.89347 14.6055 6.85674 14.5745 6.8258ZM11.0685 9.86083C10.8125 10.1172 10.3958 10.1172 10.1395 9.86083C10.0155 9.73649 9.94712 9.5718 9.94712 9.39614C9.94712 9.22048 10.0154 9.05579 10.1395 8.93145L12.9382 6.13275L13.8672 7.06209L11.0685 9.86083ZM10.1398 13.1285L5.0044 7.99314C4.97348 7.96215 4.93675 7.93756 4.89631 7.92079C4.85587 7.90401 4.81252 7.89538 4.76874 7.89538C4.72496 7.89538 4.68161 7.90401 4.64117 7.92079C4.60074 7.93756 4.564 7.96215 4.53308 7.99314C4.50209 8.02406 4.4775 8.06079 4.46073 8.10123C4.44395 8.14167 4.43532 8.18502 4.43532 8.2288C4.43532 8.27258 4.44395 8.31593 4.46073 8.35637C4.4775 8.39681 4.50209 8.43354 4.53308 8.46446L9.66814 13.5999C9.73314 13.6649 9.81849 13.6975 9.9038 13.6975C9.98911 13.6975 10.0745 13.6649 10.1398 13.5999C10.1708 13.5689 10.1954 13.5322 10.2121 13.4918C10.2289 13.4513 10.2375 13.408 10.2375 13.3642C10.2375 13.3204 10.2289 13.2771 10.2121 13.2366C10.1953 13.1962 10.1708 13.1595 10.1398 13.1285ZM12.0068 14.9959L11.0731 14.0623C11.0422 14.0313 11.0055 14.0067 10.965 13.9899C10.9246 13.9731 10.8812 13.9645 10.8375 13.9645C10.7937 13.9645 10.7503 13.9731 10.7099 13.9899C10.6695 14.0067 10.6327 14.0313 10.6018 14.0623C10.5708 14.0932 10.5462 14.1299 10.5295 14.1703C10.5127 14.2108 10.504 14.2541 10.504 14.2979C10.504 14.3417 10.5127 14.385 10.5295 14.4255C10.5462 14.4659 10.5708 14.5027 10.6018 14.5336L11.5355 15.4672C11.6005 15.5322 11.6858 15.5649 11.7711 15.5649C11.8564 15.5649 11.9418 15.5322 12.0068 15.4672C12.0378 15.4363 12.0624 15.3996 12.0791 15.3592C12.0959 15.3187 12.1046 15.2754 12.1046 15.2316C12.1046 15.1878 12.0959 15.1445 12.0791 15.104C12.0624 15.0636 12.0378 15.0268 12.0068 14.9959ZM6.17139 15.6959L4.30402 13.8285C4.27309 13.7976 4.23636 13.773 4.19592 13.7562C4.15548 13.7394 4.11213 13.7308 4.06835 13.7308C4.02457 13.7308 3.98122 13.7394 3.94079 13.7562C3.90035 13.773 3.86361 13.7976 3.83269 13.8285L2.78469 14.8765C2.62769 15.0339 2.54102 15.2426 2.54102 15.4649C2.54102 15.6872 2.62734 15.8959 2.78469 16.0533L3.94703 17.2156C4.10902 17.3779 4.32202 17.4589 4.53503 17.4589C4.74804 17.4586 4.96136 17.3776 5.12339 17.2153L6.17139 16.1672C6.20238 16.1363 6.22696 16.0996 6.24372 16.0592C6.26047 16.0187 6.26908 15.9754 6.26905 15.9316C6.26907 15.8878 6.26046 15.8445 6.2437 15.804C6.22694 15.7636 6.20237 15.7268 6.17139 15.6959ZM4.65237 16.7446C4.62134 16.7755 4.57933 16.7928 4.53554 16.7928C4.49175 16.7928 4.44974 16.7755 4.4187 16.7446L3.25636 15.5822C3.21402 15.5399 3.20769 15.4909 3.20769 15.4653C3.20769 15.4396 3.21402 15.3903 3.25601 15.3483L4.06835 14.5359L5.46472 15.9323L4.65237 16.7446Z" fill="black"/>
<path d="M4.30394 16.63L3.37027 15.6963C3.24527 15.5713 3.02394 15.5713 2.89894 15.6963L0.0979001 18.4973C0.0669122 18.5282 0.0423342 18.565 0.025576 18.6054C0.00881778 18.6458 0.000209257 18.6892 0.000244247 18.733C0.000244247 18.8213 0.0352441 18.906 0.0979001 18.9686L1.03157 19.9023C1.09657 19.9673 1.18192 20 1.26723 20C1.35254 20 1.43789 19.9673 1.50289 19.9023L4.30394 17.1013C4.33492 17.0703 4.3595 17.0336 4.37627 16.9932C4.39305 16.9527 4.40168 16.9094 4.40168 16.8656C4.40168 16.8218 4.39305 16.7785 4.37627 16.7381C4.3595 16.6976 4.33492 16.6609 4.30394 16.63ZM1.26723 19.1953L0.80489 18.733L3.13457 16.4033L3.59691 16.8656L1.26723 19.1953ZM19.7095 5.42514L14.5751 0.290741C14.1874 -0.0969137 13.5564 -0.0969137 13.1691 0.290741L8.96798 4.49213C8.90533 4.55447 8.87033 4.63947 8.87033 4.72779C8.87033 4.81611 8.90533 4.9008 8.96798 4.96346L11.3023 7.29747C11.4273 7.42247 11.6487 7.42247 11.7737 7.29747L12.9384 6.13248L13.8677 7.06181L12.7027 8.22653C12.6717 8.25745 12.6471 8.29418 12.6304 8.33463C12.6136 8.37507 12.605 8.41842 12.605 8.46219C12.605 8.55051 12.64 8.6352 12.7027 8.69786L15.0367 11.0322C15.0991 11.0949 15.1841 11.1299 15.2724 11.1299C15.3607 11.1299 15.4454 11.0949 15.508 11.0322L19.7094 6.83118C20.0968 6.44349 20.0968 5.81283 19.7095 5.42514ZM19.2378 6.35982L15.2724 10.3252L13.4097 8.46219L14.5744 7.29751C14.6054 7.26659 14.63 7.22986 14.6467 7.18942C14.6635 7.14897 14.6721 7.10562 14.6721 7.06185C14.6721 7.01808 14.6634 6.97473 14.6467 6.9343C14.6299 6.89386 14.6054 6.85712 14.5744 6.82618L13.1737 5.42549C13.0487 5.30049 12.8274 5.30049 12.7024 5.42549L11.5377 6.59048L9.67501 4.72779L13.6404 0.762106C13.768 0.634763 13.976 0.634763 14.1037 0.762106L19.2378 5.8965C19.3654 6.02451 19.3654 6.23216 19.2378 6.35982Z" fill="black"/>
<path d="M15.9748 11.0279L13.1737 8.22687C13.1428 8.19588 13.1061 8.17129 13.0656 8.15452C13.0252 8.13774 12.9818 8.12911 12.9381 8.12911C12.8943 8.12911 12.8509 8.13774 12.8105 8.15452C12.77 8.17129 12.7333 8.19588 12.7024 8.22687L11.0684 9.86089C10.8204 10.1089 10.3877 10.1089 10.1394 9.86089C10.0154 9.73655 9.94701 9.57186 9.94701 9.3962C9.94701 9.22054 10.0153 9.05585 10.1394 8.93151L11.7734 7.2975C11.8044 7.26657 11.8289 7.22984 11.8457 7.1894C11.8625 7.14896 11.8711 7.10561 11.8711 7.06183C11.8711 7.01806 11.8625 6.97471 11.8457 6.93427C11.8289 6.89383 11.8044 6.8571 11.7734 6.82617L8.97233 4.02513C8.9414 3.99414 8.90467 3.96955 8.86423 3.95278C8.82379 3.936 8.78044 3.92737 8.73666 3.92737C8.69289 3.92737 8.64954 3.936 8.6091 3.95278C8.56866 3.96955 8.53193 3.99414 8.501 4.02513L4.53293 7.9932C4.49629 8.0298 4.46867 8.07443 4.45227 8.12355L2.81825 13.0256C2.79876 13.0843 2.79599 13.1473 2.81023 13.2075C2.82448 13.2678 2.85518 13.3228 2.89891 13.3666L6.63363 17.1013C6.66454 17.1323 6.70127 17.1569 6.74171 17.1737C6.78216 17.1904 6.82551 17.199 6.86929 17.199C6.90509 17.199 6.94065 17.1932 6.97464 17.182L11.8767 15.548C11.9257 15.5314 11.9703 15.5038 12.007 15.4673L15.9748 11.4992C16.0058 11.4683 16.0303 11.4316 16.0471 11.3911C16.0639 11.3507 16.0725 11.3074 16.0725 11.2636C16.0725 11.2198 16.0639 11.1764 16.0471 11.136C16.0303 11.0956 16.0058 11.0588 15.9748 11.0279ZM11.591 14.9403L6.95933 16.4843L3.51594 13.041L5.05996 8.40855L8.73666 4.73184L11.0663 7.06152L9.66803 8.45988C9.41803 8.70987 9.28037 9.04222 9.28037 9.39589C9.28037 9.74956 9.41803 10.0819 9.66803 10.3319C10.168 10.8319 11.0397 10.8322 11.5397 10.3319L12.9381 8.93355L15.2677 11.2636L11.591 14.9403Z" fill="black"/>
<path d="M9.20571 14.5293L5.47098 10.7945C5.44006 10.7635 5.40333 10.739 5.36289 10.7222C5.32245 10.7054 5.2791 10.6968 5.23532 10.6968C5.19154 10.6968 5.14819 10.7054 5.10775 10.7222C5.06731 10.739 5.03058 10.7635 4.99965 10.7945C4.96867 10.8255 4.94408 10.8622 4.9273 10.9026C4.91053 10.9431 4.90189 10.9864 4.90189 11.0302C4.90189 11.074 4.91053 11.1173 4.9273 11.1578C4.94408 11.1982 4.96867 11.2349 4.99965 11.2659L8.73438 15.0006C8.7653 15.0316 8.80203 15.0562 8.84247 15.0729C8.88291 15.0897 8.92627 15.0983 8.97005 15.0982C9.01382 15.0983 9.05718 15.0897 9.09762 15.0729C9.13806 15.0562 9.17479 15.0316 9.20571 15.0006C9.23669 14.9697 9.26127 14.9329 9.27804 14.8925C9.29481 14.8521 9.30344 14.8087 9.30344 14.7649C9.30344 14.7212 9.29481 14.6778 9.27804 14.6374C9.26127 14.5969 9.23669 14.5602 9.20571 14.5293ZM7.33833 14.5293L5.47094 12.6619C5.44002 12.6309 5.40329 12.6063 5.36285 12.5895C5.32241 12.5728 5.27906 12.5641 5.23528 12.5641C5.1915 12.5641 5.14815 12.5728 5.10771 12.5895C5.06727 12.6063 5.03054 12.6309 4.99962 12.6619C4.96863 12.6928 4.94404 12.7295 4.92727 12.77C4.91049 12.8104 4.90186 12.8538 4.90186 12.8975C4.90186 12.9413 4.91049 12.9847 4.92727 13.0251C4.94404 13.0656 4.96863 13.1023 4.99962 13.1332L6.867 15.0006C6.932 15.0656 7.01735 15.0982 7.10266 15.0982C7.18798 15.0982 7.27333 15.0656 7.33833 15.0006C7.36932 14.9697 7.3939 14.9329 7.41068 14.8925C7.42745 14.8521 7.43609 14.8087 7.43609 14.7649C7.43609 14.7211 7.42745 14.6778 7.41068 14.6374C7.3939 14.5969 7.36932 14.5602 7.33833 14.5293Z" fill="black"/>
</g>
<defs>
<clipPath id="clip0_3860_3321">
<rect width="20" height="20" fill="white"/>
</clipPath>
</defs>
</svg>
