<svg width="20" height="20" viewBox="0 0 20 20" fill="none" xmlns="http://www.w3.org/2000/svg">
<g clip-path="url(#clip0_3901_25)">
<path d="M8.89209 0.292969V0.988906C8.89209 1.36687 9.1985 1.67328 9.57647 1.67328H10.4235C10.8015 1.67328 11.1079 1.36687 11.1079 0.988906V0.292969H8.89209Z" stroke="black" stroke-miterlimit="10" stroke-linecap="round" stroke-linejoin="round"/>
<path d="M4.10156 2.06875V1.41836C4.10156 0.796875 4.60547 0.292969 5.22695 0.292969H14.773C15.3945 0.292969 15.8984 0.796875 15.8984 1.41836V4.74258M4.10156 4.74258V3.43594M15.8984 15.2574V18.5816C15.8984 19.2031 15.3945 19.707 14.773 19.707H5.22695C4.60547 19.707 4.10156 19.2031 4.10156 18.5816V15.2574M15.8984 18.3267H4.10156M18.0801 5.97969V5.1332C18.0801 4.91719 17.9051 4.74258 17.6895 4.74258H2.31055C2.09492 4.74258 1.91992 4.91719 1.91992 5.1332V5.97969M1.91992 10.5398V9.46016" stroke="black" stroke-miterlimit="10" stroke-linecap="round" stroke-linejoin="round"/>
<path d="M9.31641 15.2574H2.31055C2.09492 15.2574 1.91992 15.0828 1.91992 14.8668V14.0203M1.91992 12.8199V11.7402M1.91992 8.25975V7.18007M18.0801 10.5398V9.46014M10.6836 15.2574H17.6895C17.9051 15.2574 18.0801 15.0828 18.0801 14.8668V14.0203M18.0801 12.8199V11.7402M18.0801 8.25975V7.18007M15.8984 6.64784V13.3521C15.8984 13.4428 15.8624 13.5298 15.7983 13.5939C15.7341 13.6581 15.6471 13.6941 15.5564 13.6941H5.98934C5.94442 13.6941 5.89995 13.6852 5.85846 13.6681C5.81696 13.6509 5.77926 13.6257 5.7475 13.5939L4.20176 12.0482C4.17 12.0164 4.14481 11.9787 4.12763 11.9372C4.11044 11.8957 4.1016 11.8513 4.1016 11.8064V6.64784C4.1016 6.55714 4.13763 6.47015 4.20177 6.40601C4.2659 6.34188 4.35289 6.30585 4.44359 6.30585H15.5564C15.6471 6.30585 15.7341 6.34188 15.7983 6.40601C15.8624 6.47015 15.8984 6.55714 15.8984 6.64784Z" stroke="black" stroke-miterlimit="10" stroke-linecap="round" stroke-linejoin="round"/>
<path d="M12.0006 11.1653L12.4167 8.85968C12.4271 8.80569 12.5025 8.80062 12.52 8.85276L13.1969 11.1474C13.2133 11.1962 13.2826 11.1959 13.2985 11.1469L13.9524 8.85315C13.9693 8.80089 14.0447 8.80511 14.0557 8.85897L14.4964 11.1653M10.9489 8.81616V11.1838M9.81894 9.05956C9.81894 9.05956 9.39409 8.70245 8.89308 8.85335C8.43304 8.99194 8.3687 9.52237 8.70151 9.73937C8.70151 9.73937 9.02808 9.88507 9.3903 10.0187C10.2623 10.3403 9.88663 11.1838 9.18472 11.1838C8.83319 11.1838 8.53819 11.0299 8.35964 10.8328M5.50862 10.1987H7.32616V10.0589C7.32616 9.55562 6.91819 9.14765 6.41491 9.14765C5.91163 9.14765 5.50366 9.55562 5.50366 10.0603L5.50862 10.1987Z" stroke="black" stroke-miterlimit="10" stroke-linecap="round" stroke-linejoin="round"/>
<path d="M5.50727 10.1658C5.50727 10.7319 5.96309 11.1838 6.52535 11.1838C6.75371 11.1838 6.94156 11.1086 7.0841 10.9817M16.9638 6.1749V6.98474C16.9638 7.03654 16.9843 7.08622 17.021 7.12285C17.0576 7.15947 17.1073 7.18005 17.1591 7.18005H19.001C19.0528 7.18005 19.1025 7.15947 19.1391 7.12285C19.1757 7.08622 19.1963 7.03654 19.1963 6.98474V6.1749C19.1963 6.1231 19.1757 6.07342 19.1391 6.03679C19.1025 6.00016 19.0528 5.97958 19.001 5.97958H17.1591C17.1073 5.97958 17.0576 6.00016 17.021 6.03679C16.9843 6.07342 16.9638 6.1231 16.9638 6.1749ZM16.9638 8.45501V9.26486C16.9638 9.31666 16.9843 9.36634 17.021 9.40296C17.0576 9.43959 17.1073 9.46017 17.1591 9.46017H19.001C19.0528 9.46017 19.1025 9.43959 19.1391 9.40296C19.1757 9.36634 19.1963 9.31666 19.1963 9.26486V8.45501C19.1963 8.40321 19.1757 8.35353 19.1391 8.31691C19.1025 8.28028 19.0528 8.2597 19.001 8.2597H17.1591C17.1073 8.2597 17.0576 8.28028 17.021 8.31691C16.9843 8.35353 16.9638 8.40321 16.9638 8.45501ZM16.9638 10.7352V11.545C16.9638 11.5968 16.9843 11.6465 17.021 11.6831C17.0576 11.7197 17.1073 11.7403 17.1591 11.7403H19.001C19.0528 11.7403 19.1025 11.7197 19.1391 11.6831C19.1757 11.6465 19.1963 11.5968 19.1963 11.545V10.7352C19.1963 10.6834 19.1757 10.6337 19.1391 10.5971C19.1025 10.5604 19.0528 10.5399 19.001 10.5399H17.1591C17.1073 10.5399 17.0576 10.5604 17.021 10.5971C16.9843 10.6337 16.9638 10.6834 16.9638 10.7352ZM16.9638 13.0153V13.8251C16.9638 13.8769 16.9843 13.9266 17.021 13.9632C17.0576 13.9999 17.1073 14.0204 17.1591 14.0204H19.001C19.0528 14.0204 19.1025 13.9999 19.1391 13.9632C19.1757 13.9266 19.1963 13.8769 19.1963 13.8251V13.0153C19.1963 12.9635 19.1757 12.9138 19.1391 12.8772C19.1025 12.8406 19.0528 12.82 19.001 12.82H17.1591C17.1073 12.82 17.0576 12.8406 17.021 12.8772C16.9843 12.9138 16.9638 12.9635 16.9638 13.0153ZM0.803711 6.1749V6.98474C0.803711 7.03654 0.824288 7.08622 0.860917 7.12285C0.897545 7.15947 0.947223 7.18005 0.999023 7.18005H2.84094C2.89274 7.18005 2.94242 7.15947 2.97904 7.12285C3.01567 7.08622 3.03625 7.03654 3.03625 6.98474V6.1749C3.03625 6.1231 3.01567 6.07342 2.97904 6.03679C2.94242 6.00016 2.89274 5.97958 2.84094 5.97958H0.999023C0.947223 5.97958 0.897545 6.00016 0.860917 6.03679C0.824288 6.07342 0.803711 6.1231 0.803711 6.1749ZM0.803711 8.45501V9.26486C0.803711 9.31666 0.824288 9.36634 0.860917 9.40296C0.897545 9.43959 0.947223 9.46017 0.999023 9.46017H2.84094C2.89274 9.46017 2.94242 9.43959 2.97904 9.40296C3.01567 9.36634 3.03625 9.31666 3.03625 9.26486V8.45501C3.03625 8.40321 3.01567 8.35353 2.97904 8.31691C2.94242 8.28028 2.89274 8.2597 2.84094 8.2597H0.999023C0.947223 8.2597 0.897545 8.28028 0.860917 8.31691C0.824288 8.35353 0.803711 8.40321 0.803711 8.45501ZM0.803711 10.7352V11.545C0.803711 11.5968 0.824288 11.6465 0.860917 11.6831C0.897545 11.7197 0.947223 11.7403 0.999023 11.7403H2.84094C2.89274 11.7403 2.94242 11.7197 2.97904 11.6831C3.01567 11.6465 3.03625 11.5968 3.03625 11.545V10.7352C3.03625 10.6834 3.01567 10.6337 2.97904 10.5971C2.94242 10.5604 2.89274 10.5399 2.84094 10.5399H0.999023C0.947223 10.5399 0.897545 10.5604 0.860917 10.5971C0.824288 10.6337 0.803711 10.6834 0.803711 10.7352ZM0.803711 13.0153V13.8251C0.803711 13.8769 0.824288 13.9266 0.860917 13.9632C0.897545 13.9999 0.947223 14.0204 0.999023 14.0204H2.84094C2.89274 14.0204 2.94242 13.9999 2.97904 13.9632C3.01567 13.9266 3.03625 13.8769 3.03625 13.8251V13.0153C3.03625 12.9635 3.01567 12.9138 2.97904 12.8772C2.94242 12.8406 2.89274 12.82 2.84094 12.82H0.999023C0.947223 12.82 0.897545 12.8406 0.860917 12.8772C0.824288 12.9138 0.803711 12.9635 0.803711 13.0153Z" stroke="black" stroke-miterlimit="10" stroke-linecap="round" stroke-linejoin="round"/>
</g>
<defs>
<clipPath id="clip0_3901_25">
<rect width="20" height="20" fill="white"/>
</clipPath>
</defs>
</svg>
