<svg width="20" height="20" viewBox="0 0 20 20" fill="none" xmlns="http://www.w3.org/2000/svg">
<path d="M19.7069 3.00964C19.5452 3.00964 19.414 3.14089 19.414 3.30261L19.4135 13.3896C19.0901 13.2148 18.6071 12.9669 18.2596 12.853C18.1144 12.8053 17.7285 12.6789 17.557 12.9669C17.4314 13.1781 17.4132 13.5187 17.5109 13.8347C17.724 14.5252 18.193 14.5007 18.3956 14.6636C18.5705 14.8038 18.5792 15.1253 18.5627 15.4517C18.5616 15.4725 18.5599 15.508 18.5564 15.5279C18.5171 15.5488 18.4104 15.5639 18.3681 15.5698C18.2159 15.5914 18.0647 15.6204 17.9153 15.6565C17.8409 15.6758 17.7772 15.7236 17.7377 15.7895C17.6983 15.8554 17.6863 15.9342 17.7043 16.0088C17.7224 16.0835 17.769 16.1481 17.8342 16.1887C17.8994 16.2293 17.9779 16.2427 18.0529 16.2259C18.1841 16.1943 18.3167 16.1689 18.4504 16.15C18.8937 16.0872 19.1253 15.9284 19.148 15.4813C19.1631 15.1802 19.1947 14.5537 18.7624 14.2066C18.434 13.9429 18.1945 14.0625 18.0707 13.662C18.0393 13.5604 18.0315 13.4661 18.0349 13.394C18.3411 13.4854 19.0131 13.8227 19.5585 14.1419C19.7533 14.256 19.9995 14.1153 19.9995 13.8892L19.9998 3.30261C19.9998 3.26415 19.9922 3.22605 19.9775 3.19051C19.9628 3.15497 19.9412 3.12267 19.914 3.09546C19.8869 3.06826 19.8546 3.04667 19.819 3.03195C19.7835 3.01722 19.7454 3.00964 19.7069 3.00964ZM16.6773 16.1429C16.245 16.3857 16.092 16.5604 15.9693 16.5604H15.9685C15.7447 16.5586 15.5977 16.225 14.4495 16.5917C14.321 16.6327 13.7969 16.8075 13.6272 16.7241C13.5558 16.689 13.2641 16.3225 13.2079 16.119C13.1789 16.014 13.1963 15.9006 13.2485 15.855C13.3909 15.7303 13.5811 15.8007 13.9034 15.2669C13.9495 15.1907 13.9928 15.1189 14.0403 15.0675C14.1957 14.899 14.4838 14.8495 14.7906 14.8096C15.0107 14.7811 15.1879 14.7634 15.3443 14.748C15.712 14.7113 15.9779 14.6851 16.4263 14.5583C16.6804 14.4864 16.8497 14.3056 16.9031 14.0489C16.9578 13.787 16.8746 13.4178 16.7354 13.3039C16.3167 12.9615 15.9223 13.1073 15.6865 13.1945C15.638 13.2125 15.5651 13.2395 15.5399 13.2412C15.5198 13.1972 15.5124 13.1696 15.5098 13.155C15.6034 13.0887 16.2749 12.7552 16.3846 12.1344C16.4445 11.7954 16.3122 11.3471 15.9334 11.3208C15.6266 11.2998 15.2411 11.5645 15.08 11.7075C14.896 11.871 14.7523 12.0543 14.5968 12.1993C14.4773 12.0957 14.3236 12.0404 14.1655 12.0439C13.795 12.0522 13.6982 12.309 13.6568 12.4185C13.6565 12.4193 13.6562 12.4199 13.656 12.4207C13.5663 12.386 13.3488 12.3088 13.1616 12.4956C12.9372 12.7196 12.9343 12.9334 12.7253 14.1086C12.6813 14.2571 12.2335 14.7034 12.0559 14.8026C11.9048 14.8022 11.6671 14.7992 11.5575 14.8041C11.0766 14.825 10.9154 15.1871 11.0457 15.4517L11.3231 16.0149C11.3205 16.015 11.3179 16.015 11.3153 16.015C11.1997 16.0165 11.0874 16.0398 10.9812 16.0845L10.9789 16.0663C10.8977 15.4445 10.538 15.5472 10.4492 15.2544C10.4313 15.1954 10.441 15.1026 10.4512 15.0045C10.4706 14.8194 10.4946 14.5893 10.356 14.374C10.26 14.2248 10.1191 14.142 10.0162 14.0816L8.42791 13.1493C8.0092 12.9036 7.49971 13.2734 7.60088 13.7476C7.63611 13.9129 7.71377 14.0882 7.81939 14.2412C7.93002 14.4016 8.0115 14.6462 8.09787 14.9051C8.51838 16.167 8.86186 16.0302 9.03901 16.2851C8.29881 16.5113 8.55198 16.9915 7.98053 17.1253C7.86713 17.1518 7.78963 17.1555 7.75361 17.1381C7.71611 17.1169 7.64283 17.0551 7.57158 16.9865C7.79498 16.8746 7.96326 16.7058 8.13584 16.5975C8.17765 16.5712 8.21215 16.5349 8.23614 16.4917C8.26012 16.4485 8.27281 16.4 8.27303 16.3506C8.27561 15.7708 8.12256 15.5516 7.94557 15.2981C7.48857 14.6436 7.42037 13.9927 7.04134 13.4658C6.84681 13.1954 6.48056 13.0945 6.17052 13.2261C5.83068 13.3701 5.46005 13.4243 5.09903 13.3828C4.81778 13.3505 4.34723 13.2966 4.13454 13.6879C4.0611 13.823 4.05747 13.9595 4.03825 14.0305C3.90395 14.0737 3.21824 13.9746 2.73711 14.7969C2.63516 14.9712 2.55476 15.1677 2.48383 15.4156C2.43637 15.5817 2.27156 15.4981 1.91605 15.4331C1.73109 15.3994 1.55624 15.3673 1.38808 15.319C1.05238 15.2223 0.668624 15 0.598741 14.6654C0.558468 14.4724 0.622843 14.2369 0.679601 14.0293L1.01972 12.7844C1.0242 12.7678 1.03218 12.7523 1.04313 12.739C1.05407 12.7256 1.06773 12.7148 1.0832 12.7072C1.09866 12.6995 1.11557 12.6953 1.13281 12.6947C1.15005 12.6941 1.16721 12.6972 1.18316 12.7037L2.07215 13.0729C2.34801 13.1875 2.99406 13.4557 3.46922 13.0776C3.73047 12.8698 3.97782 12.4367 3.6734 11.5538C3.54875 11.1925 3.44059 10.8228 3.59664 10.6144C3.64946 10.5693 3.83071 10.5646 4.13575 10.6003C4.17396 10.6048 4.2127 10.6017 4.24972 10.5912C4.28675 10.5808 4.32135 10.5631 4.35153 10.5392C4.38172 10.5154 4.4069 10.4858 4.42564 10.4522C4.44439 10.4185 4.45631 10.3816 4.46075 10.3433C4.46523 10.3051 4.46213 10.2664 4.45164 10.2294C4.44115 10.1924 4.42347 10.1578 4.3996 10.1276C4.37574 10.0974 4.34617 10.0722 4.31257 10.0535C4.27897 10.0347 4.24201 10.0228 4.20379 10.0183C3.81364 9.97256 3.41156 9.95057 3.16133 10.2213C3.15703 10.226 3.15293 10.2309 3.14883 10.2358C2.7632 10.7121 2.98613 11.3585 3.11934 11.7449C3.18953 11.9483 3.32856 12.4408 3.10442 12.6191C2.92297 12.7634 2.5775 12.6482 2.29676 12.5318L1.40777 12.1626C1.01456 11.9996 0.566866 12.2188 0.454405 12.6302L0.114286 13.8748C0.043739 14.1329 -0.0439566 14.4542 0.0251843 14.7852C0.129872 15.286 0.578741 15.696 1.2262 15.8822C1.55199 15.9758 1.87851 16.0131 2.18125 16.0833C2.56043 16.171 2.94066 15.9487 3.04719 15.5768C3.1041 15.3774 3.16633 15.2237 3.24297 15.093C3.6661 14.3697 4.1754 14.8332 4.50805 14.3865C4.63274 14.2189 4.62434 14.0212 4.64876 13.9682C4.69985 13.9269 4.94141 13.9545 5.0322 13.965C5.4938 14.018 5.9665 13.949 6.39939 13.7654C6.45966 13.74 6.5297 13.7578 6.56587 13.808C6.88509 14.2518 6.95455 14.9019 7.46521 15.6334C7.59724 15.8227 7.66756 15.9234 7.68357 16.198C7.46584 16.3588 7.30224 16.5163 7.14127 16.5018C6.92689 16.4831 6.76209 16.6922 6.82759 16.9355C6.90279 17.2144 7.33752 17.587 7.49346 17.663C7.69166 17.7597 7.90041 17.7459 8.11416 17.6958C8.68823 17.5614 8.94276 17.0809 9.02666 16.9225C9.05061 16.908 9.0926 16.8888 9.1376 16.8712C9.28667 16.8981 9.44428 16.8417 9.53858 16.7097C9.67393 16.52 9.68569 16.2461 9.56788 16.028C9.45788 15.8245 9.28241 15.7062 9.10006 15.5823C8.8942 15.4413 8.77198 15.0747 8.65389 14.7199C8.55838 14.4336 8.45979 14.1375 8.30186 13.9086C8.25502 13.8408 8.21611 13.7629 8.19186 13.6902L9.71971 14.587C9.8903 14.6872 9.89612 14.6796 9.86866 14.9438C9.85354 15.0884 9.83632 15.2524 9.88862 15.4245C9.97483 15.709 10.2021 15.8658 10.3759 16.0209C10.4137 16.1168 10.3791 16.4228 10.6087 16.5972C10.7216 16.6829 10.9769 16.7261 11.2046 16.6265C11.333 16.5703 11.6643 16.6409 11.8712 16.3805C12.0032 16.2142 11.998 15.9864 11.8732 15.8057L11.6673 15.3879C11.7929 15.3866 11.975 15.3888 12.1024 15.3888C12.1682 15.3888 12.343 15.3888 12.7977 14.9468C13.0976 14.6552 13.2671 14.4088 13.3017 14.2141C13.5068 13.0609 13.5006 13.0771 13.5282 12.9972C13.6205 13.0254 13.7539 13.0468 13.9002 12.9805C14.0993 12.8905 14.166 12.7285 14.2014 12.6351C14.2106 12.6396 14.219 12.6467 14.2254 12.6558C14.3534 12.8412 14.5218 12.8568 14.6108 12.8493C14.6926 12.8427 14.7718 12.8119 14.8403 12.7602C15.0954 12.5669 15.2694 12.3234 15.4693 12.1457C15.5765 12.0505 15.7161 11.97 15.8106 11.9309C15.8154 11.9704 15.8133 12.0104 15.8043 12.0491C15.761 12.2446 15.5597 12.4526 15.2378 12.6348C15.0864 12.7205 14.7618 12.9773 15.0188 13.51C15.1116 13.7024 15.3075 13.8241 15.5303 13.8273C15.6594 13.8289 15.7767 13.7859 15.8898 13.7443C16.0783 13.6745 16.1855 13.6412 16.3129 13.7203C16.3329 13.7914 16.3467 13.9022 16.3206 13.9585C16.3158 13.9687 16.3094 13.9826 16.2668 13.9946C15.8684 14.1073 15.6368 14.1303 15.2865 14.165C15.1259 14.181 14.944 14.1989 14.7152 14.2287C14.3993 14.2697 13.9223 14.3316 13.6098 14.6701C13.5219 14.7654 13.4581 14.8709 13.4018 14.9642C13.1588 15.3669 13.153 15.16 12.8624 15.4145C12.6389 15.6101 12.5527 15.9479 12.643 16.2751C12.7275 16.5809 13.0921 17.1142 13.3687 17.2502C13.7342 17.4297 14.2411 17.2736 14.6277 17.15C15.652 16.823 15.4636 17.1426 15.9638 17.1467H15.9696C16.3308 17.1467 16.498 16.9158 16.9642 16.654C16.9977 16.6351 17.0272 16.6099 17.051 16.5796C17.0748 16.5494 17.0924 16.5148 17.1028 16.4777C17.1132 16.4407 17.1162 16.402 17.1116 16.3638C17.107 16.3256 17.095 16.2886 17.0762 16.2551C17.0573 16.2215 17.0321 16.192 17.0019 16.1682C16.9716 16.1444 16.937 16.1268 16.9 16.1164C16.8629 16.1059 16.8242 16.1029 16.786 16.1075C16.7478 16.1121 16.7109 16.1241 16.6773 16.1429Z" fill="black"/>
<path d="M19.705 0.039032C19.0551 0.0431336 17.7747 0.0489539 17.5806 0.0407117C17.0658 0.0190319 16.5556 0.209033 16.1805 0.562706L14.4518 2.19314C14.3384 2.3001 14.1486 2.47908 14.1282 2.74717C14.1035 3.0719 14.3246 3.19486 14.1634 3.37233C13.8741 3.69108 13.2648 3.36151 13.3984 3.2135C13.5195 3.07925 13.6205 2.928 13.6979 2.76455C13.8729 2.39607 13.6834 1.95463 13.2941 1.82537C12.1258 1.4372 11.5185 1.17443 10.8599 1.31267C10.0161 1.48986 9.51756 2.25447 9.1074 2.99377C8.2874 4.47112 8.07119 4.20561 7.50724 4.60553C7.37126 4.70202 6.48028 5.64269 6.70599 6.17843C6.82376 6.45843 7.09341 6.64734 7.4097 6.67144C7.67294 6.69175 7.90013 6.6214 8.09728 6.51472C8.07959 7.00988 8.11466 7.61598 8.34982 7.91504C8.54818 8.16727 8.89256 8.23379 9.23693 7.93672C9.65401 7.57691 10.0991 6.63117 10.1145 6.21413C10.1278 5.85511 9.93748 5.68495 9.83526 5.59355C9.82811 5.58714 9.81971 5.57968 9.81205 5.57249C9.84409 5.33355 9.94299 5.21272 10.1023 4.65393C10.2035 4.29963 10.2907 3.9935 10.5621 3.82385C10.669 3.75686 10.8019 3.76252 10.8852 3.83741C10.9136 3.86319 10.9893 3.93143 10.8863 4.15631C10.774 4.40171 10.5552 4.62811 10.422 4.9405C10.253 5.33644 10.2974 5.88425 10.7123 6.11953C11.3516 6.48195 11.8877 5.75452 12.296 5.81452C12.2236 6.16562 12.1284 6.53718 11.919 6.81179C11.6688 7.14004 11.2905 7.22504 11.0691 7.11746C11.015 7.09118 10.9541 7.08224 10.8947 7.09183C10.6312 7.1341 10.3512 7.37914 10.3197 7.83113C10.3046 8.04641 10.3452 8.25852 10.3112 8.40364C10.2156 8.81075 9.52748 8.89895 9.12572 8.91524L7.96193 8.9627C7.9572 8.70801 8.14521 8.14028 7.81607 7.8282C7.50966 7.53754 6.75939 7.60102 6.5897 8.03145C6.52899 8.18574 6.53966 8.3545 6.55005 8.51778C6.57036 8.83911 6.57185 8.81364 6.34755 8.96028C5.60231 9.44747 5.68958 9.75341 5.49883 9.92692C5.45508 9.96677 5.38321 9.99497 5.32551 10.0151C5.17278 10.0683 5.09204 10.2353 5.14532 10.3882C5.17092 10.4615 5.2246 10.5217 5.29456 10.5555C5.36451 10.5892 5.44502 10.5938 5.51837 10.5683C5.62872 10.53 5.77091 10.4715 5.89313 10.3604C6.23204 10.0522 6.04235 9.85993 6.66829 9.45067C7.3554 9.00161 7.08349 8.63985 7.13048 8.26692C7.19197 8.23457 7.33861 8.22586 7.40392 8.25117C7.47259 8.38578 7.36915 8.70196 7.3763 8.98196C7.38591 9.35212 7.57818 9.56497 7.98267 9.54837L9.14967 9.50071C10.4062 9.44962 10.785 8.94868 10.8816 8.53762C10.9421 8.2802 10.8909 8.06352 10.9041 7.87188C10.9096 7.79387 10.9347 7.73484 10.9568 7.70125C11.4742 7.86149 12.0553 7.59965 12.385 7.16707C12.7108 6.73965 12.8184 6.19628 12.9047 5.75956C12.9468 5.5464 12.6952 5.21042 12.2198 5.22718C11.6482 5.24765 11.2348 5.74218 11.0014 5.60987C10.9054 5.55542 10.8861 5.34589 10.961 5.17026C11.0636 4.92995 11.2812 4.70124 11.4191 4.40018C11.5984 4.00862 11.5467 3.64487 11.2775 3.40225C11.001 3.15303 10.5791 3.12225 10.2514 3.32701C9.78905 3.61616 9.65612 4.08217 9.53893 4.49323C9.38162 5.04472 9.25346 5.21331 9.22432 5.55905C9.19014 5.96359 9.53619 5.99409 9.52885 6.19245C9.51819 6.4839 9.07846 7.37105 8.79689 7.53633C8.69818 7.38754 8.62385 6.77539 8.73295 5.92757C8.76744 5.6598 8.44974 5.49179 8.24787 5.67124C7.95841 5.9282 7.73228 6.10824 7.45443 6.08718C7.36669 6.08046 7.29009 6.03437 7.25392 5.96769C7.26872 5.77378 7.69736 5.1962 7.84627 5.08331C8.33885 4.73401 8.70732 4.92186 9.61967 3.27803C9.93428 2.71115 10.3448 2.01947 10.9801 1.88611C11.4648 1.78451 11.9816 2.00666 13.1094 2.38127C13.1637 2.39924 13.1931 2.46154 13.1686 2.51326C13.0137 2.83947 12.7445 2.94342 12.7958 3.35448C12.8751 3.9894 13.9983 4.42612 14.5972 3.766C15.005 3.31678 14.7054 2.88404 14.7125 2.79189C14.7157 2.74978 14.8197 2.65166 14.8539 2.61932L16.5826 0.988723C16.8432 0.742941 17.1975 0.610792 17.5555 0.626027C17.7527 0.63462 18.87 0.629542 19.4138 0.626652V2.02345C19.4138 2.18533 19.5449 2.31642 19.7068 2.31642C19.8685 2.31642 19.9998 2.18533 19.9998 2.02361V0.332002C19.9998 0.175595 19.8779 0.0422351 19.705 0.039032H19.705Z" fill="black"/>
</svg>
