<svg width="20" height="20" viewBox="0 0 20 20" fill="none" xmlns="http://www.w3.org/2000/svg">
<path d="M13.2461 18.8164L6.9375 16.4727C6.86328 16.4453 6.8125 16.375 6.80859 16.293C6.80469 16.2109 6.85547 16.1406 6.92969 16.1094L12.1797 13.9336L7.56641 11.7773C7.5 11.7461 7.45703 11.6797 7.45312 11.6055C7.44922 11.5313 7.49219 11.4648 7.55469 11.4297L11.6289 9.24609L8.1875 7.08203C8.13281 7.04688 8.09766 6.98828 8.09766 6.92578C8.09375 6.86328 8.125 6.80078 8.17578 6.76172L11.0742 4.55469L8.80469 2.36719L9.07422 2.08594L11.5078 4.42969C11.5508 4.46875 11.5703 4.52344 11.5664 4.58203C11.5625 4.64062 11.5352 4.69141 11.4883 4.72656L8.63281 6.89844L12.1172 9.09375C12.1758 9.12891 12.2109 9.19531 12.207 9.26562C12.2031 9.33594 12.1641 9.39844 12.1055 9.42969L8.07812 11.5898L12.7422 13.7695C12.8125 13.8008 12.8555 13.875 12.8555 13.9492C12.8555 14.0273 12.8047 14.0977 12.7344 14.125L7.53125 16.2773L13.3711 18.4492L13.2461 18.8164ZM2.92969 19.6094H17.0703V20H2.92969V19.6094Z" fill="black"/>
<path d="M6.52344 19.6094H13.4766V20H6.52344V19.6094ZM6.67969 18.4375H13.3203V18.8281H6.67969V18.4375ZM6.99219 16.0938H13.0078V16.4844H6.99219V16.0938ZM8.71094 13.75H12.6562V14.1406H8.71094V13.75ZM7.65625 11.4062H11.1719V11.7969H7.65625V11.4062ZM7.10938 9.0625H12.0312V9.45312H7.10938V9.0625ZM8.28125 6.71875H12.3438V7.10938H8.28125V6.71875ZM6.09375 4.375H13.9062V4.76562H6.09375V4.375Z" fill="black"/>
<path d="M6.09375 5.78125H5.3125C5.20312 5.78125 5.11719 5.69531 5.11719 5.58594V1.21094C5.11719 1.10156 5.20312 1.01562 5.3125 1.01562H6.09375C6.20312 1.01562 6.28906 1.10156 6.28906 1.21094V2.03125H13.9062V2.42188H6.09375C5.98438 2.42188 5.89844 2.33594 5.89844 2.22656V1.40625H5.50781V5.39062H5.89844V3.00781H6.28906V5.58594C6.28906 5.69531 6.20312 5.78125 6.09375 5.78125Z" fill="black"/>
<path d="M9.45312 1.21094H9.84375V2.22656H9.45312V1.21094ZM10.1562 0H10.5469V2.22656H10.1562V0ZM7.35156 15.5078C6.48828 15.5078 5.78906 14.8086 5.78906 13.9453C5.78906 13.082 6.48828 12.3828 7.35156 12.3828C8.21484 12.3828 8.91406 13.082 8.91406 13.9453C8.91406 14.8086 8.21484 15.5078 7.35156 15.5078ZM7.35156 12.7734C6.70703 12.7734 6.17969 13.3008 6.17969 13.9453C6.17969 14.5898 6.70703 15.1172 7.35156 15.1172C7.99609 15.1172 8.52344 14.5898 8.52344 13.9453C8.52344 13.3008 7.99609 12.7734 7.35156 12.7734Z" fill="black"/>
<path d="M7.35156 14.7266C6.92187 14.7266 6.57031 14.375 6.57031 13.9453C6.57031 13.5156 6.92187 13.1641 7.35156 13.1641C7.78125 13.1641 8.13281 13.5156 8.13281 13.9453C8.13281 14.375 7.78125 14.7266 7.35156 14.7266ZM7.35156 13.5547C7.13672 13.5547 6.96094 13.7305 6.96094 13.9453C6.96094 14.1602 7.13672 14.3359 7.35156 14.3359C7.56641 14.3359 7.74219 14.1602 7.74219 13.9453C7.74219 13.7305 7.56641 13.5547 7.35156 13.5547ZM13.1328 8.08594C12.5938 8.08594 12.1563 7.64844 12.1563 7.10938V6.71875C12.1563 6.17969 12.5938 5.74219 13.1328 5.74219C13.2422 5.74219 13.3281 5.82812 13.3281 5.9375V7.89062C13.3281 8 13.2422 8.08594 13.1328 8.08594ZM12.9375 6.16797C12.7109 6.25 12.5469 6.46484 12.5469 6.71875V7.10938C12.5469 7.36328 12.7109 7.58203 12.9375 7.66016V6.16797ZM6.32812 10.8203C6.21875 10.8203 6.13281 10.7344 6.13281 10.625V7.89062C6.13281 7.78125 6.21875 7.69531 6.32812 7.69531C6.86719 7.69531 7.30469 8.13281 7.30469 8.67188V9.84375C7.30469 10.3828 6.86719 10.8203 6.32812 10.8203ZM6.52344 8.12109V10.3984C6.75 10.3164 6.91406 10.1016 6.91406 9.84766V8.67578C6.91406 8.41797 6.75 8.19922 6.52344 8.12109ZM14.6875 5.78125H13.9062C13.7969 5.78125 13.7109 5.69531 13.7109 5.58594V1.21094C13.7109 1.10156 13.7969 1.01562 13.9062 1.01562H14.6875C14.7969 1.01562 14.8828 1.10156 14.8828 1.21094V5.58594C14.8828 5.69531 14.7969 5.78125 14.6875 5.78125ZM14.1016 5.39062H14.4922V1.40625H14.1016V5.39062ZM6.94414 15.2804L7.33125 15.3339L6.70773 19.8438L6.32062 19.7902L6.94414 15.2804Z" fill="black"/>
<path d="M12.3516 12.9688C11.5977 12.9688 10.9844 12.3555 10.9844 11.6016C10.9844 10.9922 11.3945 10.457 11.9688 10.2891L10.8828 2.42188H9.11328L7.70703 12.6133L7.32031 12.5586L8.75 2.19922C8.76172 2.10156 8.84766 2.03125 8.94531 2.03125H11.0547C11.1523 2.03125 11.2344 2.10156 11.25 2.19922L12.3828 10.4141C12.3984 10.5195 12.3242 10.6172 12.2148 10.6328C11.7383 10.6992 11.375 11.1172 11.375 11.6016C11.375 12.1406 11.8125 12.5781 12.3516 12.5781C12.8906 12.5781 13.3281 12.1406 13.3281 11.6016C13.3281 11.2617 13.1562 10.9492 12.8633 10.7695L13.0703 10.4375C13.4766 10.6875 13.7188 11.125 13.7188 11.6016C13.7188 12.3555 13.1055 12.9688 12.3516 12.9688Z" fill="black"/>
<path d="M12.6976 12.7482L13.6716 19.7936L13.2845 19.8471L12.3105 12.8018L12.6976 12.7482ZM11.2266 11.2227L7.88677 9.42969C7.82427 9.39844 7.78521 9.33203 7.78521 9.26562C7.7813 9.19531 7.81646 9.12891 7.87505 9.09375L11.3594 6.89844L8.50396 4.72656C8.45708 4.69141 8.42974 4.64062 8.42583 4.58203C8.42193 4.52344 8.44536 4.46875 8.48443 4.42969L10.918 2.08594L11.1876 2.36719L8.91802 4.55469L11.8165 6.76172C11.8672 6.80078 11.8946 6.86328 11.8946 6.92578C11.8907 6.98828 11.8594 7.04688 11.8047 7.08203L8.36333 9.24609L11.4102 10.8789L11.2266 11.2227ZM11.203 11.9141L11.3682 12.268L8.66435 13.5304L8.49911 13.1764L11.203 11.9141Z" fill="black"/>
<path d="M6.75391 18.8164L6.61719 18.4492L12.457 16.2773L8.53516 14.6523L8.68359 14.293L13.0625 16.1055C13.1367 16.1367 13.1836 16.2109 13.1836 16.2891C13.1836 16.3672 13.1328 16.4414 13.0547 16.4688L6.75391 18.8164Z" fill="black"/>
</svg>
