<svg width="20" height="20" viewBox="0 0 20 20" fill="none" xmlns="http://www.w3.org/2000/svg">
<g clip-path="url(#clip0_3852_2152)">
<path d="M19.0602 8.40364C19.0531 8.33566 19.0227 8.27221 18.9742 8.22403C18.9742 8.22403 17.1923 6.4679 17.1828 6.46063V2.79645C17.1828 2.7579 17.1752 2.71972 17.1604 2.6841C17.1457 2.64847 17.124 2.61611 17.0968 2.58884C17.0695 2.56158 17.0372 2.53995 17.0015 2.5252C16.9659 2.51045 16.9277 2.50286 16.8892 2.50286H13.1721C13.1683 2.49868 13.1648 2.49438 13.1607 2.49036L11.0584 0.416924C11.0563 0.414863 11.0542 0.412831 11.052 0.41083C10.4621 -0.136943 9.5378 -0.136943 8.94784 0.41083C8.94569 0.412822 8.94358 0.414893 8.94147 0.416924L6.83925 2.49032C6.83519 2.49435 6.83155 2.49864 6.82772 2.50286H3.11073C3.07218 2.50286 3.034 2.51045 2.99837 2.5252C2.96275 2.53995 2.93038 2.56158 2.90312 2.58884C2.87586 2.61611 2.85423 2.64847 2.83948 2.6841C2.82472 2.71972 2.81713 2.7579 2.81714 2.79645V6.46325C2.80409 6.47243 1.02565 8.22407 1.02565 8.22407C0.970005 8.27944 0.938569 8.3546 0.938232 8.43309V19.7064C0.938227 19.745 0.945818 19.7832 0.960571 19.8188C0.975323 19.8544 0.996949 19.8868 1.02421 19.914C1.05148 19.9413 1.08384 19.9629 1.11947 19.9777C1.15509 19.9924 1.19327 20 1.23183 20H18.7681C18.8067 20 18.8449 19.9924 18.8805 19.9777C18.9161 19.9629 18.9485 19.9413 18.9757 19.914C19.003 19.8868 19.0246 19.8544 19.0394 19.8188C19.0541 19.7832 19.0617 19.745 19.0617 19.7064C19.0617 19.7064 19.0612 8.41341 19.0602 8.40364ZM17.1828 7.28188L18.0524 8.1395H17.1828V7.28188ZM9.35046 0.838291C9.7155 0.502236 10.2844 0.502236 10.6496 0.838291L12.3373 2.50286H7.66269L9.35046 0.838291ZM3.40433 3.09001H16.5957V4.38173H3.40433V3.09001ZM3.40433 6.84778H13.6403C13.8025 6.84778 13.9339 6.71634 13.9339 6.55419C13.9339 6.39204 13.8025 6.2606 13.6403 6.2606H3.40433V4.96888H16.5957V6.2606H15.0103C14.8482 6.2606 14.7167 6.39204 14.7167 6.55419C14.7167 6.71634 14.8482 6.84778 15.0103 6.84778H16.5957V8.1395H12.5051C12.4666 8.1395 12.4284 8.14709 12.3928 8.16184C12.3572 8.17659 12.3248 8.19822 12.2975 8.22548C12.2703 8.25275 12.2486 8.28511 12.2339 8.32074C12.2191 8.35636 12.2115 8.39454 12.2116 8.43309C12.2116 9.65259 11.2194 10.6447 9.99995 10.6447C8.78046 10.6447 7.78835 9.65255 7.78835 8.43309C7.78835 8.39454 7.78076 8.35636 7.76601 8.32074C7.75126 8.28511 7.72963 8.25275 7.70237 8.22548C7.67511 8.19822 7.64274 8.17659 7.60712 8.16184C7.57149 8.14709 7.53331 8.1395 7.49476 8.1395H3.40433V6.84778ZM2.81714 7.28188V8.1395H1.94761L2.81714 7.28188ZM18.4745 19.4128H1.52542V8.72669H7.21651C7.36366 10.1325 8.55585 11.2319 9.99995 11.2319C11.4441 11.2319 12.6363 10.1325 12.7834 8.72669H18.4745V19.4128H18.4745Z" fill="black"/>
<path d="M2.48451 9.09462C2.44596 9.09462 2.40778 9.10221 2.37215 9.11696C2.33653 9.13171 2.30416 9.15334 2.2769 9.1806C2.24963 9.20786 2.22801 9.24023 2.21326 9.27586C2.1985 9.31148 2.19091 9.34966 2.19092 9.38821V9.86575C2.19092 10.0279 2.32232 10.1593 2.48451 10.1593C2.6467 10.1593 2.77811 10.0279 2.77811 9.86575V9.38821C2.7781 9.31035 2.74716 9.23568 2.6921 9.18062C2.63705 9.12557 2.56237 9.09463 2.48451 9.09462ZM2.48451 10.5273C2.44596 10.5273 2.40778 10.5349 2.37215 10.5496C2.33653 10.5644 2.30416 10.586 2.2769 10.6133C2.24963 10.6405 2.22801 10.6729 2.21326 10.7085C2.1985 10.7441 2.19091 10.7823 2.19092 10.8209V11.2984C2.19092 11.4606 2.32232 11.592 2.48451 11.592C2.6467 11.592 2.77811 11.4606 2.77811 11.2984V10.8209C2.7781 10.743 2.74716 10.6683 2.6921 10.6133C2.63705 10.5582 2.56237 10.5273 2.48451 10.5273ZM2.48451 11.9599C2.44596 11.9599 2.40778 11.9675 2.37215 11.9823C2.33653 11.997 2.30416 12.0187 2.2769 12.0459C2.24963 12.0732 2.22801 12.1055 2.21326 12.1412C2.1985 12.1768 2.19091 12.215 2.19092 12.2535V12.7311C2.19092 12.8932 2.32232 13.0247 2.48451 13.0247C2.6467 13.0247 2.77811 12.8932 2.77811 12.7311V12.2535C2.7781 12.1757 2.74716 12.101 2.6921 12.0459C2.63705 11.9909 2.56237 11.9599 2.48451 11.9599ZM2.48451 14.8252C2.44596 14.8252 2.40778 14.8328 2.37215 14.8475C2.33653 14.8623 2.30416 14.8839 2.2769 14.9112C2.24963 14.9385 2.22801 14.9708 2.21326 15.0064C2.1985 15.0421 2.19091 15.0802 2.19092 15.1188V15.5963C2.19092 15.7585 2.32232 15.8899 2.48451 15.8899C2.6467 15.8899 2.77811 15.7585 2.77811 15.5963V15.1188C2.7781 15.0409 2.74716 14.9663 2.6921 14.9112C2.63705 14.8562 2.56237 14.8252 2.48451 14.8252ZM2.48451 16.2579C2.44596 16.2579 2.40778 16.2654 2.37215 16.2802C2.33653 16.295 2.30416 16.3166 2.2769 16.3438C2.24963 16.3711 2.22801 16.4035 2.21326 16.4391C2.1985 16.4747 2.19091 16.5129 2.19092 16.5515V17.029C2.19092 17.1911 2.32232 17.3226 2.48451 17.3226C2.6467 17.3226 2.77811 17.1911 2.77811 17.029V16.5515C2.7781 16.4736 2.74716 16.3989 2.6921 16.3439C2.63705 16.2888 2.56237 16.2579 2.48451 16.2579ZM2.48451 13.3926C2.44596 13.3926 2.40778 13.4002 2.37215 13.4149C2.33653 13.4297 2.30416 13.4513 2.2769 13.4786C2.24963 13.5058 2.22801 13.5382 2.21326 13.5738C2.1985 13.6094 2.19091 13.6476 2.19092 13.6862V14.1637C2.19092 14.3259 2.32232 14.4573 2.48451 14.4573C2.6467 14.4573 2.77811 14.3259 2.77811 14.1637V13.6862C2.7781 13.6083 2.74716 13.5336 2.6921 13.4786C2.63705 13.4235 2.56237 13.3926 2.48451 13.3926ZM2.48451 17.6122C2.44596 17.6122 2.40778 17.6198 2.37215 17.6346C2.33653 17.6493 2.30416 17.671 2.2769 17.6982C2.24963 17.7255 2.22801 17.7579 2.21326 17.7935C2.1985 17.8291 2.19091 17.8673 2.19092 17.9058V18.4538C2.19092 18.616 2.32232 18.7474 2.48451 18.7474C2.6467 18.7474 2.77811 18.616 2.77811 18.4538V17.9058C2.7781 17.828 2.74716 17.7533 2.6921 17.6982C2.63705 17.6432 2.56237 17.6122 2.48451 17.6122ZM16.3706 18.1602H15.9156C15.877 18.1602 15.8389 18.1678 15.8033 18.1826C15.7676 18.1973 15.7353 18.219 15.708 18.2462C15.6807 18.2735 15.6591 18.3059 15.6444 18.3415C15.6296 18.3771 15.622 18.4153 15.622 18.4538C15.622 18.4924 15.6296 18.5306 15.6444 18.5662C15.6591 18.6018 15.6807 18.6342 15.708 18.6614C15.7353 18.6887 15.7676 18.7103 15.8033 18.7251C15.8389 18.7398 15.877 18.7474 15.9156 18.7474H16.3706C16.4092 18.7474 16.4474 18.7398 16.483 18.7251C16.5186 18.7103 16.551 18.6887 16.5783 18.6615C16.6055 18.6342 16.6271 18.6018 16.6419 18.5662C16.6567 18.5306 16.6642 18.4924 16.6642 18.4538C16.6642 18.4153 16.6567 18.3771 16.6419 18.3415C16.6271 18.3059 16.6055 18.2735 16.5783 18.2462C16.551 18.219 16.5186 18.1973 16.483 18.1826C16.4474 18.1678 16.4092 18.1602 16.3706 18.1602ZM12.2753 18.1602H11.8202C11.7817 18.1602 11.7435 18.1678 11.7079 18.1826C11.6722 18.1973 11.6399 18.219 11.6126 18.2462C11.5853 18.2735 11.5637 18.3059 11.549 18.3415C11.5342 18.3771 11.5266 18.4153 11.5266 18.4538C11.5266 18.4924 11.5342 18.5306 11.549 18.5662C11.5637 18.6018 11.5853 18.6342 11.6126 18.6615C11.6399 18.6887 11.6722 18.7103 11.7079 18.7251C11.7435 18.7398 11.7817 18.7474 11.8202 18.7474H12.2753C12.3138 18.7474 12.352 18.7398 12.3876 18.7251C12.4232 18.7103 12.4556 18.6887 12.4829 18.6615C12.5101 18.6342 12.5318 18.6018 12.5465 18.5662C12.5613 18.5306 12.5689 18.4924 12.5688 18.4538C12.5689 18.4153 12.5613 18.3771 12.5465 18.3415C12.5318 18.3059 12.5101 18.2735 12.4829 18.2462C12.4556 18.219 12.4232 18.1973 12.3876 18.1826C12.352 18.1678 12.3138 18.1602 12.2753 18.1602ZM13.6404 18.1602H13.1854C13.1468 18.1602 13.1086 18.1678 13.073 18.1826C13.0374 18.1973 13.005 18.219 12.9778 18.2462C12.9505 18.2735 12.9289 18.3059 12.9141 18.3415C12.8994 18.3771 12.8918 18.4153 12.8918 18.4538C12.8918 18.4924 12.8994 18.5306 12.9141 18.5662C12.9289 18.6018 12.9505 18.6342 12.9778 18.6614C13.005 18.6887 13.0374 18.7103 13.073 18.7251C13.1086 18.7398 13.1468 18.7474 13.1854 18.7474H13.6404C13.7174 18.7462 13.7909 18.7147 13.8449 18.6598C13.899 18.6048 13.9293 18.5309 13.9293 18.4538C13.9293 18.3768 13.899 18.3028 13.8449 18.2479C13.7909 18.193 13.7174 18.1615 13.6404 18.1602ZM4.08451 18.1602H3.62943C3.59088 18.1602 3.5527 18.1678 3.51707 18.1826C3.48145 18.1973 3.44908 18.219 3.42182 18.2462C3.39456 18.2735 3.37293 18.3059 3.35818 18.3415C3.34343 18.3771 3.33583 18.4153 3.33584 18.4538C3.33583 18.4924 3.34343 18.5306 3.35818 18.5662C3.37293 18.6018 3.39456 18.6342 3.42182 18.6615C3.44908 18.6887 3.48145 18.7103 3.51707 18.7251C3.5527 18.7398 3.59088 18.7474 3.62943 18.7474H4.08447C4.12303 18.7474 4.16121 18.7398 4.19683 18.7251C4.23245 18.7103 4.26482 18.6887 4.29209 18.6615C4.31935 18.6342 4.34098 18.6018 4.35573 18.5662C4.37048 18.5306 4.37807 18.4924 4.37807 18.4538C4.37807 18.4153 4.37048 18.3771 4.35573 18.3415C4.34098 18.3059 4.31936 18.2735 4.2921 18.2462C4.26484 18.219 4.23248 18.1974 4.19686 18.1826C4.16124 18.1678 4.12307 18.1602 4.08451 18.1602ZM15.0055 18.1602H14.5505C14.5119 18.1602 14.4738 18.1678 14.4381 18.1826C14.4025 18.1973 14.3701 18.219 14.3429 18.2462C14.3156 18.2735 14.294 18.3059 14.2792 18.3415C14.2645 18.3771 14.2569 18.4153 14.2569 18.4538C14.2569 18.4924 14.2645 18.5306 14.2792 18.5662C14.294 18.6018 14.3156 18.6342 14.3429 18.6614C14.3701 18.6887 14.4025 18.7103 14.4381 18.7251C14.4738 18.7398 14.5119 18.7474 14.5505 18.7474H15.0055C15.0826 18.7462 15.156 18.7147 15.2101 18.6598C15.2641 18.6048 15.2944 18.5309 15.2944 18.4538C15.2944 18.3768 15.2641 18.3028 15.2101 18.2479C15.156 18.193 15.0826 18.1615 15.0055 18.1602ZM8.17986 18.1602H7.72482C7.68627 18.1602 7.64809 18.1678 7.61246 18.1826C7.57684 18.1973 7.54447 18.219 7.51721 18.2462C7.48995 18.2735 7.46832 18.3059 7.45357 18.3415C7.43882 18.3771 7.43123 18.4153 7.43123 18.4538C7.43123 18.4924 7.43882 18.5306 7.45357 18.5662C7.46832 18.6018 7.48995 18.6342 7.51721 18.6615C7.54447 18.6887 7.57684 18.7103 7.61246 18.7251C7.64809 18.7398 7.68627 18.7474 7.72482 18.7474H8.17986C8.21842 18.7474 8.2566 18.7398 8.29222 18.7251C8.32785 18.7103 8.36021 18.6887 8.38748 18.6615C8.41474 18.6342 8.43637 18.6018 8.45112 18.5662C8.46587 18.5306 8.47346 18.4924 8.47346 18.4538C8.47346 18.4153 8.46587 18.3771 8.45112 18.3415C8.43637 18.3059 8.41474 18.2735 8.38748 18.2462C8.36021 18.219 8.32785 18.1973 8.29222 18.1826C8.2566 18.1678 8.21842 18.1602 8.17986 18.1602ZM6.81475 18.1602H6.35971C6.32115 18.1602 6.28297 18.1678 6.24735 18.1826C6.21173 18.1973 6.17936 18.219 6.15209 18.2462C6.12483 18.2735 6.1032 18.3059 6.08845 18.3415C6.0737 18.3771 6.06611 18.4153 6.06611 18.4538C6.06611 18.4924 6.0737 18.5306 6.08845 18.5662C6.1032 18.6018 6.12483 18.6342 6.15209 18.6615C6.17936 18.6887 6.21173 18.7103 6.24735 18.7251C6.28297 18.7398 6.32115 18.7474 6.35971 18.7474H6.81475C6.8533 18.7474 6.89148 18.7398 6.92711 18.7251C6.96273 18.7103 6.9951 18.6887 7.02236 18.6615C7.04962 18.6342 7.07125 18.6018 7.086 18.5662C7.10075 18.5306 7.10835 18.4924 7.10834 18.4538C7.10835 18.4153 7.10075 18.3771 7.086 18.3415C7.07125 18.3059 7.04962 18.2735 7.02236 18.2462C6.9951 18.219 6.96273 18.1973 6.92711 18.1826C6.89148 18.1678 6.8533 18.1602 6.81475 18.1602ZM5.44963 18.1602H4.99459C4.95603 18.1602 4.91785 18.1678 4.88223 18.1826C4.84661 18.1973 4.81424 18.219 4.78698 18.2462C4.75971 18.2735 4.73809 18.3059 4.72333 18.3415C4.70858 18.3771 4.70099 18.4153 4.701 18.4538C4.70099 18.4924 4.70858 18.5306 4.72333 18.5662C4.73809 18.6018 4.75971 18.6342 4.78698 18.6615C4.81424 18.6887 4.84661 18.7103 4.88223 18.7251C4.91785 18.7398 4.95603 18.7474 4.99459 18.7474H5.44963C5.52667 18.7462 5.60012 18.7147 5.65416 18.6598C5.70819 18.6048 5.73847 18.5309 5.73847 18.4538C5.73847 18.3768 5.70819 18.3028 5.65416 18.2479C5.60012 18.193 5.52667 18.1615 5.44963 18.1602ZM9.54502 18.1602H9.08998C9.05142 18.1602 9.01324 18.1678 8.97762 18.1826C8.942 18.1973 8.90963 18.219 8.88237 18.2462C8.8551 18.2735 8.83348 18.3059 8.81873 18.3415C8.80397 18.3771 8.79638 18.4153 8.79639 18.4538C8.79638 18.4924 8.80397 18.5306 8.81873 18.5662C8.83348 18.6018 8.8551 18.6342 8.88237 18.6615C8.90963 18.6887 8.942 18.7103 8.97762 18.7251C9.01324 18.7398 9.05142 18.7474 9.08998 18.7474H9.54502C9.62206 18.7462 9.69551 18.7147 9.74955 18.6598C9.80358 18.6048 9.83386 18.5309 9.83386 18.4538C9.83386 18.3768 9.80358 18.3028 9.74955 18.2479C9.69551 18.193 9.62206 18.1615 9.54502 18.1602ZM10.9101 18.1602H10.4551C10.4165 18.1602 10.3784 18.1678 10.3427 18.1826C10.3071 18.1973 10.2747 18.219 10.2475 18.2462C10.2202 18.2735 10.1986 18.3059 10.1838 18.3415C10.1691 18.3771 10.1615 18.4153 10.1615 18.4538C10.1615 18.4924 10.1691 18.5306 10.1838 18.5662C10.1986 18.6018 10.2202 18.6342 10.2475 18.6615C10.2747 18.6887 10.3071 18.7103 10.3427 18.7251C10.3784 18.7398 10.4165 18.7474 10.4551 18.7474H10.9101C10.9487 18.7474 10.9869 18.7398 11.0225 18.7251C11.0581 18.7103 11.0905 18.6887 11.1177 18.6614C11.145 18.6342 11.1666 18.6018 11.1814 18.5662C11.1961 18.5306 11.2037 18.4924 11.2037 18.4538C11.2037 18.4153 11.1961 18.3771 11.1814 18.3415C11.1666 18.3059 11.145 18.2735 11.1177 18.2462C11.0905 18.219 11.0581 18.1973 11.0225 18.1826C10.9869 18.1678 10.9487 18.1602 10.9101 18.1602ZM17.5156 17.6122C17.477 17.6122 17.4389 17.6198 17.4032 17.6346C17.3676 17.6493 17.3353 17.671 17.308 17.6982C17.2807 17.7255 17.2591 17.7579 17.2444 17.7935C17.2296 17.8291 17.222 17.8673 17.222 17.9058V18.4538C17.222 18.5317 17.2529 18.6064 17.308 18.6614C17.3631 18.7165 17.4377 18.7474 17.5156 18.7474C17.5935 18.7474 17.6681 18.7165 17.7232 18.6614C17.7783 18.6064 17.8092 18.5317 17.8092 18.4538V17.9058C17.8092 17.828 17.7783 17.7533 17.7232 17.6982C17.6681 17.6432 17.5935 17.6122 17.5156 17.6122ZM17.5156 13.3534C17.477 13.3534 17.4389 13.361 17.4032 13.3758C17.3676 13.3905 17.3353 13.4122 17.308 13.4394C17.2807 13.4667 17.2591 13.4991 17.2444 13.5347C17.2296 13.5703 17.222 13.6085 17.222 13.647V14.1246C17.222 14.2024 17.2529 14.2771 17.308 14.3322C17.3631 14.3872 17.4377 14.4182 17.5156 14.4182C17.5935 14.4182 17.6681 14.3872 17.7232 14.3322C17.7783 14.2771 17.8092 14.2024 17.8092 14.1246V13.647C17.8092 13.5692 17.7783 13.4945 17.7232 13.4394C17.6681 13.3844 17.5935 13.3534 17.5156 13.3534ZM17.5156 10.4881C17.477 10.4881 17.4389 10.4957 17.4032 10.5105C17.3676 10.5252 17.3353 10.5469 17.308 10.5741C17.2807 10.6014 17.2591 10.6337 17.2444 10.6694C17.2296 10.705 17.222 10.7432 17.222 10.7817V11.2593C17.222 11.3371 17.2529 11.4118 17.308 11.4669C17.3631 11.5219 17.4377 11.5529 17.5156 11.5529C17.5935 11.5529 17.6681 11.5219 17.7232 11.4669C17.7783 11.4118 17.8092 11.3371 17.8092 11.2593V10.7817C17.8092 10.7039 17.7783 10.6292 17.7232 10.5741C17.6681 10.5191 17.5935 10.4881 17.5156 10.4881ZM17.5156 9.05548C17.477 9.05548 17.4389 9.06307 17.4032 9.07782C17.3676 9.09257 17.3353 9.1142 17.308 9.14146C17.2807 9.16872 17.2591 9.20109 17.2444 9.23671C17.2296 9.27234 17.222 9.31052 17.222 9.34907V9.82661C17.222 9.90448 17.2529 9.97916 17.308 10.0342C17.3631 10.0893 17.4377 10.1202 17.5156 10.1202C17.5935 10.1202 17.6681 10.0893 17.7232 10.0342C17.7783 9.97916 17.8092 9.90448 17.8092 9.82661V9.34907C17.8092 9.27121 17.7783 9.19654 17.7232 9.14148C17.6681 9.08643 17.5935 9.05549 17.5156 9.05548ZM17.5156 14.7861C17.477 14.7861 17.4389 14.7937 17.4032 14.8084C17.3676 14.8232 17.3353 14.8448 17.308 14.872C17.2807 14.8993 17.2591 14.9317 17.2444 14.9673C17.2296 15.0029 17.222 15.0411 17.222 15.0797V15.5572C17.222 15.6351 17.2529 15.7097 17.308 15.7648C17.3631 15.8199 17.4377 15.8508 17.5156 15.8508C17.5935 15.8508 17.6681 15.8199 17.7232 15.7648C17.7783 15.7097 17.8092 15.6351 17.8092 15.5572V15.0797C17.8092 15.0018 17.7783 14.9271 17.7232 14.8721C17.6681 14.817 17.5935 14.7861 17.5156 14.7861ZM17.5156 11.9208C17.477 11.9208 17.4389 11.9284 17.4032 11.9431C17.3676 11.9579 17.3353 11.9795 17.308 12.0068C17.2807 12.034 17.2591 12.0664 17.2444 12.102C17.2296 12.1376 17.222 12.1758 17.222 12.2144V12.6919C17.222 12.7698 17.2529 12.8445 17.308 12.8995C17.3631 12.9546 17.4377 12.9855 17.5156 12.9855C17.5935 12.9855 17.6681 12.9546 17.7232 12.8995C17.7783 12.8445 17.8092 12.7698 17.8092 12.6919V12.2144C17.8092 12.1365 17.7783 12.0619 17.7232 12.0068C17.6681 11.9517 17.5935 11.9208 17.5156 11.9208ZM17.5156 16.2187C17.477 16.2187 17.4389 16.2263 17.4032 16.2411C17.3676 16.2558 17.3353 16.2774 17.308 16.3047C17.2807 16.332 17.2591 16.3643 17.2444 16.4C17.2296 16.4356 17.222 16.4738 17.222 16.5123V16.9899C17.222 17.0677 17.2529 17.1424 17.308 17.1975C17.3631 17.2525 17.4377 17.2834 17.5156 17.2834C17.5935 17.2834 17.6681 17.2525 17.7232 17.1975C17.7783 17.1424 17.8092 17.0677 17.8092 16.9899V16.5123C17.8092 16.4345 17.7783 16.3598 17.7232 16.3047C17.6681 16.2497 17.5935 16.2187 17.5156 16.2187ZM12.5052 15.3419H7.49486C7.45631 15.3419 7.41813 15.3495 7.3825 15.3643C7.34688 15.379 7.31451 15.4006 7.28725 15.4279C7.25999 15.4552 7.23836 15.4875 7.22361 15.5232C7.20885 15.5588 7.20126 15.597 7.20127 15.6355C7.20126 15.6741 7.20885 15.7123 7.22361 15.7479C7.23836 15.7835 7.25999 15.8159 7.28725 15.8431C7.31451 15.8704 7.34688 15.892 7.3825 15.9068C7.41813 15.9215 7.45631 15.9291 7.49486 15.9291H12.5052C12.5438 15.9291 12.582 15.9215 12.6176 15.9068C12.6532 15.892 12.6856 15.8704 12.7128 15.8431C12.7401 15.8159 12.7617 15.7835 12.7765 15.7479C12.7912 15.7123 12.7988 15.6741 12.7988 15.6355C12.7988 15.597 12.7912 15.5588 12.7765 15.5232C12.7617 15.4875 12.7401 15.4552 12.7128 15.4279C12.6856 15.4006 12.6532 15.379 12.6176 15.3643C12.582 15.3495 12.5438 15.3419 12.5052 15.3419Z" fill="black"/>
</g>
<defs>
<clipPath id="clip0_3852_2152">
<rect width="20" height="20" fill="white"/>
</clipPath>
</defs>
</svg>
