<svg xmlns="http://www.w3.org/2000/svg" width="21" height="20" viewBox="0 0 21 20" fill="none">
<path d="M10.5308 12.5C11.9115 12.5 13.0308 11.3807 13.0308 10C13.0308 8.61929 11.9115 7.5 10.5308 7.5C9.15005 7.5 8.03076 8.61929 8.03076 10C8.03076 11.3807 9.15005 12.5 10.5308 12.5Z" fill="#CED4DA"/>
<path fill-rule="evenodd" clip-rule="evenodd" d="M1.19502 10.5904C1.04815 10.2087 1.04828 9.78563 1.19537 9.40408C2.63954 5.65788 6.27406 3 10.5294 3C14.7867 3 18.4227 5.66051 19.8655 9.40962C20.0123 9.79127 20.0122 10.2144 19.8651 10.5959C18.4209 14.3421 14.7864 17 10.5311 17C6.27374 17 2.63774 14.3395 1.19502 10.5904ZM14.5311 10C14.5311 12.2091 12.7403 14 10.5311 14C8.322 14 6.53113 12.2091 6.53113 10C6.53113 7.79086 8.322 6 10.5311 6C12.7403 6 14.5311 7.79086 14.5311 10Z" fill="#CED4DA"/>
</svg>