<svg width="20" height="20" viewBox="0 0 20 20" fill="none" xmlns="http://www.w3.org/2000/svg">
<path d="M17.9047 16.1949H15.6914C15.5878 16.1949 15.4885 16.1538 15.4152 16.0805C15.3419 16.0072 15.3008 15.9079 15.3008 15.8043C15.3008 15.7007 15.3419 15.6013 15.4152 15.5281C15.4885 15.4548 15.5878 15.4137 15.6914 15.4137H17.9047C18.1005 15.4134 18.2882 15.3356 18.4267 15.1971C18.5652 15.0586 18.6431 14.8709 18.6433 14.6751V7.8996C18.6431 7.70379 18.5652 7.51605 18.4267 7.37759C18.2882 7.23913 18.1005 7.16124 17.9047 7.16101H2.09532C1.8995 7.16123 1.71176 7.23911 1.57328 7.37758C1.43481 7.51604 1.35692 7.70378 1.35669 7.8996V14.6751C1.35692 14.8709 1.43481 15.0586 1.57328 15.1971C1.71176 15.3356 1.8995 15.4134 2.09532 15.4137H4.3086C4.4122 15.4137 4.51156 15.4548 4.58482 15.5281C4.65807 15.6013 4.69923 15.7007 4.69923 15.8043C4.69923 15.9079 4.65807 16.0072 4.58482 16.0805C4.51156 16.1538 4.4122 16.1949 4.3086 16.1949H2.09532C1.69237 16.1945 1.30605 16.0342 1.02112 15.7493C0.736185 15.4643 0.575905 15.078 0.575439 14.6751V7.8996C0.575905 7.49665 0.736185 7.11034 1.02112 6.82541C1.30605 6.54049 1.69237 6.38022 2.09532 6.37976H17.9047C18.3077 6.38021 18.694 6.54047 18.9789 6.8254C19.2638 7.11033 19.4241 7.49665 19.4246 7.8996V14.6751C19.4241 15.078 19.2638 15.4643 18.9789 15.7493C18.694 16.0342 18.3077 16.1945 17.9047 16.1949Z" fill="black"/>
<path d="M4.30859 7.16102C4.20499 7.16102 4.10564 7.11986 4.03238 7.0466C3.95912 6.97335 3.91797 6.87399 3.91797 6.77039V3.47301C3.91842 3.07004 4.0787 2.68371 4.36365 2.39878C4.64859 2.11384 5.03493 1.95357 5.43789 1.95312H13.207C13.3106 1.95312 13.41 1.99428 13.4832 2.06754C13.5565 2.14079 13.5977 2.24015 13.5977 2.34375C13.5977 2.44735 13.5565 2.54671 13.4832 2.61996C13.41 2.69322 13.3106 2.73438 13.207 2.73438H5.43789C5.24206 2.73459 5.05431 2.81248 4.91584 2.95096C4.77736 3.08943 4.69947 3.27718 4.69926 3.47301V6.77039C4.69926 6.87399 4.6581 6.97335 4.58485 7.0466C4.51159 7.11986 4.41219 7.16102 4.30859 7.16102ZM15.6914 7.16102C15.5878 7.16102 15.4884 7.11986 15.4152 7.0466C15.3419 6.97335 15.3008 6.87399 15.3008 6.77039V4.82809C15.3008 4.72449 15.3419 4.62513 15.4152 4.55187C15.4884 4.47862 15.5878 4.43746 15.6914 4.43746C15.795 4.43746 15.8944 4.47862 15.9676 4.55187C16.0409 4.62513 16.082 4.72449 16.082 4.82809V6.77039C16.082 6.87399 16.0409 6.97335 15.9676 7.0466C15.8944 7.11986 15.795 7.16102 15.6914 7.16102ZM14.5621 18.0469H5.43789C5.03494 18.0464 4.64861 17.8862 4.36368 17.6012C4.07874 17.3163 3.91846 16.93 3.91801 16.527V12.1907C3.91801 12.0871 3.95916 11.9878 4.03242 11.9145C4.10568 11.8413 4.20503 11.8001 4.30863 11.8001C4.41223 11.8001 4.51159 11.8413 4.58485 11.9145C4.6581 11.9878 4.69926 12.0871 4.69926 12.1907V16.527C4.69949 16.7229 4.77738 16.9106 4.91585 17.0491C5.05432 17.1875 5.24207 17.2654 5.43789 17.2656H14.5621C14.758 17.2654 14.9457 17.1875 15.0842 17.049C15.2226 16.9106 15.3005 16.7228 15.3007 16.527V12.1907C15.3007 12.0871 15.3419 11.9878 15.4152 11.9145C15.4884 11.8413 15.5878 11.8001 15.6914 11.8001C15.795 11.8001 15.8943 11.8413 15.9676 11.9145C16.0408 11.9878 16.082 12.0871 16.082 12.1907V16.527C16.0815 16.93 15.9213 17.3163 15.6363 17.6012C15.3514 17.8861 14.9651 18.0464 14.5621 18.0469Z" fill="black"/>
<path d="M15.6914 5.21871H14.1104C13.7674 5.21833 13.4384 5.08187 13.1958 4.83928C12.9532 4.59668 12.8168 4.26777 12.8164 3.92469V2.34375C12.8164 2.24015 12.8576 2.14079 12.9308 2.06754C13.0041 1.99428 13.1034 1.95312 13.207 1.95312C13.3106 1.95312 13.41 1.99428 13.4832 2.06754C13.5565 2.14079 13.5977 2.24015 13.5977 2.34375V3.92469C13.5978 4.06064 13.6519 4.19097 13.748 4.2871C13.8441 4.38323 13.9745 4.43731 14.1104 4.43746H15.6913C15.7949 4.43746 15.8943 4.47862 15.9675 4.55187C16.0408 4.62513 16.082 4.72449 16.082 4.82809C16.082 4.93169 16.0408 5.03104 15.9675 5.1043C15.8943 5.17756 15.7949 5.21871 15.6913 5.21871H15.6914Z" fill="black"/>
<path d="M15.6915 5.21872C15.6401 5.21879 15.5893 5.20871 15.5419 5.18907C15.4945 5.16942 15.4514 5.14061 15.4152 5.10427L12.9309 2.61997C12.8576 2.54671 12.8165 2.44735 12.8165 2.34375C12.8165 2.24014 12.8576 2.14079 12.9309 2.06753C13.0042 1.99427 13.1035 1.95312 13.2071 1.95313C13.3107 1.95313 13.4101 1.99429 13.4833 2.06755L15.9676 4.55185C16.0223 4.60647 16.0595 4.67607 16.0746 4.75185C16.0896 4.82763 16.0819 4.90617 16.0524 4.97756C16.0228 5.04894 15.9727 5.10995 15.9085 5.15288C15.8442 5.19581 15.7687 5.21872 15.6915 5.21872ZM16.7303 12.5814H3.26978C3.16618 12.5814 3.06682 12.5402 2.99356 12.467C2.92031 12.3937 2.87915 12.2944 2.87915 12.1908C2.87915 12.0872 2.92031 11.9878 2.99356 11.9145C3.06682 11.8413 3.16618 11.8001 3.26978 11.8001H16.7303C16.8339 11.8001 16.9333 11.8413 17.0065 11.9145C17.0798 11.9878 17.1209 12.0872 17.1209 12.1908C17.1209 12.2944 17.0798 12.3937 17.0065 12.467C16.9333 12.5402 16.8339 12.5814 16.7303 12.5814ZM13.7569 14.4559H6.24317C6.13957 14.4559 6.04022 14.4147 5.96696 14.3415C5.8937 14.2682 5.85255 14.1688 5.85255 14.0652C5.85255 13.9616 5.8937 13.8623 5.96696 13.789C6.04022 13.7158 6.13957 13.6746 6.24317 13.6746H13.7569C13.8605 13.6746 13.9599 13.7158 14.0331 13.789C14.1064 13.8623 14.1475 13.9616 14.1475 14.0652C14.1475 14.1688 14.1064 14.2682 14.0331 14.3415C13.9599 14.4147 13.8605 14.4559 13.7569 14.4559ZM13.7569 16.1724H6.24317C6.13957 16.1724 6.04022 16.1312 5.96696 16.0579C5.8937 15.9847 5.85255 15.8853 5.85255 15.7817C5.85255 15.6781 5.8937 15.5788 5.96696 15.5055C6.04022 15.4323 6.13957 15.3911 6.24317 15.3911H13.7569C13.8605 15.3911 13.9599 15.4323 14.0331 15.5055C14.1064 15.5788 14.1475 15.6781 14.1475 15.7817C14.1475 15.8853 14.1064 15.9847 14.0331 16.0579C13.9599 16.1312 13.8605 16.1724 13.7569 16.1724ZM16.5045 10.4132C16.2843 10.4132 16.069 10.3479 15.8859 10.2256C15.7028 10.1033 15.5601 9.9294 15.4758 9.72596C15.3916 9.52252 15.3695 9.29866 15.4125 9.08268C15.4554 8.8667 15.5614 8.66832 15.7171 8.5126C15.8729 8.35689 16.0712 8.25085 16.2872 8.20789C16.5032 8.16493 16.7271 8.18698 16.9305 8.27125C17.1339 8.35552 17.3078 8.49823 17.4302 8.68132C17.5525 8.86442 17.6178 9.07969 17.6178 9.29989C17.6174 9.59505 17.5 9.87803 17.2913 10.0867C17.0826 10.2955 16.7997 10.4129 16.5045 10.4132ZM16.5045 8.96778C16.4388 8.96777 16.3746 8.98723 16.32 9.02372C16.2653 9.0602 16.2228 9.11206 16.1976 9.17275C16.1725 9.23343 16.1659 9.30021 16.1787 9.36464C16.1915 9.42906 16.2231 9.48825 16.2696 9.5347C16.316 9.58116 16.3752 9.61279 16.4396 9.62562C16.504 9.63844 16.5708 9.63186 16.6315 9.60673C16.6922 9.5816 16.7441 9.53903 16.7806 9.48441C16.8171 9.42979 16.8365 9.36558 16.8365 9.29989C16.8364 9.21185 16.8014 9.12745 16.7392 9.06519C16.6769 9.00293 16.5925 8.9679 16.5045 8.96778Z" fill="black"/>
</svg>
