<svg width="20" height="20" viewBox="0 0 20 20" fill="none" xmlns="http://www.w3.org/2000/svg">
<g clip-path="url(#clip0_3891_133)">
<path d="M12.7584 3.69437C12.7766 3.65756 12.8018 3.62469 12.8326 3.59763C12.8635 3.57057 12.8994 3.54986 12.9382 3.53668C12.9771 3.52351 13.0182 3.51812 13.0591 3.52083C13.1001 3.52355 13.1401 3.53431 13.1769 3.5525C13.8898 3.90397 14.5394 4.37125 15.0994 4.93531L15.1003 4.93656C15.7642 5.60166 16.2904 6.39126 16.6485 7.2601C17.0067 8.12894 17.1899 9.05992 17.1875 9.99969C17.1875 10.0826 17.1546 10.1621 17.096 10.2207C17.0374 10.2793 16.9579 10.3122 16.875 10.3122C16.7921 10.3122 16.7126 10.2793 16.654 10.2207C16.5954 10.1621 16.5625 10.0826 16.5625 9.99969C16.5646 9.14156 16.3973 8.29144 16.0702 7.4981C15.7431 6.70476 15.2626 5.9838 14.6562 5.37656L14.6556 5.37594C14.1445 4.86066 13.5513 4.43381 12.9003 4.11281C12.8635 4.09468 12.8306 4.06946 12.8036 4.03861C12.7765 4.00776 12.7558 3.97187 12.7426 3.93301C12.7294 3.89414 12.7241 3.85306 12.7268 3.81212C12.7295 3.77117 12.7402 3.73116 12.7584 3.69437ZM14.27 14.3534C14.0085 15.0395 13.6858 15.7006 13.3056 16.3287C13.285 16.3652 13.2573 16.3972 13.2242 16.4227C13.191 16.4482 13.153 16.4669 13.1125 16.4775C13.072 16.488 13.0298 16.4904 12.9884 16.4843C12.947 16.4783 12.9072 16.464 12.8714 16.4423C12.8356 16.4206 12.8045 16.3919 12.78 16.3579C12.7556 16.324 12.7381 16.2854 12.7288 16.2446C12.7195 16.2038 12.7185 16.1615 12.7258 16.1203C12.7332 16.0791 12.7487 16.0398 12.7716 16.0047C13.132 15.4087 13.438 14.7815 13.6859 14.1306C14.0393 13.2042 14.2717 12.2359 14.3772 11.25H13.9422C13.7769 12.7469 13.3069 14.1942 12.5609 15.5025C12.2754 16.0045 11.9514 16.4836 11.5919 16.9356C11.5395 16.9978 11.4649 17.0372 11.3839 17.0452C11.303 17.0533 11.2221 17.0295 11.1584 16.9789C11.0947 16.9283 11.0533 16.8549 11.0429 16.7742C11.0326 16.6935 11.054 16.612 11.1028 16.5469C11.442 16.12 11.7478 15.6676 12.0175 15.1937C12.3212 14.6598 12.5776 14.1002 12.7838 13.5216C13.0443 12.7864 13.2221 12.0245 13.3138 11.25H12.8722C12.7324 12.4343 12.378 13.5831 11.8263 14.6403C11.3588 15.5411 10.7588 16.3667 10.0462 17.0894C9.9877 17.1468 9.90892 17.1789 9.82692 17.1787C9.74491 17.1786 9.66625 17.1462 9.6079 17.0886C9.54954 17.031 9.51617 16.9528 9.51499 16.8708C9.5138 16.7888 9.5449 16.7096 9.60156 16.6503C10.6436 15.5927 11.4237 14.306 11.8797 12.8931C12.0497 12.3573 12.1715 11.8075 12.2437 11.25H11.8109C11.757 11.6379 11.6779 12.022 11.5744 12.3997C11.3282 13.2933 10.9458 14.1435 10.4406 14.9206C9.94785 15.6776 9.34533 16.3571 8.65281 16.9369C8.62137 16.9636 8.58495 16.9838 8.54565 16.9963C8.50636 17.0089 8.46497 17.0135 8.42388 17.01C8.38278 17.0064 8.34279 16.9948 8.30621 16.9758C8.26963 16.9567 8.23719 16.9306 8.21075 16.8989C8.18431 16.8673 8.1644 16.8307 8.15216 16.7913C8.13993 16.7519 8.13561 16.7105 8.13947 16.6694C8.14332 16.6284 8.15526 16.5885 8.17461 16.552C8.19395 16.5156 8.22032 16.4834 8.25219 16.4572C9.22041 15.6466 9.99514 14.6299 10.5197 13.4812C10.8416 12.7716 11.0633 12.0207 11.1784 11.25H10.7425C10.7241 11.3681 10.7037 11.4856 10.68 11.6025C10.6634 11.6837 10.6153 11.755 10.5461 11.8007C10.477 11.8465 10.3925 11.8628 10.3112 11.8463C10.23 11.8297 10.1587 11.7815 10.113 11.7124C10.0673 11.6432 10.0509 11.5587 10.0675 11.4775C10.0831 11.4022 10.095 11.3259 10.1081 11.25H9.66687C9.51964 12.0655 9.22571 12.8475 8.79938 13.5581C8.40494 14.2127 7.90593 14.7983 7.32219 15.2916C7.01449 15.5509 6.68481 15.7831 6.33687 15.9853C6.30138 16.007 6.2619 16.0215 6.22075 16.0277C6.1796 16.034 6.13761 16.032 6.09725 16.0218C6.0569 16.0116 6.01898 15.9935 5.98572 15.9685C5.95247 15.9434 5.92455 15.912 5.90361 15.876C5.88267 15.8401 5.86913 15.8003 5.86377 15.759C5.85842 15.7177 5.86137 15.6758 5.87244 15.6357C5.88352 15.5955 5.9025 15.558 5.92826 15.5253C5.95403 15.4927 5.98607 15.4654 6.0225 15.4453C6.94309 14.9088 7.71376 14.1491 8.26344 13.2362C8.63148 12.6232 8.89102 11.9513 9.03063 11.25H7.49469C7.30418 11.9697 6.9478 12.6348 6.4541 13.1921C5.96039 13.7493 5.34307 14.1832 4.65156 14.4591C4.61348 14.4744 4.57275 14.482 4.53171 14.4816C4.49067 14.4812 4.45011 14.4727 4.41236 14.4565C4.37461 14.4404 4.3404 14.4171 4.31168 14.3877C4.28297 14.3584 4.26031 14.3237 4.245 14.2856C4.22969 14.2475 4.22204 14.2068 4.22247 14.1658C4.2229 14.1247 4.23141 14.0842 4.24752 14.0464C4.26362 14.0087 4.28701 13.9745 4.31633 13.9457C4.34566 13.917 4.38035 13.8944 4.41844 13.8791C5.37 13.4941 6.14769 12.7741 6.60469 11.855C6.69976 11.6598 6.77968 11.4575 6.84375 11.25H5.74C5.79794 11.4526 5.87053 11.6507 5.95719 11.8428C5.99167 11.9182 5.99477 12.0043 5.96582 12.082C5.93687 12.1597 5.87823 12.2227 5.80281 12.2572C5.72739 12.2917 5.64136 12.2948 5.56365 12.2658C5.48594 12.2369 5.42292 12.1782 5.38844 12.1028C5.26413 11.8281 5.16508 11.5427 5.0925 11.25H4.64125C4.75174 11.7291 4.92623 12.1912 5.16 12.6237C5.17962 12.6598 5.19194 12.6994 5.19627 12.7402C5.20059 12.781 5.19684 12.8223 5.18522 12.8616C5.17359 12.901 5.15433 12.9377 5.12853 12.9696C5.10273 13.0015 5.0709 13.028 5.03484 13.0477C4.99879 13.0673 4.95923 13.0796 4.91841 13.0839C4.8776 13.0882 4.83633 13.0845 4.79697 13.0729C4.75761 13.0613 4.72092 13.042 4.689 13.0162C4.65708 12.9904 4.63055 12.9586 4.61094 12.9225C4.32715 12.3978 4.12174 11.8343 4.00125 11.25H3.56469C3.68774 11.9 3.90902 12.5275 4.22094 13.1109C4.24043 13.1471 4.25262 13.1867 4.25681 13.2275C4.261 13.2683 4.25711 13.3095 4.24535 13.3489C4.2336 13.3882 4.21422 13.4248 4.18831 13.4566C4.16241 13.4885 4.13049 13.5149 4.09438 13.5344C4.05826 13.5539 4.01866 13.5661 3.97784 13.5702C3.93701 13.5744 3.89576 13.5705 3.85644 13.5588C3.81712 13.547 3.7805 13.5277 3.74868 13.5018C3.71685 13.4758 3.69043 13.4439 3.67094 13.4078C3.30927 12.733 3.05847 12.0044 2.92812 11.25H1.5625C1.47962 11.25 1.40013 11.2171 1.34153 11.1585C1.28292 11.0999 1.25 11.0204 1.25 10.9375C1.25 10.8546 1.28292 10.7751 1.34153 10.7165C1.40013 10.6579 1.47962 10.625 1.5625 10.625H2.845C2.68362 8.84157 3.19813 7.06259 4.28656 5.64062C4.31149 5.608 4.34261 5.5806 4.37812 5.56C4.41364 5.5394 4.45287 5.526 4.49357 5.52056C4.53427 5.51512 4.57564 5.51775 4.61532 5.52829C4.655 5.53884 4.69222 5.5571 4.72484 5.58203C4.75747 5.60696 4.78486 5.63807 4.80547 5.67359C4.82607 5.70911 4.83947 5.74834 4.84491 5.78904C4.85035 5.82973 4.84772 5.87111 4.83718 5.91079C4.82663 5.95047 4.80837 5.98769 4.78344 6.02031C3.77788 7.33317 3.30942 8.97941 3.47312 10.625H3.90438C3.88213 10.4173 3.87066 10.2086 3.87 9.99969C3.86966 8.97895 4.12424 7.97428 4.61062 7.07687C4.62964 7.03976 4.65588 7.00683 4.68782 6.98002C4.71976 6.9532 4.75674 6.93305 4.79658 6.92075C4.83642 6.90845 4.87833 6.90425 4.91982 6.9084C4.96131 6.91254 5.00155 6.92495 5.03818 6.94489C5.0748 6.96483 5.10707 6.99189 5.13307 7.02449C5.15907 7.05709 5.17828 7.09457 5.18958 7.13471C5.20087 7.17485 5.20402 7.21684 5.19883 7.25822C5.19364 7.2996 5.18023 7.33951 5.15938 7.37562C4.72301 8.1814 4.49465 9.08334 4.495 9.99969C4.49537 10.2087 4.50779 10.4174 4.53219 10.625H4.97094C4.84027 9.57858 5.03954 8.51748 5.54093 7.58976C6.04233 6.66204 6.82083 5.91399 7.76781 5.45C7.80464 5.43188 7.84468 5.4212 7.88565 5.41855C7.92661 5.41591 7.96769 5.42136 8.00654 5.43459C8.0454 5.44782 8.08127 5.46858 8.1121 5.49567C8.14294 5.52277 8.16813 5.55567 8.18625 5.5925C8.20437 5.62933 8.21505 5.66937 8.2177 5.71033C8.22034 5.75129 8.21489 5.79238 8.20166 5.83123C8.18843 5.87009 8.16767 5.90596 8.14058 5.93679C8.11348 5.96762 8.08058 5.99282 8.04375 6.01094C7.2012 6.42302 6.51103 7.09167 6.07248 7.92075C5.63394 8.74983 5.46961 9.69663 5.60313 10.625H6.99C7.02353 10.4182 7.04129 10.2092 7.04313 9.99969C7.04313 9.21548 7.35465 8.46338 7.90917 7.90886C8.4637 7.35434 9.21579 7.04281 10 7.04281C10.7842 7.04281 11.5363 7.35434 12.0908 7.90886C12.6453 8.46338 12.9569 9.21548 12.9569 9.99969C12.9569 10.2091 12.9456 10.4169 12.9328 10.625H13.3687C13.3809 10.4172 13.3894 10.2087 13.3894 9.99969C13.3894 9.10077 13.0323 8.23867 12.3967 7.60304C11.761 6.96741 10.8989 6.61031 10 6.61031C9.10108 6.61031 8.23898 6.96741 7.60335 7.60304C6.96772 8.23867 6.61062 9.10077 6.61062 9.99969C6.61062 10.0826 6.5777 10.1621 6.5191 10.2207C6.46049 10.2793 6.381 10.3122 6.29812 10.3122C6.21524 10.3122 6.13576 10.2793 6.07715 10.2207C6.01855 10.1621 5.98562 10.0826 5.98562 9.99969C5.98562 8.93501 6.40857 7.91394 7.16141 7.1611C7.91425 6.40825 8.93532 5.98531 10 5.98531C11.0647 5.98531 12.0857 6.40825 12.8386 7.1611C13.5914 7.91394 14.0144 8.93501 14.0144 9.99969C14.0144 10.2091 14.0063 10.4172 13.9947 10.625H14.4284C14.4403 10.4168 14.4465 10.2083 14.4472 9.99969C14.4467 9.33357 14.2965 8.67608 14.0079 8.07575C13.7192 7.47542 13.2994 6.9476 12.7795 6.53124C12.2595 6.11489 11.6527 5.82064 11.0038 5.67022C10.3548 5.5198 9.68043 5.51706 9.03031 5.66219C8.94938 5.68021 8.8646 5.66535 8.79463 5.62087C8.72465 5.57639 8.67521 5.50593 8.65719 5.425C8.63916 5.34407 8.65402 5.25929 8.6985 5.18931C8.74299 5.11934 8.81344 5.0699 8.89437 5.05188C9.63585 4.88661 10.405 4.88997 11.145 5.06168C11.885 5.2334 12.577 5.56909 13.1699 6.044C13.7629 6.5189 14.2416 7.12089 14.5708 7.80554C14.9 8.49019 15.0712 9.24002 15.0719 9.99969C15.0719 10.2091 15.0656 10.4172 15.055 10.625H15.4825C15.4972 10.3225 15.5047 10.0191 15.4975 9.71562C15.4269 8.29395 14.8051 6.95572 13.7641 5.985C13.7036 5.92823 13.6682 5.84976 13.6656 5.76686C13.663 5.68397 13.6934 5.60343 13.7502 5.54297C13.8069 5.48251 13.8854 5.44708 13.9683 5.44447C14.0512 5.44186 14.1317 5.47229 14.1922 5.52906C15.3533 6.6126 16.0458 8.10648 16.1222 9.69281C16.1297 10.0041 16.1222 10.3147 16.1081 10.625H18.4375C18.5204 10.625 18.5999 10.6579 18.6585 10.7165C18.7171 10.7751 18.75 10.8546 18.75 10.9375C18.75 11.0204 18.7171 11.0999 18.6585 11.1585C18.5999 11.2171 18.5204 11.25 18.4375 11.25H16.065C15.947 12.5238 15.6447 13.7737 15.1675 14.9606C15.1365 15.0375 15.0762 15.0989 15 15.1313C14.9237 15.1638 14.8377 15.1646 14.7608 15.1336C14.6839 15.1026 14.6225 15.0423 14.5901 14.9661C14.5576 14.8898 14.5568 14.8037 14.5878 14.7269C15.0348 13.6142 15.3207 12.4434 15.4369 11.25H15.0063C14.8983 12.3122 14.6507 13.3559 14.27 14.3534ZM10.1878 10.625C10.2056 10.4172 10.2163 10.2084 10.2163 9.99969C10.2163 9.94233 10.1935 9.88733 10.1529 9.84678C10.1124 9.80622 10.0574 9.78344 10 9.78344C9.94265 9.78344 9.88764 9.80622 9.84709 9.84678C9.80653 9.88733 9.78375 9.94233 9.78375 9.99969C9.78375 10.2078 9.77188 10.4166 9.7525 10.625H10.1878ZM12.3078 10.625C12.3212 10.4172 12.3319 10.2087 12.3319 9.99969C12.3248 9.38595 12.076 8.79977 11.6395 8.36828C11.203 7.93679 10.6139 7.69481 10.0002 7.69481C9.38638 7.69481 8.79735 7.93679 8.36084 8.36828C7.92433 8.79977 7.67554 9.38595 7.66844 9.99969C7.66726 10.2089 7.65233 10.4178 7.62375 10.625H9.12594C9.1473 10.4172 9.15825 10.2085 9.15875 9.99969C9.15875 9.77657 9.24738 9.5626 9.40515 9.40483C9.56291 9.24707 9.77689 9.15844 10 9.15844C10.2231 9.15844 10.4371 9.24707 10.5949 9.40483C10.7526 9.5626 10.8413 9.77657 10.8413 9.99969C10.8413 10.2084 10.8306 10.4172 10.8147 10.625H11.2478C11.2634 10.4169 11.2741 10.2084 11.2741 9.99969C11.2745 9.71412 11.1787 9.43673 11.0021 9.21235C10.8255 8.98797 10.5783 8.8297 10.3006 8.76312H10.2997C10.0149 8.69084 9.71363 8.72241 9.45 8.85219C9.23271 8.95493 9.04921 9.11746 8.92097 9.32075C8.79274 9.52403 8.72508 9.75965 8.72594 10C8.72594 10.0829 8.69301 10.1624 8.63441 10.221C8.5758 10.2796 8.49632 10.3125 8.41344 10.3125C8.33056 10.3125 8.25107 10.2796 8.19247 10.221C8.13386 10.1624 8.10094 10.0829 8.10094 10C8.10247 9.64249 8.20434 9.29258 8.39494 8.99011C8.58554 8.68763 8.85722 8.44474 9.17906 8.28906H9.18C9.57402 8.09734 10.0229 8.05032 10.4481 8.15625L10.4494 8.15687C10.8631 8.25626 11.2313 8.49223 11.4944 8.82667C11.7575 9.16111 11.9002 9.57448 11.8994 10C11.8994 10.2087 11.8913 10.4172 11.8766 10.6253L12.3078 10.625ZM9.35844 3.90344C7.73948 4.07696 6.25523 4.88488 5.23063 6.15031C5.17849 6.21479 5.15411 6.29734 5.16284 6.3798C5.17158 6.46226 5.21271 6.53787 5.27719 6.59C5.34167 6.64213 5.42422 6.66651 5.50667 6.65778C5.58913 6.64905 5.66474 6.60792 5.71688 6.54344C6.47303 5.61352 7.51066 4.95424 8.67373 4.66474C9.83679 4.37524 11.0624 4.47118 12.1663 4.93813C12.2042 4.95546 12.2451 4.96504 12.2868 4.9663C12.3285 4.96756 12.37 4.96047 12.4088 4.94545C12.4477 4.93043 12.4832 4.90779 12.5132 4.87885C12.5432 4.84991 12.5671 4.81526 12.5835 4.77695C12.5999 4.73863 12.6085 4.69742 12.6087 4.65574C12.609 4.61406 12.6009 4.57275 12.5849 4.53425C12.5689 4.49575 12.5454 4.46083 12.5158 4.43155C12.4861 4.40227 12.4509 4.37922 12.4122 4.36375C11.4495 3.95476 10.3989 3.79639 9.35844 3.90344ZM9.21031 14.8322C9.69429 14.1989 10.0803 13.4965 10.3553 12.7484C10.3839 12.6706 10.3804 12.5846 10.3456 12.5094C10.3108 12.4341 10.2475 12.3758 10.1697 12.3472C10.0919 12.3186 10.0059 12.3221 9.93062 12.3569C9.85537 12.3917 9.79703 12.455 9.76844 12.5328C9.51499 13.2219 9.15946 13.869 8.71375 14.4525C8.24716 15.0633 7.68877 15.5982 7.05844 16.0381C7.02353 16.061 6.99357 16.0907 6.97032 16.1254C6.94707 16.1601 6.93101 16.1991 6.92309 16.2401C6.91516 16.281 6.91553 16.3232 6.92417 16.3641C6.93281 16.4049 6.94955 16.4436 6.9734 16.4779C6.99725 16.5122 7.02773 16.5413 7.06303 16.5636C7.09833 16.5859 7.13774 16.6009 7.17894 16.6077C7.22013 16.6145 7.26227 16.613 7.30287 16.6032C7.34347 16.5935 7.3817 16.5757 7.41531 16.5509C8.09895 16.0743 8.70449 15.4945 9.21031 14.8322ZM5.05 5.22125C5.10692 5.28143 5.1854 5.31655 5.26819 5.31889C5.35099 5.32124 5.43133 5.29061 5.49156 5.23375C6.33802 4.43018 7.38446 3.86828 8.52188 3.60656C9.45064 3.3961 10.4133 3.38375 11.3472 3.57031C11.4246 3.57001 11.4991 3.54101 11.5563 3.48895C11.6135 3.43688 11.6494 3.36544 11.6569 3.28844C11.6645 3.21145 11.6433 3.13438 11.5973 3.07215C11.5514 3.00992 11.4839 2.96695 11.4081 2.95156C10.2814 2.72665 9.11707 2.77521 8.01295 3.0932C6.90882 3.41118 5.89705 3.9893 5.0625 4.77906C5.03266 4.80725 5.00866 4.84104 4.99188 4.87851C4.9751 4.91597 4.96586 4.95638 4.9647 4.99741C4.96354 5.03844 4.97048 5.07931 4.98511 5.11766C4.99975 5.15601 5.0218 5.19142 5.05 5.22125ZM5.41344 15.2741C6.80755 14.5979 7.87807 13.3983 8.39188 11.9366C8.41935 11.8583 8.41462 11.7724 8.37872 11.6976C8.34283 11.6229 8.27871 11.5654 8.20047 11.538C8.12223 11.5105 8.03628 11.5152 7.96153 11.5511C7.88678 11.587 7.82935 11.6511 7.80188 11.7294C7.34273 13.0355 6.38625 14.1075 5.14062 14.7119C5.06769 14.749 5.01224 14.8133 4.98618 14.8909C4.96013 14.9684 4.96554 15.0532 5.00128 15.1268C5.03701 15.2004 5.1002 15.2571 5.17727 15.2846C5.25434 15.3122 5.33914 15.3084 5.41344 15.2741ZM0.625 5.625V1.875C0.625331 1.54358 0.757133 1.22583 0.991482 0.991482C1.22583 0.757133 1.54358 0.625331 1.875 0.625H5.625C5.87364 0.625 6.1121 0.723772 6.28791 0.899587C6.46373 1.0754 6.5625 1.31386 6.5625 1.5625C6.5625 1.81114 6.46373 2.0496 6.28791 2.22541C6.1121 2.40123 5.87364 2.5 5.625 2.5H2.5V5.625C2.5 5.87364 2.40123 6.1121 2.22541 6.28791C2.0496 6.46373 1.81114 6.5625 1.5625 6.5625C1.31386 6.5625 1.0754 6.46373 0.899587 6.28791C0.723772 6.1121 0.625 5.87364 0.625 5.625ZM1.25 5.625C1.25 5.70788 1.28292 5.78737 1.34153 5.84597C1.40013 5.90458 1.47962 5.9375 1.5625 5.9375C1.64538 5.9375 1.72487 5.90458 1.78347 5.84597C1.84208 5.78737 1.875 5.70788 1.875 5.625V2.5C1.87517 2.33429 1.94107 2.17542 2.05824 2.05824C2.17542 1.94107 2.33429 1.87517 2.5 1.875H5.625C5.70788 1.875 5.78737 1.84208 5.84597 1.78347C5.90458 1.72487 5.9375 1.64538 5.9375 1.5625C5.9375 1.47962 5.90458 1.40013 5.84597 1.34153C5.78737 1.28292 5.70788 1.25 5.625 1.25H1.875C1.70929 1.25017 1.55042 1.31607 1.43324 1.43324C1.31607 1.55042 1.25017 1.70929 1.25 1.875V5.625ZM19.375 1.875V5.625C19.375 5.87364 19.2762 6.1121 19.1004 6.28791C18.9246 6.46373 18.6861 6.5625 18.4375 6.5625C18.1889 6.5625 17.9504 6.46373 17.7746 6.28791C17.5988 6.1121 17.5 5.87364 17.5 5.625V2.5H14.375C14.1264 2.5 13.8879 2.40123 13.7121 2.22541C13.5363 2.0496 13.4375 1.81114 13.4375 1.5625C13.4375 1.31386 13.5363 1.0754 13.7121 0.899587C13.8879 0.723772 14.1264 0.625 14.375 0.625H18.125C18.4564 0.625331 18.7742 0.757133 19.0085 0.991482C19.2429 1.22583 19.3747 1.54358 19.375 1.875ZM18.75 1.875C18.7498 1.70932 18.6838 1.55049 18.5667 1.43333C18.4495 1.31618 18.2907 1.25025 18.125 1.25H14.375C14.2921 1.25 14.2126 1.28292 14.154 1.34153C14.0954 1.40013 14.0625 1.47962 14.0625 1.5625C14.0625 1.64538 14.0954 1.72487 14.154 1.78347C14.2126 1.84208 14.2921 1.875 14.375 1.875H17.5C17.6657 1.87525 17.8245 1.94118 17.9417 2.05833C18.0588 2.17549 18.1248 2.33432 18.125 2.5V5.625C18.125 5.70788 18.1579 5.78737 18.2165 5.84597C18.2751 5.90458 18.3546 5.9375 18.4375 5.9375C18.5204 5.9375 18.5999 5.90458 18.6585 5.84597C18.7171 5.78737 18.75 5.70788 18.75 5.625V1.875ZM6.5625 18.4375C6.56225 18.6861 6.4634 18.9244 6.28764 19.1001C6.11188 19.2759 5.87356 19.3748 5.625 19.375H1.875C1.54358 19.3747 1.22583 19.2429 0.991482 19.0085C0.757133 18.7742 0.625331 18.4564 0.625 18.125V14.375C0.625 14.1264 0.723772 13.8879 0.899587 13.7121C1.0754 13.5363 1.31386 13.4375 1.5625 13.4375C1.81114 13.4375 2.0496 13.5363 2.22541 13.7121C2.40123 13.8879 2.5 14.1264 2.5 14.375V17.5H5.625C5.87356 17.5002 6.11188 17.5991 6.28764 17.7749C6.4634 17.9506 6.56225 18.1889 6.5625 18.4375ZM5.9375 18.4375C5.93742 18.3546 5.90447 18.2752 5.84588 18.2166C5.78729 18.158 5.70785 18.1251 5.625 18.125H2.5C2.33429 18.1248 2.17542 18.0589 2.05824 17.9418C1.94107 17.8246 1.87517 17.6657 1.875 17.5V14.375C1.875 14.2921 1.84208 14.2126 1.78347 14.154C1.72487 14.0954 1.64538 14.0625 1.5625 14.0625C1.47962 14.0625 1.40013 14.0954 1.34153 14.154C1.28292 14.2126 1.25 14.2921 1.25 14.375V18.125C1.25017 18.2907 1.31607 18.4496 1.43324 18.5668C1.55042 18.6839 1.70929 18.7498 1.875 18.75H5.625C5.70785 18.7499 5.78729 18.717 5.84588 18.6584C5.90447 18.5998 5.93742 18.5204 5.9375 18.4375ZM19.375 14.375V18.125C19.3747 18.4564 19.2429 18.7742 19.0085 19.0085C18.7742 19.2429 18.4564 19.3747 18.125 19.375H14.375C14.1264 19.375 13.8879 19.2762 13.7121 19.1004C13.5363 18.9246 13.4375 18.6861 13.4375 18.4375C13.4375 18.1889 13.5363 17.9504 13.7121 17.7746C13.8879 17.5988 14.1264 17.5 14.375 17.5H17.5V14.375C17.5 14.1264 17.5988 13.8879 17.7746 13.7121C17.9504 13.5363 18.1889 13.4375 18.4375 13.4375C18.6861 13.4375 18.9246 13.5363 19.1004 13.7121C19.2762 13.8879 19.375 14.1264 19.375 14.375ZM18.75 14.375C18.75 14.2921 18.7171 14.2126 18.6585 14.154C18.5999 14.0954 18.5204 14.0625 18.4375 14.0625C18.3546 14.0625 18.2751 14.0954 18.2165 14.154C18.1579 14.2126 18.125 14.2921 18.125 14.375V17.5C18.1248 17.6657 18.0588 17.8245 17.9417 17.9417C17.8245 18.0588 17.6657 18.1248 17.5 18.125H14.375C14.2921 18.125 14.2126 18.1579 14.154 18.2165C14.0954 18.2751 14.0625 18.3546 14.0625 18.4375C14.0625 18.5204 14.0954 18.5999 14.154 18.6585C14.2126 18.7171 14.2921 18.75 14.375 18.75H18.125C18.2907 18.7498 18.4495 18.6838 18.5667 18.5667C18.6838 18.4495 18.7498 18.2907 18.75 18.125V14.375Z" fill="black"/>
</g>
<defs>
<clipPath id="clip0_3891_133">
<rect width="20" height="20" fill="white"/>
</clipPath>
</defs>
</svg>
