<svg width="26" height="20" viewBox="0 0 26 20" fill="none" xmlns="http://www.w3.org/2000/svg">
<path d="M22.311 13.017C22.2285 12.9625 22.1278 12.9431 22.031 12.9629C21.9342 12.9827 21.8492 13.0401 21.7947 13.1225L20.3764 15.2691L19.6466 14.5779C19.6104 14.5436 19.5676 14.5169 19.5209 14.4995C19.4742 14.482 19.4244 14.4741 19.3746 14.4762C19.3248 14.4783 19.2758 14.4904 19.2308 14.5118C19.1857 14.5332 19.1454 14.5634 19.1122 14.6006C18.9764 14.753 18.9976 14.9895 19.1456 15.1298L20.0972 16.0306C20.3119 16.2342 20.6581 16.1942 20.8211 15.9476L22.4164 13.5333C22.4708 13.4508 22.4903 13.3501 22.4705 13.2533C22.4508 13.1565 22.3934 13.0715 22.311 13.017Z" fill="black"/>
<path d="M24.984 12.2428C24.268 11.9467 23.7806 11.2829 23.7121 10.5107C23.6844 10.1963 23.4158 9.95186 23.0998 9.95186H23.0955L17.9669 9.98832C17.9448 9.98852 17.923 9.98986 17.9015 9.9922H14.9478V7.40658H21.304V8.55524C21.304 8.65404 21.3433 8.7488 21.4131 8.81866C21.483 8.88853 21.5778 8.92778 21.6766 8.92778C21.8824 8.92778 22.0491 8.76113 22.0491 8.55524V0.98256C22.0491 0.440838 21.6083 0 21.0665 0H0.98256C0.440838 0 0 0.440838 0 0.98256V16.416C0 16.9579 0.440838 17.3987 0.98256 17.3987H15.7605C15.8593 17.3987 15.9541 17.3595 16.024 17.2896C16.0938 17.2197 16.1331 17.125 16.1331 17.0262C16.1331 16.8203 15.9664 16.6536 15.7605 16.6536H14.9478V14.0681H15.8475C16.2214 15.7387 17.3002 18.5327 20.3949 19.9555C20.4601 19.9853 20.531 20.0005 20.6026 20C20.6742 19.9995 20.7449 19.9833 20.8096 19.9526C24.6722 18.1097 25.3218 14.1475 25.4289 12.977C25.4578 12.66 25.2791 12.3648 24.984 12.2428ZM14.2027 9.9922H7.84642V7.40658H14.2027V9.9922ZM10.6521 13.3229H4.29563V10.7373H10.6521V13.3229ZM4.29563 4.07583H10.6521V6.66145H4.29563V4.07583ZM17.7534 4.07583V6.66145H11.397V4.07583H17.7534ZM21.304 6.66145H18.4985V4.07583H21.304V6.66145ZM21.0666 0.745079C21.1296 0.745157 21.1899 0.770205 21.2344 0.814725C21.2789 0.859246 21.304 0.919605 21.304 0.98256V3.33075H14.9478V0.745079H21.0666ZM14.2027 0.745079V3.33075H7.84642V0.745079H14.2027ZM0.745078 0.98256C0.745144 0.919596 0.770186 0.85923 0.814708 0.814708C0.85923 0.770186 0.919596 0.745144 0.98256 0.745079H7.10134V3.33075H0.745078V0.98256ZM0.745078 4.07583H3.55055V6.66145H0.745078V4.07583ZM0.745078 7.40653H7.10134V9.9922H0.745078V7.40653ZM0.745078 10.7373H3.55055V13.3229H0.745078V10.7373ZM7.10134 16.6537H0.98251C0.919507 16.6536 0.859117 16.6285 0.814599 16.5839C0.770082 16.5393 0.745078 16.4789 0.745078 16.4159V14.0679H7.10134V16.6537ZM14.2027 16.6537H7.84642V14.068H14.2027V16.6537ZM11.3972 13.3229V10.7373H17.3366C17.2235 11.4337 16.7656 12.0253 16.1092 12.307C15.817 12.4323 15.6432 12.7296 15.6767 13.0464C15.6852 13.1262 15.6965 13.2189 15.7111 13.3229H11.3972ZM20.5971 19.2273C17.711 17.8436 16.8035 15.1146 16.5208 13.6495C16.5188 13.6333 16.5158 13.6173 16.5116 13.6016C16.4731 13.3971 16.4423 13.1913 16.4195 12.9845C17.3421 12.5817 17.9729 11.7272 18.0895 10.7324L22.9833 10.6975C23.1143 11.6905 23.7569 12.5359 24.6856 12.9256C24.5839 14.0057 23.9915 17.5398 20.5971 19.2273Z" fill="black"/>
</svg>
