<svg width="20" height="20" viewBox="0 0 20 20" fill="none" xmlns="http://www.w3.org/2000/svg">
<g clip-path="url(#clip0_3852_2198)">
<path d="M11.7477 11.0433C11.7063 11.0577 11.6682 11.0801 11.6355 11.1093C11.6029 11.1384 11.5762 11.1737 11.5572 11.2131C11.5381 11.2525 11.527 11.2953 11.5245 11.339C11.522 11.3827 11.5281 11.4265 11.5425 11.4678C11.5569 11.5092 11.5793 11.5473 11.6084 11.58C11.6376 11.6127 11.6729 11.6393 11.7123 11.6583C11.7517 11.6774 11.7945 11.6885 11.8382 11.691C11.8819 11.6935 11.9257 11.6874 11.967 11.673C13.3078 11.2083 14.4405 10.2837 15.1642 9.06309C15.8878 7.84253 16.1556 6.40503 15.92 5.00575C15.6844 3.60647 14.9607 2.33593 13.8772 1.41964C12.7937 0.503345 11.4207 0.000579834 10.0017 0.000579834C8.5827 0.000579834 7.20962 0.503345 6.12616 1.41964C5.04269 2.33593 4.31892 3.60647 4.08332 5.00575C3.84772 6.40503 4.11552 7.84253 4.8392 9.06309C5.56287 10.2837 6.69561 11.2083 8.03635 11.673C8.11989 11.702 8.21155 11.6967 8.29116 11.6582C8.37077 11.6196 8.4318 11.551 8.46085 11.4675C8.48989 11.384 8.48455 11.2923 8.44601 11.2127C8.40747 11.1331 8.33889 11.072 8.25535 11.043C7.67904 10.8419 7.14164 10.5431 6.66668 10.1597V9.79667C6.66602 9.28874 6.81955 8.79258 7.10697 8.3738C7.39439 7.95502 7.80216 7.63335 8.27635 7.45134C8.78022 7.80831 9.3825 8.00004 10 8.00004C10.6175 8.00004 11.2198 7.80831 11.7237 7.45134C12.1979 7.63335 12.6056 7.95502 12.8931 8.3738C13.1805 8.79258 13.334 9.28874 13.3333 9.79667V10.161C12.8592 10.5437 12.3229 10.8422 11.7477 11.0433ZM7.66668 5C7.66668 4.53851 7.80353 4.08739 8.05992 3.70367C8.31631 3.31996 8.68072 3.02089 9.10709 2.84428C9.53345 2.66768 10.0026 2.62147 10.4552 2.7115C10.9078 2.80154 11.3236 3.02376 11.6499 3.35009C11.9763 3.67641 12.1985 4.09217 12.2885 4.54479C12.3785 4.99741 12.3323 5.46657 12.1557 5.89293C11.9791 6.31929 11.6801 6.68371 11.2963 6.9401C10.9126 7.19649 10.4615 7.33334 10 7.33334C9.38139 7.33263 8.78831 7.08657 8.35088 6.64914C7.91344 6.21171 7.66739 5.61862 7.66668 5ZM12.2667 6.95767C12.6431 6.52296 12.8866 5.98923 12.9683 5.42005C13.0499 4.85086 12.9663 4.27019 12.7273 3.74719C12.4884 3.22418 12.1041 2.78087 11.6204 2.47004C11.1366 2.15921 10.5737 1.99395 9.99868 1.99395C9.42366 1.99395 8.86076 2.15921 8.377 2.47004C7.89323 2.78087 7.50899 3.22418 7.27002 3.74719C7.03105 4.27019 6.94742 4.85086 7.02909 5.42005C7.11076 5.98923 7.35429 6.52296 7.73068 6.95767C7.24797 7.20447 6.83648 7.57074 6.5354 8.0216C6.23432 8.47246 6.05368 8.9929 6.01068 9.53334C4.11068 7.39167 4.24001 4.132 6.30435 2.148C8.36868 0.164335 11.631 0.164335 13.6957 2.148C15.76 4.132 15.8897 7.39167 13.9893 9.53334C13.9462 8.99259 13.7652 8.47193 13.4636 8.02103C13.1621 7.57012 12.75 7.20402 12.2667 6.95767Z" fill="black"/>
<path d="M7.13341 19.8703C7.2333 19.9441 7.35192 19.9882 7.4757 19.9977C7.59949 20.0072 7.72345 19.9816 7.83341 19.924L10.0024 18.797L12.1711 19.9243C12.2813 19.9817 12.4054 20.007 12.5293 19.9976C12.6532 19.9881 12.772 19.9442 12.8723 19.8708C12.9726 19.7975 13.0503 19.6975 13.0968 19.5823C13.1433 19.467 13.1567 19.3411 13.1354 19.2187L12.7234 16.8413L14.4667 15.161C14.5565 15.0745 14.6202 14.9645 14.6506 14.8435C14.681 14.7226 14.6769 14.5956 14.6387 14.4769C14.6005 14.3582 14.5298 14.2526 14.4346 14.172C14.3394 14.0915 14.2235 14.0393 14.1001 14.0213L11.6801 13.6737L10.6001 11.5027C10.5451 11.3913 10.4599 11.2975 10.3542 11.2322C10.2486 11.1669 10.1266 11.1327 10.0024 11.1333C9.87852 11.1329 9.75699 11.1672 9.65159 11.2323C9.54619 11.2974 9.46113 11.3907 9.40608 11.5017L8.32007 13.6737L5.90541 14.021C5.78195 14.0389 5.66599 14.0911 5.57072 14.1717C5.47545 14.2522 5.40469 14.3579 5.36649 14.4766C5.32829 14.5954 5.32419 14.7225 5.35464 14.8435C5.38509 14.9645 5.44887 15.0745 5.53874 15.161L7.28274 16.8413L6.87041 19.2187C6.84882 19.341 6.86202 19.467 6.90852 19.5822C6.95502 19.6974 7.03294 19.7972 7.13341 19.8703ZM6.00007 14.681L8.58741 14.3087C8.64067 14.301 8.69129 14.2806 8.73494 14.2491C8.77859 14.2177 8.81398 14.1761 8.83807 14.128L10.0021 11.8L11.1611 14.1273C11.1851 14.1756 11.2205 14.2173 11.2642 14.2489C11.308 14.2805 11.3587 14.301 11.4121 14.3087L14.0047 14.681L12.1334 16.484C12.0942 16.5218 12.0649 16.5687 12.048 16.6204C12.031 16.6722 12.0271 16.7273 12.0364 16.781L12.4787 19.3333L10.1564 18.1263C10.1089 18.1017 10.0562 18.0888 10.0027 18.0888C9.94925 18.0888 9.89654 18.1017 9.84908 18.1263L7.52641 19.3333L7.96874 16.7817C7.97807 16.728 7.9741 16.6729 7.95719 16.6211C7.94028 16.5693 7.91094 16.5225 7.87174 16.4847L6.00007 14.681Z" fill="black"/>
<path d="M1.56667 14.7407L1.241 16.6237C1.22131 16.7346 1.23304 16.8487 1.27487 16.9533C1.3167 17.0578 1.38696 17.1486 1.47769 17.2153C1.56843 17.282 1.67602 17.322 1.7883 17.3307C1.90058 17.3394 2.01305 17.3166 2.113 17.2647L3.83334 16.3693L5.55267 17.2667C5.5915 17.2869 5.63393 17.2993 5.67754 17.3031C5.72115 17.3069 5.76509 17.3021 5.80684 17.289C5.8486 17.2758 5.88735 17.2546 5.9209 17.2264C5.95444 17.1983 5.98211 17.1638 6.00234 17.125C6.02256 17.0862 6.03494 17.0437 6.03876 17.0001C6.04259 16.9565 6.03779 16.9126 6.02463 16.8708C6.01148 16.8291 5.99023 16.7903 5.96209 16.7568C5.93396 16.7232 5.8995 16.6956 5.86067 16.6753L3.98734 15.6987C3.93978 15.6739 3.88696 15.661 3.83334 15.661C3.77972 15.661 3.72689 15.6739 3.67934 15.6987L1.92034 16.615L2.25367 14.6817C2.263 14.628 2.25903 14.5729 2.24212 14.5211C2.22521 14.4693 2.19587 14.4225 2.15667 14.3847L0.741003 13.018L2.7 12.7367C2.7533 12.729 2.80394 12.7085 2.84759 12.677C2.89124 12.6455 2.92661 12.6038 2.95067 12.5557L3.83334 10.791L4.71267 12.5553C4.73675 12.6037 4.7722 12.6454 4.81598 12.677C4.85976 12.7086 4.91056 12.7291 4.964 12.7367L7.057 13.0367C7.14452 13.0492 7.23343 13.0264 7.30416 12.9734C7.3749 12.9203 7.42166 12.8414 7.43417 12.7538C7.44668 12.6663 7.42391 12.5774 7.37087 12.5067C7.31783 12.4359 7.23886 12.3892 7.15134 12.3767L5.23134 12.1017L4.37234 10.3777C4.32246 10.2771 4.24538 10.1926 4.14987 10.1337C4.05436 10.0748 3.94423 10.0438 3.832 10.0443H3.83C3.60334 10.044 3.39667 10.1723 3.29667 10.3757L2.43334 12.1017L0.519003 12.3763C0.406711 12.3913 0.300952 12.4378 0.213959 12.5103C0.126966 12.5829 0.0622933 12.6786 0.0274227 12.7864C-0.00744778 12.8942 -0.0110916 13.0096 0.0169127 13.1194C0.044917 13.2292 0.103425 13.3288 0.185669 13.4067L1.56667 14.7407ZM19.97 12.7853C19.9359 12.6781 19.8721 12.5828 19.7859 12.5105C19.6998 12.4381 19.5948 12.3917 19.4833 12.3767L17.5667 12.1017L16.7053 10.376C16.6057 10.1723 16.3987 10.0427 16.172 10.0427H16.17C16.0577 10.0421 15.9475 10.073 15.8519 10.1319C15.7564 10.1909 15.6792 10.2754 15.6293 10.376L14.7707 12.0997L12.8503 12.3747C12.7628 12.3872 12.6838 12.4339 12.6308 12.5047C12.5778 12.5754 12.555 12.6643 12.5675 12.7518C12.58 12.8394 12.6268 12.9183 12.6975 12.9714C12.7682 13.0244 12.8571 13.0472 12.9447 13.0347L15.038 12.7347C15.0914 12.7271 15.1422 12.7066 15.186 12.675C15.2298 12.6434 15.2653 12.6017 15.2893 12.5533L16.1667 10.791L17.0477 12.5557C17.0717 12.6038 17.1071 12.6455 17.1507 12.677C17.1944 12.7085 17.245 12.729 17.2983 12.7367L19.2563 13.0177L17.8407 14.3843C17.8015 14.4222 17.7721 14.469 17.7552 14.5208C17.7383 14.5725 17.7343 14.6277 17.7437 14.6813L18.0787 16.6147L16.3197 15.6973C16.2721 15.6726 16.2193 15.6596 16.1657 15.6596C16.1121 15.6596 16.0592 15.6726 16.0117 15.6973L14.1383 16.674C14.0995 16.6942 14.065 16.7219 14.0369 16.7554C14.0088 16.789 13.9875 16.8277 13.9744 16.8695C13.9612 16.9113 13.9564 16.9552 13.9602 16.9988C13.9641 17.0424 13.9764 17.0848 13.9967 17.1237C14.0169 17.1625 14.0446 17.197 14.0781 17.2251C14.1117 17.2532 14.1504 17.2745 14.1922 17.2876C14.2339 17.3008 14.2779 17.3056 14.3215 17.3018C14.3651 17.2979 14.4075 17.2856 14.4463 17.2653L16.1667 16.3693L17.8867 17.2667C17.9865 17.3185 18.0988 17.3414 18.2109 17.3328C18.323 17.3241 18.4305 17.2842 18.5212 17.2177C18.6118 17.1511 18.6821 17.0605 18.7239 16.9562C18.7658 16.8518 18.7776 16.7378 18.758 16.627L18.4333 14.7407L19.8153 13.4073C19.8973 13.3289 19.9553 13.2288 19.9827 13.1187C20.0101 13.0086 20.0057 12.893 19.97 12.7853ZM8.16667 15.713C8.18267 15.713 8.19867 15.7117 8.21467 15.7093L9.46834 15.529C9.5216 15.5214 9.57222 15.5009 9.61587 15.4695C9.65952 15.438 9.69491 15.3964 9.719 15.3483L10.299 14.1887C10.3198 14.1494 10.3326 14.1063 10.3366 14.062C10.3406 14.0177 10.3357 13.9731 10.3222 13.9307C10.3087 13.8883 10.2868 13.8491 10.2579 13.8153C10.2291 13.7814 10.1937 13.7537 10.154 13.7337C10.1142 13.7138 10.0709 13.7019 10.0265 13.6989C9.98217 13.6959 9.93765 13.7018 9.89558 13.7162C9.85351 13.7307 9.81474 13.7533 9.78156 13.783C9.74838 13.8126 9.72144 13.8485 9.70234 13.8887L9.20234 14.8923L8.12067 15.048C8.03716 15.0599 7.96127 15.103 7.90829 15.1687C7.85532 15.2343 7.8292 15.3176 7.8352 15.4017C7.84121 15.4859 7.87889 15.5646 7.94065 15.6221C8.00241 15.6795 8.08365 15.7114 8.168 15.7113L8.16667 15.713Z" fill="black"/>
</g>
<defs>
<clipPath id="clip0_3852_2198">
<rect width="20" height="20" fill="white"/>
</clipPath>
</defs>
</svg>
