<svg xmlns="http://www.w3.org/2000/svg" width="25" height="24" viewBox="0 0 25 24" fill="none">
  <g clip-path="url(#clip0_3108_2308)">
    <path d="M12.0308 0.5C5.40076 0.5 0.0307617 5.78 0.0307617 12.292C0.0307617 17.503 3.46876 21.922 8.23576 23.48C8.83576 23.591 9.05576 23.226 9.05576 22.913C9.05576 22.633 9.04576 21.891 9.04076 20.908C5.70276 21.619 4.99876 19.326 4.99876 19.326C4.45276 17.965 3.66376 17.601 3.66376 17.601C2.57676 16.87 3.74776 16.885 3.74776 16.885C4.95276 16.967 5.58576 18.1 5.58576 18.1C6.65576 19.903 8.39476 19.382 9.08076 19.081C9.18876 18.318 9.49776 17.799 9.84076 17.504C7.17576 17.209 4.37476 16.195 4.37476 11.677C4.37476 10.39 4.83976 9.338 5.60976 8.513C5.47476 8.215 5.06976 7.016 5.71476 5.392C5.71476 5.392 6.71976 5.076 9.01476 6.601C9.97476 6.339 10.9948 6.209 12.0148 6.203C13.0348 6.209 14.0548 6.339 15.0148 6.601C17.2948 5.076 18.2998 5.392 18.2998 5.392C18.9448 7.016 18.5398 8.215 18.4198 8.513C19.1848 9.338 19.6498 10.39 19.6498 11.677C19.6498 16.207 16.8448 17.204 14.1748 17.494C14.5948 17.848 14.9848 18.571 14.9848 19.676C14.9848 21.254 14.9698 22.522 14.9698 22.905C14.9698 23.214 15.1798 23.583 15.7948 23.465C20.5958 21.917 24.0308 17.495 24.0308 12.292C24.0308 5.78 18.6578 0.5 12.0308 0.5Z" fill="black"/>
  </g>
  <defs>
    <clipPath id="clip0_3108_2308">
      <rect width="24" height="24" fill="white" transform="translate(0.0307617)"/>
    </clipPath>
  </defs>
</svg>