<svg width="20" height="20" viewBox="0 0 20 20" fill="none" xmlns="http://www.w3.org/2000/svg">
<g clip-path="url(#clip0_3852_1963)">
<path d="M19.0625 18.75H17.5V9.375C17.5 9.29212 17.4671 9.21263 17.4085 9.15403C17.3499 9.09542 17.2704 9.0625 17.1875 9.0625H15.3125C15.2296 9.0625 15.1501 9.09542 15.0915 9.15403C15.0329 9.21263 15 9.29212 15 9.375V18.75H14.375V11.875C14.375 11.7921 14.3421 11.7126 14.2835 11.654C14.2249 11.5954 14.1454 11.5625 14.0625 11.5625H12.1875C12.1046 11.5625 12.0251 11.5954 11.9665 11.654C11.9079 11.7126 11.875 11.7921 11.875 11.875V18.75H11.25V10.9375C11.25 10.8546 11.2171 10.7751 11.1585 10.7165C11.0999 10.6579 11.0204 10.625 10.9375 10.625H9.0625C8.97962 10.625 8.90013 10.6579 8.84153 10.7165C8.78292 10.7751 8.75 10.8546 8.75 10.9375V18.75H8.125V12.1875C8.125 12.1046 8.09208 12.0251 8.03347 11.9665C7.97487 11.9079 7.89538 11.875 7.8125 11.875H5.9375C5.85462 11.875 5.77513 11.9079 5.71653 11.9665C5.65792 12.0251 5.625 12.1046 5.625 12.1875V18.75H5V13.4375C5 13.3546 4.96708 13.2751 4.90847 13.2165C4.84987 13.1579 4.77038 13.125 4.6875 13.125H2.8125C2.72962 13.125 2.65013 13.1579 2.59153 13.2165C2.53292 13.2751 2.5 13.3546 2.5 13.4375V18.75H0.9375C0.85462 18.75 0.775134 18.7829 0.716529 18.8415C0.657924 18.9001 0.625 18.9796 0.625 19.0625C0.625 19.1454 0.657924 19.2249 0.716529 19.2835C0.775134 19.3421 0.85462 19.375 0.9375 19.375H19.0625C19.1454 19.375 19.2249 19.3421 19.2835 19.2835C19.3421 19.2249 19.375 19.1454 19.375 19.0625C19.375 18.9796 19.3421 18.9001 19.2835 18.8415C19.2249 18.7829 19.1454 18.75 19.0625 18.75ZM3.125 18.75V13.75H4.375V18.75H3.125ZM6.25 18.75V12.5H7.5V18.75H6.25ZM9.375 18.75V11.25H10.625V18.75H9.375ZM12.5 18.75V12.1875H13.75V18.75H12.5ZM15.625 18.75V9.6875H16.875V18.75H15.625Z" fill="black"/>
<path d="M1.56256 12.8125C1.60483 12.8125 1.64666 12.8039 1.68549 12.7872L3.06116 12.1976C3.18892 12.3365 3.35563 12.4335 3.53946 12.476C3.72329 12.5185 3.91567 12.5046 4.09143 12.4359C4.26719 12.3673 4.41813 12.2472 4.52449 12.0914C4.63086 11.9355 4.6877 11.7512 4.68756 11.5625C4.68756 11.5497 4.68709 11.5371 4.68659 11.5245L6.17096 10.9307C6.29658 11.0741 6.46296 11.1758 6.64788 11.2221C6.83279 11.2685 7.02746 11.2573 7.20587 11.1901C7.38428 11.123 7.53794 11.0029 7.64635 10.8461C7.75476 10.6893 7.81274 10.5031 7.81256 10.3125C7.81256 10.2997 7.81209 10.2871 7.81159 10.2745L9.29596 9.6807C9.38843 9.7863 9.50347 9.86974 9.63256 9.92486C9.76165 9.97998 9.90148 10.0054 10.0417 9.99911C10.1819 9.99287 10.3189 9.95517 10.4426 9.8888C10.5663 9.82243 10.6735 9.7291 10.7562 9.6157L12.1885 10.0454C12.1951 10.1829 12.2318 10.3173 12.2962 10.439C12.3605 10.5607 12.4508 10.6668 12.5608 10.7496C12.6707 10.8325 12.7976 10.8901 12.9323 10.9184C13.067 10.9467 13.2063 10.9449 13.3403 10.9133C13.4743 10.8817 13.5997 10.821 13.7075 10.7354C13.8154 10.6499 13.9031 10.5416 13.9644 10.4184C14.0257 10.2951 14.0591 10.1598 14.0622 10.0222C14.0654 9.88459 14.0382 9.74796 13.9825 9.62203L15.7364 7.97129C15.9125 8.08687 16.1223 8.13978 16.3321 8.12147C16.5418 8.10316 16.7393 8.01472 16.8927 7.87039C17.046 7.72607 17.1463 7.5343 17.1772 7.32601C17.2082 7.11772 17.1681 6.90508 17.0634 6.72238L18.1251 5.72324V5.9375C18.1251 6.02038 18.158 6.09987 18.2166 6.15847C18.2752 6.21708 18.3547 6.25 18.4376 6.25C18.5204 6.25 18.5999 6.21708 18.6585 6.15847C18.7171 6.09987 18.7501 6.02038 18.7501 5.9375V5C18.7501 4.91712 18.7171 4.83763 18.6585 4.77903C18.5999 4.72042 18.5204 4.6875 18.4376 4.6875H17.5001C17.4172 4.6875 17.3377 4.72042 17.2791 4.77903C17.2205 4.83763 17.1876 4.91712 17.1876 5C17.1876 5.08288 17.2205 5.16237 17.2791 5.22097C17.3377 5.27958 17.4172 5.3125 17.5001 5.3125H17.6496L16.5868 6.31277C16.422 6.24926 16.2427 6.23359 16.0694 6.26756C15.8961 6.30153 15.7359 6.38376 15.6073 6.50478C15.4788 6.6258 15.387 6.78068 15.3426 6.95159C15.2981 7.12249 15.3029 7.30247 15.3563 7.47078L13.5541 9.16695C13.3557 9.06436 13.127 9.03619 12.9096 9.08753C12.6922 9.13888 12.5003 9.26634 12.3687 9.44687L10.9363 9.01719C10.9237 8.77331 10.8165 8.54397 10.6374 8.37796C10.4583 8.21195 10.2215 8.12236 9.97739 8.12827C9.73327 8.13417 9.50108 8.2351 9.33023 8.40957C9.15937 8.58405 9.06334 8.8183 9.06256 9.0625C9.06256 9.07527 9.06303 9.08793 9.06354 9.10055L7.57916 9.6943C7.45355 9.55089 7.28717 9.44923 7.10225 9.40287C6.91733 9.35651 6.72267 9.36767 6.54426 9.43486C6.36585 9.50205 6.21218 9.62206 6.10378 9.77888C5.99537 9.9357 5.93739 10.1219 5.93756 10.3125C5.93756 10.3253 5.93803 10.3379 5.93854 10.3505L4.45416 10.9443C4.32855 10.8009 4.16217 10.6992 3.97725 10.6529C3.79233 10.6065 3.59767 10.6177 3.41926 10.6849C3.24085 10.752 3.08718 10.8721 2.97878 11.0289C2.87037 11.1857 2.81239 11.3719 2.81256 11.5625C2.81256 11.583 2.81346 11.6032 2.81475 11.6234L1.43948 12.2127C1.37331 12.2411 1.31895 12.2914 1.28559 12.3552C1.25223 12.419 1.24191 12.4923 1.25638 12.5628C1.27085 12.6333 1.30922 12.6967 1.36501 12.7422C1.4208 12.7877 1.49058 12.8125 1.56256 12.8125ZM16.2501 6.875C16.3119 6.875 16.3723 6.89333 16.4237 6.92767C16.4751 6.962 16.5151 7.01081 16.5388 7.06791C16.5624 7.12501 16.5686 7.18785 16.5566 7.24847C16.5445 7.30909 16.5147 7.36477 16.471 7.40847C16.4273 7.45217 16.3716 7.48194 16.311 7.494C16.2504 7.50605 16.1876 7.49986 16.1305 7.47621C16.0734 7.45256 16.0246 7.41251 15.9902 7.36112C15.9559 7.30973 15.9376 7.24931 15.9376 7.1875C15.9377 7.10465 15.9706 7.02522 16.0292 6.96663C16.0878 6.90805 16.1672 6.87509 16.2501 6.875ZM13.1251 9.6875C13.1869 9.6875 13.2473 9.70583 13.2987 9.74017C13.3501 9.7745 13.3901 9.82331 13.4138 9.88041C13.4374 9.93751 13.4436 10.0003 13.4316 10.061C13.4195 10.1216 13.3897 10.1773 13.346 10.221C13.3023 10.2647 13.2466 10.2944 13.186 10.3065C13.1254 10.3186 13.0626 10.3124 13.0055 10.2887C12.9484 10.2651 12.8996 10.225 12.8652 10.1736C12.8309 10.1222 12.8126 10.0618 12.8126 10C12.8127 9.91715 12.8456 9.83772 12.9042 9.77913C12.9628 9.72055 13.0422 9.68759 13.1251 9.6875ZM10.0001 8.75C10.0619 8.75 10.1223 8.76833 10.1737 8.80267C10.2251 8.837 10.2651 8.88581 10.2888 8.94291C10.3124 9.00001 10.3186 9.06285 10.3066 9.12347C10.2945 9.18408 10.2647 9.23977 10.221 9.28347C10.1773 9.32718 10.1216 9.35694 10.061 9.369C10.0004 9.38105 9.93758 9.37486 9.88048 9.35121C9.82337 9.32756 9.77457 9.28751 9.74023 9.23612C9.70589 9.18473 9.68756 9.12431 9.68756 9.0625C9.68766 8.97965 9.72061 8.90022 9.77919 8.84163C9.83778 8.78305 9.91721 8.75009 10.0001 8.75ZM6.87506 10C6.93687 10 6.99729 10.0183 7.04868 10.0527C7.10007 10.087 7.14012 10.1358 7.16378 10.1929C7.18743 10.25 7.19362 10.3128 7.18156 10.3735C7.1695 10.4341 7.13974 10.4898 7.09603 10.5335C7.05233 10.5772 6.99665 10.6069 6.93603 10.619C6.87541 10.6311 6.81258 10.6249 6.75548 10.6012C6.69837 10.5776 6.64957 10.5375 6.61523 10.4861C6.58089 10.4347 6.56256 10.3743 6.56256 10.3125C6.56266 10.2296 6.59561 10.1502 6.6542 10.0916C6.71278 10.033 6.79221 10.0001 6.87506 10ZM3.75006 11.25C3.81187 11.25 3.87229 11.2683 3.92368 11.3027C3.97507 11.337 4.01512 11.3858 4.03878 11.4429C4.06243 11.5 4.06862 11.5628 4.05656 11.6235C4.0445 11.6841 4.01474 11.7398 3.97103 11.7835C3.92733 11.8272 3.87165 11.8569 3.81103 11.869C3.75041 11.8811 3.68758 11.8749 3.63047 11.8512C3.57337 11.8276 3.52457 11.7875 3.49023 11.7361C3.45589 11.6847 3.43756 11.6243 3.43756 11.5625C3.43766 11.4796 3.47061 11.4002 3.5292 11.3416C3.58778 11.283 3.66721 11.2501 3.75006 11.25Z" fill="black"/>
<path d="M7.20411 8.36527C7.26795 8.41709 7.34966 8.44167 7.4315 8.43366C7.51334 8.42565 7.58872 8.3857 7.64131 8.32248C7.6939 8.25926 7.71944 8.17786 7.71242 8.09593C7.70539 8.014 7.66635 7.93814 7.60376 7.8848C7.34944 7.67336 7.12408 7.42935 6.93348 7.15906H8.30212C8.35647 7.40835 8.42018 7.65601 8.49325 7.90203C8.50482 7.94156 8.52409 7.97841 8.54996 8.01047C8.57583 8.04253 8.60777 8.06916 8.64397 8.08882C8.68016 8.10849 8.71989 8.12081 8.76086 8.12507C8.80183 8.12932 8.84323 8.12544 8.8827 8.11364C8.92216 8.10184 8.95891 8.08235 8.99081 8.0563C9.02272 8.03025 9.04916 7.99814 9.06861 7.96184C9.08807 7.92553 9.10015 7.88573 9.10417 7.84474C9.10819 7.80374 9.10407 7.76236 9.09204 7.72296C9.03618 7.53617 8.98636 7.3482 8.94259 7.15906H11.0571C11.013 7.34804 10.9632 7.53601 10.9077 7.72296C10.8956 7.76236 10.8915 7.80374 10.8955 7.84474C10.8995 7.88573 10.9116 7.92553 10.9311 7.96184C10.9505 7.99814 10.977 8.03025 11.0089 8.0563C11.0408 8.08235 11.0775 8.10184 11.117 8.11364C11.1565 8.12544 11.1979 8.12932 11.2388 8.12507C11.2798 8.12081 11.3195 8.10849 11.3557 8.08882C11.3919 8.06916 11.4239 8.04253 11.4497 8.01047C11.4756 7.97841 11.4949 7.94156 11.5065 7.90203C11.58 7.65619 11.6437 7.40854 11.6976 7.15906H13.0674C12.9279 7.35588 12.7701 7.539 12.596 7.70593C12.5362 7.76332 12.5016 7.84212 12.4999 7.92498C12.4982 8.00785 12.5295 8.088 12.5869 8.14781C12.6443 8.20761 12.7231 8.24217 12.8059 8.24387C12.8888 8.24558 12.969 8.2143 13.0288 8.15691C13.456 7.74992 13.7958 7.26004 14.0273 6.71723C14.2587 6.17441 14.377 5.59009 14.3749 5C14.3736 3.98616 14.0207 3.00414 13.3765 2.22128C12.7323 1.43841 11.8366 0.903131 10.842 0.706636C10.8337 0.704696 10.8253 0.703093 10.8168 0.701831C9.86395 0.520622 8.87785 0.661221 8.01356 1.10152C7.14928 1.54183 6.45582 2.25687 6.04221 3.13424C5.6286 4.0116 5.51828 5.00155 5.7286 5.94845C5.93892 6.89535 6.45796 7.7455 7.20411 8.36527ZM6.67602 6.53406C6.64472 6.53404 6.61359 6.53872 6.58368 6.54796C6.40672 6.15757 6.29818 5.73966 6.26282 5.3125H8.07446C8.08703 5.72156 8.12435 6.1295 8.18622 6.53406H6.67602ZM6.77012 3.09656H8.24989C8.14969 3.62143 8.09112 4.1534 8.07473 4.6875H6.26302C6.30944 4.12563 6.48283 3.58164 6.77012 3.09656ZM13.7368 4.6875H11.9252C11.9088 4.15339 11.8501 3.62143 11.7499 3.09656H13.2298C13.517 3.58165 13.6904 4.12564 13.7368 4.6875ZM11.3 4.6875H8.69989C8.71753 4.15286 8.78019 3.62067 8.8872 3.09656H11.1128C11.2198 3.62067 11.2824 4.15287 11.3 4.6875ZM8.81888 6.53406C8.75291 6.12986 8.71314 5.72182 8.69981 5.3125H11.3001C11.2867 5.72182 11.2469 6.12986 11.1809 6.53406H8.81888ZM13.3238 6.53406H11.8137C11.8756 6.1295 11.9129 5.72157 11.9254 5.3125H13.737C13.7028 5.73986 13.5949 6.15808 13.4181 6.54867C13.3876 6.53897 13.3558 6.53405 13.3238 6.53406ZM12.7668 2.47156H11.6096C11.5235 2.13686 11.4203 1.8068 11.3004 1.48265C11.8608 1.69109 12.3635 2.03009 12.7668 2.47156ZM10.552 1.2907C10.7147 1.67486 10.852 2.06934 10.9629 2.47156H9.03716C9.14804 2.06933 9.28533 1.67485 9.44813 1.2907C9.8141 1.23643 10.1861 1.23643 10.552 1.2907H10.552ZM8.6997 1.48257C8.57972 1.80673 8.47643 2.13683 8.39024 2.47156H7.23298C7.63633 2.03003 8.13916 1.691 8.6997 1.48257Z" fill="black"/>
</g>
<defs>
<clipPath id="clip0_3852_1963">
<rect width="20" height="20" fill="white"/>
</clipPath>
</defs>
</svg>
