<svg width="20" height="20" viewBox="0 0 20 20" fill="none" xmlns="http://www.w3.org/2000/svg">
<path d="M7.9999 14.5C8.98881 14.5 9.9555 14.2068 10.7778 13.6573C11.6 13.1079 12.2409 12.327 12.6193 11.4134C12.9977 10.4998 13.0968 9.49445 12.9038 8.52455C12.7109 7.55464 12.2347 6.66373 11.5354 5.96446C10.8362 5.2652 9.94526 4.789 8.97535 4.59607C8.00545 4.40315 7.00011 4.50216 6.08648 4.8806C5.17285 5.25904 4.39196 5.8999 3.84255 6.72215C3.29314 7.54439 2.9999 8.51109 2.9999 9.5C3.00139 10.8256 3.52865 12.0965 4.46601 13.0339C5.40337 13.9712 6.67427 14.4985 7.9999 14.5ZM7.9999 5.5C8.79102 5.5 9.56438 5.73459 10.2222 6.17412C10.88 6.61364 11.3927 7.23836 11.6954 7.96926C11.9982 8.70017 12.0774 9.50443 11.923 10.2804C11.7687 11.0563 11.3877 11.769 10.8283 12.3284C10.2689 12.8878 9.55618 13.2688 8.78026 13.4231C8.00434 13.5775 7.20007 13.4983 6.46917 13.1955C5.73826 12.8928 5.11355 12.3801 4.67402 11.7223C4.2345 11.0645 3.9999 10.2911 3.9999 9.5C4.00106 8.43949 4.42286 7.42274 5.17275 6.67285C5.92265 5.92295 6.93939 5.50116 7.9999 5.5ZM12.8605 13.8437C12.9061 13.8911 12.9419 13.947 12.9658 14.0082C12.9897 14.0694 13.0014 14.1348 13 14.2005C12.9987 14.2662 12.9844 14.331 12.958 14.3912C12.9316 14.4514 12.8936 14.5058 12.8461 14.5512C11.6695 15.6859 10.1306 16.3697 8.4999 16.4825V17.5H9.9999C10.1325 17.5 10.2597 17.5527 10.3535 17.6464C10.4472 17.7402 10.4999 17.8674 10.4999 18C10.4999 18.1326 10.4472 18.2598 10.3535 18.3536C10.2597 18.4473 10.1325 18.5 9.9999 18.5H5.9999C5.86729 18.5 5.74011 18.4473 5.64635 18.3536C5.55258 18.2598 5.4999 18.1326 5.4999 18C5.4999 17.8674 5.55258 17.7402 5.64635 17.6464C5.74011 17.5527 5.86729 17.5 5.9999 17.5H7.4999V16.4819C6.17378 16.3869 4.90213 15.9162 3.83374 15.1249C2.76534 14.3336 1.9444 13.2544 1.46695 12.0136C0.989498 10.7727 0.875291 9.42159 1.13769 8.11822C1.40009 6.81485 2.02824 5.61316 2.94865 4.65375C2.99383 4.6052 3.04821 4.56613 3.10864 4.5388C3.16906 4.51148 3.23432 4.49645 3.30061 4.49458C3.3669 4.49272 3.4329 4.50406 3.49476 4.52795C3.55662 4.55183 3.61312 4.58779 3.66096 4.63372C3.70879 4.67965 3.74701 4.73463 3.77339 4.79547C3.79978 4.85632 3.81379 4.9218 3.81462 4.98811C3.81546 5.05442 3.80309 5.12023 3.77824 5.18172C3.7534 5.2432 3.71657 5.29913 3.6699 5.34625C2.57995 6.47842 1.97772 7.99303 1.99265 9.56452C2.00757 11.136 2.63848 12.6389 3.74973 13.7502C4.86099 14.8614 6.36389 15.4923 7.93538 15.5073C9.50687 15.5222 11.0215 14.9199 12.1536 13.83C12.2492 13.7381 12.3774 13.6879 12.5099 13.6905C12.6425 13.6931 12.7686 13.7482 12.8605 13.8437Z" fill="black"/>
<path d="M15.0904 5.40907C15.3 5.6175 15.4662 5.86544 15.5793 6.13852C15.6925 6.41161 15.7503 6.70442 15.7495 7C15.7495 7.06631 15.7232 7.1299 15.6763 7.17678C15.6294 7.22366 15.5658 7.25 15.4995 7.25C15.4332 7.25 15.3696 7.22366 15.3227 7.17678C15.2759 7.1299 15.2495 7.06631 15.2495 7C15.2495 6.53587 15.0651 6.09076 14.7369 5.76257C14.4088 5.43438 13.9636 5.25 13.4995 5.25C13.4332 5.25 13.3696 5.22366 13.3227 5.17678C13.2759 5.1299 13.2495 5.06631 13.2495 5C13.2495 4.9337 13.2759 4.87011 13.3227 4.82323C13.3696 4.77634 13.4332 4.75 13.4995 4.75C13.7951 4.74921 14.0879 4.80705 14.361 4.92018C14.6341 5.03331 14.882 5.19948 15.0904 5.40907ZM13.4995 3.25C13.4332 3.25 13.3696 3.27634 13.3227 3.32323C13.2759 3.37011 13.2495 3.4337 13.2495 3.5C13.2495 3.56631 13.2759 3.6299 13.3227 3.67678C13.3696 3.72366 13.4332 3.75 13.4995 3.75C13.9263 3.75 14.3489 3.83407 14.7432 3.9974C15.1375 4.16072 15.4958 4.40012 15.7976 4.70191C16.0994 5.0037 16.3388 5.36197 16.5021 5.75628C16.6654 6.15059 16.7495 6.57321 16.7495 7C16.7495 7.06631 16.7759 7.1299 16.8227 7.17678C16.8696 7.22366 16.9332 7.25 16.9995 7.25C17.0658 7.25 17.1294 7.22366 17.1763 7.17678C17.2232 7.1299 17.2495 7.06631 17.2495 7C17.2495 6.00544 16.8544 5.05161 16.1512 4.34835C15.4479 3.64509 14.4941 3.25 13.4995 3.25ZM17.2117 3.28782C16.7254 2.79877 16.1468 2.41105 15.5096 2.14708C14.8724 1.88311 14.1892 1.74815 13.4995 1.75C13.4332 1.75 13.3696 1.77634 13.3227 1.82323C13.2759 1.87011 13.2495 1.9337 13.2495 2C13.2495 2.06631 13.2759 2.1299 13.3227 2.17678C13.3696 2.22366 13.4332 2.25 13.4995 2.25C14.1235 2.24829 14.7417 2.37038 15.3182 2.60918C15.8948 2.84799 16.4182 3.19878 16.8583 3.64125C17.3007 4.0813 17.6515 4.60474 17.8903 5.18127C18.1291 5.7578 18.2512 6.37597 18.2495 7C18.2495 7.06631 18.2759 7.1299 18.3227 7.17678C18.3696 7.22366 18.4332 7.25 18.4995 7.25C18.5658 7.25 18.6294 7.22366 18.6763 7.17678C18.7232 7.1299 18.7495 7.06631 18.7495 7C18.7514 6.3103 18.6164 5.62707 18.3524 4.98988C18.0885 4.35268 17.7007 3.77416 17.2117 3.28782ZM13.6245 6.5C13.5503 6.5 13.4778 6.522 13.4162 6.5632C13.3545 6.60441 13.3064 6.66297 13.2781 6.7315C13.2497 6.80002 13.2422 6.87542 13.2567 6.94816C13.2712 7.02091 13.3069 7.08772 13.3593 7.14017C13.4118 7.19261 13.4786 7.22833 13.5514 7.2428C13.6241 7.25727 13.6995 7.24984 13.768 7.22146C13.8365 7.19308 13.8951 7.14501 13.9363 7.08334C13.9775 7.02167 13.9995 6.94917 13.9995 6.875C13.9995 6.77555 13.96 6.68016 13.8897 6.60984C13.8194 6.53951 13.724 6.5 13.6245 6.5Z" fill="black"/>
</svg>
