<svg xmlns="http://www.w3.org/2000/svg" width="25" height="24" viewBox="0 0 25 24" fill="none">
  <path d="M5.34967 14.5027L4.51426 17.6213L1.46087 17.6859C0.548356 15.9934 0.0307617 14.057 0.0307617 11.9992C0.0307617 10.0093 0.514699 8.13277 1.37251 6.48047H1.37317L4.09154 6.97884L5.28236 9.68091C5.03312 10.4075 4.89728 11.1875 4.89728 11.9992C4.89737 12.88 5.05693 13.724 5.34967 14.5027Z" fill="#FBBB00"/>
  <path d="M23.8212 9.75781C23.959 10.4837 24.0309 11.2334 24.0309 11.9996C24.0309 12.8587 23.9405 13.6967 23.7685 14.5051C23.1843 17.2558 21.6579 19.6578 19.5434 21.3576L19.5428 21.3569L16.1188 21.1822L15.6342 18.1572C17.0373 17.3343 18.1338 16.0466 18.7114 14.5051H12.2947V9.75781H23.8212Z" fill="#518EF8"/>
  <path d="M19.5427 21.3577L19.5433 21.3584C17.4869 23.0113 14.8745 24.0004 12.0308 24.0004C7.46094 24.0004 3.48777 21.4461 1.46094 17.6872L5.34973 14.5039C6.36313 17.2085 8.97214 19.1338 12.0308 19.1338C13.3455 19.1338 14.5772 18.7784 15.6341 18.158L19.5427 21.3577Z" fill="#28B446"/>
  <path d="M19.6904 2.76262L15.8029 5.94525C14.7091 5.26153 13.4161 4.86656 12.0308 4.86656C8.90289 4.86656 6.24507 6.88017 5.28245 9.68175L1.37321 6.48131H1.37256C3.36971 2.63077 7.393 0 12.0308 0C14.9425 0 17.6121 1.03716 19.6904 2.76262Z" fill="#F14336"/>
</svg>