<svg width="20" height="20" viewBox="0 0 20 20" fill="none" xmlns="http://www.w3.org/2000/svg">
<path d="M6.27082 0.828555L5.44227 0C2.92973 2.51312 2.92973 6.60211 5.44227 9.11523L6.27082 8.28668C4.21547 6.23074 4.21547 2.88449 6.27082 0.828555ZM14.5575 0L13.7289 0.828555C15.7843 2.88449 15.7843 6.23074 13.7289 8.28668L14.5575 9.11523C17.07 6.60211 17.07 2.51312 14.5575 0Z" fill="black"/>
<path d="M7.92863 2.48627L7.10008 1.65771C6.32645 2.43135 5.90016 3.46072 5.90016 4.55764C5.90016 5.65455 6.32645 6.68396 7.10008 7.45756L7.92863 6.629C7.37645 6.07682 7.07203 5.34096 7.07203 4.55764C7.07203 3.77432 7.37645 3.03842 7.92863 2.48627ZM12.8999 1.65771L12.0714 2.48627C12.6236 3.03846 12.928 3.77432 12.928 4.55764C12.928 5.34096 12.6236 6.07686 12.0714 6.629L12.8999 7.45756C13.6736 6.68393 14.0998 5.65455 14.0998 4.55764C14.0998 3.46072 13.6736 2.43131 12.8999 1.65771ZM10 2.79982C9.0307 2.79982 8.24219 3.5883 8.24219 4.55764C8.24219 5.52693 9.0307 6.31545 10 6.31545C10.9693 6.31545 11.7578 5.52693 11.7578 4.55764C11.7578 3.58834 10.9693 2.79982 10 2.79982ZM15.1039 18.8281L11.1495 7.25115C10.7863 7.40709 10.3952 7.48744 10 7.48732C9.60478 7.48742 9.21367 7.40707 8.85051 7.25115L4.89609 18.8281H2.96875V20H17.0312V18.8281H15.1039ZM8.98977 10.5469H11.0102L11.6669 12.4737L10 14.0712L8.33309 12.4737L8.98977 10.5469ZM7.90965 13.6912L9.15305 14.8828L6.66625 17.266L7.90965 13.6912ZM6.77082 18.8281L10 15.6945L13.2292 18.8281H6.77082ZM10.847 14.8829L12.0904 13.6913L13.3337 17.266L10.847 14.8829Z" fill="black"/>
</svg>
