<svg width="21" height="20" viewBox="0 0 21 20" fill="none" xmlns="http://www.w3.org/2000/svg">
<path d="M18.6497 9.375H17.9981C17.8481 7.60894 17.0784 5.95282 15.8251 4.69953C14.5718 3.44624 12.9157 2.67654 11.1497 2.52656V1.875C11.1497 1.70924 11.0838 1.55027 10.9666 1.43306C10.8494 1.31585 10.6904 1.25 10.5247 1.25C10.3589 1.25 10.1999 1.31585 10.0827 1.43306C9.96551 1.55027 9.89966 1.70924 9.89966 1.875V2.52656C8.1336 2.67654 6.47747 3.44624 5.22418 4.69953C3.9709 5.95282 3.2012 7.60894 3.05122 9.375H2.39966C2.2339 9.375 2.07493 9.44085 1.95772 9.55806C1.84051 9.67527 1.77466 9.83424 1.77466 10C1.77466 10.1658 1.84051 10.3247 1.95772 10.4419C2.07493 10.5592 2.2339 10.625 2.39966 10.625H3.05122C3.2012 12.3911 3.9709 14.0472 5.22418 15.3005C6.47747 16.5538 8.1336 17.3235 9.89966 17.4734V18.125C9.89966 18.2908 9.96551 18.4497 10.0827 18.5669C10.1999 18.6842 10.3589 18.75 10.5247 18.75C10.6904 18.75 10.8494 18.6842 10.9666 18.5669C11.0838 18.4497 11.1497 18.2908 11.1497 18.125V17.4734C12.9157 17.3235 14.5718 16.5538 15.8251 15.3005C17.0784 14.0472 17.8481 12.3911 17.9981 10.625H18.6497C18.8154 10.625 18.9744 10.5592 19.0916 10.4419C19.2088 10.3247 19.2747 10.1658 19.2747 10C19.2747 9.83424 19.2088 9.67527 19.0916 9.55806C18.9744 9.44085 18.8154 9.375 18.6497 9.375ZM11.1497 16.2188V15.625C11.1497 15.4592 11.0838 15.3003 10.9666 15.1831C10.8494 15.0658 10.6904 15 10.5247 15C10.3589 15 10.1999 15.0658 10.0827 15.1831C9.96551 15.3003 9.89966 15.4592 9.89966 15.625V16.2188C8.46597 16.0725 7.12662 15.4361 6.10758 14.4171C5.08854 13.398 4.4522 12.0587 4.30591 10.625H4.89966C5.06542 10.625 5.22439 10.5592 5.3416 10.4419C5.45881 10.3247 5.52466 10.1658 5.52466 10C5.52466 9.83424 5.45881 9.67527 5.3416 9.55806C5.22439 9.44085 5.06542 9.375 4.89966 9.375H4.30591C4.4522 7.94131 5.08854 6.60196 6.10758 5.58292C7.12662 4.56388 8.46597 3.92754 9.89966 3.78125V4.375C9.89966 4.54076 9.96551 4.69973 10.0827 4.81694C10.1999 4.93415 10.3589 5 10.5247 5C10.6904 5 10.8494 4.93415 10.9666 4.81694C11.0838 4.69973 11.1497 4.54076 11.1497 4.375V3.78125C12.5834 3.92754 13.9227 4.56388 14.9417 5.58292C15.9608 6.60196 16.5971 7.94131 16.7434 9.375H16.1497C15.9839 9.375 15.8249 9.44085 15.7077 9.55806C15.5905 9.67527 15.5247 9.83424 15.5247 10C15.5247 10.1658 15.5905 10.3247 15.7077 10.4419C15.8249 10.5592 15.9839 10.625 16.1497 10.625H16.7434C16.5971 12.0587 15.9608 13.398 14.9417 14.4171C13.9227 15.4361 12.5834 16.0725 11.1497 16.2188ZM10.5247 6.875C9.90659 6.875 9.3024 7.05828 8.7885 7.40166C8.2746 7.74504 7.87406 8.2331 7.63753 8.80411C7.40101 9.37513 7.33913 10.0035 7.4597 10.6097C7.58028 11.2158 7.87791 11.7727 8.31495 12.2097C8.75199 12.6467 9.30881 12.9444 9.915 13.065C10.5212 13.1855 11.1495 13.1236 11.7205 12.8871C12.2916 12.6506 12.7796 12.2501 13.123 11.7362C13.4664 11.2223 13.6497 10.6181 13.6497 10C13.6497 9.1712 13.3204 8.37634 12.7344 7.79029C12.1483 7.20424 11.3535 6.875 10.5247 6.875ZM10.5247 11.875C10.1538 11.875 9.79131 11.765 9.48296 11.559C9.17462 11.353 8.9343 11.0601 8.79238 10.7175C8.65047 10.3749 8.61334 9.99792 8.68569 9.63421C8.75803 9.27049 8.93661 8.9364 9.19883 8.67417C9.46106 8.41195 9.79515 8.23337 10.1589 8.16103C10.5226 8.08868 10.8996 8.12581 11.2422 8.26773C11.5848 8.40964 11.8776 8.64996 12.0837 8.95831C12.2897 9.26665 12.3997 9.62916 12.3997 10C12.3997 10.4973 12.2021 10.9742 11.8505 11.3258C11.4989 11.6775 11.0219 11.875 10.5247 11.875Z" fill="black"/>
</svg>
