<svg xmlns="http://www.w3.org/2000/svg" width="20" height="21" viewBox="0 0 20 21" fill="none">
<path d="M9.65298 17.4149L9.6476 17.4121L9.62912 17.4024C9.61341 17.3941 9.59102 17.3822 9.56238 17.3667C9.50511 17.3358 9.42281 17.2907 9.31906 17.232C9.11164 17.1146 8.81794 16.9425 8.46663 16.7206C7.76556 16.2777 6.82731 15.6314 5.88539 14.8197C4.04447 13.2332 2 10.8523 2 8C2 5.51472 4.01472 3.5 6.5 3.5C7.9144 3.5 9.17542 4.15238 10 5.17158C10.8246 4.15238 12.0856 3.5 13.5 3.5C15.9853 3.5 18 5.51472 18 8C18 10.8523 15.9555 13.2332 14.1146 14.8197C13.1727 15.6314 12.2344 16.2777 11.5334 16.7206C11.1821 16.9425 10.8884 17.1146 10.6809 17.232C10.5772 17.2907 10.4949 17.3358 10.4376 17.3667C10.409 17.3822 10.3866 17.3941 10.3709 17.4024L10.3524 17.4121L10.347 17.4149L10.3453 17.4158C10.13 17.53 9.87 17.53 9.65529 17.4161L9.65298 17.4149Z" fill="#ADB5BD"/>
</svg>