<svg width="12" height="20" viewBox="0 0 12 20" fill="none" xmlns="http://www.w3.org/2000/svg">
<path d="M5.49568 20C5.19755 20 4.91692 19.8597 4.75672 19.7798C4.27454 19.5385 3.92592 18.6499 3.48616 17.4207C3.3686 17.0921 3.25767 16.7817 3.1822 16.6309C2.87749 16.0216 2.86202 12.59 2.86202 11.9082V10.8965L2.40336 10.4378C2.01067 10.1606 0.858614 9.28944 0.858614 8.61696C0.858614 8.28413 0.383401 7.34147 0.0455886 6.77884C-0.0423442 6.63213 0.000634695 6.44215 0.142597 6.34684C0.35072 6.20671 0.912596 5.73921 1.00777 5.26273C1.11813 4.71129 1.04139 3.27968 1.00241 2.77456C0.997741 2.71393 1.01039 2.65323 1.03887 2.59951C1.06736 2.54579 1.11052 2.50127 1.16332 2.47112C1.78802 2.11403 3.29092 1.28398 3.75546 1.28398C4.05875 1.28398 4.46945 1.42999 4.88217 1.68462C4.95467 1.72927 5.00646 1.80089 5.02617 1.88373C5.04588 1.96656 5.03188 2.05383 4.98727 2.12635C4.89374 2.27715 4.69591 2.32417 4.54549 2.2314C4.20349 2.02036 3.90222 1.92594 3.7555 1.92594C3.53412 1.93915 2.52995 2.43952 1.65673 2.92941C1.68998 3.44261 1.75995 4.77651 1.63745 5.3887C1.52168 5.96755 1.03956 6.44747 0.740869 6.69674C1.00937 7.17138 1.50076 8.10869 1.50076 8.61715C1.50076 8.82875 2.11774 9.45345 2.79483 9.9281C2.81006 9.93873 2.82455 9.95105 2.83762 9.96407L3.41017 10.5366C3.44 10.5664 3.46367 10.6017 3.47981 10.6407C3.49594 10.6796 3.50424 10.7213 3.50421 10.7635V11.9084C3.50421 13.8407 3.59859 16.0282 3.75659 16.3439C3.84932 16.5295 3.96137 16.8425 4.09068 17.2045C4.30633 17.8073 4.75512 19.061 5.04402 19.2056C5.21942 19.2934 5.46667 19.4021 5.57924 19.3401C5.62941 19.3125 5.79804 19.1677 5.86876 18.4591C6.01237 17.0214 6.15696 16.4339 6.16317 16.4095C6.17432 16.3648 6.19494 16.3231 6.22364 16.287L7.26915 14.9805L7.1648 14.5626C7.15291 14.5153 7.15197 14.4658 7.16205 14.4181C7.17212 14.3704 7.19295 14.3255 7.22295 14.2871C7.25295 14.2486 7.29133 14.2175 7.33517 14.196C7.37901 14.1746 7.42716 14.1635 7.47595 14.1635C7.47412 14.1635 7.81927 14.1478 8.28508 13.7983C8.4008 13.7118 8.4111 13.5566 8.40799 13.223C8.40395 12.7895 8.39807 12.196 9.01525 11.7844C9.55305 11.4256 9.87323 11.2309 10.0415 11.134C10.1421 10.4057 10.531 7.82072 11.0727 7.00807C11.161 6.87566 11.15 6.79059 11.1307 6.73125C11.0345 6.43665 10.481 6.14958 10.2281 6.0568C10.2191 6.05328 9.84511 5.90379 9.38865 5.7188C9.34957 5.70301 9.31398 5.67967 9.28392 5.65012C9.25386 5.62057 9.22991 5.58539 9.21345 5.54658C9.19699 5.50777 9.18833 5.4661 9.18797 5.42395C9.18762 5.3818 9.19557 5.33999 9.21138 5.30091C9.27792 5.13633 9.46601 5.057 9.62927 5.12387C10.0846 5.3081 10.4573 5.45707 10.4573 5.45707C10.5569 5.49304 11.5209 5.86081 11.7407 6.5307C11.8039 6.72443 11.8326 7.02608 11.6068 7.36422C11.1713 8.01761 10.7733 10.4828 10.6562 11.3775C10.6495 11.4297 10.63 11.4794 10.5996 11.5222C10.5691 11.5651 10.5286 11.5998 10.4816 11.6233C10.4795 11.6243 10.1904 11.7724 9.37121 12.3186C9.05898 12.5269 9.04591 12.7954 9.04995 13.2167C9.05343 13.5753 9.05785 14.0215 8.67029 14.3117C8.35838 14.5458 8.07935 14.6691 7.86944 14.7339L7.93057 14.9786C7.94256 15.0266 7.94335 15.0767 7.93287 15.125C7.92239 15.1733 7.90093 15.2186 7.87015 15.2573L6.77136 16.6304C6.73224 16.8149 6.61967 17.4027 6.5078 18.5232C6.43247 19.273 6.23591 19.7113 5.88898 19.9025C5.76018 19.973 5.62612 20 5.49568 20Z" fill="black"/>
<path d="M7.42 8.3462C7.37342 8.34618 7.32741 8.33603 7.28514 8.31646C7.24287 8.29689 7.20536 8.26837 7.1752 8.23288C6.87853 7.88256 4.28052 4.76682 4.28052 3.13955C4.28052 1.4085 5.68899 2.28882e-05 7.42005 2.28882e-05C9.1511 2.28882e-05 10.5596 1.4085 10.5596 3.13955C10.5596 4.76678 7.96137 7.88261 7.66489 8.23288C7.63473 8.26838 7.59721 8.2969 7.55493 8.31647C7.51266 8.33604 7.46659 8.34618 7.42 8.3462ZM7.42 0.641979C6.04298 0.641979 4.92252 1.76244 4.92252 3.13955C4.92252 4.20819 6.54716 6.44032 7.42005 7.52091C8.29274 6.44032 9.91757 4.20838 9.91757 3.13955C9.91757 1.76244 8.79706 0.641979 7.42 0.641979ZM7.42 4.55682C6.53503 4.55682 5.81501 3.83681 5.81501 2.95179C5.81501 2.06682 6.53508 1.3468 7.42005 1.3468C8.30502 1.3468 9.02508 2.06682 9.02508 2.95179C9.02508 3.83676 8.30497 4.55682 7.42 4.55682ZM7.42 1.98876C6.88902 1.98876 6.45697 2.42076 6.45697 2.95179C6.45697 3.48282 6.88902 3.91482 7.42 3.91482C7.95108 3.91482 8.38307 3.48282 8.38307 2.95179C8.38307 2.42076 7.95103 1.98876 7.42 1.98876Z" fill="black"/>
</svg>
