<svg width="20" height="20" viewBox="0 0 20 20" fill="none" xmlns="http://www.w3.org/2000/svg">
<g clip-path="url(#clip0_3856_3030)">
<path d="M19.4033 3.03364C19.3754 2.99662 19.3404 2.96547 19.3005 2.94197C19.2605 2.91847 19.2163 2.90308 19.1704 2.89669C19.1244 2.89029 19.0777 2.89301 19.0328 2.90468C18.988 2.91636 18.9458 2.93678 18.9089 2.96475C18.8718 2.99266 18.8407 3.0276 18.8172 3.06756C18.7937 3.10753 18.7783 3.15174 18.7718 3.19766C18.7654 3.24358 18.7682 3.29032 18.7798 3.33519C18.7915 3.38007 18.8119 3.4222 18.8399 3.45918C19.5141 4.35153 19.4571 6.25011 18.6879 8.53823C17.8958 10.8946 16.4669 13.2573 14.866 14.8584C13.294 16.4302 10.9667 17.8419 8.63956 18.6351C6.38206 19.4045 4.47148 19.4912 3.52948 18.8671C3.49086 18.8415 3.44756 18.8237 3.40207 18.8148C3.35657 18.8059 3.30977 18.8061 3.26434 18.8153C3.21891 18.8245 3.17575 18.8426 3.13731 18.8685C3.09887 18.8944 3.06592 18.9277 3.04033 18.9663C3.01468 19.0049 2.9969 19.0483 2.988 19.0938C2.9791 19.1393 2.97927 19.1861 2.98848 19.2315C2.99769 19.277 3.01577 19.3202 3.04169 19.3586C3.06761 19.3971 3.10085 19.4301 3.13952 19.4557C3.68536 19.8176 4.43734 19.9849 5.31583 19.9849C8.25954 19.9849 12.6186 18.1042 15.3652 15.3577C18.9893 11.7335 21.1028 5.28349 19.4033 3.03364Z" fill="black"/>
<path d="M19.0674 2.31974C18.336 1.58834 16.8193 1.8431 14.681 3.05673C12.6973 4.18264 10.3982 6.00922 8.20744 8.20012C4.14972 12.2577 0.709726 17.4428 2.32696 19.06C2.60675 19.3398 2.9935 19.4682 3.46259 19.4682C5.70489 19.4682 9.8315 16.5351 13.187 13.1796C15.3778 10.9887 17.2045 8.68968 18.3303 6.70597C19.544 4.56783 19.799 3.05104 19.0674 2.31974ZM17.7161 6.3577C16.6207 8.28773 14.8348 10.5332 12.6877 12.6806C8.04928 17.3191 3.76876 19.5021 2.82625 18.5609C1.88477 17.6194 4.06832 13.338 8.70673 8.69961C10.8541 6.55227 13.0994 4.76643 15.0296 3.67114C16.3868 2.90054 17.3344 2.62095 17.9258 2.62095C18.2343 2.62095 18.4459 2.69687 18.5679 2.81924C18.9246 3.17589 18.888 4.29259 17.7161 6.3577Z" fill="black"/>
<path d="M10.0058 9.49925L6.56815 6.06164C6.50195 5.99544 6.41217 5.95825 6.31855 5.95825C6.22494 5.95825 6.13516 5.99544 6.06896 6.06164C6.00276 6.12783 5.96558 6.21761 5.96558 6.31123C5.96558 6.40484 6.00276 6.49463 6.06896 6.56082L9.50658 9.99844C9.53931 10.0313 9.57821 10.0573 9.62104 10.0751C9.66388 10.0928 9.7098 10.1019 9.75617 10.1019C9.826 10.1019 9.89428 10.0812 9.95235 10.0424C10.0104 10.0037 10.0557 9.94852 10.0824 9.884C10.1091 9.81948 10.1161 9.74848 10.1025 9.67999C10.0888 9.61151 10.0552 9.5486 10.0058 9.49925Z" fill="black"/>
<path d="M5.51931 4.09987C4.74064 4.09987 4.10709 4.73342 4.10709 5.5121C4.10709 6.29077 4.74064 6.92432 5.51931 6.92432C6.29798 6.92432 6.93153 6.29077 6.93153 5.5121C6.93153 4.73342 6.29798 4.09987 5.51931 4.09987ZM5.51931 6.21826C5.33208 6.21807 5.15258 6.14361 5.02019 6.01122C4.8878 5.87883 4.81334 5.69932 4.81315 5.5121C4.81315 5.12266 5.12987 4.80593 5.51931 4.80593C5.90875 4.80593 6.22547 5.12266 6.22547 5.5121C6.22525 5.69931 6.15078 5.8788 6.0184 6.01119C5.88601 6.14357 5.70653 6.21804 5.51931 6.21826ZM4.9443 2.36628C4.91732 2.27664 4.85588 2.20136 4.77347 2.15696C4.69106 2.11255 4.5944 2.10265 4.5047 2.12941C3.34838 2.47592 2.43234 3.41399 2.11397 4.57796C2.09963 4.63034 2.09757 4.68533 2.10795 4.73864C2.11833 4.79195 2.14087 4.84214 2.17382 4.88532C2.20677 4.92849 2.24923 4.96349 2.29791 4.98757C2.34659 5.01166 2.40017 5.02419 2.45448 5.02419C2.60963 5.02419 2.75176 4.92106 2.79479 4.76415C3.04955 3.83332 3.7825 3.08299 4.70733 2.80588C4.79702 2.77896 4.87235 2.71755 4.91679 2.63512C4.96122 2.55269 4.97112 2.456 4.9443 2.36628ZM4.59655 0.284096C4.5741 0.193239 4.51656 0.114984 4.43653 0.0664751C4.35649 0.017966 4.26049 0.00315857 4.16956 0.0252971C2.10848 0.530896 0.475218 2.19509 0.00861504 4.26527C-0.0102411 4.35597 0.00729643 4.45044 0.0574472 4.52833C0.107598 4.60621 0.186345 4.66128 0.276715 4.68164C0.367084 4.70201 0.461838 4.68605 0.540551 4.63721C0.619263 4.58836 0.675631 4.51055 0.697503 4.42053C1.10546 2.60946 2.53454 1.15348 4.33775 0.711289C4.42868 0.688896 4.50701 0.631331 4.55553 0.551235C4.60405 0.471139 4.61881 0.37506 4.59655 0.284096Z" fill="black"/>
</g>
<defs>
<clipPath id="clip0_3856_3030">
<rect width="20" height="20" fill="white"/>
</clipPath>
</defs>
</svg>
