<svg width="20" height="20" viewBox="0 0 20 20" fill="none" xmlns="http://www.w3.org/2000/svg">
<path fill-rule="evenodd" clip-rule="evenodd" d="M9.99857 2.64842C7.86586 2.64842 6.12864 4.38564 6.12864 6.52128C6.12864 8.65691 7.86586 10.3941 9.99857 10.3941C12.1371 10.3941 13.8714 8.65691 13.8714 6.52128C13.8714 4.38564 12.1342 2.64842 9.99857 2.64842ZM9.99857 10.7838C8.86857 10.7822 7.78529 10.3326 6.98625 9.5336C6.18721 8.73456 5.73763 7.65128 5.73608 6.52128C5.73608 4.17178 7.64908 2.25879 9.99857 2.25879C12.351 2.25879 14.2611 4.17178 14.2611 6.52128C14.2611 8.87077 12.351 10.7838 9.99857 10.7838Z" fill="black"/>
<path fill-rule="evenodd" clip-rule="evenodd" d="M9.99851 1.44432C7.2008 1.44432 4.92161 3.7235 4.92161 6.52122C4.92161 9.32186 7.2008 11.5981 9.99851 11.5981C12.7992 11.5981 15.0754 9.32186 15.0754 6.52122C15.0754 3.7235 12.7992 1.44432 9.99851 1.44432ZM9.99851 11.9907C8.54867 11.9891 7.15869 11.4123 6.13377 10.3868C5.10885 9.36135 4.53276 7.97106 4.53198 6.52122C4.53198 3.50672 6.98401 1.05469 9.99851 1.05469C13.0159 1.05469 15.465 3.50672 15.465 6.52122C15.4635 7.97056 14.8871 9.36009 13.8622 10.3849C12.8374 11.4098 11.4479 11.9891 9.99851 11.9907Z" fill="black"/>
<path fill-rule="evenodd" clip-rule="evenodd" d="M9.99847 3.68541C9.52974 3.68541 9.00242 4.84844 9.00242 6.5212C9.00242 8.19105 9.52974 9.357 9.99847 9.357C10.4731 9.357 10.9974 8.19397 10.9974 6.5212C10.9974 4.85136 10.4672 3.68541 9.99847 3.68541ZM9.99847 9.74956C9.20749 9.74956 8.60986 8.36096 8.60986 6.5212C8.60986 4.68145 9.20749 3.29285 9.99847 3.29285C10.7894 3.29285 11.39 4.68145 11.39 6.5212C11.39 8.36096 10.7924 9.74956 9.99847 9.74956Z" fill="black"/>
<path fill-rule="evenodd" clip-rule="evenodd" d="M14.0676 6.71747H5.93224C5.88019 6.71747 5.83026 6.69679 5.79345 6.65998C5.75664 6.62317 5.73596 6.57325 5.73596 6.52119C5.73596 6.46914 5.75664 6.41921 5.79345 6.3824C5.83026 6.34559 5.88019 6.32491 5.93224 6.32491H14.0676C14.1196 6.32491 14.1696 6.34559 14.2064 6.3824C14.2432 6.41921 14.2639 6.46914 14.2639 6.52119C14.2639 6.57325 14.2432 6.62317 14.2064 6.65998C14.1696 6.69679 14.1196 6.71747 14.0676 6.71747ZM4.78679 7.51138H4.23897C3.98514 7.5106 3.74192 7.40943 3.56244 7.22994C3.38295 7.05046 3.28178 6.80725 3.28101 6.55342V6.48897C3.28101 5.96165 3.71165 5.53101 4.23897 5.53101H4.78679C4.83435 5.53685 4.87812 5.55988 4.90987 5.59577C4.94161 5.63165 4.95914 5.67791 4.95914 5.72582C4.95914 5.77373 4.94161 5.81999 4.90987 5.85587C4.87812 5.89176 4.83435 5.91479 4.78679 5.92063H4.23897C4.08874 5.92141 3.94494 5.98163 3.83899 6.08813C3.73304 6.19463 3.67356 6.33874 3.67356 6.48897V6.55342C3.67356 6.86688 3.92844 7.12175 4.23897 7.12175H4.78679C4.83435 7.12759 4.87812 7.15062 4.90987 7.18651C4.94161 7.22239 4.95914 7.26865 4.95914 7.31656C4.95914 7.36447 4.94161 7.41073 4.90987 7.44662C4.87812 7.4825 4.83435 7.50554 4.78679 7.51138ZM15.7609 7.51138H15.2101C15.1626 7.50554 15.1188 7.4825 15.087 7.44662C15.0553 7.41073 15.0378 7.36447 15.0378 7.31656C15.0378 7.26865 15.0553 7.22239 15.087 7.18651C15.1188 7.15062 15.1626 7.12759 15.2101 7.12175H15.7579C15.9087 7.12175 16.0532 7.06187 16.1598 6.95529C16.2664 6.8487 16.3263 6.70415 16.3263 6.55342V6.48897C16.3263 6.33824 16.2664 6.19368 16.1598 6.0871C16.0532 5.98051 15.9087 5.92063 15.7579 5.92063H15.2101C15.1626 5.91479 15.1188 5.89176 15.087 5.85587C15.0553 5.81999 15.0378 5.77373 15.0378 5.72582C15.0378 5.67791 15.0553 5.63165 15.087 5.59577C15.1188 5.55988 15.1626 5.53685 15.2101 5.53101H15.7579C16.2853 5.53101 16.7159 5.95872 16.7159 6.48897V6.55342C16.7159 7.08073 16.2911 7.51138 15.7609 7.51138Z" fill="black"/>
<path fill-rule="evenodd" clip-rule="evenodd" d="M9.99849 13.1625C8.30723 13.1611 6.68014 12.5149 5.44885 11.3555C4.21756 10.196 3.47477 8.61068 3.37186 6.92256C3.36729 6.8954 3.36849 6.86759 3.37538 6.84093C3.38226 6.81426 3.39468 6.78935 3.41182 6.7678C3.42897 6.74625 3.45045 6.72855 3.47489 6.71585C3.49932 6.70315 3.52615 6.69573 3.55363 6.69408C3.58112 6.69243 3.60865 6.69657 3.63443 6.70626C3.66021 6.71594 3.68366 6.73093 3.70326 6.75027C3.72287 6.76961 3.73818 6.79286 3.74821 6.8185C3.75824 6.84414 3.76277 6.87161 3.76149 6.89912C3.85916 8.48801 4.55901 9.97986 5.71841 11.0707C6.87782 12.1615 8.40953 12.7692 10.0014 12.7699C13.3001 12.7699 16.0421 10.1919 16.2384 6.89912C16.2465 6.85135 16.2719 6.80823 16.3098 6.77807C16.3477 6.74791 16.3954 6.73284 16.4438 6.73574C16.4921 6.73865 16.5377 6.75934 16.5717 6.79383C16.6057 6.82831 16.6258 6.87416 16.628 6.92256C16.5251 8.61119 15.7819 10.197 14.55 11.3565C13.3181 12.516 11.6903 13.1619 9.99849 13.1625Z" fill="black"/>
<path fill-rule="evenodd" clip-rule="evenodd" d="M8.72997 17.4894C8.67893 17.4886 8.63019 17.468 8.59409 17.4319C8.55799 17.3958 8.53738 17.3471 8.53662 17.296V12.8431C8.54246 12.7956 8.5655 12.7518 8.60138 12.7201C8.63727 12.6883 8.68352 12.6708 8.73144 12.6708C8.77935 12.6708 8.8256 12.6883 8.86149 12.7201C8.89737 12.7518 8.92041 12.7956 8.92625 12.8431V17.296C8.92625 17.4044 8.83836 17.4923 8.7329 17.4923L8.72997 17.4894ZM11.267 17.4894C11.2154 17.4894 11.1659 17.4691 11.1292 17.4329C11.0925 17.3968 11.0714 17.3476 11.0707 17.296V12.8431C11.0673 12.8155 11.0698 12.7876 11.078 12.761C11.0863 12.7345 11.1001 12.71 11.1185 12.6892C11.1369 12.6683 11.1595 12.6517 11.1849 12.6402C11.2102 12.6288 11.2377 12.6229 11.2655 12.6229C11.2933 12.6229 11.3208 12.6288 11.3461 12.6402C11.3715 12.6517 11.3941 12.6683 11.4125 12.6892C11.4309 12.71 11.4447 12.7345 11.4529 12.761C11.4612 12.7876 11.4637 12.8155 11.4603 12.8431V17.296C11.4603 17.4044 11.3724 17.4923 11.267 17.4923V17.4894Z" fill="black"/>
<path fill-rule="evenodd" clip-rule="evenodd" d="M7.95649 17.4894C7.94224 17.4901 7.92882 17.4963 7.91901 17.5067C7.90919 17.517 7.90373 17.5308 7.90375 17.545V18.5001C7.90375 18.5294 7.92719 18.5528 7.95649 18.5528H12.0403C12.0696 18.5528 12.0959 18.5294 12.0959 18.5001V17.548C12.0952 17.5337 12.089 17.5203 12.0786 17.5105C12.0683 17.5007 12.0545 17.4952 12.0403 17.4952H7.95649V17.4894ZM12.0403 18.9454H7.95649C7.83839 18.9454 7.72513 18.8985 7.64162 18.8149C7.55811 18.7314 7.51119 18.6182 7.51119 18.5001V17.548C7.51119 17.3019 7.71333 17.1027 7.95649 17.1027H12.0403C12.2864 17.1027 12.4856 17.3019 12.4856 17.548V18.503C12.4856 18.6211 12.4386 18.7344 12.3551 18.8179C12.2716 18.9014 12.1584 18.9454 12.0403 18.9454ZM9.99838 5.5222C8.32854 5.5222 7.16258 6.04952 7.16258 6.52117C7.16258 6.99283 8.32854 7.52015 9.99838 7.52015C11.6711 7.52015 12.8371 6.99283 12.8371 6.52117C12.8371 6.04952 11.6711 5.52513 9.99838 5.52513V5.5222ZM9.99838 7.90978C8.15862 7.90978 6.77295 7.31215 6.77295 6.52117C6.77295 5.7302 8.15862 5.13257 9.99838 5.13257C11.8381 5.13257 13.2267 5.7302 13.2267 6.52117C13.2267 7.31215 11.8381 7.90978 9.99838 7.90978Z" fill="black"/>
</svg>
