<svg width="20" height="20" viewBox="0 0 20 20" fill="none" xmlns="http://www.w3.org/2000/svg">
<path d="M19.7909 4.54238C19.4578 3.23609 18.7478 2.10969 17.7377 1.28496C16.7537 0.481563 15.548 0.0390625 14.3433 0.0390625C13.4197 0.0390625 12.5385 0.287773 11.7245 0.778203C11.0816 1.16563 10.5035 1.6925 9.99826 2.35016C8.84947 0.852813 7.33275 0.0390625 5.65517 0.0390625C4.4508 0.0390625 3.2458 0.481563 2.26193 1.28496C1.25213 2.10969 0.542282 3.23609 0.209196 4.54223C-0.152913 5.9627 -0.223109 8.23273 1.50006 10.9807C3.09506 13.5242 5.85982 15.8809 9.71767 17.9852C9.80513 18.0329 9.90154 18.0568 9.99814 18.0568C10.0947 18.0568 10.1912 18.033 10.2786 17.9852C14.1376 15.8807 16.9032 13.524 18.4988 10.9807C20.2228 8.23273 20.153 5.96281 19.7909 4.54238ZM9.99814 16.8021C5.42525 14.257 3.16236 11.7329 2.08693 9.63379H3.72466C3.94666 9.63379 4.14947 9.5084 4.24865 9.30996L4.97966 7.84789L6.9656 11.8199C7.01425 11.9172 7.08904 11.9991 7.18159 12.0563C7.27414 12.1135 7.38079 12.1438 7.48959 12.1438C7.59838 12.1438 7.70503 12.1135 7.79758 12.0563C7.89013 11.9991 7.96492 11.9172 8.01357 11.8199L9.99951 7.84789L10.7306 9.31C10.7792 9.4073 10.854 9.48913 10.9466 9.54631C11.0391 9.6035 11.1458 9.63379 11.2545 9.63379H15.6976C16.0211 9.63379 16.2834 9.37148 16.2834 9.04801C16.2834 8.72453 16.0211 8.46223 15.6976 8.46223H11.6167L10.5237 6.27594C10.475 6.17865 10.4002 6.09683 10.3077 6.03965C10.2151 5.98247 10.1085 5.95219 9.99968 5.95219C9.8909 5.95219 9.78426 5.98247 9.69171 6.03965C9.59916 6.09683 9.52436 6.17865 9.47568 6.27594L7.48959 10.248L5.50365 6.27594C5.45499 6.17864 5.38019 6.09681 5.28765 6.03961C5.1951 5.98242 5.08846 5.95213 4.97966 5.95213C4.87087 5.95213 4.76423 5.98242 4.67168 6.03961C4.57914 6.09681 4.50434 6.17864 4.45568 6.27594L3.36256 8.46223H1.58658C1.00599 6.76469 1.18408 5.46113 1.34459 4.83184C1.88826 2.69988 3.66072 1.21078 5.65517 1.21078C7.16369 1.21078 8.5281 2.09215 9.49705 3.69219C9.54919 3.77839 9.62269 3.84967 9.71045 3.89915C9.7982 3.94862 9.89724 3.97461 9.99799 3.97461H9.99814C10.0989 3.9746 10.1979 3.94862 10.2857 3.89917C10.3735 3.84972 10.447 3.77847 10.4992 3.6923C11.4689 2.09215 12.8342 1.21078 14.3434 1.21078C16.3386 1.21078 18.1119 2.69988 18.6555 4.83187C19.0326 6.31074 19.5074 11.5109 9.99814 16.8021Z" fill="black"/>
</svg>
