<svg width="20" height="20" viewBox="0 0 20 20" fill="none" xmlns="http://www.w3.org/2000/svg">
<path d="M13.4713 4.4075C12.4488 3.1025 11.3912 1.755 10.5387 0.3075C10.4262 0.1175 10.2213 0 10 0C9.77875 0 9.57375 0.1175 9.4625 0.3075C8.61 1.75375 7.5525 3.1025 6.53 4.40625C4.4575 7.04875 2.5 9.545 2.5 12.5C2.5 16.6362 5.86375 20 10 20C14.1362 20 17.5 16.6362 17.5 12.5C17.5 9.54625 15.5438 7.05 13.4713 4.4075ZM10 18.75C6.55375 18.75 3.75 15.9462 3.75 12.5C3.75 9.97625 5.5775 7.64625 7.51375 5.1775C8.35875 4.1 9.22625 2.99375 10 1.80875C10.7738 2.99375 11.6413 4.10125 12.4862 5.17875C14.4225 7.64625 16.25 9.9775 16.25 12.5C16.25 15.9462 13.4462 18.75 10 18.75Z" fill="black"/>
<path d="M8.12507 7.5C7.09132 7.5 6.25007 8.34125 6.25007 9.375C6.25007 10.4088 7.09132 11.25 8.12507 11.25C9.15882 11.25 10.0001 10.4088 10.0001 9.375C10.0001 8.34125 9.15882 7.5 8.12507 7.5ZM8.12507 10C7.78007 10 7.50007 9.72 7.50007 9.375C7.50007 9.03 7.78007 8.75 8.12507 8.75C8.47007 8.75 8.75007 9.03 8.75007 9.375C8.75007 9.72 8.47007 10 8.12507 10ZM11.8751 13.75C10.8413 13.75 10.0001 14.5912 10.0001 15.625C10.0001 16.6587 10.8413 17.5 11.8751 17.5C12.9088 17.5 13.7501 16.6587 13.7501 15.625C13.7501 14.5912 12.9088 13.75 11.8751 13.75ZM11.8751 16.25C11.5313 16.25 11.2501 15.9688 11.2501 15.625C11.2501 15.2812 11.5313 15 11.8751 15C12.2188 15 12.5001 15.2812 12.5001 15.625C12.5001 15.9688 12.2188 16.25 11.8751 16.25ZM13.5663 8.93375C13.3226 8.69 12.9263 8.69 12.6826 8.93375L6.43257 15.1838C6.18882 15.4275 6.18882 15.8238 6.43257 16.0675C6.55507 16.1888 6.71507 16.25 6.87507 16.25C7.03507 16.25 7.19507 16.1888 7.31632 16.0675L13.5663 9.8175C13.8101 9.57375 13.8101 9.1775 13.5663 8.93375Z" fill="black"/>
</svg>
