<?xml version="1.0" encoding="UTF-8"?>
<svg width="1200pt" height="1200pt" version="1.1" viewBox="0 0 1200 1200" xmlns="http://www.w3.org/2000/svg">
 <g fill="#9b9b9b">
  <path d="m614.81 571.12c23.129 23.348 36.105 54.887 36.105 87.75s-12.977 64.402-36.105 87.75l-150 150c-31.562 30.254-76.715 41.672-118.86 30.059-42.152-11.613-75.082-44.543-86.695-86.695-11.613-42.148-0.19531-87.301 30.059-118.86l150-150c6.6875-7.1797 9.1523-17.324 6.5039-26.773-2.6523-9.4453-10.035-16.828-19.48-19.48-9.4492-2.6484-19.594-0.18359-26.773 6.5039l-150 150c-112.5 111-31.312 309.38 127.5 307.88 23.695 0.082031 47.172-4.5508 69.062-13.629 21.887-9.0781 41.754-22.418 58.438-39.246l150-150c33.754-33.848 52.707-79.699 52.707-127.5s-18.953-93.652-52.707-127.5c-7.1797-6.6875-17.324-9.1523-26.773-6.5039-9.4453 2.6523-16.828 10.035-19.48 19.48-2.6484 9.4492-0.18359 19.594 6.5039 26.773z"/>
  <path d="m694.88 264.19-150 150c-33.754 33.848-52.707 79.699-52.707 127.5s18.953 93.652 52.707 127.5c7.1797 6.6875 17.324 9.1523 26.773 6.5039 9.4453-2.6523 16.828-10.035 19.48-19.48 2.6484-9.4492 0.18359-19.594-6.5039-26.773-23.129-23.348-36.105-54.887-36.105-87.75s12.977-64.402 36.105-87.75l150-150c75-78.188 213.56-21 211.88 87.75 0.09375 32.938-13.008 64.539-36.375 87.75l-150 150c-5.1484 5.3164-8.0078 12.441-7.9688 19.844s2.9766 14.492 8.1797 19.754c5.2031 5.2656 12.262 8.2812 19.664 8.4023 7.4688 0.058594 14.641-2.9219 19.875-8.25l150-150c162.94-174.94-80.062-417.94-255-255z"/>
 </g>
</svg>
