<svg width="20" height="20" viewBox="0 0 20 20" fill="none" xmlns="http://www.w3.org/2000/svg">
<g clip-path="url(#clip0_3852_2010)">
<path d="M19.707 19.4141H18.7475V15.3872C18.9393 15.2186 19.0606 14.9718 19.0606 14.697C19.0606 14.1901 18.6482 13.7777 18.1414 13.7777H16.2247L15.9288 9.04234C15.9241 8.96796 15.8913 8.89814 15.837 8.8471C15.7826 8.79607 15.7109 8.76766 15.6364 8.76766H14.3838C14.3093 8.76766 14.2376 8.79607 14.1832 8.8471C14.1289 8.89814 14.0961 8.96796 14.0914 9.04234L13.7955 13.7777H13.0934L12.7974 9.04234C12.7928 8.96796 12.7599 8.89814 12.7056 8.8471C12.6513 8.79607 12.5796 8.76766 12.505 8.76766H11.2525C11.178 8.76766 11.1063 8.79607 11.052 8.8471C10.9976 8.89814 10.9648 8.96796 10.9602 9.04234L10.6642 13.7777H9.96211L9.66613 9.04234C9.66148 8.96796 9.62865 8.89814 9.57433 8.8471C9.52001 8.79607 9.44828 8.76766 9.37375 8.76766H8.12125C8.04672 8.76766 7.97499 8.79607 7.92067 8.8471C7.86635 8.89814 7.83352 8.96796 7.82887 9.04234L7.53289 13.7777H6.71688L6.53539 5.60969C6.53369 5.53314 6.50208 5.4603 6.44734 5.40676C6.3926 5.35322 6.31907 5.32324 6.2425 5.32324H4.36371C4.28714 5.32324 4.21362 5.35322 4.15887 5.40676C4.10413 5.4603 4.07253 5.53314 4.07082 5.60969L3.86148 15.0303H1.54547C1.03859 15.0303 0.62625 15.4427 0.62625 15.9495C0.62625 16.2243 0.747617 16.4711 0.939375 16.6397V19.4141H0.292969C0.215269 19.4141 0.140751 19.4449 0.0858086 19.4999C0.0308663 19.5548 0 19.6293 0 19.707C0 19.7847 0.0308663 19.8592 0.0858086 19.9142C0.140751 19.9691 0.215269 20 0.292969 20H19.707C19.7847 20 19.8592 19.9691 19.9142 19.9142C19.9691 19.8592 20 19.7847 20 19.707C20 19.6293 19.9691 19.5548 19.9142 19.4999C19.8592 19.4449 19.7847 19.4141 19.707 19.4141ZM3.83355 16.2828H2.79813C2.72042 16.2828 2.64591 16.3137 2.59096 16.3686C2.53602 16.4236 2.50516 16.4981 2.50516 16.5758C2.50516 16.6535 2.53602 16.728 2.59096 16.7829C2.64591 16.8379 2.72042 16.8687 2.79813 16.8687H3.82055L3.76398 19.4141H1.52531V16.8682C1.53203 16.8684 1.53871 16.8687 1.54547 16.8687C1.62317 16.8687 1.69769 16.8378 1.75263 16.7829C1.80757 16.728 1.83844 16.6534 1.83844 16.5757C1.83844 16.498 1.80757 16.4235 1.75263 16.3686C1.69769 16.3136 1.62317 16.2828 1.54547 16.2828C1.36168 16.2828 1.21219 16.1332 1.21219 15.9495C1.21219 15.7657 1.36172 15.6162 1.54547 15.6162H3.84836L3.83355 16.2828ZM14.659 9.35359H15.3611L15.6376 13.7777H14.3825L14.659 9.35359ZM11.5277 9.35359H12.2298L12.5063 13.7777H11.2513L11.5277 9.35359ZM8.39645 9.35359H9.09852L9.375 13.7777H8.11992L8.39645 9.35359ZM5.01012 19.4141H4.35012L4.65016 5.90914H5.9559L6.13078 13.7777H5.61621C5.10934 13.7777 4.69695 14.1901 4.69695 14.697C4.69695 14.9718 4.81832 15.2186 5.01012 15.3872V19.4141ZM18.1414 15.0302H17.5152C17.4375 15.0302 17.3629 15.0611 17.308 15.116C17.2531 15.171 17.2222 15.2455 17.2222 15.3232C17.2222 15.4009 17.2531 15.4754 17.308 15.5304C17.3629 15.5853 17.4375 15.6162 17.5152 15.6162H18.1414C18.1482 15.6162 18.1548 15.6158 18.1616 15.6157V19.4141H5.59602V15.6157C5.60273 15.6158 5.60941 15.6162 5.61617 15.6162H16.2629C16.3406 15.6162 16.4151 15.5853 16.47 15.5304C16.525 15.4754 16.5558 15.4009 16.5558 15.3232C16.5558 15.2455 16.525 15.171 16.47 15.116C16.4151 15.0611 16.3406 15.0302 16.2629 15.0302H5.61617C5.43238 15.0302 5.28285 14.8807 5.28285 14.697C5.28285 14.5132 5.43238 14.3637 5.61617 14.3637H18.1414C18.3252 14.3637 18.4747 14.5132 18.4747 14.697C18.4747 14.8807 18.3252 15.0302 18.1414 15.0302ZM16.2626 0C15.38 0 14.5386 0.308008 13.866 0.872422C13.3831 0.510078 12.7979 0.313125 12.1919 0.313125C11.4563 0.313125 10.754 0.603555 10.232 1.11703C9.961 1.00006 9.66895 0.939612 9.37375 0.939375C8.50273 0.939375 7.72629 1.4609 7.38551 2.24141C7.26826 2.2085 7.14705 2.19183 7.02527 2.19187C6.42008 2.19187 5.89965 2.58543 5.71375 3.13672C5.68135 3.13311 5.64877 3.1313 5.61617 3.13129C5.1093 3.13129 4.69691 3.54367 4.69691 4.05051C4.69691 4.12821 4.72777 4.20274 4.78271 4.25769C4.83766 4.31264 4.91218 4.34351 4.98988 4.34352C5.06759 4.34352 5.14211 4.31266 5.19706 4.25772C5.25201 4.20277 5.28289 4.12825 5.28289 4.05055C5.28289 3.86676 5.43242 3.71727 5.61621 3.71727C5.67434 3.71727 5.73133 3.73371 5.78555 3.76617C5.82871 3.79202 5.87781 3.80632 5.92811 3.80768C5.9784 3.80905 6.0282 3.79743 6.07271 3.77395C6.11721 3.75047 6.15491 3.71593 6.18218 3.67364C6.20945 3.63136 6.22537 3.58276 6.2284 3.53254C6.25406 3.10938 6.6041 2.77789 7.02523 2.77789C7.1584 2.77789 7.28984 2.81387 7.41586 2.88484C7.45484 2.90681 7.49834 2.91954 7.54302 2.92208C7.58769 2.92462 7.63235 2.91689 7.67358 2.89948C7.7148 2.88208 7.75149 2.85546 7.78082 2.82167C7.81016 2.78789 7.83136 2.74783 7.84281 2.70457C8.02676 2.01027 8.65629 1.52535 9.37371 1.52535C9.64559 1.52535 9.91492 1.59645 10.1526 1.7309C10.2115 1.76425 10.2802 1.77614 10.3469 1.76457C10.4136 1.753 10.4743 1.71867 10.5186 1.66742C10.9403 1.17914 11.5502 0.899102 12.1919 0.899102C12.7405 0.899102 13.268 1.10391 13.6771 1.47574C13.7322 1.52575 13.8041 1.55296 13.8785 1.55188C13.9528 1.55079 14.024 1.52148 14.0775 1.46988C14.6689 0.899844 15.4449 0.585938 16.2626 0.585938C18.0004 0.585938 19.4141 1.99969 19.4141 3.73738C19.4141 5.47508 18.0004 6.88883 16.2626 6.88883C15.1089 6.88883 14.0483 6.25891 13.4948 5.24488C13.4592 5.17971 13.4002 5.13048 13.3297 5.10714C13.2592 5.08381 13.1825 5.08811 13.115 5.11918C12.8212 5.25453 12.5106 5.32316 12.1919 5.32316C11.5502 5.32316 10.9403 5.04312 10.5186 4.55484C10.4743 4.5036 10.4137 4.46927 10.347 4.45769C10.2802 4.44612 10.2116 4.45802 10.1526 4.49137C9.91503 4.62581 9.64674 4.69661 9.37375 4.69691C8.87867 4.69691 8.42055 4.47023 8.11691 4.075C8.0897 4.03959 8.05475 4.01086 8.01474 3.99102C7.97473 3.97118 7.93072 3.96074 7.88605 3.96051H7.88461C7.84019 3.96051 7.79636 3.97061 7.75642 3.99005C7.71648 4.00949 7.68148 4.03775 7.65406 4.0727C7.49906 4.27039 7.26988 4.38375 7.02527 4.38375C6.94757 4.38375 6.87306 4.41462 6.81811 4.46956C6.76317 4.5245 6.7323 4.59902 6.7323 4.67672C6.7323 4.75442 6.76317 4.82894 6.81811 4.88388C6.87306 4.93882 6.94757 4.96969 7.02527 4.96969C7.33217 4.96999 7.63027 4.86717 7.87172 4.67773C8.27371 5.06555 8.80582 5.28281 9.37375 5.28281C9.66894 5.28257 9.96099 5.22213 10.232 5.1052C10.754 5.61867 11.4563 5.9091 12.1919 5.9091C12.506 5.90933 12.8179 5.85596 13.1141 5.75129C13.7986 6.82063 14.9822 7.47477 16.2626 7.47477C18.3234 7.47477 20 5.79816 20 3.73738C20 1.6766 18.3234 0 16.2626 0Z" fill="black"/>
<path d="M7.49487 16.2828C7.41717 16.2828 7.34266 16.3136 7.28771 16.3686C7.23277 16.4235 7.2019 16.498 7.2019 16.5757V17.202C7.2019 17.2797 7.23277 17.3542 7.28771 17.4092C7.34266 17.4641 7.41717 17.495 7.49487 17.495C7.57257 17.495 7.64709 17.4641 7.70203 17.4092C7.75698 17.3542 7.78784 17.2797 7.78784 17.202V16.5757C7.78784 16.498 7.75698 16.4235 7.70203 16.3686C7.64709 16.3136 7.57257 16.2828 7.49487 16.2828ZM8.74741 16.2828C8.66971 16.2828 8.59519 16.3136 8.54025 16.3686C8.48531 16.4235 8.45444 16.498 8.45444 16.5757V17.202C8.45444 17.2797 8.48531 17.3542 8.54025 17.4092C8.59519 17.4641 8.66971 17.495 8.74741 17.495C8.82511 17.495 8.89963 17.4641 8.95457 17.4092C9.00951 17.3542 9.04038 17.2797 9.04038 17.202V16.5757C9.04038 16.498 9.00951 16.4235 8.95457 16.3686C8.89963 16.3136 8.82511 16.2828 8.74741 16.2828ZM9.99991 16.2828C9.92221 16.2828 9.84769 16.3136 9.79275 16.3686C9.73781 16.4235 9.70694 16.498 9.70694 16.5757V17.202C9.70694 17.2797 9.73781 17.3542 9.79275 17.4092C9.84769 17.4641 9.92221 17.495 9.99991 17.495C10.0776 17.495 10.1521 17.4641 10.2071 17.4092C10.262 17.3542 10.2929 17.2797 10.2929 17.202V16.5757C10.2929 16.498 10.262 16.4235 10.2071 16.3686C10.1521 16.3136 10.0776 16.2828 9.99991 16.2828ZM11.2524 16.2828C11.1747 16.2828 11.1002 16.3136 11.0453 16.3686C10.9903 16.4235 10.9594 16.498 10.9594 16.5757V17.202C10.9594 17.2797 10.9903 17.3542 11.0453 17.4092C11.1002 17.4641 11.1747 17.495 11.2524 17.495C11.3301 17.495 11.4046 17.4641 11.4596 17.4092C11.5145 17.3542 11.5454 17.2797 11.5454 17.202V16.5757C11.5454 16.498 11.5145 16.4235 11.4596 16.3686C11.4046 16.3136 11.3301 16.2828 11.2524 16.2828ZM12.505 16.2828C12.4273 16.2828 12.3527 16.3136 12.2978 16.3686C12.2428 16.4235 12.212 16.498 12.212 16.5757V17.202C12.212 17.2797 12.2428 17.3542 12.2978 17.4092C12.3527 17.4641 12.4273 17.495 12.505 17.495C12.5827 17.495 12.6572 17.4641 12.7121 17.4092C12.7671 17.3542 12.7979 17.2797 12.7979 17.202V16.5757C12.7979 16.498 12.7671 16.4235 12.7121 16.3686C12.6572 16.3136 12.5827 16.2828 12.505 16.2828ZM13.7575 16.2828C13.6798 16.2828 13.6052 16.3136 13.5503 16.3686C13.4953 16.4235 13.4645 16.498 13.4645 16.5757V17.202C13.4645 17.2797 13.4953 17.3542 13.5503 17.4092C13.6052 17.4641 13.6798 17.495 13.7575 17.495C13.8352 17.495 13.9097 17.4641 13.9646 17.4092C14.0196 17.3542 14.0504 17.2797 14.0504 17.202V16.5757C14.0504 16.498 14.0196 16.4235 13.9646 16.3686C13.9097 16.3136 13.8352 16.2828 13.7575 16.2828ZM15.01 16.2828C14.9323 16.2828 14.8578 16.3136 14.8028 16.3686C14.7479 16.4235 14.717 16.498 14.717 16.5757V17.202C14.717 17.2797 14.7479 17.3542 14.8028 17.4092C14.8578 17.4641 14.9323 17.495 15.01 17.495C15.0877 17.495 15.1622 17.4641 15.2172 17.4092C15.2721 17.3542 15.303 17.2797 15.303 17.202V16.5757C15.303 16.498 15.2721 16.4235 15.2172 16.3686C15.1622 16.3136 15.0877 16.2828 15.01 16.2828ZM16.2625 16.2828C16.1848 16.2828 16.1103 16.3136 16.0554 16.3686C16.0004 16.4235 15.9696 16.498 15.9696 16.5757V17.202C15.9696 17.2797 16.0004 17.3542 16.0554 17.4092C16.1103 17.4641 16.1848 17.495 16.2625 17.495C16.3402 17.495 16.4147 17.4641 16.4697 17.4092C16.5246 17.3542 16.5555 17.2797 16.5555 17.202V16.5757C16.5555 16.498 16.5246 16.4235 16.4697 16.3686C16.4147 16.3136 16.3402 16.2828 16.2625 16.2828Z" fill="black"/>
</g>
<defs>
<clipPath id="clip0_3852_2010">
<rect width="20" height="20" fill="white"/>
</clipPath>
</defs>
</svg>
