<svg width="24" height="24" viewBox="0 0 24 24" fill="none" xmlns="http://www.w3.org/2000/svg">
<path d="M10.455 17.2688C10.5042 17.2766 10.5544 17.2745 10.6028 17.2627C10.6512 17.2509 10.6967 17.2296 10.7368 17.2C10.7768 17.1705 10.8106 17.1332 10.8361 17.0904C10.8615 17.0476 10.8783 17.0002 10.8852 16.9509C10.8922 16.9016 10.8893 16.8514 10.8767 16.8033C10.864 16.7551 10.8419 16.7099 10.8116 16.6704C10.7814 16.6309 10.7435 16.5978 10.7003 16.573C10.6571 16.5483 10.6094 16.5324 10.56 16.5263C9.10125 16.32 8.625 15.879 8.625 15.75V14.2365C9.423 14.67 10.7408 14.8748 12 14.8748C13.2593 14.8748 14.577 14.67 15.375 14.2365V15.75C15.375 15.879 14.8988 16.32 13.44 16.5263C13.3906 16.5324 13.3429 16.5483 13.2997 16.573C13.2565 16.5978 13.2186 16.6309 13.1884 16.6704C13.1581 16.7099 13.136 16.7551 13.1233 16.8033C13.1107 16.8514 13.1078 16.9016 13.1148 16.9509C13.1217 17.0002 13.1385 17.0476 13.1639 17.0904C13.1894 17.1332 13.2232 17.1705 13.2632 17.2C13.3033 17.2296 13.3488 17.2509 13.3972 17.2627C13.4456 17.2745 13.4958 17.2766 13.545 17.2688C15.1605 17.0408 16.125 16.4723 16.125 15.75V8.25001C16.125 7.13326 13.9875 6.62476 12 6.62476C10.0133 6.62476 7.875 7.13326 7.875 8.25001V15.75C7.875 16.4723 8.8395 17.04 10.455 17.2688ZM15.375 10.7498C15.375 11.004 14.1923 11.625 12 11.625C9.80775 11.625 8.625 11.004 8.625 10.7498V9.23626C9.423 9.66976 10.7408 9.87526 12 9.87526C13.2593 9.87526 14.577 9.66976 15.375 9.23626V10.7498ZM12 14.1248C9.80775 14.1248 8.625 13.5038 8.625 13.2503V11.736C9.423 12.1703 10.7408 12.375 12 12.375C13.2593 12.375 14.577 12.1703 15.375 11.736V13.2503C15.375 13.5038 14.1923 14.1248 12 14.1248ZM12 7.37476C14.1923 7.37476 15.375 7.99651 15.375 8.25001C15.375 8.50351 14.1923 9.12526 12 9.12526C9.80775 9.12526 8.625 8.50351 8.625 8.25001C8.625 7.99651 9.80775 7.37476 12 7.37476Z" fill="black"/>
<path d="M1.81951 19.5353C1.49551 19.8728 1.29451 20.328 1.29451 20.8313C1.29451 21.8648 2.13451 22.7063 3.16951 22.7063C3.67201 22.7063 4.12651 22.5045 4.46401 22.1813C5.39401 22.6335 6.46951 22.8705 7.64251 22.8705C9.00526 22.8705 10.4903 22.56 12 21.954C13.5105 22.56 14.9948 22.8705 16.3575 22.8705C17.5305 22.8705 18.606 22.6335 19.5368 22.1813C19.8735 22.5045 20.3288 22.7063 20.8313 22.7063C21.8663 22.7063 22.7063 21.8648 22.7063 20.8313C22.7063 20.328 22.5045 19.872 22.1813 19.5353C23.1578 17.5238 23.082 14.8103 21.954 12C23.082 9.18977 23.1578 6.47627 22.1805 4.46477C22.5045 4.12727 22.7063 3.67202 22.7063 3.16877C22.7063 2.13527 21.8663 1.29377 20.8313 1.29377C20.3288 1.29377 19.8728 1.49627 19.5353 1.81877C17.5253 0.842267 14.8103 0.917267 12 2.04602C9.19051 0.917267 6.47626 0.843017 4.46476 1.81952C4.11718 1.48309 3.65249 1.29484 3.16876 1.29452C2.67166 1.29511 2.19509 1.49285 1.84359 1.84435C1.49209 2.19585 1.29435 2.67242 1.29376 3.16952C1.29376 3.67202 1.49626 4.12727 1.81876 4.46477C0.843007 6.47627 0.918007 9.18977 2.04601 12C0.918007 14.8103 0.843007 17.5238 1.81951 19.5353ZM3.16951 21.9563C2.54851 21.9563 2.04451 21.4515 2.04451 20.8313C2.04451 20.211 2.54851 19.7063 3.16951 19.7063C3.46077 19.7169 3.73655 19.8401 3.93884 20.0499C4.14114 20.2597 4.25417 20.5398 4.25417 20.8313C4.25417 21.1227 4.14114 21.4028 3.93884 21.6126C3.73655 21.8224 3.46077 21.9456 3.16951 21.9563ZM12 2.85527C13.9185 3.67652 15.7875 4.96277 17.4128 6.58802C19.0373 8.21252 20.3228 10.0815 21.1448 12C20.3228 13.9185 19.0373 15.7875 17.4128 17.412C15.7868 19.0373 13.9178 20.3235 12 21.1448C10.0815 20.3228 8.21251 19.0373 6.58801 17.412C4.96351 15.7868 3.67726 13.9185 2.85526 12C3.67726 10.0815 4.96276 8.21252 6.58801 6.58802C8.21326 4.96352 10.0815 3.67727 12 2.85527ZM20.8313 21.9563C20.211 21.9563 19.7063 21.4515 19.7063 20.8313C19.7063 20.211 20.211 19.7063 20.8313 19.7063C21.4515 19.7063 21.9563 20.211 21.9563 20.8313C21.9563 21.4515 21.4523 21.9563 20.8313 21.9563ZM21.555 19.1018C21.2119 18.9597 20.8344 18.9225 20.4703 18.995C20.1061 19.0675 19.7716 19.2463 19.509 19.5089C19.2465 19.7715 19.0678 20.1061 18.9954 20.4703C18.923 20.8345 18.9603 21.212 19.1025 21.555C17.46 22.3103 15.291 22.2975 12.9878 21.519C14.7473 20.6618 16.4453 19.4393 17.943 17.9423C19.4393 16.446 20.6618 14.748 21.519 12.987C22.2975 15.2918 22.3095 17.4593 21.555 19.1018ZM20.8313 2.04377C21.4523 2.04377 21.9563 2.54852 21.9563 3.16877C21.9563 3.78902 21.4523 4.29377 20.8313 4.29377C20.54 4.28313 20.2642 4.15995 20.0619 3.95013C19.8596 3.74032 19.7466 3.46022 19.7466 3.16877C19.7466 2.87731 19.8596 2.59722 20.0619 2.3874C20.2642 2.17759 20.54 2.0544 20.8313 2.04377ZM19.1025 2.44502C18.9605 2.788 18.9234 3.16538 18.9959 3.52945C19.0684 3.89351 19.2471 4.22792 19.5096 4.49041C19.7721 4.75289 20.1065 4.93166 20.4706 5.00413C20.8346 5.07659 21.212 5.03949 21.555 4.89752C22.3095 6.54077 22.2975 8.70827 21.519 11.0123C20.6618 9.25202 19.4393 7.55402 17.943 6.05777C16.446 4.56077 14.748 3.33827 12.987 2.48102C15.291 1.70327 17.4593 1.69052 19.1025 2.44502ZM3.16876 2.04377C3.78901 2.04377 4.29376 2.54852 4.29376 3.16877C4.29376 3.78902 3.78901 4.29377 3.16876 4.29377C2.54851 4.29377 2.04376 3.78902 2.04376 3.16877C2.04376 2.54852 2.54851 2.04377 3.16876 2.04377ZM2.44501 4.89752C2.66776 4.99127 2.91226 5.04377 3.16876 5.04377C3.47739 5.04306 3.78109 4.96626 4.05297 4.82018C4.32484 4.6741 4.55651 4.46324 4.72745 4.20627C4.8984 3.9493 5.00335 3.65414 5.03301 3.34694C5.06267 3.03973 5.01613 2.72995 4.89751 2.44502C6.54076 1.69127 8.70826 1.70252 11.0123 2.48102C9.25201 3.33827 7.55326 4.56077 6.05776 6.05777C4.56076 7.55327 3.33826 9.25202 2.48101 11.013C1.70251 8.70752 1.69051 6.54002 2.44501 4.89752ZM2.48101 12.9878C3.33826 14.748 4.56076 16.4468 6.05776 17.9423C7.55326 19.4393 9.25276 20.6618 11.013 21.519C8.70826 22.2983 6.54001 22.3095 4.89751 21.5558C5.03948 21.2128 5.07658 20.8354 5.00412 20.4713C4.93165 20.1073 4.75288 19.7729 4.4904 19.5104C4.22791 19.2479 3.8935 19.0691 3.52944 18.9967C3.16537 18.9242 2.78799 18.9613 2.44501 19.1033C1.69051 17.4593 1.70251 15.2918 2.48101 12.9878Z" fill="black"/>
<path d="M12 17.3752C12.2071 17.3752 12.375 17.2074 12.375 17.0002C12.375 16.7931 12.2071 16.6252 12 16.6252C11.7929 16.6252 11.625 16.7931 11.625 17.0002C11.625 17.2074 11.7929 17.3752 12 17.3752Z" fill="black"/>
</svg>
