<svg width="20" height="20" viewBox="0 0 20 20" fill="none" xmlns="http://www.w3.org/2000/svg">
<g clip-path="url(#clip0_3893_675)">
<path d="M8.89209 0.292969V0.988906C8.89209 1.36687 9.1985 1.67328 9.57647 1.67328H10.4235C10.8015 1.67328 11.1079 1.36687 11.1079 0.988906V0.292969" stroke="black" stroke-miterlimit="10" stroke-linecap="round" stroke-linejoin="round"/>
<path d="M15.8984 9.31641V1.41848C15.8984 0.796875 15.3945 0.292969 14.7729 0.292969H5.22707C4.60547 0.292969 4.10156 0.796875 4.10156 1.41848V18.5815C4.10156 19.2031 4.60547 19.707 5.22707 19.707H14.7729C15.3945 19.707 15.8984 19.2031 15.8984 18.5815V10.6836M15.8984 18.3267H4.10156" stroke="black" stroke-miterlimit="10" stroke-linecap="round" stroke-linejoin="round"/>
<path d="M12.3404 4.42384C11.7442 3.77814 10.9157 3.3783 10.0001 3.3783C9.0844 3.3783 8.25588 3.7781 7.65971 4.42384M11.5581 5.30005C11.1303 4.93708 10.5887 4.72076 10.0001 4.72076C9.41147 4.72076 8.86986 4.93708 8.44197 5.30005M10.531 6.15033C10.3728 6.03287 10.192 5.96642 10.0001 5.96642C9.80815 5.96642 9.62725 6.03287 9.46912 6.15033M9.27193 9.29611V8.90939C9.27193 8.50744 9.59811 8.18166 10.0001 8.18166C10.402 8.18166 10.7282 8.50744 10.7282 8.90939V9.29611M8.09143 11.3672V11.8483C8.09143 12.9024 8.94596 13.7569 10.0001 13.7569C11.0542 13.7569 11.9087 12.9024 11.9087 11.8483V9.60173C11.9087 9.52072 11.8765 9.44302 11.8192 9.38573C11.7619 9.32845 11.6842 9.29626 11.6032 9.29626H8.39686C8.31584 9.29626 8.23814 9.32845 8.18086 9.38573C8.12357 9.44302 8.09139 9.52072 8.09139 9.60173V10M9.90881 10.5422H10.0913M9.90881 11.5102H10.0913M11.3672 7.67927L11.4776 7.54318M12.2144 6.63384L12.3247 6.49771M13.0617 5.58841L13.1719 5.45228M13.9088 4.54294L14.0192 4.40685M8.63287 7.67927L8.52256 7.54318M7.78568 6.63384L7.67537 6.49771M6.93846 5.58841L6.82818 5.45228M6.09127 4.54294L5.98096 4.40685M8.86096 14.8719V17.2117M10.3907 16.095L11.3735 17.2117M10.1085 14.8719V17.2117M11.3735 15.48C11.3735 15.8158 11.0791 16.0881 10.731 16.0881C10.5585 16.0881 10.1114 16.0908 10.1114 16.0908V14.8719H10.731C11.0791 14.8719 11.3735 15.1442 11.3735 15.48Z" stroke="black" stroke-miterlimit="10" stroke-linecap="round" stroke-linejoin="round"/>
</g>
<defs>
<clipPath id="clip0_3893_675">
<rect width="20" height="20" fill="white"/>
</clipPath>
</defs>
</svg>
