<svg width="20" height="20" viewBox="0 0 20 20" fill="none" xmlns="http://www.w3.org/2000/svg">
<path d="M5.51106 20C5.21294 20 4.9323 19.8596 4.7721 19.7798C4.28992 19.5385 3.9413 18.6499 3.50154 17.4207C3.38398 17.0921 3.27305 16.7817 3.19758 16.6309C2.89287 16.0216 2.8774 12.59 2.8774 11.9082V10.8965L2.41874 10.4378C2.02605 10.1606 0.873995 9.28942 0.873995 8.61695C0.873995 8.28412 0.398782 7.34145 0.0609694 6.77882C-0.0269633 6.63211 0.0160156 6.44214 0.157978 6.34682C0.366101 6.2067 0.927977 5.73919 1.02315 5.26271C1.13351 4.71127 1.05677 3.27966 1.01779 2.77454C1.01312 2.71392 1.02577 2.65321 1.05425 2.5995C1.08274 2.54578 1.1259 2.50125 1.1787 2.47111C1.8034 2.11401 3.3063 1.28397 3.77084 1.28397C4.07414 1.28397 4.48483 1.42997 4.89755 1.6846C4.97005 1.72926 5.02184 1.80088 5.04155 1.88371C5.06126 1.96654 5.04726 2.05381 5.00265 2.12633C4.90912 2.27714 4.7113 2.32416 4.56087 2.23138C4.21887 2.02034 3.9176 1.92592 3.77089 1.92592C3.5495 1.93914 2.54533 2.43951 1.67211 2.92939C1.70536 3.4426 1.77533 4.7765 1.65283 5.38869C1.53706 5.96754 1.05494 6.44745 0.756249 6.69672C1.02475 7.17137 1.51614 8.10868 1.51614 8.61714C1.51614 8.82874 2.13313 9.45344 2.81021 9.92809C2.82544 9.93871 2.83993 9.95103 2.853 9.96406L3.42555 10.5366C3.45538 10.5664 3.47905 10.6017 3.49519 10.6407C3.51133 10.6796 3.51962 10.7213 3.51959 10.7634V11.9084C3.51959 13.8407 3.61397 16.0282 3.77197 16.3439C3.8647 16.5295 3.97675 16.8425 4.10606 17.2045C4.32171 17.8073 4.7705 19.061 5.05941 19.2056C5.2348 19.2933 5.48205 19.4021 5.59462 19.34C5.64479 19.3124 5.81342 19.1677 5.88414 18.4591C6.02775 17.0213 6.17234 16.4339 6.17855 16.4095C6.1897 16.3648 6.21032 16.323 6.23902 16.287L7.28453 14.9805L7.18018 14.5626C7.16829 14.5152 7.16735 14.4658 7.17743 14.4181C7.1875 14.3703 7.20833 14.3255 7.23833 14.2871C7.26833 14.2486 7.30671 14.2174 7.35055 14.196C7.39439 14.1746 7.44254 14.1635 7.49133 14.1634C7.4895 14.1634 7.83465 14.1478 8.30046 13.7983C8.41618 13.7118 8.42648 13.5566 8.42337 13.223C8.41933 12.7895 8.41345 12.196 9.03063 11.7844C9.56843 11.4256 9.88861 11.2309 10.0569 11.1339C10.1575 10.4056 10.5464 7.82071 11.0881 7.00806C11.1764 6.87564 11.1654 6.79058 11.1461 6.73124C11.0498 6.43664 10.4964 6.14956 10.2435 6.05679C10.2345 6.05326 9.86049 5.90377 9.40404 5.71879C9.36495 5.70299 9.32936 5.67965 9.2993 5.6501C9.26924 5.62055 9.24529 5.58537 9.22883 5.54656C9.21237 5.50776 9.20371 5.46609 9.20336 5.42393C9.203 5.38178 9.21095 5.33997 9.22676 5.30089C9.2933 5.13631 9.48139 5.05699 9.64465 5.12385C10.1 5.30809 10.4727 5.45706 10.4727 5.45706C10.5723 5.49303 11.5362 5.8608 11.7561 6.53068C11.8193 6.72442 11.848 7.02607 11.6222 7.36421C11.1867 8.01759 10.7887 10.4828 10.6716 11.3775C10.6649 11.4297 10.6454 11.4793 10.615 11.5222C10.5845 11.5651 10.544 11.5998 10.4969 11.6233C10.4949 11.6242 10.2058 11.7724 9.38659 12.3185C9.07436 12.5269 9.06129 12.7954 9.06533 13.2167C9.06881 13.5753 9.07323 14.0215 8.68567 14.3117C8.37376 14.5458 8.09473 14.6691 7.88482 14.7339L7.94595 14.9786C7.95794 15.0266 7.95873 15.0767 7.94825 15.125C7.93777 15.1733 7.91631 15.2186 7.88553 15.2573L6.78674 16.6303C6.74762 16.8149 6.63505 17.4027 6.52318 18.5232C6.44785 19.2729 6.25129 19.7112 5.90436 19.9024C5.77556 19.973 5.6415 20 5.51106 20Z" fill="black"/>
<path d="M7.43538 8.34618C7.3888 8.34615 7.34279 8.336 7.30052 8.31644C7.25825 8.29687 7.22074 8.26835 7.19058 8.23286C6.89391 7.88254 4.2959 4.7668 4.2959 3.13953C4.2959 1.40848 5.70437 0 7.43543 0C9.16648 0 10.575 1.40848 10.575 3.13953C10.575 4.76675 7.97675 7.88258 7.68028 8.23286C7.65011 8.26836 7.61259 8.29688 7.57031 8.31645C7.52804 8.33601 7.48197 8.34616 7.43538 8.34618ZM7.43538 0.641956C6.05836 0.641956 4.9379 1.76242 4.9379 3.13953C4.9379 4.20817 6.56254 6.4403 7.43543 7.52088C8.30812 6.4403 9.93295 4.20836 9.93295 3.13953C9.93295 1.76242 8.81245 0.641956 7.43538 0.641956ZM7.43538 4.5568C6.55041 4.5568 5.8304 3.83678 5.8304 2.95177C5.8304 2.0668 6.55046 1.34678 7.43543 1.34678C8.3204 1.34678 9.04046 2.0668 9.04046 2.95177C9.04046 3.83674 8.32035 4.5568 7.43538 4.5568ZM7.43538 1.98874C6.9044 1.98874 6.47235 2.42074 6.47235 2.95177C6.47235 3.4828 6.9044 3.91479 7.43538 3.91479C7.96646 3.91479 8.39846 3.4828 8.39846 2.95177C8.39846 2.42074 7.96641 1.98874 7.43538 1.98874Z" fill="black"/>
</svg>
