<?xml version="1.0" encoding="UTF-8"?>
<svg width="1200pt" height="1200pt" version="1.1" viewBox="0 0 1200 1200" xmlns="http://www.w3.org/2000/svg">
 <path d="m700 950h-500c-13.258-0.011719-25.965-5.2852-35.34-14.66s-14.648-22.082-14.66-35.34v-97.461c0.039062-20.52 6.3711-40.531 18.141-57.34 11.77-16.809 28.41-29.602 47.68-36.652l97.484-35.449v-0.003906c88.316-32.031 185.07-32.031 273.39 0l97.484 35.449v0.003906c19.27 7.0508 35.91 19.844 47.68 36.652 11.77 16.809 18.102 36.82 18.141 57.34v97.461c-0.011719 13.258-5.2852 25.965-14.66 35.34s-22.082 14.648-35.34 14.66zm0-50v25l0.050781-25zm-250-200.93c-40.785-0.019531-81.262 7.0859-119.61 20.996l-97.484 35.449c-9.6328 3.5352-17.949 9.9375-23.832 18.344-5.8867 8.4062-9.0547 18.414-9.0781 28.676v97.461h500v-97.461c-0.023438-10.262-3.1914-20.27-9.0781-28.676-5.8828-8.4062-14.199-14.809-23.832-18.348l-97.484-35.449c-38.344-13.91-78.82-21.016-119.61-20.992zm0-99.074c-39.781 0-77.938-15.805-106.07-43.934s-43.934-66.285-43.934-106.07 15.805-77.938 43.934-106.07 66.285-43.934 106.07-43.934 77.938 15.805 106.07 43.934 43.934 66.285 43.934 106.07c-0.042969 39.77-15.859 77.898-43.98 106.02-28.121 28.121-66.25 43.938-106.02 43.98zm0-250c-26.523 0-51.957 10.535-70.711 29.289-18.754 18.754-29.289 44.188-29.289 70.711s10.535 51.957 29.289 70.711c18.754 18.754 44.188 29.289 70.711 29.289s51.957-10.535 70.711-29.289c18.754-18.754 29.289-44.188 29.289-70.711-0.03125-26.512-10.574-51.93-29.324-70.676-18.746-18.75-44.164-29.293-70.676-29.324zm567.55 286.82c-4.0625 0.011719-8.0625-0.97656-11.648-2.8828l-105.91-55.711-105.91 55.715v-0.003906c-5.5312 2.9141-11.949 3.6445-17.992 2.0586-6.043-1.5898-11.273-5.3828-14.66-10.633-3.3828-5.2539-4.6797-11.582-3.6289-17.742l20.215-117.97-85.695-83.547h0.003907c-4.4766-4.3672-7.1562-10.254-7.5078-16.496-0.35156-6.2461 1.6445-12.398 5.6016-17.242 3.957-4.8438 9.582-8.0312 15.77-8.9375l118.41-17.188 52.977-107.32h0.003906c4.6992-7.8984 13.215-12.742 22.41-12.742s17.711 4.8438 22.41 12.742l52.98 107.32 118.41 17.188c6.1875 0.90625 11.812 4.0938 15.77 8.9375 3.957 4.8438 5.9531 10.996 5.6016 17.242-0.35156 6.2422-3.0312 12.129-7.5078 16.496l-85.691 83.547 20.215 117.97c1.2383 7.2578-0.78906 14.695-5.5352 20.32-4.75 5.6289-11.734 8.8789-19.098 8.8828zm-117.55-111.82c4.0586 0.007812 8.0508 0.99609 11.645 2.8828l72.703 38.234-13.867-81.008h0.003906c-1.3906-8.1055 1.293-16.375 7.1758-22.121l58.84-57.324-81.301-11.812c-8.1367-1.1953-15.172-6.3047-18.82-13.672l-36.379-73.688-36.379 73.684c-3.6484 7.3711-10.684 12.48-18.82 13.676l-81.301 11.816 58.84 57.324c5.8789 5.7461 8.5625 14.012 7.1758 22.117l-13.867 81.004 72.703-38.234 0.003907 0.003906c3.5938-1.8867 7.5859-2.875 11.645-2.8828z" fill="#676767"/>
</svg>
