<svg width="20" height="20" viewBox="0 0 20 20" fill="none" xmlns="http://www.w3.org/2000/svg">
<g clip-path="url(#clip0_3891_103)">
<path d="M8.92312 0.292969V0.988906C8.92312 1.36687 9.22952 1.67328 9.60749 1.67328H10.4545C10.8325 1.67328 11.1389 1.36687 11.1389 0.988906V0.292969M15.9294 18.3267H4.13257M9.01296 19.707H14.8039C15.4255 19.707 15.9294 19.2031 15.9294 18.5815V1.41848C15.9294 0.796875 15.4255 0.292969 14.8039 0.292969H13.3902" stroke="black" stroke-miterlimit="10" stroke-linecap="round" stroke-linejoin="round"/>
<path d="M12.023 0.292969H5.25809C4.63648 0.292969 4.13258 0.796875 4.13258 1.41848V18.5815C4.13258 19.2031 4.63648 19.707 5.25809 19.707H7.64578M18.6898 12.2459C19.318 11.6659 19.707 10.8598 19.707 9.96895C19.707 9.07805 19.318 8.27203 18.6898 7.69199M17.8374 11.4848C18.1905 11.0686 18.401 10.5416 18.401 9.96898C18.401 9.39633 18.1905 8.86941 17.8374 8.45312M17.0101 10.4855C17.1244 10.3316 17.1891 10.1557 17.1891 9.96895C17.1891 9.78219 17.1244 9.60625 17.0101 9.45238M1.31016 7.69203C0.681953 8.27207 0.292969 9.07812 0.292969 9.96898C0.292969 10.8598 0.681953 11.6659 1.31016 12.2459M2.16262 8.45309C1.80949 8.86938 1.59902 9.39633 1.59902 9.96895C1.59902 10.5416 1.80949 11.0685 2.16262 11.4848M2.98988 9.45242C2.87559 9.60629 2.81094 9.78223 2.81094 9.96898C2.81094 10.1557 2.87559 10.3317 2.98988 10.4855" stroke="black" stroke-miterlimit="10" stroke-linecap="round" stroke-linejoin="round"/>
<path d="M10.0001 12.1317C11.1945 12.1317 12.1628 11.1634 12.1628 9.96897C12.1628 8.77455 11.1945 7.80627 10.0001 7.80627C8.80567 7.80627 7.8374 8.77455 7.8374 9.96897C7.8374 11.1634 8.80567 12.1317 10.0001 12.1317Z" stroke="black" stroke-miterlimit="10" stroke-linecap="round" stroke-linejoin="round"/>
<path d="M10.0428 6.43761V6.01355M7.53323 7.44175L7.23339 7.14187M6.46874 9.92628H6.04468M7.47288 12.4358L7.17304 12.7357M9.95741 13.5003V13.9244M12.467 12.4962L12.7668 12.796M13.5315 10.0116H13.9555M12.5273 7.5021L12.8272 7.20222M9.96089 7.80726C8.78464 7.82828 7.83745 8.78769 7.83745 9.96894C7.83745 11.1502 8.78464 12.1096 9.96089 12.1306V7.80726Z" stroke="black" stroke-miterlimit="10" stroke-linecap="round" stroke-linejoin="round"/>
</g>
<defs>
<clipPath id="clip0_3891_103">
<rect width="20" height="20" fill="white"/>
</clipPath>
</defs>
</svg>
