<svg width="32" height="32" viewBox="0 0 32 32" fill="none" xmlns="http://www.w3.org/2000/svg">
<path d="M12.3191 22.4842V13.8401H9.44844V22.4842H12.3194H12.3191ZM10.8844 12.66C11.8852 12.66 12.5083 11.9963 12.5083 11.1668C12.4895 10.3183 11.8852 9.6731 10.9034 9.6731C9.92091 9.6731 9.27924 10.3183 9.27924 11.1667C9.27924 11.9962 9.9021 12.66 10.8655 12.66H10.8841L10.8844 12.66ZM13.908 22.4842H16.7784V17.6574C16.7784 17.3994 16.7971 17.1407 16.873 16.9565C17.0804 16.4401 17.5527 15.9055 18.3459 15.9055C19.3843 15.9055 19.8 16.6982 19.8 17.8603V22.4842H22.6703V17.5279C22.6703 14.8729 21.2544 13.6374 19.3658 13.6374C17.8174 13.6374 17.1373 14.5036 16.7595 15.0936H16.7786V13.8404H13.9081C13.9456 14.6513 13.9079 22.4845 13.9079 22.4845L13.908 22.4842Z" fill="white"/>
</svg>
