<svg xmlns="http://www.w3.org/2000/svg" width="25" height="24" viewBox="0 0 25 24" fill="none">
  <g clip-path="url(#clip0_3108_2293)">
    <path d="M20.758 0H3.30349C1.49601 0 0.0307617 1.46525 0.0307617 3.27273V20.7273C0.0307617 22.5347 1.49601 24 3.30349 24H20.758C22.5655 24 24.0308 22.5347 24.0308 20.7273V3.27273C24.0308 1.46525 22.5655 0 20.758 0Z" fill="#0077B5"/>
    <path d="M8.67612 6.54545C8.67612 6.95001 8.55615 7.34547 8.33139 7.68185C8.10664 8.01822 7.78718 8.28039 7.41342 8.43521C7.03966 8.59002 6.62839 8.63053 6.23161 8.55161C5.83483 8.47268 5.47037 8.27787 5.18431 7.99181C4.89824 7.70575 4.70343 7.34128 4.62451 6.9445C4.54558 6.54772 4.58609 6.13645 4.74091 5.76269C4.89572 5.38894 5.15789 5.06948 5.49427 4.84472C5.83064 4.61996 6.22611 4.5 6.63066 4.5C7.17315 4.5 7.69342 4.7155 8.07702 5.0991C8.46061 5.4827 8.67612 6.00297 8.67612 6.54545ZM8.21248 9.95455V18.9914C8.21284 19.058 8.20002 19.1241 8.17475 19.1858C8.14949 19.2475 8.11228 19.3036 8.06527 19.3509C8.01826 19.3981 7.96236 19.4356 7.9008 19.4612C7.83925 19.4868 7.77324 19.5 7.70657 19.5H5.55066C5.48399 19.5002 5.41795 19.4872 5.35632 19.4618C5.2947 19.4363 5.2387 19.399 5.19156 19.3518C5.14442 19.3047 5.10706 19.2487 5.08164 19.1871C5.05621 19.1254 5.04321 19.0594 5.04339 18.9927V9.95455C5.04339 9.82001 5.09683 9.69098 5.19196 9.59585C5.2871 9.50072 5.41612 9.44727 5.55066 9.44727H7.70657C7.84087 9.44763 7.96955 9.50124 8.06438 9.59633C8.15922 9.69142 8.21248 9.82024 8.21248 9.95455ZM19.4816 14.6591V19.0336C19.4817 19.0949 19.4698 19.1557 19.4464 19.2123C19.4231 19.269 19.3887 19.3205 19.3454 19.3638C19.302 19.4071 19.2506 19.4415 19.1939 19.4649C19.1372 19.4882 19.0765 19.5002 19.0152 19.5H16.697C16.6357 19.5002 16.575 19.4882 16.5183 19.4649C16.4617 19.4415 16.4102 19.4071 16.3669 19.3638C16.3235 19.3205 16.2892 19.269 16.2658 19.2123C16.2424 19.1557 16.2305 19.0949 16.2307 19.0336V14.7941C16.2307 14.1614 16.4161 12.0232 14.5766 12.0232C13.1516 12.0232 12.8611 13.4864 12.8038 14.1436V19.0336C12.8039 19.1562 12.7557 19.2738 12.6697 19.361C12.5837 19.4483 12.4668 19.4982 12.3443 19.5H10.1052C10.044 19.5 9.98345 19.4879 9.92694 19.4645C9.87044 19.441 9.81912 19.4066 9.77592 19.3633C9.73272 19.32 9.6985 19.2686 9.67521 19.212C9.65192 19.1554 9.64003 19.0948 9.64021 19.0336V9.915C9.64003 9.85382 9.65192 9.79321 9.67521 9.73663C9.6985 9.68006 9.73272 9.62864 9.77592 9.58531C9.81912 9.54199 9.87044 9.50762 9.92694 9.48416C9.98345 9.46071 10.044 9.44864 10.1052 9.44864H12.3443C12.468 9.44864 12.5866 9.49777 12.6741 9.58523C12.7615 9.67269 12.8107 9.79131 12.8107 9.915V10.7032C13.3398 9.90955 14.1238 9.29727 15.797 9.29727C19.5034 9.29727 19.4816 12.7582 19.4816 14.6591Z" fill="white"/>
  </g>
  <defs>
    <clipPath id="clip0_3108_2293">
      <rect width="24" height="24" fill="white" transform="translate(0.0307617)"/>
    </clipPath>
  </defs>
</svg>