<svg width="20" height="20" viewBox="0 0 20 20" fill="none" xmlns="http://www.w3.org/2000/svg">
<g clip-path="url(#clip0_3893_661)">
<path d="M14.9991 1.56143V9.06158C14.9171 9.06158 14.8359 9.07775 14.7601 9.10916C14.6844 9.14057 14.6156 9.18662 14.5577 9.24465C14.4997 9.30269 14.4538 9.37158 14.4226 9.44737C14.3913 9.52317 14.3753 9.60439 14.3754 9.68639L14.3742 12.501H1.87557C1.17634 12.501 0.624756 13.0644 0.624756 13.7518V16.8747C0.624756 17.5621 1.1787 18.1255 1.87557 18.1255H2.18739V19.0622C2.1862 19.2346 2.32676 19.3763 2.50038 19.3752H4.68901C4.86145 19.3752 5.00201 19.2334 5.00083 19.0622V18.1255H15.0002V19.0622C15.0002 19.2358 15.1408 19.3763 15.3144 19.3752H17.5007C17.5419 19.3753 17.5827 19.3673 17.6208 19.3517C17.6589 19.336 17.6936 19.313 17.7228 19.2839C17.752 19.2548 17.7751 19.2203 17.7909 19.1822C17.8067 19.1442 17.8149 19.1034 17.8149 19.0622V18.1255H18.1267C18.8259 18.1255 19.3763 17.5621 19.3763 16.8747V13.7518C19.3763 13.0644 18.8259 12.4998 18.1267 12.4998H17.5007V9.68757C17.5004 9.52227 17.4346 9.36383 17.3177 9.24694C17.2008 9.13005 17.0423 9.06425 16.877 9.06394L16.8759 1.56379C16.8759 1.31507 16.7771 1.07653 16.6012 0.900656C16.4253 0.724782 16.1868 0.625977 15.9381 0.625977C15.6893 0.625977 15.4508 0.724782 15.2749 0.900656C15.099 1.07653 15.0002 1.31507 15.0002 1.56379L14.9991 1.56143ZM15.9381 1.25079C16.1081 1.25079 16.2499 1.38308 16.2499 1.56143V9.06158H15.6251V1.56143C15.6251 1.38426 15.768 1.25079 15.9381 1.25079ZM7.05126 4.15754C5.98803 4.15919 4.93572 4.37198 3.95539 4.78358C2.97507 5.19517 2.08625 5.79737 1.34052 6.55523C1.03579 6.83988 1.50469 7.30406 1.7858 6.99342C2.4733 6.29502 3.29267 5.74013 4.19637 5.36097C5.10006 4.98181 6.07007 4.78594 7.05008 4.78472C9.02492 4.78472 10.9194 5.57962 12.3167 6.99342C12.6002 7.30524 13.0632 6.83752 12.7608 6.55523C12.015 5.79789 11.1263 5.19609 10.1462 4.78472C9.16616 4.37334 8.11418 4.15939 7.05126 4.15754ZM7.05126 6.12412C6.24398 6.12476 5.44487 6.28579 4.70033 6.59783C3.9558 6.90988 3.28067 7.36674 2.71417 7.94187C2.39054 8.21589 2.8937 8.69543 3.15709 8.37888C3.6658 7.86256 4.27199 7.45239 4.94047 7.17218C5.60895 6.89197 6.32643 6.7473 7.05126 6.74657C8.51113 6.74657 9.91077 7.33359 10.9454 8.38007C11.2313 8.68243 11.6872 8.23243 11.3907 7.94187C10.8238 7.36661 10.1482 6.90962 9.40333 6.59738C8.65843 6.28515 7.85896 6.12506 7.05126 6.12412ZM7.05126 8.08715C5.93746 8.08715 4.87326 8.53243 4.08664 9.32733C3.78309 9.60726 4.24491 10.0785 4.52956 9.76789C4.85919 9.43381 5.2519 9.16854 5.68489 8.98749C6.11788 8.80643 6.58253 8.7132 7.05185 8.7132C7.52117 8.7132 7.98582 8.80643 8.41881 8.98749C8.85181 9.16854 9.24452 9.43381 9.57415 9.76789C9.8647 10.075 10.3183 9.6167 10.0194 9.32733C9.63131 8.93456 9.16911 8.6227 8.65961 8.40982C8.15012 8.19694 7.60344 8.08726 7.05126 8.08715ZM15.0002 9.68757H16.8747V12.501H14.9991L15.0002 9.68757ZM7.05008 10.0514C6.45125 10.0514 5.8784 10.2911 5.45556 10.7175C5.14847 11.0152 5.60674 11.4687 5.90084 11.1581C6.0509 11.0054 6.22985 10.8841 6.42727 10.8014C6.62468 10.7186 6.83661 10.676 7.05067 10.676C7.26474 10.676 7.47666 10.7186 7.67407 10.8014C7.87149 10.8841 8.05044 11.0054 8.2005 11.1581C8.4946 11.4652 8.94933 11.0128 8.64342 10.7175C8.43489 10.5066 8.18659 10.3391 7.91289 10.2247C7.63919 10.1104 7.34671 10.0514 7.05008 10.0514ZM1.87557 13.127H18.1255C18.4775 13.127 18.7503 13.4046 18.7503 13.7518V16.8747C18.7503 17.2267 18.468 17.5007 18.1243 17.5007H1.87675C1.79432 17.5015 1.71257 17.4859 1.63626 17.4547C1.55995 17.4235 1.49063 17.3774 1.43234 17.3191C1.37406 17.2608 1.32798 17.1915 1.2968 17.1152C1.26562 17.0389 1.24996 16.9571 1.25075 16.8747V13.7518C1.25075 13.4046 1.52477 13.1258 1.87675 13.1258L1.87557 13.127ZM3.43583 13.7518C3.18742 13.7518 2.94919 13.8505 2.77354 14.0262C2.59788 14.2018 2.4992 14.44 2.4992 14.6885C2.4992 14.9369 2.59788 15.1751 2.77354 15.3508C2.94919 15.5264 3.18742 15.6251 3.43583 15.6251C3.56279 15.6315 3.68972 15.612 3.80891 15.5678C3.9281 15.5236 4.03706 15.4556 4.12917 15.368C4.22129 15.2804 4.29463 15.175 4.34474 15.0582C4.39486 14.9414 4.4207 14.8156 4.4207 14.6885C4.4207 14.5613 4.39486 14.4356 4.34474 14.3187C4.29463 14.2019 4.22129 14.0965 4.12917 14.0089C4.03706 13.9213 3.9281 13.8533 3.80891 13.8091C3.68972 13.7649 3.56279 13.7454 3.43583 13.7518ZM5.93982 13.7518C5.41304 13.7518 4.99964 14.1735 4.99964 14.6873C4.99964 15.2011 5.41894 15.6251 5.93982 15.6251C6.18823 15.6251 6.42647 15.5264 6.60212 15.3508C6.77777 15.1751 6.87645 14.9369 6.87645 14.6885C6.87645 14.44 6.77777 14.2018 6.60212 14.0262C6.42647 13.8505 6.18823 13.7518 5.93982 13.7518ZM8.43908 13.7518C8.31322 13.7471 8.18769 13.7677 8.06998 13.8125C7.95226 13.8573 7.84478 13.9253 7.75394 14.0126C7.6631 14.0998 7.59076 14.2044 7.54124 14.3203C7.49172 14.4361 7.46603 14.5607 7.46572 14.6866C7.4654 14.8126 7.49046 14.9373 7.53939 15.0533C7.58833 15.1694 7.66013 15.2744 7.75054 15.3621C7.84094 15.4498 7.94808 15.5184 8.06557 15.5638C8.18305 15.6092 8.30848 15.6304 8.43436 15.6263C8.6772 15.6183 8.90747 15.5164 9.07665 15.342C9.24584 15.1676 9.34073 14.9343 9.34134 14.6913C9.34195 14.4484 9.24824 14.2146 9.07994 14.0394C8.91163 13.8641 8.68188 13.761 8.43908 13.7518ZM3.43583 14.3743C3.60237 14.3743 3.75001 14.5113 3.75001 14.6873C3.75001 14.7703 3.71704 14.8499 3.65834 14.9086C3.59964 14.9673 3.52003 15.0003 3.43702 15.0003C3.354 15.0003 3.27439 14.9673 3.21569 14.9086C3.15699 14.8499 3.12402 14.7703 3.12402 14.6873C3.12402 14.5113 3.2693 14.3743 3.43583 14.3743ZM5.93982 14.3743C6.10754 14.3743 6.25046 14.5113 6.25046 14.6873C6.25046 14.8633 6.10872 14.9991 5.93982 14.9991C5.77092 14.9991 5.62446 14.8644 5.62446 14.6873C5.62446 14.5101 5.7721 14.3743 5.93982 14.3743ZM8.43908 14.3743C8.60326 14.3743 8.74972 14.5113 8.74972 14.6873C8.74972 14.8633 8.60798 14.9991 8.43908 14.9991C8.269 14.9991 8.1249 14.8644 8.1249 14.6873C8.1249 14.5101 8.27491 14.3743 8.43908 14.3743ZM10.3112 14.3743C9.90368 14.3743 9.90368 14.9991 10.3112 14.9991H13.127C13.5345 14.9991 13.5345 14.3731 13.127 14.3731L10.3112 14.3743ZM14.5313 14.3743C14.1227 14.3743 14.1227 14.9991 14.5313 14.9991H15.3132C15.7207 14.9991 15.7207 14.3731 15.3132 14.3731L14.5313 14.3743ZM2.81102 18.1255H4.37365V18.7503H2.8122L2.81102 18.1255ZM15.6239 18.1255H17.1865V18.7503H15.6262L15.6239 18.1255Z" fill="black"/>
</g>
<defs>
<clipPath id="clip0_3893_661">
<rect width="20" height="20" fill="white"/>
</clipPath>
</defs>
</svg>
