<svg width="20" height="20" viewBox="0 0 20 20" fill="none" xmlns="http://www.w3.org/2000/svg">
<g clip-path="url(#clip0_3531_2687)">
<path d="M16.4583 3.90583C16.3766 3.90608 16.2957 3.89015 16.2201 3.85897C16.1446 3.8278 16.076 3.78198 16.0183 3.72417C14.41 2.12917 12.2725 1.25 9.99997 1.25C7.72747 1.25 5.58997 2.12917 3.98164 3.72417C3.86395 3.84097 3.70468 3.90624 3.53886 3.90562C3.37305 3.90499 3.21428 3.83852 3.09747 3.72083C2.98066 3.60314 2.91539 3.44387 2.91602 3.27806C2.91665 3.11225 2.98311 2.95347 3.1008 2.83667C4.9458 1.0075 7.3958 0 9.99997 0C12.6041 0 15.0541 1.0075 16.8983 2.83667C16.9864 2.92384 17.0465 3.03522 17.0711 3.15665C17.0958 3.27809 17.0837 3.40411 17.0366 3.51869C16.9894 3.63327 16.9093 3.73125 16.8063 3.80019C16.7033 3.86912 16.5822 3.90589 16.4583 3.90583Z" fill="black"/>
<path d="M14.2099 6.13501C14.1282 6.13525 14.0473 6.11933 13.9718 6.08815C13.8962 6.05697 13.8276 6.01115 13.7699 5.95334C12.7608 4.95251 11.4224 4.40167 9.99992 4.40167C8.57742 4.40167 7.23909 4.95251 6.22992 5.95417C6.11223 6.07098 5.95296 6.13625 5.78715 6.13562C5.62133 6.135 5.46256 6.06853 5.34575 5.95084C5.22895 5.83315 5.16368 5.67388 5.1643 5.50807C5.16493 5.34225 5.2314 5.18348 5.34909 5.06667C6.59409 3.83251 8.24575 3.15167 9.99992 3.15167C11.7541 3.15167 13.4058 3.83167 14.6508 5.06667C14.7386 5.15394 14.7985 5.26532 14.8229 5.3867C14.8473 5.50807 14.8352 5.63396 14.788 5.7484C14.7407 5.86285 14.6606 5.96069 14.5577 6.02952C14.4548 6.09835 14.3337 6.13506 14.2099 6.13501ZM11.9616 8.36501C11.879 8.36509 11.7972 8.34878 11.721 8.31703C11.6447 8.28527 11.5755 8.2387 11.5174 8.18001C10.7149 7.37084 9.28325 7.37084 8.48075 8.18001C8.42297 8.23823 8.35429 8.28449 8.27863 8.31617C8.20296 8.34784 8.1218 8.36431 8.03978 8.36462C7.95775 8.36493 7.87647 8.34908 7.80057 8.31797C7.72467 8.28687 7.65564 8.24112 7.59742 8.18334C7.5392 8.12556 7.49293 8.05687 7.46126 7.98121C7.42958 7.90555 7.41312 7.82439 7.41281 7.74236C7.4125 7.66034 7.42835 7.57906 7.45945 7.50316C7.49055 7.42726 7.5363 7.35823 7.59409 7.30001C8.23159 6.65667 9.08659 6.30251 9.99992 6.30251C10.9133 6.30251 11.7683 6.65667 12.4058 7.29917C12.4929 7.38677 12.5522 7.49824 12.576 7.6195C12.5998 7.74076 12.5872 7.86636 12.5396 7.98042C12.4921 8.09449 12.4118 8.19191 12.3089 8.26036C12.206 8.32881 12.0852 8.36523 11.9616 8.36501ZM16.0416 17.5H13.9583C13.1541 17.5 12.4999 16.8458 12.4999 16.0417V12.2917C12.4999 11.4875 13.1541 10.8333 13.9583 10.8333H16.0416C16.2073 10.8333 16.3663 10.8992 16.4835 11.0164C16.6007 11.1336 16.6666 11.2926 16.6666 11.4583C16.6666 11.6241 16.6007 11.7831 16.4835 11.9003C16.3663 12.0175 16.2073 12.0833 16.0416 12.0833H13.9583C13.903 12.0833 13.85 12.1053 13.8109 12.1444C13.7719 12.1834 13.7499 12.2364 13.7499 12.2917V16.0417C13.7499 16.1567 13.8433 16.25 13.9583 16.25H16.0416C16.2073 16.25 16.3663 16.3159 16.4835 16.4331C16.6007 16.5503 16.6666 16.7092 16.6666 16.875C16.6666 17.0408 16.6007 17.1997 16.4835 17.3169C16.3663 17.4342 16.2073 17.5 16.0416 17.5ZM6.87492 17.5H4.79159C3.98742 17.5 3.33325 16.8458 3.33325 16.0417V11.4583C3.33325 11.2926 3.3991 11.1336 3.51631 11.0164C3.63352 10.8992 3.79249 10.8333 3.95825 10.8333C4.12401 10.8333 4.28298 10.8992 4.40019 11.0164C4.5174 11.1336 4.58325 11.2926 4.58325 11.4583V16.0417C4.58325 16.1567 4.67659 16.25 4.79159 16.25H6.87492C7.04068 16.25 7.19965 16.3159 7.31686 16.4331C7.43407 16.5503 7.49992 16.7092 7.49992 16.875C7.49992 17.0408 7.43407 17.1997 7.31686 17.3169C7.19965 17.4342 7.04068 17.5 6.87492 17.5ZM11.2499 12.0833H7.49992C7.33416 12.0833 7.17519 12.0175 7.05798 11.9003C6.94077 11.7831 6.87492 11.6241 6.87492 11.4583C6.87492 11.2926 6.94077 11.1336 7.05798 11.0164C7.17519 10.8992 7.33416 10.8333 7.49992 10.8333H11.2499C11.4157 10.8333 11.5746 10.8992 11.6919 11.0164C11.8091 11.1336 11.8749 11.2926 11.8749 11.4583C11.8749 11.6241 11.8091 11.7831 11.6919 11.9003C11.5746 12.0175 11.4157 12.0833 11.2499 12.0833Z" fill="black"/>
<path d="M16.0417 14.7917H13.125C12.9592 14.7917 12.8003 14.7258 12.6831 14.6086C12.5658 14.4914 12.5 14.3324 12.5 14.1667C12.5 14.0009 12.5658 13.8419 12.6831 13.7247C12.8003 13.6075 12.9592 13.5417 13.125 13.5417H16.0417C16.2074 13.5417 16.3664 13.6075 16.4836 13.7247C16.6008 13.8419 16.6667 14.0009 16.6667 14.1667C16.6667 14.3324 16.6008 14.4914 16.4836 14.6086C16.3664 14.7258 16.2074 14.7917 16.0417 14.7917ZM9.375 10.8333C9.20924 10.8333 9.05027 10.8992 8.93306 11.0164C8.81585 11.1336 8.75 11.2926 8.75 11.4583V16.875C8.75 17.0408 8.81585 17.1997 8.93306 17.317C9.05027 17.4342 9.20924 17.5 9.375 17.5C9.54076 17.5 9.69973 17.4342 9.81694 17.317C9.93415 17.1997 10 17.0408 10 16.875V11.4583C10 11.2926 9.93415 11.1336 9.81694 11.0164C9.69973 10.8992 9.54076 10.8333 9.375 10.8333Z" fill="black"/>
</g>
<defs>
<clipPath id="clip0_3531_2687">
<rect width="20" height="20" fill="white"/>
</clipPath>
</defs>
</svg>
