<svg width="13" height="18" viewBox="0 0 13 18" fill="none" xmlns="http://www.w3.org/2000/svg">
<path d="M10.0999 9.55H2.2999C2.12751 9.55 1.96218 9.61848 1.84028 9.74038C1.71838 9.86228 1.6499 10.0276 1.6499 10.2V15.4C1.6499 15.5724 1.71838 15.7377 1.84028 15.8596C1.96218 15.9815 2.12751 16.05 2.2999 16.05H10.0999C10.2723 16.05 10.4376 15.9815 10.5595 15.8596C10.6814 15.7377 10.7499 15.5724 10.7499 15.4V10.2C10.7499 10.0276 10.6814 9.86228 10.5595 9.74038C10.4376 9.61848 10.2723 9.55 10.0999 9.55ZM10.0999 10.2V11.175H2.2999V10.2H10.0999ZM10.0999 15.4H2.2999V11.825H10.0999V15.4ZM9.4499 14.425C9.4499 14.5112 9.41566 14.5939 9.35471 14.6548C9.29376 14.7158 9.21109 14.75 9.1249 14.75H7.8249C7.7387 14.75 7.65604 14.7158 7.59509 14.6548C7.53414 14.5939 7.4999 14.5112 7.4999 14.425C7.4999 14.3388 7.53414 14.2561 7.59509 14.1952C7.65604 14.1342 7.7387 14.1 7.8249 14.1H9.1249C9.21109 14.1 9.29376 14.1342 9.35471 14.1952C9.41566 14.2561 9.4499 14.3388 9.4499 14.425ZM6.8499 14.425C6.8499 14.5112 6.81566 14.5939 6.75471 14.6548C6.69376 14.7158 6.61109 14.75 6.5249 14.75H5.8749C5.7887 14.75 5.70604 14.7158 5.64509 14.6548C5.58414 14.5939 5.5499 14.5112 5.5499 14.425C5.5499 14.3388 5.58414 14.2561 5.64509 14.1952C5.70604 14.1342 5.7887 14.1 5.8749 14.1H6.5249C6.61109 14.1 6.69376 14.1342 6.75471 14.1952C6.81566 14.2561 6.8499 14.3388 6.8499 14.425Z" fill="black"/>
<g clip-path="url(#clip0_3488_2674)">
<path d="M6.37103 5.81016C6.70356 5.80761 7.03329 5.87105 7.34114 5.99679C7.64899 6.12252 7.92884 6.30807 8.1645 6.54269C8.2175 6.59517 8.24749 6.66657 8.24785 6.74116C8.24822 6.81575 8.21893 6.88743 8.16645 6.94043C8.11396 6.99343 8.04257 7.02341 7.96798 7.02378C7.89339 7.02415 7.82171 6.99486 7.76871 6.94238C7.39769 6.57498 6.89592 6.37001 6.37378 6.37257C5.85165 6.37512 5.35191 6.58499 4.98451 6.95601C4.93202 7.00901 4.86063 7.03899 4.78604 7.03936C4.71145 7.03972 4.63977 7.01044 4.58677 6.95795C4.53376 6.90547 4.50378 6.83408 4.50342 6.75949C4.50305 6.6849 4.53233 6.61321 4.58482 6.56021C4.81817 6.3233 5.0962 6.13502 5.4028 6.00627C5.7094 5.87753 6.0385 5.81087 6.37103 5.81016ZM3.38575 5.37283C3.33327 5.42583 3.30398 5.49751 3.30435 5.5721C3.30471 5.64669 3.3347 5.71808 3.3877 5.77057C3.4407 5.82305 3.51238 5.85233 3.58697 5.85197C3.66156 5.8516 3.73295 5.82162 3.78544 5.76862C4.12329 5.42745 4.52503 5.15616 4.96772 4.97025C5.41041 4.78434 5.88539 4.68744 6.36552 4.68509C6.84566 4.68274 7.32156 4.77498 7.76605 4.95655C8.21055 5.13812 8.61492 5.40546 8.95609 5.74331C9.00909 5.7958 9.08078 5.82508 9.15537 5.82471C9.22996 5.82435 9.30135 5.79436 9.35384 5.74136C9.40632 5.68836 9.4356 5.61668 9.43524 5.54209C9.43487 5.4675 9.40489 5.39611 9.35189 5.34362C8.55686 4.55633 7.48164 4.11712 6.36277 4.1226C5.2439 4.12807 4.17304 4.57779 3.38575 5.37283ZM6.35451 2.43531C5.57859 2.43697 4.8107 2.5925 4.0953 2.89291C3.37989 3.19332 2.73117 3.63264 2.18668 4.18544C2.1342 4.23844 2.10492 4.31012 2.10528 4.38471C2.10565 4.4593 2.13563 4.5307 2.18863 4.58318C2.24163 4.63567 2.31331 4.66495 2.3879 4.66458C2.4625 4.66422 2.53389 4.63424 2.58637 4.58123C3.07898 4.08104 3.66591 3.68353 4.31319 3.4117C4.96046 3.13987 5.65523 2.99913 6.35726 2.99762C7.05928 2.99226 7.75539 3.12619 8.4053 3.39167C9.0552 3.65715 9.646 4.0489 10.1435 4.54424C10.1965 4.59673 10.2682 4.62601 10.3428 4.62564C10.4173 4.62528 10.4887 4.5953 10.5412 4.54229C10.5937 4.48929 10.623 4.41761 10.6226 4.34302C10.6223 4.26843 10.5923 4.19704 10.5393 4.14455C9.9894 3.59711 9.33641 3.16416 8.6181 2.87077C7.89978 2.57738 7.13041 2.42937 6.35451 2.43531ZM6.08268 7.84557C6.02397 7.90486 5.98416 7.98023 5.96828 8.06214C5.9524 8.14406 5.96117 8.22884 5.99348 8.30577C6.02579 8.3827 6.08018 8.44832 6.14979 8.49434C6.21939 8.54036 6.30108 8.5647 6.38451 8.56429C6.46795 8.56388 6.54939 8.53874 6.61854 8.49204C6.68769 8.44535 6.74144 8.3792 6.773 8.30195C6.80455 8.22471 6.81249 8.13985 6.79581 8.05809C6.77913 7.97634 6.73858 7.90136 6.6793 7.84265C6.59979 7.76392 6.49227 7.72 6.38038 7.72055C6.2685 7.7211 6.16141 7.76607 6.08268 7.84557Z" fill="black"/>
</g>
<defs>
<clipPath id="clip0_3488_2674">
<rect width="8.55743" height="8.56623" fill="white" transform="matrix(0.740027 -0.672577 0.74654 0.66534 0 5.75552)"/>
</clipPath>
</defs>
</svg>
