<svg width="20" height="20" viewBox="0 0 20 20" fill="none" xmlns="http://www.w3.org/2000/svg">
<g clip-path="url(#clip0_3891_82)">
<path d="M4.53125 12.1876C4.31562 12.1876 4.14062 12.3626 4.14062 12.5782C4.14062 12.7939 4.31562 12.9689 4.53125 12.9689C4.74687 12.9689 4.92188 12.7939 4.92188 12.5782C4.92188 12.3626 4.74687 12.1876 4.53125 12.1876Z" fill="black"/>
<path d="M17.0312 4.68762H13.125C12.9093 4.68762 12.7343 4.86251 12.7343 5.07825V12.5782C12.7343 14.0859 11.5077 15.3126 9.99996 15.3126C8.49508 15.3126 7.26559 14.0951 7.26559 12.5782V5.07825C7.26559 4.86251 7.09066 4.68762 6.87496 4.68762H2.96875C2.75305 4.68762 2.57812 4.86251 2.57812 5.07825V12.5782C2.57812 16.6706 5.90754 20 9.99996 20C14.0924 20 17.4218 16.6706 17.4218 12.5782V5.07825C17.4218 4.86251 17.2469 4.68762 17.0312 4.68762ZM3.35938 5.46887H6.48438V8.28137H3.35938V5.46887ZM16.6405 12.5782C16.6405 16.2398 13.6616 19.2188 9.99996 19.2188C6.33836 19.2188 3.35938 16.2398 3.35938 12.5782V9.06262H6.48438V12.5782C6.48438 14.5131 8.04977 16.0938 9.99996 16.0938C11.9385 16.0938 13.5155 14.5167 13.5155 12.5782V9.06262H16.6405V12.5782ZM16.6405 8.28133H13.5155V5.46883H16.6405V8.28133Z" fill="black"/>
<path d="M6.93471 16.6241C6.07389 15.9703 5.43249 15.0434 5.12854 14.0144C5.06741 13.8075 4.85018 13.6892 4.64323 13.7504C4.43635 13.8115 4.31815 14.0288 4.37924 14.2357C4.72999 15.4232 5.46971 16.4924 6.46214 17.2462C6.63385 17.3767 6.87897 17.3433 7.00948 17.1715C7.13999 16.9997 7.10651 16.7546 6.93471 16.6241ZM5.64479 1.74791C5.60978 1.69127 5.56088 1.64451 5.50272 1.61209C5.44456 1.57966 5.37908 1.56264 5.31249 1.56264H4.38206L4.88065 0.565448C4.9771 0.372479 4.89889 0.137831 4.70592 0.0413465C4.51299 -0.0551769 4.27835 0.0230653 4.18186 0.216034L3.40061 1.77853C3.37083 1.83809 3.35678 1.90427 3.35977 1.97079C3.36277 2.03731 3.38271 2.10196 3.41772 2.1586C3.45273 2.21524 3.50164 2.26199 3.5598 2.29441C3.61796 2.32683 3.68344 2.34385 3.75003 2.34385H4.68046L4.18186 3.34103C4.08538 3.534 4.16358 3.76865 4.35659 3.86514C4.55018 3.96193 4.78452 3.88275 4.88065 3.69045L5.6619 2.12795C5.69167 2.06839 5.70573 2.00222 5.70274 1.9357C5.69974 1.86919 5.6798 1.80455 5.64479 1.74791ZM16.5822 1.74791C16.5472 1.69127 16.4983 1.64451 16.4401 1.61209C16.382 1.57966 16.3165 1.56264 16.2499 1.56264H15.3195L15.8181 0.565448C15.9145 0.372479 15.8363 0.137831 15.6433 0.0413465C15.4504 -0.0551769 15.2158 0.0230653 15.1193 0.216034L14.338 1.77853C14.3083 1.83809 14.2942 1.90427 14.2972 1.97079C14.3002 2.03731 14.3201 2.10196 14.3551 2.1586C14.3902 2.21524 14.4391 2.26199 14.4972 2.29441C14.5554 2.32683 14.6209 2.34385 14.6874 2.34385H15.6179L15.1193 3.34103C15.0228 3.534 15.101 3.76865 15.294 3.86514C15.4876 3.96193 15.7219 3.88275 15.8181 3.69045L16.5993 2.12795C16.6291 2.06839 16.6432 2.00222 16.6402 1.9357C16.6372 1.86919 16.6172 1.80455 16.5822 1.74791Z" fill="black"/>
</g>
<defs>
<clipPath id="clip0_3891_82">
<rect width="20" height="20" fill="white"/>
</clipPath>
</defs>
</svg>
