<svg xmlns="http://www.w3.org/2000/svg" width="24" height="24" viewBox="0 0 24 24" fill="none">
  <g clip-path="url(#clip0_3011_4198)">
    <path d="M12 0.00234887C5.51529 -0.125514 0.149284 5.01692 0.0012207 11.5012C0.00957045 13.1322 0.371457 14.742 1.06194 16.2196C1.75242 17.6972 2.75508 19.0076 4.00081 20.0604V23.5C4.00081 23.7762 4.22467 24 4.50078 24C4.59447 24 4.68628 23.9737 4.76574 23.924L7.55247 22.1832C8.97227 22.7263 10.4799 23.0032 12 23.0001C18.4848 23.128 23.8508 17.9855 23.9989 11.5013C23.8508 5.01692 18.4848 -0.125514 12 0.00234887Z" fill="#2196F3"/>
    <path d="M19.8992 8.20153C19.8273 8.10509 19.7229 8.03783 19.6054 8.01212C19.4879 7.9864 19.365 8.00394 19.2593 8.06153L14.0598 10.8963L10.8252 8.12251C10.7295 8.04051 10.6065 7.99764 10.4806 8.00246C10.3547 8.00728 10.2353 8.05945 10.1462 8.14852L4.14684 14.1479C3.95218 14.3438 3.95312 14.6603 4.14899 14.855C4.22525 14.9308 4.32391 14.98 4.43034 14.9953C4.53676 15.0106 4.64528 14.9911 4.73979 14.9399L9.93927 12.1051L13.1769 14.8799C13.2726 14.9619 13.3956 15.0047 13.5215 14.9999C13.6474 14.9951 13.7668 14.9429 13.8559 14.8538L19.8553 8.85443C19.9399 8.76906 19.9908 8.65608 19.9989 8.53618C20.007 8.41627 19.9716 8.29747 19.8992 8.20153Z" fill="#FAFAFA"/>
  </g>
  <defs>
    <clipPath id="clip0_3011_4198">
      <rect width="24" height="24" fill="white"/>
    </clipPath>
  </defs>
</svg>