<svg width="20" height="20" viewBox="0 0 20 20" fill="none" xmlns="http://www.w3.org/2000/svg">
<path fill-rule="evenodd" clip-rule="evenodd" d="M0.685014 4.09774C2.38108 3.46393 3.94248 4.98737 4.99961 4.88591C6.39734 4.89438 5.98307 4.4762 6.68033 4.61238C7.04207 4.68931 7.3594 4.75724 7.62577 4.92927C7.83213 5.08268 7.94092 5.31397 8.11071 5.51897C8.80853 6.1206 8.44178 5.79551 8.83503 6.28599C8.92104 6.3807 9.04197 6.35701 9.14434 6.26669C9.29271 6.13873 9.40902 5.93429 9.54527 5.90002C9.89944 5.79918 10.5392 6.04576 10.726 6.27262C10.9735 6.53466 11.0916 6.95363 11.2865 7.20157C12.1257 8.27139 12.1325 8.13069 12.7859 8.31711C12.861 8.34757 13.0704 8.39409 13.0018 8.46142C12.7654 8.83072 12.7481 9.2392 12.7185 9.64371C12.6049 12.0946 12.943 11.8059 13.3364 12.3853C13.4836 12.6135 13.5562 12.8357 13.7532 13.0096C13.96 13.1939 14.2252 13.2269 14.4625 13.3304C14.6648 13.4064 14.7829 13.6239 15.003 13.6512C15.3243 13.6898 15.6094 13.54 15.9309 13.5056C16.4245 13.4311 16.7059 13.2919 16.9523 12.8841C17.117 12.6059 17.2516 12.3669 17.2837 12.0929C17.3445 11.5795 17.9594 11.4989 18.4216 11.5013C18.6365 11.4995 18.8255 11.521 18.9894 11.5072C19.9143 11.4145 18.8706 11.6894 18.9055 12.7322C18.8947 12.9047 18.8821 13.0734 18.8274 13.2243C18.7621 13.5134 18.1244 13.8003 17.7376 13.9645C17.5913 14.0781 16.8084 13.9569 16.8149 14.215C17.833 15.6155 16.4723 14.8879 16.3001 15.4339C16.2173 15.6475 16.3056 15.9276 16.1386 16.0679C16.0608 16.0523 15.9971 15.9909 15.9324 15.9385C14.2561 14.4863 13.9528 15.4192 13.1264 15.2927C12.6714 15.2338 12.2512 15.0463 11.8276 14.8848C10.5699 14.535 10.7529 14.2883 9.89135 13.8738C9.56688 13.7394 9.15048 13.701 8.93067 13.543C8.54721 13.2726 7.88121 12.7064 7.85521 12.3687C7.82497 12.1933 7.94992 11.9253 7.92725 11.6846C7.88272 11.3234 7.64654 10.6115 7.44576 10.4326C6.92601 9.95639 6.85303 9.58247 6.48832 9.17541C6.18556 8.82656 5.80895 8.7257 5.40838 8.47213C5.35935 8.42699 5.40254 8.28363 5.36557 8.19833C5.24514 7.66461 4.67385 7.30428 4.25535 6.90425C3.55704 6.29559 3.63142 5.24851 2.91356 4.84118C2.74729 4.74801 2.52534 4.67211 2.36709 4.74643C1.94651 5.23977 2.56495 5.73524 2.82789 6.20323C3.52523 7.61403 3.84271 7.38703 4.17023 8.08305C4.4531 8.6633 4.55795 9.32671 4.93015 9.61403C5.14615 9.79889 5.44299 9.99591 5.49922 10.2003C5.54006 10.337 5.45257 10.4865 5.18555 10.6158C4.83353 10.771 4.75059 10.191 4.54764 10.0174C3.62923 9.09192 3.92205 9.30497 3.74133 8.41483C3.57581 7.88112 2.95539 7.95553 2.54341 7.75529C1.89899 7.35709 2.44412 7.27443 2.47376 6.9912C2.46619 6.65299 2.24299 6.44309 2.01029 6.27355C1.92089 6.20335 1.83863 6.13558 1.76883 6.04447C1.6515 5.89191 1.58207 5.72081 1.51788 5.5397C1.23427 4.47138 0.6727 4.54969 0.685014 4.09774Z" fill="black"/>
</svg>
