<svg width="17" height="20" viewBox="0 0 17 20" fill="none" xmlns="http://www.w3.org/2000/svg">
<path d="M14.2104 5.78947H2.63149C2.35231 5.78947 2.08457 5.90038 1.88717 6.09778C1.68976 6.29519 1.57886 6.56293 1.57886 6.84211V16.3158C1.57886 16.595 1.68976 16.8627 1.88717 17.0601C2.08457 17.2575 2.35231 17.3684 2.63149 17.3684H14.2104C14.4896 17.3684 14.7574 17.2575 14.9548 17.0601C15.1522 16.8627 15.2631 16.595 15.2631 16.3158V6.84211C15.2631 6.56293 15.1522 6.29519 14.9548 6.09778C14.7574 5.90038 14.4896 5.78947 14.2104 5.78947ZM14.2104 6.84211V13.602L12.4953 11.8875C12.3976 11.7897 12.2815 11.7122 12.1538 11.6593C12.0261 11.6063 11.8892 11.5791 11.7509 11.5791C11.6126 11.5791 11.4757 11.6063 11.348 11.6593C11.2203 11.7122 11.1042 11.7897 11.0065 11.8875L9.6907 13.2033L6.79596 10.3086C6.59858 10.1113 6.33094 10.0005 6.05188 10.0005C5.77283 10.0005 5.50519 10.1113 5.30781 10.3086L2.63149 12.9849V6.84211H14.2104ZM2.63149 14.4737L6.05254 11.0526L11.3157 16.3158H2.63149V14.4737ZM14.2104 16.3158H12.8045L10.4361 13.9474L11.7519 12.6316L14.2104 15.0908V16.3158ZM9.47359 9.73684C9.47359 9.5807 9.5199 9.42806 9.60665 9.29824C9.69339 9.16841 9.81669 9.06722 9.96095 9.00746C10.1052 8.94771 10.2639 8.93208 10.4171 8.96254C10.5702 8.993 10.7109 9.06819 10.8213 9.1786C10.9317 9.28901 11.0069 9.42968 11.0374 9.58282C11.0678 9.73597 11.0522 9.8947 10.9924 10.039C10.9327 10.1832 10.8315 10.3065 10.7017 10.3933C10.5718 10.48 10.4192 10.5263 10.2631 10.5263C10.0537 10.5263 9.85288 10.4431 9.70483 10.2951C9.55677 10.147 9.47359 9.94622 9.47359 9.73684Z" fill="black"/>
<g clip-path="url(#clip0_3488_2695)">
<path d="M16.3897 2.62376L14.416 0.650079C14.3884 0.62246 14.3533 0.603643 14.315 0.596007C14.2767 0.58837 14.237 0.592258 14.201 0.607179C14.1649 0.6221 14.134 0.647382 14.1123 0.67983C14.0906 0.712278 14.079 0.750433 14.079 0.789471V1.78495C13.4391 1.83972 12.7322 2.15304 12.1507 2.64621C11.4506 3.24029 11.0146 4.00584 10.9231 4.80172C10.9159 4.8636 10.9285 4.92616 10.959 4.98049C10.9894 5.03482 11.0362 5.07817 11.0928 5.10435C11.1493 5.13053 11.2126 5.13822 11.2738 5.12632C11.3349 5.11442 11.3907 5.08354 11.4333 5.03807C11.7047 4.74917 12.6703 3.83561 14.079 3.75518V4.73684C14.079 4.77588 14.0906 4.81403 14.1123 4.84648C14.134 4.87893 14.1649 4.90421 14.201 4.91913C14.237 4.93405 14.2767 4.93794 14.315 4.9303C14.3533 4.92267 14.3884 4.90385 14.416 4.87623L16.3897 2.90255C16.4266 2.86555 16.4474 2.81542 16.4474 2.76315C16.4474 2.71089 16.4266 2.66076 16.3897 2.62376ZM14.4738 4.26044V3.55263C14.4738 3.50028 14.453 3.45008 14.416 3.41307C14.3789 3.37605 14.3287 3.35526 14.2764 3.35526C13.5836 3.35526 12.9089 3.5361 12.2709 3.89309C11.9459 4.07571 11.6432 4.29526 11.3687 4.54737C11.5118 3.95921 11.8724 3.39991 12.4061 2.9472C12.9789 2.46143 13.6781 2.17105 14.2764 2.17105C14.3287 2.17105 14.3789 2.15026 14.416 2.11324C14.453 2.07623 14.4738 2.02603 14.4738 1.97368V1.26612L15.971 2.76315L14.4738 4.26044Z" fill="black"/>
</g>
<defs>
<clipPath id="clip0_3488_2695">
<rect width="6.31579" height="6.31579" fill="white" transform="translate(10.5264)"/>
</clipPath>
</defs>
</svg>
