<svg width="20" height="20" viewBox="0 0 20 20" fill="none" xmlns="http://www.w3.org/2000/svg">
<path d="M10.4166 2.5H7.08325C6.3929 2.5 5.83325 3.05965 5.83325 3.75V17.5C5.83432 17.7576 5.91495 18.0086 6.06412 18.2186C6.21329 18.4286 6.4237 18.5875 6.66657 18.6733V19.5833C6.66657 19.8134 6.85313 20 7.08325 20C7.31337 20 7.49993 19.8134 7.49993 19.5833V18.75H9.99993V19.5833C9.99993 19.8134 10.1865 20 10.4166 20C10.6467 20 10.8333 19.8134 10.8333 19.5833V18.6733C11.0762 18.5875 11.2866 18.4286 11.4357 18.2186C11.5849 18.0086 11.6655 17.7576 11.6666 17.5V3.75C11.6666 3.05965 11.1069 2.5 10.4166 2.5ZM10.8332 17.5C10.8332 17.7301 10.6466 17.9167 10.4165 17.9167H7.08321C6.8531 17.9167 6.66653 17.7301 6.66653 17.5V3.75C6.66653 3.51988 6.8531 3.33332 7.08321 3.33332H10.4165C10.6466 3.33332 10.8332 3.51988 10.8332 3.75V17.5Z" fill="black"/>
<path d="M8.74982 9.58333C9.21005 9.58333 9.58314 9.21024 9.58314 8.75001C9.58314 8.28978 9.21005 7.91669 8.74982 7.91669C8.28959 7.91669 7.9165 8.28978 7.9165 8.75001C7.9165 9.21024 8.28959 9.58333 8.74982 9.58333Z" fill="black"/>
<path d="M8.74982 12.0833C9.21005 12.0833 9.58314 11.7102 9.58314 11.25C9.58314 10.7898 9.21005 10.4167 8.74982 10.4167C8.28959 10.4167 7.9165 10.7898 7.9165 11.25C7.9165 11.7102 8.28959 12.0833 8.74982 12.0833Z" fill="black"/>
<path d="M10.8332 1.25C10.6031 1.25 10.4165 1.43656 10.4165 1.66668C10.4165 1.8968 10.6031 2.08336 10.8332 2.08336C11.5235 2.08336 12.0832 2.64301 12.0832 3.33336C12.0832 3.56344 12.2697 3.75 12.4999 3.75C12.73 3.75 12.9165 3.56344 12.9165 3.33332C12.9151 2.18332 11.9832 1.25137 10.8332 1.25Z" fill="black"/>
<path d="M10.8332 0C10.6031 0 10.4165 0.186563 10.4165 0.41668C10.4165 0.646797 10.6031 0.833359 10.8332 0.833359C12.2132 0.834961 13.3316 1.95332 13.3332 3.33336C13.3332 3.56344 13.5197 3.75 13.7499 3.75C13.98 3.75 14.1665 3.56344 14.1665 3.33332C14.1645 1.49324 12.6733 0.00207031 10.8332 0Z" fill="black"/>
</svg>
