<svg width="20" height="20" viewBox="0 0 20 20" fill="none" xmlns="http://www.w3.org/2000/svg">
<path d="M12.5156 9.72663H11.9844C11.9193 9.24648 11.6824 8.8062 11.3175 8.48741C10.9526 8.16862 10.4845 7.99294 9.99999 7.99294C9.51546 7.99294 9.04736 8.16862 8.68248 8.48741C8.31759 8.8062 8.08066 9.24648 8.01562 9.72663H7.48437C7.4484 9.72655 7.41277 9.73356 7.37951 9.74726C7.34626 9.76096 7.31603 9.78109 7.29056 9.80648C7.26509 9.83188 7.24488 9.86205 7.23108 9.89527C7.21728 9.92849 7.21017 9.9641 7.21015 10.0001V19.0146C7.21019 19.0871 7.23901 19.1566 7.29028 19.2079C7.34155 19.2592 7.41108 19.288 7.48359 19.288H12.5156C12.5881 19.288 12.6577 19.2592 12.709 19.2079C12.7602 19.1567 12.7891 19.0871 12.7891 19.0146V10.0001C12.7891 9.92755 12.7602 9.85799 12.709 9.80672C12.6577 9.75544 12.5881 9.72663 12.5156 9.72663ZM9.99999 8.54194C10.339 8.54249 10.6673 8.66102 10.9285 8.87718C11.1898 9.09334 11.3676 9.39366 11.4316 9.72663H8.56859C8.63249 9.39366 8.81029 9.09333 9.07148 8.87716C9.33267 8.66099 9.66095 8.54247 9.99999 8.54194ZM12.2428 18.7412H7.75703V10.2735H12.2428V18.7412ZM9.99999 4.35366C9.25819 4.35162 8.52335 4.49673 7.83801 4.7806C7.15267 5.06446 6.53044 5.48145 6.00734 6.00741C5.95606 6.05869 5.92725 6.12824 5.92725 6.20077C5.92725 6.27329 5.95606 6.34285 6.00734 6.39413C6.05862 6.44541 6.12817 6.47422 6.2007 6.47422C6.27322 6.47422 6.34278 6.44541 6.39406 6.39413C7.35043 5.4378 8.64752 4.90055 9.99999 4.90055C11.3525 4.90055 12.6496 5.4378 13.6059 6.39413C13.6572 6.44541 13.7268 6.47422 13.7993 6.47422C13.8718 6.47422 13.9414 6.44541 13.9927 6.39413C14.0439 6.34285 14.0727 6.27329 14.0727 6.20077C14.0727 6.12824 14.0439 6.05869 13.9927 6.00741C13.4695 5.48145 12.8473 5.06446 12.162 4.7806C11.4766 4.49673 10.7418 4.35162 9.99999 4.35366Z" fill="black"/>
<path d="M7.48831 7.76161C7.52423 7.76165 7.5598 7.75461 7.593 7.74088C7.62619 7.72715 7.65635 7.70701 7.68175 7.68161C8.29715 7.06763 9.13096 6.72282 10.0003 6.72282C10.8696 6.72282 11.7034 7.06763 12.3188 7.68161C12.3704 7.73141 12.4394 7.75896 12.5111 7.75832C12.5828 7.75768 12.6514 7.72891 12.7021 7.67821C12.7528 7.6275 12.7815 7.55891 12.7821 7.48722C12.7827 7.41552 12.7552 7.34646 12.7053 7.2949C11.9873 6.5785 11.0145 6.17617 10.0002 6.17617C8.98591 6.17617 8.01304 6.5785 7.29503 7.2949C7.25682 7.33314 7.2308 7.38184 7.22026 7.43487C7.20972 7.48789 7.21513 7.54285 7.23582 7.5928C7.2565 7.64275 7.29153 7.68544 7.33647 7.71549C7.38141 7.74554 7.43425 7.76159 7.48831 7.76161ZM10.0002 2.53286C9.01914 2.53022 8.04732 2.7222 7.14098 3.09769C6.23464 3.47317 5.41177 4.02471 4.72003 4.72036C4.67023 4.77194 4.64268 4.84102 4.64332 4.91272C4.64396 4.98441 4.67273 5.05299 4.72344 5.10367C4.77415 5.15436 4.84273 5.1831 4.91443 5.18371C4.98612 5.18432 5.05519 5.15675 5.10675 5.10693C6.40458 3.80913 8.1648 3.08004 10.0002 3.08004C11.8356 3.08004 13.5958 3.80913 14.8936 5.10693C14.9452 5.15675 15.0142 5.18432 15.0859 5.18371C15.1576 5.1831 15.2262 5.15436 15.2769 5.10367C15.3276 5.05299 15.3564 4.98441 15.3571 4.91272C15.3577 4.84102 15.3301 4.77194 15.2803 4.72036C14.5886 4.02471 13.7657 3.47317 12.8594 3.09769C11.953 2.7222 10.9812 2.53022 10.0002 2.53286Z" fill="black"/>
<path d="M16.5676 3.43253C15.7052 2.57003 14.6813 1.88586 13.5544 1.41907C12.4276 0.952287 11.2198 0.712036 10.0001 0.712036C8.78039 0.712036 7.57262 0.952287 6.44577 1.41907C5.31891 1.88586 4.29503 2.57003 3.4326 3.43253C3.38134 3.48379 3.35254 3.55331 3.35254 3.62581C3.35254 3.6983 3.38134 3.76783 3.4326 3.81909C3.48386 3.87035 3.55339 3.89915 3.62588 3.89915C3.69837 3.89915 3.7679 3.87035 3.81916 3.81909C5.45848 2.17986 7.68182 1.25896 10.0001 1.25896C12.3184 1.25896 14.5417 2.17986 16.181 3.81909C16.2323 3.87035 16.3018 3.89915 16.3743 3.89915C16.4468 3.89915 16.5163 3.87035 16.5676 3.81909C16.6189 3.76783 16.6477 3.6983 16.6477 3.62581C16.6477 3.55331 16.6189 3.48379 16.5676 3.43253Z" fill="black"/>
</svg>
