<svg width="20" height="20" viewBox="0 0 20 20" fill="none" xmlns="http://www.w3.org/2000/svg">
<g clip-path="url(#clip0_3856_2522)">
<path d="M12.0833 20H2.08333C1.531 19.9993 1.00148 19.7796 0.610925 19.3891C0.220368 18.9985 0.000661607 18.469 0 17.9166L0 7.91665C0.000661607 7.36432 0.220368 6.8348 0.610925 6.44424C1.00148 6.05368 1.531 5.83397 2.08333 5.83331H12.0833C12.6357 5.83397 13.1652 6.05368 13.5557 6.44424C13.9463 6.8348 14.166 7.36432 14.1667 7.91665V17.9166C14.166 18.469 13.9463 18.9985 13.5557 19.3891C13.1652 19.7796 12.6357 19.9993 12.0833 20ZM2.08333 6.66665C1.75181 6.66665 1.43387 6.79834 1.19945 7.03276C0.96503 7.26718 0.833333 7.58513 0.833333 7.91665V17.9166C0.833333 18.2482 0.96503 18.5661 1.19945 18.8005C1.43387 19.035 1.75181 19.1666 2.08333 19.1666H12.0833C12.4149 19.1666 12.7328 19.035 12.9672 18.8005C13.2016 18.5661 13.3333 18.2482 13.3333 17.9166V7.91665C13.3333 7.58513 13.2016 7.26718 12.9672 7.03276C12.7328 6.79834 12.4149 6.66665 12.0833 6.66665H2.08333Z" fill="black"/>
<path d="M15.0001 17.0834H13.7501C13.6396 17.0834 13.5336 17.0395 13.4555 16.9613C13.3773 16.8832 13.3334 16.7772 13.3334 16.6667C13.3334 16.5562 13.3773 16.4502 13.4555 16.3721C13.5336 16.2939 13.6396 16.25 13.7501 16.25H15.0001C15.3316 16.25 15.6495 16.1183 15.884 15.8839C16.1184 15.6495 16.2501 15.3315 16.2501 15V5.00002C16.2501 4.6685 16.1184 4.35056 15.884 4.11614C15.6495 3.88172 15.3316 3.75002 15.0001 3.75002H5.00008C4.66856 3.75002 4.35062 3.88172 4.1162 4.11614C3.88178 4.35056 3.75008 4.6685 3.75008 5.00002V6.25002C3.75008 6.36053 3.70618 6.46651 3.62804 6.54465C3.5499 6.62279 3.44392 6.66669 3.33341 6.66669C3.22291 6.66669 3.11693 6.62279 3.03879 6.54465C2.96065 6.46651 2.91675 6.36053 2.91675 6.25002V5.00002C2.91741 4.44769 3.13712 3.91817 3.52767 3.52761C3.91823 3.13705 4.44775 2.91735 5.00008 2.91669H15.0001C15.5524 2.91735 16.0819 3.13705 16.4725 3.52761C16.863 3.91817 17.0828 4.44769 17.0834 5.00002V15C17.0828 15.5524 16.863 16.0819 16.4725 16.4724C16.0819 16.863 15.5524 17.0827 15.0001 17.0834Z" fill="black"/>
<path d="M17.9166 14.1667H16.6666C16.5561 14.1667 16.4501 14.1228 16.372 14.0446C16.2938 13.9665 16.2499 13.8605 16.2499 13.75C16.2499 13.6395 16.2938 13.5335 16.372 13.4554C16.4501 13.3772 16.5561 13.3333 16.6666 13.3333H17.9166C18.2481 13.3333 18.566 13.2016 18.8005 12.9672C19.0349 12.7328 19.1666 12.4149 19.1666 12.0833V2.08333C19.1666 1.75181 19.0349 1.43387 18.8005 1.19945C18.566 0.96503 18.2481 0.833333 17.9166 0.833333H7.91659C7.58506 0.833333 7.26712 0.96503 7.0327 1.19945C6.79828 1.43387 6.66659 1.75181 6.66659 2.08333V3.33333C6.66659 3.44384 6.62269 3.54982 6.54455 3.62796C6.46641 3.7061 6.36043 3.75 6.24992 3.75C6.13941 3.75 6.03343 3.7061 5.95529 3.62796C5.87715 3.54982 5.83325 3.44384 5.83325 3.33333V2.08333C5.83391 1.531 6.05362 1.00148 6.44418 0.610925C6.83473 0.220368 7.36425 0.000661607 7.91659 0L17.9166 0C18.4689 0.000661607 18.9984 0.220368 19.389 0.610925C19.7796 1.00148 19.9993 1.531 19.9999 2.08333V12.0833C19.9993 12.6357 19.7796 13.1652 19.389 13.5557C18.9984 13.9463 18.4689 14.166 17.9166 14.1667Z" fill="black"/>
</g>
<defs>
<clipPath id="clip0_3856_2522">
<rect width="20" height="20" fill="white"/>
</clipPath>
</defs>
</svg>
