<svg width="20" height="20" viewBox="0 0 20 20" fill="none" xmlns="http://www.w3.org/2000/svg">
<g clip-path="url(#clip0_3491_3431)">
<path d="M16 8C18.2058 8 20 6.20571 20 4C20 1.79429 18.2057 0 16 0C14.3983 0 13.0173 0.948417 12.3791 2.31138L11.308 1.916C11.3206 1.834 11.3333 1.75196 11.3333 1.66667C11.3333 0.747708 10.5856 0 9.66667 0C8.74771 0 8 0.747708 8 1.66667C8 2.58563 8.74771 3.33333 9.66667 3.33333C10.2637 3.33333 10.7843 3.015 11.0786 2.542L12.148 2.93667C12.054 3.27604 12 3.63133 12 4C12 4.43667 12.0726 4.85596 12.2026 5.24967L8.53662 6.80342C7.86538 5.53429 6.53304 4.66667 5 4.66667C4.50325 4.66667 4.02929 4.76208 3.59 4.92804L2.66796 2.99042C3.06963 2.68571 3.33333 2.20833 3.33333 1.66667C3.33333 0.747708 2.58563 0 1.66667 0C0.747708 0 0 0.747708 0 1.66667C0 2.58563 0.747708 3.33333 1.66667 3.33333C1.80533 3.33333 1.93833 3.31138 2.06738 3.27896L2.98829 5.21467C1.80125 5.90933 1 7.19467 1 8.66667C1 10.0493 1.70542 11.2697 2.77475 11.9883L2.165 13.0843C2.00633 13.0343 1.84125 13 1.66667 13C0.747708 13 0 13.7477 0 14.6667C0 15.5856 0.747708 16.3333 1.66667 16.3333C2.58563 16.3333 3.33333 15.5856 3.33333 14.6667C3.33333 14.162 3.10304 13.7144 2.74771 13.4087L3.35871 12.3104C3.86004 12.5373 4.41471 12.6667 5 12.6667C5.91471 12.6667 6.75604 12.3547 7.43067 11.8359L8.74267 13.2793C8.07729 13.994 7.66667 14.9488 7.66667 16C7.66667 16.204 7.687 16.4027 7.71629 16.5983L6.17271 16.9647C5.90708 16.3967 5.33396 16 4.66667 16C3.74771 16 3 16.7477 3 17.6667C3 18.5856 3.74771 19.3333 4.66667 19.3333C5.58563 19.3333 6.33333 18.5856 6.33333 17.6667C6.33333 17.6483 6.32829 17.631 6.32796 17.6126L7.86867 17.2474C8.39404 18.8435 9.89667 20 11.6667 20C13.8724 20 15.6667 18.2057 15.6667 16C15.6667 15.3161 15.4937 14.672 15.1896 14.1087L17.1476 12.8356C17.4504 13.1423 17.8696 13.3333 18.3333 13.3333C19.2523 13.3333 20 12.5856 20 11.6667C20 10.7477 19.2523 10 18.3333 10C17.4144 10 16.6667 10.7477 16.6667 11.6667C16.6667 11.882 16.711 12.0866 16.7856 12.2757L14.8231 13.5516C14.4283 13.0437 13.9174 12.6379 13.3333 12.3683L14.9603 7.85808C15.2923 7.94758 15.64 8 16 8ZM9.66667 2.66667C9.11542 2.66667 8.66667 2.21792 8.66667 1.66667C8.66667 1.11542 9.11542 0.666667 9.66667 0.666667C10.2179 0.666667 10.6667 1.11542 10.6667 1.66667C10.6667 2.21792 10.2179 2.66667 9.66667 2.66667ZM0.666667 1.66667C0.666667 1.11542 1.11542 0.666667 1.66667 0.666667C2.21792 0.666667 2.66667 1.11542 2.66667 1.66667C2.66667 2.21792 2.21792 2.66667 1.66667 2.66667C1.11542 2.66667 0.666667 2.21792 0.666667 1.66667ZM1.66667 15.6667C1.11542 15.6667 0.666667 15.2179 0.666667 14.6667C0.666667 14.1154 1.11542 13.6667 1.66667 13.6667C2.21792 13.6667 2.66667 14.1154 2.66667 14.6667C2.66667 15.2179 2.21792 15.6667 1.66667 15.6667ZM4.66667 18.6667C4.11542 18.6667 3.66667 18.2179 3.66667 17.6667C3.66667 17.1154 4.11542 16.6667 4.66667 16.6667C5.21792 16.6667 5.66667 17.1154 5.66667 17.6667C5.66667 18.2179 5.21792 18.6667 4.66667 18.6667ZM18.3333 10.6667C18.8846 10.6667 19.3333 11.1154 19.3333 11.6667C19.3333 12.2179 18.8846 12.6667 18.3333 12.6667C17.7821 12.6667 17.3333 12.2179 17.3333 11.6667C17.3333 11.1154 17.7821 10.6667 18.3333 10.6667ZM14.037 6.688C14.1857 5.917 14.8654 5.33333 15.6667 5.33333H16.3333C17.1346 5.33333 17.8143 5.917 17.963 6.688C17.4117 7.09162 16.7344 7.33333 16 7.33333C15.2656 7.33333 14.5884 7.09167 14.037 6.688ZM16 4.66667C15.4488 4.66667 15 4.21792 15 3.66667C15 3.11542 15.4488 2.66667 16 2.66667C16.5513 2.66667 17 3.11542 17 3.66667C17 4.21792 16.5513 4.66667 16 4.66667ZM16 0.666667C17.838 0.666667 19.3333 2.16196 19.3333 4C19.3333 4.83333 19.0236 5.59471 18.516 6.17971C18.2824 5.56463 17.7954 5.07375 17.1886 4.83138C17.4838 4.53058 17.6667 4.12 17.6667 3.66667C17.6667 2.74771 16.919 2 16 2C15.081 2 14.3333 2.74771 14.3333 3.66667C14.3333 4.11996 14.5162 4.53058 14.8114 4.83138C14.2046 5.07375 13.7176 5.56463 13.484 6.17971C12.9764 5.59471 12.6667 4.83333 12.6667 4C12.6667 2.16196 14.162 0.666667 16 0.666667ZM1.66667 8.66667C1.66667 6.82863 3.16196 5.33333 5 5.33333C6.83804 5.33333 8.33333 6.82863 8.33333 8.66667C8.33333 9.50263 8.02167 10.266 7.51137 10.8517C7.27867 10.2344 6.79071 9.74104 6.18229 9.49804C6.47704 9.19725 6.66 8.78662 6.66 8.33333C6.66 7.41438 5.91229 6.66667 4.99333 6.66667C4.07438 6.66667 3.32667 7.41438 3.32667 8.33333C3.32667 8.78662 3.50958 9.19725 3.80467 9.49804C3.19971 9.73929 2.71342 10.2283 2.479 10.841C1.97429 10.2567 1.66667 9.49775 1.66667 8.66667ZM3.99333 8.33333C3.99333 7.78208 4.44208 7.33333 4.99333 7.33333C5.54458 7.33333 5.99333 7.78208 5.99333 8.33333C5.99333 8.88458 5.54458 9.33333 4.99333 9.33333C4.44208 9.33333 3.99333 8.88458 3.99333 8.33333ZM3.03142 11.3503C3.18162 10.5814 3.86033 10 4.66 10H5.32667C6.12937 10 6.81042 10.5856 6.95704 11.359C6.40675 11.7603 5.73163 12 5 12C4.263 12 3.58367 11.7567 3.03142 11.3503ZM9.69808 18.6836C9.84829 17.9147 10.527 17.3333 11.3267 17.3333H11.9933C12.796 17.3333 13.4771 17.919 13.6237 18.6924C13.0734 19.0936 12.3983 19.3333 11.6667 19.3333C10.9297 19.3333 10.2503 19.09 9.69808 18.6836ZM11.66 16.6667C11.1088 16.6667 10.66 16.2179 10.66 15.6667C10.66 15.1154 11.1088 14.6667 11.66 14.6667C12.2113 14.6667 12.66 15.1154 12.66 15.6667C12.66 16.2179 12.2113 16.6667 11.66 16.6667ZM15 16C15 16.836 14.6883 17.5993 14.178 18.185C13.9453 17.5677 13.4574 17.0744 12.849 16.8314C13.1437 16.5306 13.3267 16.12 13.3267 15.6667C13.3267 14.7477 12.579 14 11.66 14C10.741 14 9.99333 14.7477 9.99333 15.6667C9.99333 16.12 10.1763 16.5306 10.4713 16.8314C9.86637 17.0726 9.38008 17.5617 9.14567 18.1743C8.64096 17.59 8.33333 16.8311 8.33333 16C8.33333 14.162 9.82863 12.6667 11.6667 12.6667C13.5047 12.6667 15 14.162 15 16ZM12.7064 12.1419C12.3743 12.0524 12.0267 12 11.6667 12C10.752 12 9.91063 12.312 9.236 12.8307L7.924 11.3874C8.58938 10.6727 9 9.71792 9 8.66667C9 8.23 8.92742 7.81071 8.79737 7.417L12.4634 5.86325C12.874 6.63967 13.533 7.26271 14.3337 7.63167L12.7064 12.1419Z" fill="black"/>
</g>
<defs>
<clipPath id="clip0_3491_3431">
<rect width="20" height="20" fill="white"/>
</clipPath>
</defs>
</svg>
