<svg width="20" height="20" viewBox="0 0 20 20" fill="none" xmlns="http://www.w3.org/2000/svg">
<g clip-path="url(#clip0_3856_3144)">
<path d="M12.2727 8.1818C12.5236 8.1818 12.7272 7.97815 12.7272 7.72724C12.7272 7.47633 12.5236 7.27268 12.2727 7.27268H8.6363C8.38539 7.27268 8.18174 7.47633 8.18174 7.72724V13.1818C8.18174 13.4327 8.38539 13.6363 8.6363 13.6363C8.88721 13.6363 9.09086 13.4327 9.09086 13.1818V10.9091H11.3636C11.6145 10.9091 11.8181 10.7054 11.8181 10.4545C11.8181 10.2036 11.6145 9.99995 11.3636 9.99995H9.09086V8.1818H12.2727ZM17.7272 12.7273H15.909C15.1572 12.7273 14.5454 12.1155 14.5454 11.3636V9.54544C14.5454 8.7936 15.1572 8.1818 15.909 8.1818H17.7272C17.9781 8.1818 18.1818 7.97815 18.1818 7.72724C18.1818 7.47633 17.9781 7.27268 17.7272 7.27268H15.909C14.6554 7.27272 13.6363 8.29179 13.6363 9.54544V11.3636C13.6363 12.6172 14.6554 13.6363 15.909 13.6363H17.7272C17.9781 13.6363 18.1818 13.4327 18.1818 13.1818C18.1818 12.9309 17.9781 12.7273 17.7272 12.7273ZM2.72719 13.1818V9.22814L5.53083 13.4336C5.57232 13.4959 5.62855 13.547 5.69452 13.5823C5.7605 13.6177 5.83418 13.6362 5.90903 13.6363C5.95266 13.6363 5.99719 13.63 6.04083 13.6172C6.13417 13.5888 6.21591 13.5311 6.27401 13.4527C6.33211 13.3743 6.36349 13.2793 6.36354 13.1817V7.7272C6.36354 7.47629 6.15989 7.27264 5.90898 7.27264C5.65808 7.27264 5.45447 7.47633 5.45447 7.72724V11.6809L2.65083 7.47544C2.53991 7.30907 2.33447 7.23271 2.14083 7.29181C2.04749 7.32026 1.96575 7.37793 1.90765 7.45632C1.84955 7.53472 1.81817 7.6297 1.81812 7.72728V13.1818C1.81812 13.4327 2.02177 13.6364 2.27268 13.6364C2.52358 13.6364 2.72719 13.4327 2.72719 13.1818ZM17.1445 16.4809C15.2863 18.1636 12.8127 19.0909 10.1772 19.0909C7.54356 19.0909 5.06903 18.1636 3.20992 16.4809C3.02447 16.3145 2.73627 16.3273 2.56718 16.5127C2.39898 16.6991 2.41356 16.9864 2.59901 17.1555C4.62627 18.99 7.31809 20 10.1772 20C13.0372 20 15.729 18.99 17.7554 17.1555C17.9409 16.9864 17.9554 16.6991 17.7872 16.5127C17.6172 16.3273 17.3309 16.3145 17.1445 16.4809Z" fill="black"/>
<path d="M6.20349 15.15C6.03529 15.3355 6.04987 15.6237 6.23622 15.7918C7.29167 16.7473 8.69166 17.2727 10.1771 17.2727C11.6644 17.2727 13.0635 16.7464 14.1189 15.7918C14.3044 15.6227 14.3189 15.3355 14.1508 15.1491C13.9798 14.9636 13.6935 14.9509 13.508 15.1172C12.6217 15.9218 11.438 16.3636 10.1771 16.3636C8.91713 16.3636 7.73349 15.9209 6.84529 15.1172C6.66257 14.9509 6.37348 14.9637 6.20349 15.15ZM2.90438 3.63635C3.01347 3.63635 3.12257 3.59728 3.20984 3.51908C5.06894 1.83635 7.54348 0.909077 10.1771 0.909077C12.8117 0.909077 15.2862 1.83635 17.1444 3.51908C17.3308 3.68634 17.6171 3.6727 17.7872 3.48725C17.9554 3.3009 17.9408 3.0136 17.7553 2.8445C15.7299 1.00999 13.038 0 10.1771 0C7.31801 0 4.62619 1.00999 2.59893 2.84455C2.41347 3.01274 2.39984 3.3009 2.5671 3.48729C2.60996 3.5341 2.66206 3.57152 2.72011 3.59717C2.77817 3.62283 2.84091 3.63617 2.90438 3.63635Z" fill="black"/>
<path d="M14.1508 4.85095C14.319 4.6646 14.3044 4.3773 14.1189 4.2082C13.0635 3.25366 11.6644 2.72729 10.1771 2.72729C8.69165 2.72729 7.29166 3.25276 6.23621 4.2082C6.04986 4.3764 6.03622 4.66455 6.20348 4.85001C6.24611 4.89718 6.29814 4.9349 6.35624 4.96073C6.41433 4.98657 6.47719 4.99995 6.54077 5.00001C6.64986 5.00001 6.75895 4.96093 6.84533 4.88274C7.73442 4.07909 8.91805 3.63637 10.1772 3.63637C11.4381 3.63637 12.6208 4.07819 13.5081 4.88274C13.6935 5.05004 13.9807 5.0373 14.1508 4.85095Z" fill="black"/>
</g>
<defs>
<clipPath id="clip0_3856_3144">
<rect width="20" height="20" fill="white"/>
</clipPath>
</defs>
</svg>
