<svg width="24" height="24" viewBox="0 0 24 24" fill="none" xmlns="http://www.w3.org/2000/svg">
<path d="M7.64 19.27H7.75V20.92C7.75 21.4716 7.96914 22.0007 8.35922 22.3908C8.74929 22.7808 9.27835 23 9.83 23H12.76C13.3117 23 13.8407 22.7808 14.2308 22.3908C14.6209 22.0007 14.84 21.4716 14.84 20.92V19.27H15C15.7117 19.27 16.3944 18.988 16.8986 18.4856C17.4028 17.9833 17.6874 17.3017 17.69 16.59V15.5H17.97C18.0708 15.5 18.1674 15.46 18.2387 15.3887C18.31 15.3174 18.35 15.2208 18.35 15.12V13.88C18.35 13.7792 18.31 13.6826 18.2387 13.6113C18.1674 13.54 18.0708 13.5 17.97 13.5H17.69V10.5H17.97C18.0708 10.5 18.1674 10.46 18.2387 10.3887C18.31 10.3174 18.35 10.2208 18.35 10.12V8.87999C18.35 8.77921 18.31 8.68255 18.2387 8.61129C18.1674 8.54003 18.0708 8.49999 17.97 8.49999H17.69V7.40999C17.6874 6.69829 17.4028 6.01665 16.8986 5.51433C16.3944 5.01202 15.7117 4.72999 15 4.72999H14.89V3.07999C14.8901 2.80258 14.8347 2.52796 14.727 2.27229C14.6194 2.01662 14.4617 1.78506 14.2632 1.59124C14.0647 1.39743 13.8295 1.24528 13.5713 1.14374C13.3132 1.0422 13.0373 0.993322 12.76 0.999991H9.83C9.27835 0.999991 8.74929 1.21913 8.35922 1.60921C7.96914 1.99928 7.75 2.52834 7.75 3.07999V4.72999H7.64C6.937 4.74306 6.26705 5.03086 5.77362 5.53176C5.28019 6.03267 5.00249 6.70687 5 7.40999V16.59C5.00249 17.2931 5.28019 17.9673 5.77362 18.4682C6.26705 18.9691 6.937 19.2569 7.64 19.27ZM13.34 20.92C13.34 21.0738 13.2789 21.2213 13.1701 21.3301C13.0614 21.4389 12.9138 21.5 12.76 21.5H9.83C9.67618 21.5 9.52865 21.4389 9.41988 21.3301C9.31111 21.2213 9.25 21.0738 9.25 20.92V19.27H13.34V20.92ZM9.25 3.07999C9.25 2.92617 9.31111 2.77864 9.41988 2.66987C9.52865 2.5611 9.67618 2.49999 9.83 2.49999H12.76C12.9138 2.49999 13.0614 2.5611 13.1701 2.66987C13.2789 2.77864 13.34 2.92617 13.34 3.07999V4.72999H9.25V3.07999ZM6.45 7.40999C6.45264 7.09612 6.57918 6.796 6.80206 6.57499C7.02494 6.35398 7.32612 6.22998 7.64 6.22999H15C15.3139 6.22998 15.6151 6.35398 15.8379 6.57499C16.0608 6.796 16.1874 7.09612 16.19 7.40999V16.59C16.1874 16.9039 16.0608 17.204 15.8379 17.425C15.6151 17.646 15.3139 17.77 15 17.77H7.64C7.32612 17.77 7.02494 17.646 6.80206 17.425C6.57918 17.204 6.45264 16.9039 6.45 16.59V7.40999Z" fill="black"/>
</svg>
