<svg width="20" height="20" viewBox="0 0 20 20" fill="none" xmlns="http://www.w3.org/2000/svg">
<g clip-path="url(#clip0_3491_3251)">
<path d="M15.9532 11.4074L15.1712 10.9559C15.2404 10.6191 15.2734 10.308 15.2734 10C15.2734 9.69199 15.2404 9.38086 15.1713 9.04406L15.9533 8.59258C16.0878 8.51487 16.186 8.38692 16.2263 8.23684C16.2665 8.08672 16.2454 7.92678 16.1677 7.79219L14.9958 5.76246C14.834 5.48219 14.4757 5.38617 14.1954 5.54801L13.4206 5.99539C12.9349 5.58336 12.3712 5.26137 11.7578 5.04566V4.14062C11.7578 3.81703 11.4954 3.55469 11.1719 3.55469H8.82811C8.50451 3.55469 8.24217 3.81703 8.24217 4.14062V5.04566C7.62881 5.26137 7.06506 5.5834 6.57939 5.99539L5.80451 5.54801C5.52424 5.38613 5.16588 5.48223 5.00412 5.76246L3.83225 7.79219C3.75457 7.92677 3.73353 8.08669 3.77374 8.23679C3.81396 8.38688 3.91214 8.51486 4.0467 8.59258L4.82869 9.04406C4.75943 9.38086 4.7265 9.69199 4.7265 10C4.7265 10.308 4.75943 10.6191 4.82861 10.9559L4.04662 11.4074C3.91206 11.4851 3.81386 11.6131 3.77361 11.7632C3.73341 11.9133 3.75447 12.0732 3.83217 12.2078L5.00404 14.2375C5.16588 14.5179 5.52424 14.6139 5.80443 14.452L6.57932 14.0046C7.06502 14.4166 7.62873 14.7386 8.24209 14.9543V15.8594C8.24209 16.183 8.50443 16.4453 8.82803 16.4453H11.1718C11.4954 16.4453 11.7577 16.183 11.7577 15.8594V14.9543C12.3711 14.7386 12.9348 14.4166 13.4205 14.0046L14.1954 14.452C14.4756 14.6138 14.8339 14.5178 14.9958 14.2375L16.1676 12.2078C16.2061 12.1412 16.2311 12.0676 16.2412 11.9913C16.2512 11.915 16.2461 11.8375 16.2262 11.7632C16.2063 11.6889 16.172 11.6192 16.1251 11.5581C16.0783 11.4971 16.0199 11.4459 15.9532 11.4074ZM9.99994 11.7578C9.03068 11.7578 8.24213 10.9693 8.24213 10C8.24213 9.03074 9.03068 8.24219 9.99994 8.24219C10.9692 8.24219 11.7578 9.03074 11.7578 10C11.7578 10.9693 10.9692 11.7578 9.99994 11.7578Z" fill="black"/>
<path d="M18.0136 4.01426L17.185 1.52832C17.0827 1.22133 16.7508 1.05535 16.4438 1.15773C16.1368 1.26008 15.9709 1.59187 16.0732 1.89891L16.1437 2.1102C15.6152 1.70791 15.0497 1.35674 14.4548 1.06141C13.0549 0.367031 11.5145 0 10 0C7.34336 0 4.83617 1.04414 2.9402 2.9402C1.04414 4.83617 0 7.3434 0 10C0 11.227 0.257773 12.4839 0.766055 13.7361C0.858477 13.9637 1.07773 14.1017 1.30914 14.1017C1.38254 14.1017 1.45719 14.0879 1.52938 14.0586C1.82922 13.9368 1.97359 13.5951 1.85188 13.2952C1.40062 12.1838 1.17188 11.0751 1.17188 10C1.17188 5.13215 5.13215 1.17188 10 1.17188C11.7867 1.17188 13.5904 1.76625 15.0889 2.79711C14.8025 2.73832 14.5108 2.90121 14.416 3.18555C14.3137 3.4925 14.4796 3.82438 14.7866 3.92672L17.2725 4.75539C17.3757 4.78978 17.4865 4.79474 17.5924 4.76973C17.6983 4.74473 17.7951 4.69073 17.872 4.61379C17.949 4.53686 18.003 4.44002 18.028 4.33413C18.053 4.22824 18.048 4.11748 18.0136 4.01426ZM19.2339 6.26395C19.1122 5.96406 18.7704 5.8198 18.4706 5.94145C18.1708 6.06316 18.0264 6.40492 18.1481 6.70477C18.5994 7.81621 18.8281 8.92488 18.8281 10C18.8281 14.8679 14.8679 18.8281 10 18.8281C8.21328 18.8281 6.40961 18.2338 4.91105 17.2029C5.19746 17.2616 5.48922 17.0988 5.58402 16.8145C5.68633 16.5075 5.52043 16.1756 5.21344 16.0733L2.7275 15.2446C2.62427 15.2102 2.51348 15.2052 2.40757 15.2302C2.30165 15.2552 2.20479 15.3092 2.12784 15.3861C2.05089 15.4631 1.99689 15.5599 1.97189 15.6658C1.9469 15.7718 1.9519 15.8825 1.98633 15.9858L2.81496 18.4717C2.89684 18.7173 3.12539 18.8726 3.37078 18.8725C3.43219 18.8725 3.49469 18.8628 3.55613 18.8423C3.86313 18.74 4.02902 18.4082 3.92672 18.1012L3.85629 17.8899C4.38476 18.2922 4.95026 18.6433 5.54516 18.9387C6.94512 19.633 8.48555 20 10 20C12.6566 20 15.1638 18.9559 17.0598 17.0598C18.9559 15.1638 20 12.6566 20 10C20 8.77305 19.7422 7.51605 19.2339 6.26395Z" fill="black"/>
</g>
<defs>
<clipPath id="clip0_3491_3251">
<rect width="20" height="20" fill="white"/>
</clipPath>
</defs>
</svg>
