<svg width="20" height="20" viewBox="0 0 20 20" fill="none" xmlns="http://www.w3.org/2000/svg">
<path d="M16.8749 11.7556V10.625H17.4999C17.6657 10.625 17.8246 10.5592 17.9419 10.4419C18.0591 10.3247 18.1249 10.1658 18.1249 10C18.1249 9.83424 18.0591 9.67527 17.9419 9.55806C17.8246 9.44085 17.6657 9.375 17.4999 9.375H16.8749V8.75H17.4999C17.6657 8.75 17.8246 8.68415 17.9419 8.56694C18.0591 8.44973 18.1249 8.29076 18.1249 8.125C18.1249 7.95924 18.0591 7.80027 17.9419 7.68306C17.8246 7.56585 17.6657 7.5 17.4999 7.5H16.8749V6.875H17.4999C17.6657 6.875 17.8246 6.80915 17.9419 6.69194C18.0591 6.57473 18.1249 6.41576 18.1249 6.25C18.1249 6.08424 18.0591 5.92527 17.9419 5.80806C17.8246 5.69085 17.6657 5.625 17.4999 5.625H16.8749V5H17.4999C17.6657 5 17.8246 4.93415 17.9419 4.81694C18.0591 4.69973 18.1249 4.54076 18.1249 4.375C18.1249 4.20924 18.0591 4.05027 17.9419 3.93306C17.8246 3.81585 17.6657 3.75 17.4999 3.75H16.8749V3.125C16.8749 2.09125 16.0337 1.25 14.9999 1.25C13.9662 1.25 13.1249 2.09125 13.1249 3.125V11.7556C12.4586 12.1421 11.9269 12.7237 11.6017 13.4219C11.2765 14.1201 11.1733 14.9013 11.3062 15.66C11.563 17.1494 12.7249 18.3581 14.1987 18.6663C14.4643 18.7225 14.733 18.75 14.9993 18.75C15.4919 18.7513 15.9804 18.655 16.4355 18.4665C16.8906 18.278 17.3038 18.0011 17.6512 17.6519C18.0006 17.3045 18.2776 16.8912 18.4662 16.436C18.6548 15.9808 18.7512 15.4927 18.7499 15C18.7494 14.3423 18.5758 13.6963 18.2467 13.1268C17.9176 12.5574 17.4445 12.0845 16.8749 11.7556ZM16.7674 16.7681C16.5358 17.0009 16.2603 17.1854 15.957 17.3111C15.6536 17.4367 15.3283 17.5009 14.9999 17.5C14.8187 17.5 14.6355 17.4813 14.4543 17.4438C13.4937 17.2419 12.7062 16.4213 12.5387 15.4481C12.4406 14.894 12.5315 14.3229 12.7967 13.8266C13.0619 13.3302 13.486 12.9372 14.0012 12.7106C14.1122 12.6619 14.2067 12.5818 14.2731 12.4803C14.3395 12.3787 14.3748 12.2601 14.3749 12.1388V3.125C14.3749 2.95924 14.4408 2.80027 14.558 2.68306C14.6752 2.56585 14.8342 2.5 14.9999 2.5C15.1657 2.5 15.3246 2.56585 15.4419 2.68306C15.5591 2.80027 15.6249 2.95924 15.6249 3.125V12.1388C15.6249 12.2602 15.6603 12.3791 15.7268 12.4808C15.7933 12.5824 15.888 12.6625 15.9993 12.7113C16.4448 12.9056 16.824 13.2256 17.0905 13.6321C17.357 14.0386 17.4993 14.5139 17.4999 15C17.5009 15.3286 17.4366 15.6542 17.3109 15.9578C17.1851 16.2614 17.0004 16.5364 16.7674 16.7681Z" fill="black"/>
<path d="M15 13.125C13.9663 13.125 13.125 13.9663 13.125 15C13.125 16.0337 13.9663 16.875 15 16.875C16.0338 16.875 16.875 16.0337 16.875 15C16.875 13.9663 16.0338 13.125 15 13.125ZM15 15.625C14.8342 15.6249 14.6752 15.559 14.558 15.4416C14.4407 15.3243 14.3749 15.1652 14.375 14.9994C14.3751 14.8335 14.4411 14.6745 14.5584 14.5573C14.6757 14.4401 14.8348 14.3743 15.0007 14.3744C15.0828 14.3744 15.1641 14.3906 15.2399 14.4221C15.3158 14.4536 15.3847 14.4997 15.4427 14.5577C15.5008 14.6158 15.5468 14.6848 15.5782 14.7607C15.6096 14.8366 15.6257 14.9179 15.6257 15C15.6256 15.0821 15.6094 15.1634 15.5779 15.2393C15.5465 15.3151 15.5004 15.384 15.4423 15.4421C15.3842 15.5001 15.3152 15.5461 15.2394 15.5775C15.1635 15.6089 15.0821 15.625 15 15.625ZM12.4788 8.13062C12.4574 8.05084 12.4204 7.97609 12.37 7.91065C12.3196 7.84522 12.2567 7.79041 12.185 7.74938L11.2688 7.22563C11.2892 6.99232 11.2892 6.75768 11.2688 6.52437L12.185 6.00062C12.2566 5.95957 12.3193 5.90478 12.3696 5.8394C12.42 5.77403 12.4569 5.69936 12.4782 5.61967C12.4996 5.53999 12.505 5.45687 12.4942 5.37509C12.4833 5.29331 12.4564 5.21448 12.415 5.14313L11.1538 2.97812C11.0711 2.835 10.9351 2.73053 10.7755 2.68764C10.6159 2.64475 10.4458 2.66695 10.3025 2.74938L9.37878 3.27875C9.17911 3.14329 8.96885 3.02416 8.75003 2.9225V1.875C8.75003 1.70924 8.68418 1.55027 8.56697 1.43306C8.44976 1.31585 8.29079 1.25 8.12503 1.25H5.62503C5.45927 1.25 5.3003 1.31585 5.18309 1.43306C5.06588 1.55027 5.00003 1.70924 5.00003 1.875V2.92313C4.77878 3.02562 4.56878 3.145 4.37128 3.27938L3.44753 2.74938C3.30424 2.66712 3.1342 2.64501 2.97465 2.68789C2.81509 2.73076 2.67903 2.83513 2.59628 2.97812L1.33503 5.14313C1.29329 5.21439 1.26612 5.29324 1.25509 5.37509C1.24407 5.45695 1.24941 5.54017 1.27081 5.61995C1.2922 5.69972 1.32923 5.77445 1.37974 5.8398C1.43024 5.90514 1.49323 5.95981 1.56503 6.00062L2.48128 6.52437C2.46084 6.75768 2.46084 6.99232 2.48128 7.22563L1.56503 7.74938C1.49347 7.79043 1.43073 7.84522 1.38042 7.9106C1.3301 7.97597 1.29319 8.05064 1.27182 8.13033C1.25045 8.21001 1.24503 8.29313 1.25588 8.37491C1.26673 8.45669 1.29362 8.53552 1.33503 8.60687L2.59628 10.7719C2.67892 10.915 2.81498 11.0195 2.97458 11.0624C3.13418 11.1053 3.30428 11.083 3.44753 11.0006L4.37128 10.4712C4.56878 10.605 4.77878 10.7244 5.00003 10.8275V11.875C5.00003 12.0408 5.06588 12.1997 5.18309 12.3169C5.3003 12.4342 5.45927 12.5 5.62503 12.5H8.12503C8.29079 12.5 8.44976 12.4342 8.56697 12.3169C8.68418 12.1997 8.75003 12.0408 8.75003 11.875V10.8269C8.97128 10.7244 9.18128 10.605 9.37878 10.4706L10.3025 11.0006C10.3734 11.0415 10.4517 11.068 10.5329 11.0787C10.614 11.0893 10.6965 11.0839 10.7755 11.0626C10.8546 11.0414 10.9287 11.0048 10.9936 10.9549C11.0585 10.905 11.1129 10.8428 11.1538 10.7719L12.415 8.60687C12.4566 8.53565 12.4837 8.45688 12.4946 8.37513C12.5055 8.29339 12.5002 8.21028 12.4788 8.13062ZM9.97878 6.30562C10.0163 6.50437 10.0344 6.69063 10.0344 6.875C10.0344 7.05937 10.0157 7.24563 9.97815 7.44438C9.95436 7.57208 9.97095 7.70401 10.0256 7.82185C10.0803 7.93969 10.1703 8.03757 10.2832 8.10188L11.0182 8.52188L10.3857 9.60688L9.6419 9.18188C9.53045 9.11832 9.40216 9.09053 9.27439 9.10226C9.14662 9.114 9.02554 9.1647 8.92753 9.2475C8.64315 9.48875 8.2944 9.685 7.91815 9.8175C7.79601 9.86035 7.69018 9.94006 7.61528 10.0456C7.54038 10.1512 7.50011 10.2774 7.50003 10.4069V11.25H6.25003V10.4069C6.24995 10.2774 6.20968 10.1512 6.13478 10.0456C6.05988 9.94006 5.95405 9.86035 5.8319 9.8175C5.4638 9.68997 5.12183 9.49686 4.82253 9.2475C4.72457 9.16438 4.6034 9.11344 4.47548 9.10158C4.34756 9.08973 4.21909 9.11755 4.10753 9.18125L3.36378 9.60688L2.73253 8.52188L3.4669 8.10188C3.57965 8.03748 3.66954 7.93956 3.72409 7.82173C3.77863 7.7039 3.79513 7.57201 3.77128 7.44438C3.73378 7.24563 3.71565 7.05875 3.71565 6.875C3.71565 6.69125 3.7344 6.50437 3.7719 6.30562C3.7957 6.17792 3.77911 6.04599 3.72445 5.92815C3.66978 5.81031 3.57976 5.71243 3.4669 5.64812L2.73128 5.22812L3.3644 4.14375L4.10815 4.56875C4.21956 4.63249 4.34788 4.66038 4.47569 4.64864C4.6035 4.6369 4.7246 4.58609 4.82253 4.50312C5.12183 4.25377 5.4638 4.06065 5.8319 3.93313C5.95415 3.89024 6.06005 3.81043 6.13496 3.70474C6.20987 3.59904 6.25008 3.47267 6.25003 3.34312V2.5H7.50003V3.34312C7.50011 3.47257 7.54038 3.59879 7.61528 3.70437C7.69018 3.80994 7.79601 3.88965 7.91815 3.9325C8.2944 4.065 8.64315 4.26125 8.92753 4.5025C9.02544 4.5857 9.14662 4.6367 9.27457 4.64855C9.40251 4.66041 9.53099 4.63254 9.64253 4.56875L10.3863 4.14313L11.0175 5.22812L10.2832 5.64812C10.1704 5.71252 10.0805 5.81044 10.026 5.92827C9.97143 6.0461 9.95493 6.17799 9.97878 6.30562Z" fill="black"/>
<path d="M6.875 5C5.84125 5 5 5.84125 5 6.875C5 7.90875 5.84125 8.75 6.875 8.75C7.90875 8.75 8.75 7.90875 8.75 6.875C8.75 5.84125 7.90875 5 6.875 5ZM6.875 7.5C6.70916 7.49992 6.55014 7.43396 6.43293 7.31663C6.31572 7.1993 6.24992 7.04022 6.25 6.87437C6.25008 6.70853 6.31604 6.54951 6.43337 6.4323C6.5507 6.31509 6.70978 6.24929 6.87563 6.24937C7.04147 6.24946 7.20049 6.31542 7.3177 6.43275C7.43491 6.55007 7.50071 6.70916 7.50063 6.875C7.50054 7.04084 7.43458 7.19986 7.31725 7.31707C7.19993 7.43428 7.04084 7.50008 6.875 7.5Z" fill="black"/>
</svg>
