<svg xmlns="http://www.w3.org/2000/svg" width="25" height="24" viewBox="0 0 25 24" fill="none">
  <g clip-path="url(#clip0_3108_355)">
    <path fill-rule="evenodd" clip-rule="evenodd" d="M12.0308 0C18.6582 0 24.0308 5.37258 24.0308 12C24.0308 18.6274 18.6582 24 12.0308 24C5.40334 24 0.0307617 18.6274 0.0307617 12C0.0307617 5.37258 5.40334 0 12.0308 0ZM19.0761 17.5517C19.2475 17.3793 19.3438 17.1461 19.3438 16.903C19.3438 16.6599 19.2475 16.4266 19.0761 16.2543L16.7271 13.9058C16.5547 13.7343 16.3214 13.638 16.0781 13.638C15.8349 13.638 15.6016 13.7343 15.4292 13.9058L14.7909 14.5444C14.5789 14.7582 14.3036 14.8977 14.0059 14.9423C13.7082 14.9869 13.404 14.9341 13.1387 14.7919C11.4777 13.9121 10.1191 12.5537 9.23907 10.8927C9.09676 10.6273 9.04393 10.3231 9.08844 10.0254C9.13295 9.72758 9.27243 9.45213 9.48611 9.24L10.1256 8.60156C10.2971 8.42914 10.3933 8.19586 10.3933 7.9527C10.3933 7.70953 10.2971 7.47625 10.1256 7.30383L7.77667 4.95563C7.60425 4.78405 7.3709 4.68774 7.12766 4.68774C6.88442 4.68774 6.65107 4.78405 6.47865 4.95563C6.38157 5.05242 6.25876 5.16937 6.12742 5.29313C5.79896 5.60358 5.38918 5.98997 5.22353 6.23287C4.35104 7.5097 4.76945 9.21792 5.27209 10.4263C5.93607 12.0189 7.15979 13.7544 8.71909 15.3126C10.277 16.8706 12.0119 18.0945 13.6054 18.7585C14.8135 19.2618 16.5211 19.6792 17.7978 18.8069C18.0406 18.6411 18.4276 18.2323 18.7374 17.9034C18.8617 17.7723 18.9787 17.6484 19.0761 17.5517Z" fill="#6CDC2D"/>
  </g>
  <defs>
    <clipPath id="clip0_3108_355">
      <rect width="24" height="24" fill="white" transform="translate(0.0307617)"/>
    </clipPath>
  </defs>
</svg>