<?xml version="1.0" encoding="UTF-8"?>
<svg width="1200pt" height="1200pt" version="1.1" viewBox="0 0 1200 1200" xmlns="http://www.w3.org/2000/svg">
 <g fill="rgb(54, 98, 227)">
  <path d="m600.05 45.527c-326.93 0-592.93 236.51-592.93 527.21 0 123.56 48.555 242.46 137 337l-101.93 204.68c-0.29688 0.57422-0.42578 1.1797-0.68359 1.7891-0.38672 0.96094-0.8125 1.9219-1.1094 2.918-0.23828 0.83203-0.37109 1.6602-0.51562 2.4922-0.18359 0.94141-0.38672 1.8633-0.46094 2.8047-0.074219 0.90625-0.035156 1.8086-0.019532 2.6953 0.019532 0.88672 0 1.7891 0.09375 2.6953 0.10938 0.99609 0.35156 1.957 0.57422 2.9336 0.14844 0.66406 0.18359 1.3125 0.38672 1.957 0.035156 0.10938 0.10938 0.18359 0.14844 0.29688 0.79297 2.5273 1.9922 4.8906 3.4727 7.1094 0.3125 0.44141 0.58984 0.88672 0.92188 1.293 1.5312 2.0312 3.3047 3.8945 5.3906 5.4648 0.29688 0.22266 0.60938 0.37109 0.88672 0.57422 1.0898 0.73828 2.1406 1.5156 3.3594 2.1055 0.79297 0.38672 1.6445 0.57422 2.4727 0.88672 0.71875 0.29687 1.4023 0.55469 2.1406 0.77344 2.5664 0.73828 5.1328 1.2383 7.7188 1.2383 0.035156 0 0.09375-0.019531 0.12891-0.019531 2.5859-0.019531 5.1328-0.40625 7.5859-1.125 0.074219-0.019531 0.16797-0.019531 0.23828-0.035156l304.48-91.199c70.191 25.035 144.31 37.863 220.62 37.863 326.88 0 592.82-236.51 592.82-527.21 0.019531-290.68-265.92-527.19-592.8-527.19zm0 999.03c-72.922 0-143.67-12.629-210.28-37.516-0.23828-0.09375-0.46094-0.10937-0.70312-0.18359-1.0156-0.37109-2.0508-0.57422-3.1016-0.8125-0.71875-0.16797-1.4414-0.37109-2.1602-0.44141-1.0352-0.14844-2.0664-0.16797-3.1016-0.18359-0.77344-0.019531-1.5508-0.074219-2.3242-0.019531-0.92188 0.054687-1.8477 0.23828-2.75 0.38672-0.90625 0.16797-1.8281 0.29688-2.6953 0.53516-0.25781 0.074219-0.51562 0.074219-0.77344 0.14844l-251.89 75.453 82.152-164.99c0.25781-0.51563 0.38672-1.0703 0.58984-1.5859 0.14844-0.33203 0.23828-0.62891 0.37109-0.97656 1.1992-3.1367 1.8086-6.3711 1.8477-9.6016 0-0.20312-0.019531-0.38672-0.019531-0.58984-0.054688-3.3984-0.70312-6.6836-1.9375-9.8047-0.074219-0.18359-0.14844-0.35156-0.23828-0.51562-1.3477-3.2109-3.2852-6.1289-5.7773-8.6602-0.054687-0.074218-0.074219-0.16797-0.14844-0.22266-86.805-86.289-134.6-197.17-134.6-312.26 0-260.16 241.14-471.82 537.54-471.82 296.34 0 537.43 211.66 537.43 471.82-0.003907 260.18-241.09 471.84-537.44 471.84z"/>
  <path d="m807.47 436.17c0 30.383-24.633 55.016-55.016 55.016-30.387 0-55.016-24.633-55.016-55.016s24.629-55.016 55.016-55.016c30.383 0 55.016 24.633 55.016 55.016"/>
  <path d="m502.52 436.17c0 30.383-24.633 55.016-55.016 55.016-30.383 0-55.016-24.633-55.016-55.016s24.633-55.016 55.016-55.016c30.383 0 55.016 24.633 55.016 55.016"/>
  <path d="m770.7 703.09c-103.64 44.863-237.66 44.879-341.39 0-14.066-6.1094-30.332 0.38672-36.406 14.418-6.0742 14.051 0.38672 30.352 14.438 36.426 58.523 25.312 125.61 37.977 192.7 37.977 67.09 0 134.16-12.664 192.66-37.977 14.051-6.0742 20.492-22.375 14.418-36.426-6.0742-14.031-22.34-20.512-36.426-14.418z"/>
 </g>
</svg>
