<svg width="20" height="20" viewBox="0 0 20 20" fill="none" xmlns="http://www.w3.org/2000/svg">
<g clip-path="url(#clip0_3891_470)">
<path d="M9.58343 7.08331V8.46143C9.33897 8.6069 9.16675 8.86229 9.16675 9.16663C9.16675 9.626 9.54069 9.99995 10.0001 9.99995C10.4594 9.99995 10.8334 9.626 10.8334 9.16663C10.8334 8.86225 10.6612 8.6069 10.4167 8.46143V7.08331C10.4167 6.85299 10.2303 6.66663 10 6.66663C9.76972 6.66663 9.58343 6.85303 9.58343 7.08331Z" fill="black"/>
<path d="M17.0833 0C15.448 0 14.1666 1.46402 14.1666 3.33332C14.1666 4.67477 15.1784 7.05113 16.6666 7.43961V15.4166C16.6666 17.4845 14.9845 19.1666 12.9166 19.1666C10.9267 19.1666 9.3098 17.6043 9.18965 15.6441C10.4962 15.4779 11.6666 15.167 11.6666 14.5833V12.9801C13.1355 12.3353 14.1666 10.8708 14.1666 9.1666C14.1666 7.46238 13.1355 5.99789 11.6666 5.35312V2.91668C11.6666 1.72691 6.80742 1.66668 5.83332 1.66668C4.85922 1.66668 0 1.72688 0 2.91668V14.5834C0 15.7731 4.85922 15.8334 5.83332 15.8334C6.22793 15.8334 7.2609 15.8221 8.34926 15.7312C8.51211 18.1117 10.4955 20 12.9167 20C15.4439 20 17.5 17.9439 17.5 15.4167V7.43961C18.9882 7.05113 20 4.67477 20 3.33332C20 1.46402 18.7187 0 17.0833 0ZM13.3333 9.16668C13.3333 11.0046 11.838 12.5 10 12.5C8.16203 12.5 6.66668 11.0046 6.66668 9.16668C6.66668 7.32871 8.16203 5.83336 10 5.83336C11.838 5.83336 13.3333 7.32871 13.3333 9.16668ZM5.83332 2.5C7.8125 2.5 9.54063 2.70996 10.3861 2.91668C9.54063 3.12336 7.8125 3.33332 5.83332 3.33332C3.85414 3.33332 2.12605 3.12336 1.28051 2.91664C2.12605 2.70996 3.85418 2.5 5.83332 2.5ZM2.5 14.7954C1.66855 14.687 1.06426 14.5534 0.83332 14.4385V3.63234C1.28555 3.79035 1.87637 3.90223 2.5 3.98066V14.7954ZM5.83332 15C4.92652 15 4.07398 14.9555 3.33332 14.8879V4.06586C4.41578 4.15547 5.44066 4.16668 5.83332 4.16668C6.55457 4.16668 9.40164 4.13238 10.8333 3.63238V5.08426C10.5591 5.02824 10.2799 5.00001 10 5C7.70262 5 5.83332 6.8693 5.83332 9.16668C5.83332 11.4641 7.70266 13.3333 10 13.3333C10.2854 13.3333 10.564 13.304 10.8333 13.2491V14.4385C10.3532 14.6773 8.28613 15 5.83332 15ZM17.0833 6.66668C16.0295 6.66668 15 4.5577 15 3.33336C15 1.9316 15.9151 0.833359 17.0833 0.833359C18.2515 0.833359 19.1666 1.9316 19.1666 3.33336C19.1667 4.5577 18.1372 6.66668 17.0833 6.66668Z" fill="black"/>
</g>
<defs>
<clipPath id="clip0_3891_470">
<rect width="20" height="20" fill="white"/>
</clipPath>
</defs>
</svg>
