<svg width="20" height="20" viewBox="0 0 20 20" fill="none" xmlns="http://www.w3.org/2000/svg">
<path d="M18.4375 15H12.6294L16.25 11.3794V12.0312C16.25 12.1141 16.2829 12.1936 16.3415 12.2522C16.4001 12.3108 16.4796 12.3437 16.5625 12.3437C16.6454 12.3437 16.7249 12.3108 16.7835 12.2522C16.8421 12.1936 16.875 12.1141 16.875 12.0312V10.625C16.8775 10.4578 16.73 10.3094 16.5625 10.3125H15.1562C15.0734 10.3125 14.9939 10.3454 14.9353 10.404C14.8767 10.4626 14.8438 10.5421 14.8438 10.625C14.8438 10.7079 14.8767 10.7874 14.9353 10.846C14.9939 10.9046 15.0734 10.9375 15.1562 10.9375H15.8081L11.875 14.8706L10.4419 13.4375L12.5 11.3794V12.0312C12.5063 12.4422 13.1187 12.4419 13.125 12.0312C13.1203 11.9953 13.1453 10.4781 13.1009 10.5056C13.0771 10.4487 13.037 10.4 12.9858 10.3657C12.9345 10.3314 12.8742 10.3128 12.8125 10.3125H11.4062C10.9953 10.3203 10.9956 10.9303 11.4062 10.9375H12.0581L10 12.9956L7.40844 10.4041C7.12156 10.1175 6.67687 10.5547 6.96656 10.8459L9.55813 13.4375L8.125 14.8706L3.65844 10.4041C3.62961 10.3742 3.59513 10.3504 3.557 10.334C3.51888 10.3176 3.47787 10.309 3.43638 10.3087C3.39488 10.3083 3.35373 10.3162 3.31533 10.3319C3.27692 10.3476 3.24203 10.3708 3.21269 10.4002C3.18335 10.4295 3.16014 10.4644 3.14443 10.5028C3.12872 10.5412 3.12081 10.5824 3.12117 10.6239C3.12153 10.6654 3.13015 10.7064 3.14653 10.7445C3.16291 10.7826 3.18672 10.8171 3.21656 10.8459L7.37063 15H1.5625C1.47962 15 1.40013 15.0329 1.34153 15.0915C1.28292 15.1501 1.25 15.2296 1.25 15.3125V18.4375C1.25 18.5204 1.28292 18.5999 1.34153 18.6585C1.40013 18.7171 1.47962 18.75 1.5625 18.75H18.4375C18.5204 18.75 18.5999 18.7171 18.6585 18.6585C18.7171 18.5999 18.75 18.5204 18.75 18.4375V15.3125C18.75 15.2296 18.7171 15.1501 18.6585 15.0915C18.5999 15.0329 18.5204 15 18.4375 15ZM10 13.8794L11.1206 15H8.87937L10 13.8794ZM18.125 16.25H3.125C3.04212 16.25 2.96263 16.2829 2.90403 16.3415C2.84542 16.4001 2.8125 16.4796 2.8125 16.5625C2.8125 16.6454 2.84542 16.7249 2.90403 16.7835C2.96263 16.8421 3.04212 16.875 3.125 16.875H18.125V18.125H1.875V15.625H18.125V16.25ZM12.0897 7.03187C12.1636 7.06904 12.2492 7.07551 12.3279 7.04987C12.4065 7.02424 12.4719 6.96857 12.5097 6.89499C12.7089 6.50128 12.8126 6.06622 12.8125 5.62499C12.8125 4.16281 10.4931 1.63312 10.2284 1.34937C10.1106 1.22249 9.88937 1.22249 9.77156 1.34937C9.50688 1.63312 7.1875 4.16281 7.1875 5.62499C7.13969 7.67468 9.46875 9.09687 11.27 8.13437C11.3438 8.09674 11.3996 8.03133 11.4252 7.95254C11.4508 7.87375 11.444 7.78802 11.4064 7.71421C11.3688 7.64041 11.3034 7.58457 11.2246 7.55899C11.1458 7.53341 11.0601 7.54018 10.9862 7.57781C10.6805 7.73241 10.3426 7.81281 10 7.81249C8.79375 7.81249 7.8125 6.83124 7.8125 5.62499C7.8125 4.69593 9.22813 2.90187 10 2.02812C10.7719 2.90187 12.1875 4.69593 12.1875 5.62499C12.1875 5.96874 12.1062 6.30968 11.9528 6.61124C11.9152 6.68517 11.9085 6.77102 11.9341 6.8499C11.9598 6.92878 12.0158 6.99423 12.0897 7.03187Z" fill="black"/>
</svg>
