<svg width="20" height="20" viewBox="0 0 20 20" fill="none" xmlns="http://www.w3.org/2000/svg">
<path d="M13.5938 3.73048C12.6287 2.61597 11.5426 1.61239 10.3555 0.738289C10.2504 0.664673 10.1252 0.625183 9.99687 0.625183C9.86857 0.625183 9.74337 0.664673 9.63828 0.738289C8.45332 1.61276 7.36931 2.61632 6.40625 3.73048C4.25859 6.19688 3.125 8.79688 3.125 11.25C3.125 13.0734 3.84933 14.8221 5.13864 16.1114C6.42795 17.4007 8.17664 18.125 10 18.125C11.8234 18.125 13.572 17.4007 14.8614 16.1114C16.1507 14.8221 16.875 13.0734 16.875 11.25C16.875 8.79688 15.7414 6.19688 13.5938 3.73048ZM14.6742 14.375H5.32578C5.0663 13.9859 4.85634 13.566 4.70078 13.125H15.3023C15.1458 13.5662 14.9348 13.9861 14.6742 14.375ZM15.625 11.25C15.6249 11.4589 15.6129 11.6675 15.5891 11.875H4.41094C4.38713 11.6675 4.37513 11.4589 4.375 11.25C4.375 11.0417 4.38438 10.8333 4.40313 10.625H15.5969C15.6156 10.8333 15.625 11.0417 15.625 11.25ZM10 2.03126C11.1062 2.89845 14.4422 5.76095 15.3781 9.37501H4.62188C5.55781 5.76251 8.89375 2.90001 10 2.03126ZM6.46953 15.625H13.5305C12.5315 16.4337 11.2852 16.8749 10 16.8749C8.71476 16.8749 7.46847 16.4337 6.46953 15.625Z" fill="black"/>
</svg>
