<svg width="20" height="20" viewBox="0 0 20 20" fill="none" xmlns="http://www.w3.org/2000/svg">
<g clip-path="url(#clip0_3852_2363)">
<path d="M11.875 11.25C11.7554 11.2503 11.637 11.2736 11.5262 11.3187C11.4942 11.1935 11.4363 11.0764 11.3562 10.9751C11.276 10.8737 11.1755 10.7903 11.061 10.7303C10.9466 10.6703 10.8208 10.635 10.6919 10.6267C10.5629 10.6184 10.4337 10.6373 10.3125 10.6822V8.74999C10.3125 8.50135 10.2137 8.26289 10.0379 8.08707C9.86208 7.91126 9.62362 7.81249 9.37498 7.81249C9.12634 7.81249 8.88788 7.91126 8.71207 8.08707C8.53625 8.26289 8.43748 8.50135 8.43748 8.74999V13.8619L8.29967 13.7056C8.28808 13.6926 8.27543 13.6806 8.26186 13.6697C8.03809 13.4947 7.75773 13.4082 7.47426 13.4267C7.19079 13.4452 6.92405 13.5674 6.72492 13.77C6.5258 13.9726 6.40823 14.2414 6.39464 14.5251C6.38104 14.8089 6.47238 15.0877 6.65123 15.3084L8.16154 17.5625C8.17296 17.5794 8.18593 17.5952 8.20029 17.6097C8.3981 17.8078 8.62395 17.9757 8.87061 18.1081V19.6875H9.49561V17.9119C9.49563 17.8507 9.47773 17.791 9.44412 17.7399C9.41052 17.6889 9.36269 17.6488 9.30654 17.6247C9.06741 17.5192 8.84949 17.371 8.66342 17.1875L7.16123 14.9459C7.15438 14.935 7.14676 14.9245 7.13842 14.9147C7.05632 14.8182 7.01104 14.6957 7.01061 14.569C7.01003 14.4712 7.03665 14.3751 7.0875 14.2915C7.13834 14.2079 7.21141 14.1401 7.29856 14.0956C7.3857 14.0511 7.48349 14.0317 7.58103 14.0395C7.67856 14.0474 7.772 14.0821 7.85092 14.14L8.51623 14.8928C8.55819 14.9401 8.6135 14.9735 8.67486 14.9887C8.73623 15.0039 8.80076 15.0002 8.85993 14.9779C8.91911 14.9557 8.97015 14.916 9.00631 14.8642C9.04247 14.8123 9.06206 14.7507 9.06248 14.6875V8.74999C9.06248 8.66711 9.0954 8.58762 9.15401 8.52902C9.21261 8.47041 9.2921 8.43749 9.37498 8.43749C9.45786 8.43749 9.53735 8.47041 9.59595 8.52902C9.65456 8.58762 9.68748 8.66711 9.68748 8.74999V13.4375H10.3125V11.5625C10.3125 11.4796 10.3454 11.4001 10.404 11.3415C10.4626 11.2829 10.5421 11.25 10.625 11.25C10.7079 11.25 10.7873 11.2829 10.846 11.3415C10.9046 11.4001 10.9375 11.4796 10.9375 11.5625V13.4375H11.5625V12.1875C11.5625 12.1046 11.5954 12.0251 11.654 11.9665C11.7126 11.9079 11.7921 11.875 11.875 11.875C11.9579 11.875 12.0373 11.9079 12.096 11.9665C12.1546 12.0251 12.1875 12.1046 12.1875 12.1875V13.4375H12.8125V12.8125C12.8125 12.7296 12.8454 12.6501 12.904 12.5915C12.9626 12.5329 13.0421 12.5 13.125 12.5C13.2079 12.5 13.2873 12.5329 13.346 12.5915C13.4046 12.6501 13.4375 12.7296 13.4375 12.8125L13.4319 15.4565C13.4424 15.8527 13.3472 16.2446 13.1561 16.5917C12.9649 16.9389 12.6848 17.2289 12.3444 17.4319C12.2968 17.4593 12.2573 17.4988 12.2299 17.5464C12.2025 17.5939 12.1881 17.6479 12.1881 17.7028V19.6875H12.8131V17.875C13.2049 17.6065 13.5237 17.2448 13.7408 16.8225C13.958 16.4002 14.0667 15.9304 14.0572 15.4556L14.0625 12.8125C14.0632 12.6591 14.0261 12.5078 13.9545 12.3721C13.8828 12.2364 13.7789 12.1205 13.6518 12.0345C13.5247 11.9485 13.3784 11.8952 13.2258 11.8792C13.0732 11.8632 12.919 11.885 12.7769 11.9428C12.7232 11.7444 12.6059 11.5692 12.443 11.444C12.28 11.3188 12.0805 11.2507 11.875 11.25ZM10.664 7.74686C10.7414 7.57051 10.7813 7.38004 10.7812 7.18749C10.7817 6.97829 10.7355 6.77161 10.646 6.58252C10.5565 6.39343 10.426 6.22669 10.2639 6.09446C10.1018 5.96222 9.9122 5.86782 9.70898 5.81813C9.50577 5.76845 9.29403 5.76472 9.08919 5.80724C8.88436 5.84976 8.69159 5.93744 8.52494 6.06389C8.35828 6.19035 8.22194 6.3524 8.12585 6.53823C8.02976 6.72405 7.97634 6.92898 7.96949 7.13807C7.96263 7.34716 8.00252 7.55514 8.08623 7.74686C8.22706 7.56626 8.40421 7.41722 8.60623 7.30936C8.59875 7.26915 8.59457 7.22838 8.59373 7.18749C8.59171 7.07851 8.6125 6.97032 8.65479 6.86987C8.69707 6.76942 8.75991 6.67892 8.83926 6.6042C8.91861 6.52949 9.01271 6.4722 9.11552 6.43602C9.21833 6.39984 9.32758 6.38558 9.43623 6.39414C9.54488 6.4027 9.65054 6.43391 9.74642 6.48574C9.84229 6.53758 9.92626 6.6089 9.99292 6.69513C10.0596 6.78136 10.1075 6.88058 10.1335 6.98642C10.1595 7.09225 10.1631 7.20237 10.144 7.30967C10.346 7.4175 10.5231 7.56643 10.664 7.74686Z" fill="black"/>
<path d="M7.59063 5.03375C7.45502 4.95953 7.29615 4.94003 7.14663 4.97926C6.9971 5.01849 6.86827 5.11346 6.78656 5.24469L6.33313 5.99469C6.29306 6.06063 6.26686 6.13404 6.25611 6.21044C6.24537 6.28684 6.25031 6.36463 6.27063 6.43906C6.29088 6.51508 6.32644 6.58615 6.37513 6.64795C6.42381 6.70974 6.48459 6.76095 6.55375 6.79844L6.69281 6.87531C6.66604 7.08279 6.66604 7.29284 6.69281 7.50031L6.55375 7.57719C6.48459 7.61468 6.42381 7.66588 6.37513 7.72768C6.32644 7.78947 6.29088 7.86055 6.27063 7.93656C6.25024 8.01104 6.24527 8.08889 6.25602 8.16535C6.26677 8.24181 6.293 8.31528 6.33313 8.38125L6.78594 9.13125C6.8676 9.26261 6.99647 9.35771 7.14607 9.397C7.29567 9.43629 7.45464 9.41679 7.59031 9.3425L7.73438 9.26062V8.75C7.73438 8.71 7.74344 8.67281 7.74625 8.63344C7.64451 8.63102 7.54386 8.65491 7.45406 8.70281L7.30688 8.78375L6.89469 8.10125L7.01813 8.03312C7.12078 7.97778 7.20421 7.89258 7.25739 7.78879C7.31056 7.68501 7.33098 7.56752 7.31594 7.45188C7.30339 7.36431 7.29712 7.27596 7.29719 7.1875C7.29719 7.09892 7.30366 7.01045 7.31656 6.92281C7.33141 6.80723 7.3109 6.68986 7.25774 6.58616C7.20458 6.48247 7.12126 6.3973 7.01875 6.34188L6.89375 6.27375L7.30594 5.59125L7.45312 5.67219C7.55577 5.72727 7.67195 5.75205 7.78814 5.74364C7.90433 5.73523 8.01573 5.69397 8.10938 5.62469C8.25137 5.52051 8.40592 5.43463 8.56938 5.36906C8.68012 5.32734 8.77572 5.25319 8.84368 5.1563C8.91164 5.05941 8.9488 4.94428 8.95031 4.82594V4.6875H9.79625V4.82594C9.79772 4.9442 9.83479 5.05928 9.90263 5.15616C9.97047 5.25305 10.0659 5.32724 10.1766 5.36906C10.3409 5.43461 10.4963 5.5206 10.6391 5.625C10.7326 5.69444 10.844 5.73581 10.9602 5.74428C11.0765 5.75275 11.1927 5.72796 11.2953 5.67281L11.4422 5.59187L11.8547 6.27437L11.7297 6.3425C11.6271 6.39791 11.5437 6.48312 11.4905 6.58689C11.4374 6.69066 11.4169 6.80811 11.4319 6.92375C11.4445 7.01131 11.4509 7.09966 11.4509 7.18813C11.4509 7.27671 11.4445 7.36517 11.4316 7.45281C11.4168 7.56839 11.4374 7.68572 11.4905 7.7894C11.5437 7.89308 11.6269 7.97826 11.7294 8.03375L11.8544 8.10188L11.4419 8.78438L11.295 8.70344C11.2051 8.65551 11.1043 8.63161 11.0025 8.63406C11.0053 8.67344 11.0144 8.71063 11.0144 8.75063V9.2625L11.1584 9.34188C11.294 9.41609 11.4529 9.43559 11.6024 9.39637C11.752 9.35714 11.8808 9.26217 11.9625 9.13094L12.4159 8.38094C12.4559 8.31497 12.4821 8.24156 12.4928 8.16517C12.5036 8.08878 12.4987 8.011 12.4784 7.93656C12.4581 7.86056 12.4224 7.7895 12.3737 7.72772C12.325 7.66593 12.2642 7.61472 12.195 7.57719L12.0584 7.5C12.0852 7.29253 12.0852 7.08247 12.0584 6.875L12.1975 6.79812C12.2667 6.7606 12.3275 6.70938 12.3762 6.6476C12.4249 6.58581 12.4606 6.51475 12.4809 6.43875C12.5012 6.36427 12.5062 6.28643 12.4954 6.20998C12.4847 6.13353 12.4585 6.06006 12.4184 5.99406L11.9656 5.24406C11.8841 5.11258 11.7552 5.01739 11.6055 4.97809C11.4559 4.93879 11.2969 4.95837 11.1613 5.03281L11.0097 5.11906C10.8287 4.98681 10.6322 4.87715 10.4247 4.7925V4.64406C10.4225 4.48788 10.3585 4.33893 10.2467 4.2299C10.1348 4.12087 9.98431 4.06066 9.82812 4.0625H8.92188C8.76599 4.06133 8.61599 4.12197 8.50471 4.23114C8.39343 4.34031 8.32994 4.48912 8.32812 4.645V4.79375C8.12203 4.875 7.92927 4.98665 7.75625 5.125L7.59063 5.03375ZM18.125 0.3125C17.816 0.3125 17.5139 0.404139 17.2569 0.575829C17 0.747518 16.7997 0.991548 16.6814 1.27706C16.5632 1.56257 16.5322 1.87673 16.5925 2.17983C16.6528 2.48292 16.8016 2.76133 17.0201 2.97985C17.2387 3.19837 17.5171 3.34719 17.8202 3.40748C18.1233 3.46777 18.4374 3.43682 18.7229 3.31856C19.0085 3.2003 19.2525 3.00003 19.4242 2.74308C19.5959 2.48613 19.6875 2.18403 19.6875 1.875C19.687 1.46075 19.5222 1.06361 19.2293 0.770694C18.9364 0.477776 18.5392 0.312996 18.125 0.3125ZM18.125 2.8125C17.9396 2.8125 17.7583 2.75752 17.6042 2.6545C17.45 2.55149 17.3298 2.40507 17.2589 2.23377C17.1879 2.06246 17.1693 1.87396 17.2055 1.6921C17.2417 1.51025 17.331 1.3432 17.4621 1.21209C17.5932 1.08098 17.7602 0.991687 17.9421 0.955514C18.124 0.91934 18.3125 0.937906 18.4838 1.00886C18.6551 1.07982 18.8015 1.19998 18.9045 1.35415C19.0075 1.50832 19.0625 1.68958 19.0625 1.875C19.0625 2.12364 18.9637 2.3621 18.7879 2.53791C18.6121 2.71373 18.3736 2.8125 18.125 2.8125ZM1.875 13.125C2.18403 13.125 2.48613 13.0334 2.74308 12.8617C3.00003 12.69 3.2003 12.446 3.31856 12.1604C3.43682 11.8749 3.46777 11.5608 3.40748 11.2577C3.34719 10.9546 3.19837 10.6762 2.97985 10.4576C2.76133 10.2391 2.48292 10.0903 2.17983 10.03C1.87673 9.96973 1.56257 10.0007 1.27706 10.1189C0.991548 10.2372 0.747518 10.4375 0.575829 10.6944C0.404139 10.9514 0.3125 11.2535 0.3125 11.5625C0.312996 11.9767 0.477776 12.3739 0.770694 12.6668C1.06361 12.9597 1.46075 13.1245 1.875 13.125ZM1.875 10.625C2.06042 10.625 2.24168 10.68 2.39585 10.783C2.55002 10.886 2.67018 11.0324 2.74114 11.2037C2.81209 11.375 2.83066 11.5635 2.79449 11.7454C2.75831 11.9273 2.66902 12.0943 2.53791 12.2254C2.4068 12.3565 2.23975 12.4458 2.0579 12.482C1.87604 12.5182 1.68754 12.4996 1.51623 12.4286C1.34493 12.3577 1.19851 12.2375 1.0955 12.0833C0.992483 11.9292 0.9375 11.7479 0.9375 11.5625C0.9375 11.3139 1.03627 11.0754 1.21209 10.8996C1.3879 10.7238 1.62636 10.625 1.875 10.625ZM17.1875 9.0625C16.9403 9.0625 16.6986 9.13581 16.493 9.27316C16.2875 9.41051 16.1273 9.60574 16.0326 9.83415C15.938 10.0626 15.9133 10.3139 15.9615 10.5564C16.0097 10.7988 16.1288 11.0216 16.3036 11.1964C16.4784 11.3712 16.7012 11.4903 16.9436 11.5385C17.1861 11.5867 17.4374 11.562 17.6659 11.4674C17.8943 11.3727 18.0895 11.2125 18.2268 11.007C18.3642 10.8014 18.4375 10.5597 18.4375 10.3125C18.4375 9.98098 18.3058 9.66304 18.0714 9.42862C17.837 9.1942 17.519 9.0625 17.1875 9.0625ZM17.1875 10.9375C17.0639 10.9375 16.943 10.9008 16.8403 10.8322C16.7375 10.7635 16.6574 10.6659 16.6101 10.5517C16.5628 10.4375 16.5504 10.3118 16.5745 10.1906C16.5986 10.0693 16.6581 9.95797 16.7456 9.87056C16.833 9.78315 16.9443 9.72363 17.0656 9.69951C17.1868 9.67539 17.3125 9.68777 17.4267 9.73507C17.5409 9.78238 17.6385 9.86249 17.7072 9.96527C17.7758 10.068 17.8125 10.1889 17.8125 10.3125C17.8125 10.4783 17.7467 10.6372 17.6294 10.7544C17.5122 10.8717 17.3533 10.9375 17.1875 10.9375ZM3.4375 0.3125C3.19027 0.3125 2.9486 0.385811 2.74304 0.523163C2.53748 0.660515 2.37726 0.855738 2.28265 1.08415C2.18804 1.31255 2.16329 1.56389 2.21152 1.80636C2.25975 2.04884 2.3788 2.27157 2.55362 2.44638C2.72843 2.6212 2.95116 2.74025 3.19364 2.78848C3.43611 2.83671 3.68745 2.81196 3.91585 2.71735C4.14426 2.62274 4.33949 2.46252 4.47684 2.25696C4.61419 2.0514 4.6875 1.80973 4.6875 1.5625C4.6875 1.23098 4.5558 0.913037 4.32138 0.678617C4.08696 0.444196 3.76902 0.3125 3.4375 0.3125ZM3.4375 2.1875C3.31389 2.1875 3.19305 2.15084 3.09027 2.08217C2.98749 2.01349 2.90738 1.91588 2.86008 1.80168C2.81277 1.68747 2.80039 1.56181 2.82451 1.44057C2.84862 1.31933 2.90815 1.20797 2.99556 1.12056C3.08297 1.03315 3.19433 0.973625 3.31557 0.949509C3.43681 0.925393 3.56247 0.937771 3.67668 0.985075C3.79088 1.03238 3.88849 1.11249 3.95717 1.21527C4.02584 1.31805 4.0625 1.43889 4.0625 1.5625C4.0625 1.72826 3.99665 1.88723 3.87944 2.00444C3.76223 2.12165 3.60326 2.1875 3.4375 2.1875ZM3.59281 10.0394L5.77969 8.79L6.08969 9.3325L3.90281 10.5819L3.59281 10.0394ZM4.97687 2.91375L5.3325 2.4L7.36344 3.80594L7.00781 4.31969L4.97687 2.91375ZM12.65 5.05063L16.0891 2.86281L16.4247 3.39031L12.9856 5.57812L12.65 5.05063ZM13.1141 8.23594L13.4522 7.71031L15.6397 9.11719L15.3013 9.64281L13.1141 8.23594Z" fill="black"/>
</g>
<defs>
<clipPath id="clip0_3852_2363">
<rect width="20" height="20" fill="white"/>
</clipPath>
</defs>
</svg>
