<svg width="20" height="20" viewBox="0 0 20 20" fill="none" xmlns="http://www.w3.org/2000/svg">
<g clip-path="url(#clip0_3893_726)">
<path d="M4.27075 4.28816C5.48973 2.41385 7.60249 1.17171 10.0002 1.17171C12.3978 1.17171 14.5106 2.41385 15.7296 4.28816L16.7125 3.6511C15.2844 1.45523 12.8092 0 10.0002 0C7.19114 0 4.71593 1.45519 3.28784 3.6511L4.27075 4.28816Z" fill="black"/>
<path d="M6.5642 5.77465C7.29519 4.65062 8.56221 3.90572 10.0001 3.90572C11.438 3.90572 12.705 4.65062 13.436 5.77465L14.4189 5.13759C13.4788 3.692 11.8493 2.73401 10.0001 2.73401C8.1509 2.73401 6.52143 3.692 5.58129 5.13759L6.5642 5.77465ZM18.6656 8.05414C18.2954 7.85347 17.881 7.74861 17.46 7.7491H13.7495V8.92082H17.46C18.2137 8.92082 18.827 9.53405 18.827 10.2878V17.4613C18.827 18.2151 18.2137 18.8283 17.46 18.8283H2.54018C1.78642 18.8283 1.17318 18.2151 1.17318 17.4613V10.2878C1.17318 9.53402 1.78642 8.92078 2.54018 8.92078H6.25061V7.74906H2.54018C2.11917 7.74857 1.70472 7.85343 1.3346 8.0541C0.541391 8.48393 0.00146484 9.32397 0.00146484 10.2878V17.4613C0.00146484 18.8611 1.14033 20 2.54018 20H17.46C18.8598 20 19.9987 18.8611 19.9987 17.4613V10.2878C19.9987 9.32397 19.4588 8.48396 18.6656 8.05414Z" fill="black"/>
<path d="M4.20663 14.7775H4.67926L5.34401 16.8439H6.57486L5.80395 14.4476C6.24123 14.1376 6.52572 13.6384 6.52572 13.0762C6.52572 12.1381 5.73419 11.3749 4.76128 11.3749H3.03491V16.8439H4.20663V14.7775ZM4.20663 12.5466H4.76132C5.08264 12.5466 5.35405 12.7891 5.35405 13.0762C5.35405 13.3632 5.08264 13.6058 4.76132 13.6058H4.20663V12.5466ZM7.60183 16.8429H8.77354V14.6465H9.78778V13.4748H8.77354V12.5466H10.3238V11.3749H7.60183V16.8429ZM11.2966 11.3749H12.4683V16.8429H11.2966V11.3749ZM14.997 16.8334C16.3152 16.8104 17.272 15.6645 17.272 14.1089C17.272 12.4736 16.3393 11.3749 14.9511 11.3749H13.4807V16.8464C13.4807 16.8464 14.6506 16.8394 14.997 16.8334ZM14.6524 12.5466H14.9511C16.0174 12.5466 16.1003 13.7424 16.1003 14.1089C16.1003 15.1681 15.5359 15.652 14.9765 15.6618C14.8808 15.6635 14.7668 15.6649 14.6524 15.6662V12.5466H14.6524ZM10.0002 5.46851C8.70175 5.46851 7.64916 6.5211 7.64916 7.81955C7.64916 9.11801 8.70175 10.1706 10.0002 10.1706C11.2987 10.1706 12.3513 9.11801 12.3513 7.81955C12.3513 6.52114 11.2987 5.46851 10.0002 5.46851ZM10.0002 8.99888C9.34979 8.99888 8.82064 8.46974 8.82064 7.81928C8.82064 7.16886 9.34979 6.63967 10.0002 6.63967C10.6506 6.63967 11.1798 7.16882 11.1798 7.81928C11.1798 8.46974 10.6506 8.99888 10.0002 8.99888Z" fill="black"/>
</g>
<defs>
<clipPath id="clip0_3893_726">
<rect width="20" height="20" fill="white"/>
</clipPath>
</defs>
</svg>
