<svg width="20" height="20" viewBox="0 0 20 20" fill="none" xmlns="http://www.w3.org/2000/svg">
<g clip-path="url(#clip0_3491_3470)">
<path d="M12.1875 7.5V8.125C12.6004 8.12987 12.995 8.29605 13.287 8.58803C13.5789 8.88 13.7451 9.27461 13.75 9.6875H14.375C14.3693 9.1091 14.137 8.55601 13.728 8.147C13.319 7.738 12.7659 7.5057 12.1875 7.5Z" fill="black"/>
<path d="M15.3313 9.72188H15.6438C15.6429 8.80403 15.279 7.92378 14.6315 7.2733C13.9839 6.62282 13.1053 6.25495 12.1875 6.25V6.875C12.939 6.87994 13.6582 7.18153 14.1884 7.71413C14.7187 8.24672 15.0171 8.9672 15.0188 9.71875L15.3313 9.72188Z" fill="black"/>
<path d="M16.8969 9.7125C16.8903 8.46523 16.3921 7.27087 15.5105 6.38861C14.6288 5.50635 13.4348 5.00739 12.1875 5H12.1687L12.1875 5.625C13.2736 5.63325 14.3124 6.07049 15.0775 6.84143C15.8426 7.61237 16.2719 8.65449 16.2719 9.74062L16.8969 9.7125ZM5.625 9.7125H6.25C6.25487 9.29961 6.42105 8.905 6.71303 8.61303C7.005 8.32105 7.39961 8.15487 7.8125 8.15V7.525C7.2341 7.5307 6.68101 7.763 6.272 8.172C5.863 8.58101 5.6307 9.1341 5.625 9.7125Z" fill="black"/>
<path d="M7.81245 6.25C6.89541 6.25576 6.01776 6.62347 5.37047 7.27309C4.72319 7.92272 4.35865 8.8017 4.3562 9.71875H4.9812C4.98283 8.9672 5.28125 8.24672 5.81151 7.71413C6.34176 7.18153 7.06092 6.87994 7.81245 6.875V6.25Z" fill="black"/>
<path d="M7.83428 5.3125L7.8124 5C6.56298 5.00741 5.36707 5.5081 4.48505 6.39305C3.60302 7.278 3.1063 8.47556 3.10303 9.725H3.41553L3.72803 9.70625C3.7354 8.62557 4.16819 7.5913 4.93265 6.82742C5.69712 6.06354 6.73172 5.63155 7.8124 5.625H7.83115L7.83428 5.3125Z" fill="black"/>
<path d="M19.0625 0.625H15.9375C15.8546 0.625 15.7751 0.657924 15.7165 0.716529C15.6579 0.775134 15.625 0.85462 15.625 0.9375V2.1875H13.4375V1.5625C13.4375 1.47962 13.4046 1.40013 13.346 1.34153C13.2874 1.28292 13.2079 1.25 13.125 1.25H6.875C6.79212 1.25 6.71263 1.28292 6.65403 1.34153C6.59542 1.40013 6.5625 1.47962 6.5625 1.5625V2.1875H4.375V0.9375C4.375 0.85462 4.34208 0.775134 4.28347 0.716529C4.22487 0.657924 4.14538 0.625 4.0625 0.625H0.9375C0.85462 0.625 0.775134 0.657924 0.716529 0.716529C0.657924 0.775134 0.625 0.85462 0.625 0.9375V4.0625C0.625 4.14538 0.657924 4.22487 0.716529 4.28347C0.775134 4.34208 0.85462 4.375 0.9375 4.375H4.0625C4.14538 4.375 4.22487 4.34208 4.28347 4.28347C4.34208 4.22487 4.375 4.14538 4.375 4.0625V2.8125H6.5625V3.4375C6.5625 3.52038 6.59542 3.59987 6.65403 3.65847C6.71263 3.71708 6.79212 3.75 6.875 3.75H8.75V5.3125C8.75 5.39538 8.78292 5.47487 8.84153 5.53347C8.90013 5.59208 8.97962 5.625 9.0625 5.625H9.6875V8.14062C8.91399 8.21836 8.19722 8.58161 7.67717 9.15945C7.15711 9.73729 6.8711 10.4882 6.875 11.2656C6.87521 11.4755 6.89614 11.6849 6.9375 11.8906H5C4.95306 11.8908 4.90677 11.9016 4.86458 11.9222C4.82238 11.9427 4.78535 11.9725 4.75625 12.0094L4.0625 12.8687C3.9624 12.8319 3.85665 12.8129 3.75 12.8125C3.56458 12.8125 3.38332 12.8675 3.22915 12.9705C3.07498 13.0735 2.95482 13.2199 2.88386 13.3912C2.81291 13.5625 2.79434 13.751 2.83051 13.9329C2.86669 14.1148 2.95598 14.2818 3.08709 14.4129C3.2182 14.544 3.38525 14.6333 3.5671 14.6695C3.74896 14.7057 3.93746 14.6871 4.10877 14.6161C4.28007 14.5452 4.42649 14.425 4.5295 14.2708C4.63252 14.1167 4.6875 13.9354 4.6875 13.75C4.68784 13.576 4.63792 13.4057 4.54375 13.2594L5.15 12.5H7.1375C7.29786 12.8662 7.527 13.1983 7.8125 13.4781V15.7875L7.05312 16.3937C6.90684 16.2996 6.73647 16.2497 6.5625 16.25C6.37708 16.25 6.19582 16.305 6.04165 16.408C5.88748 16.511 5.76732 16.6574 5.69636 16.8287C5.62541 17 5.60684 17.1885 5.64301 17.3704C5.67919 17.5523 5.76848 17.7193 5.89959 17.8504C6.0307 17.9815 6.19775 18.0708 6.3796 18.107C6.56146 18.1432 6.74996 18.1246 6.92127 18.0536C7.09257 17.9827 7.23899 17.8625 7.342 17.7083C7.44502 17.5542 7.5 17.3729 7.5 17.1875C7.49959 17.0809 7.48056 16.9751 7.44375 16.875L8.31875 16.175C8.35477 16.1466 8.38408 16.1105 8.4046 16.0695C8.42513 16.0284 8.43636 15.9834 8.4375 15.9375V13.9531C8.81976 14.1803 9.24575 14.3241 9.6875 14.375V17.5562C9.479 17.63 9.30326 17.775 9.19137 17.9658C9.07947 18.1565 9.0386 18.3807 9.076 18.5987C9.1134 18.8166 9.22665 19.0144 9.39573 19.1569C9.56482 19.2995 9.77885 19.3776 10 19.3776C10.2212 19.3776 10.4352 19.2995 10.6043 19.1569C10.7734 19.0144 10.8866 18.8166 10.924 18.5987C10.9614 18.3807 10.9205 18.1565 10.8086 17.9658C10.6967 17.775 10.521 17.63 10.3125 17.5562V14.375C10.7531 14.3289 11.179 14.1905 11.5625 13.9688V15.9375C11.5627 15.9844 11.5735 16.0307 11.5941 16.0729C11.6146 16.1151 11.6444 16.1521 11.6813 16.1812L12.5562 16.875C12.5194 16.9751 12.5004 17.0809 12.5 17.1875C12.5 17.3729 12.555 17.5542 12.658 17.7083C12.761 17.8625 12.9074 17.9827 13.0787 18.0536C13.25 18.1246 13.4385 18.1432 13.6204 18.107C13.8023 18.0708 13.9693 17.9815 14.1004 17.8504C14.2315 17.7193 14.3208 17.5523 14.357 17.3704C14.3932 17.1885 14.3746 17 14.3036 16.8287C14.2327 16.6574 14.1125 16.511 13.9583 16.408C13.8042 16.305 13.6229 16.25 13.4375 16.25C13.2635 16.2497 13.0932 16.2996 12.9469 16.3937L12.1875 15.7875V13.4781C12.473 13.1983 12.7021 12.8662 12.8625 12.5H14.85L15.4562 13.2594C15.3621 13.4057 15.3122 13.576 15.3125 13.75C15.3125 13.9354 15.3675 14.1167 15.4705 14.2708C15.5735 14.425 15.7199 14.5452 15.8912 14.6161C16.0625 14.6871 16.251 14.7057 16.4329 14.6695C16.6148 14.6333 16.7818 14.544 16.9129 14.4129C17.044 14.2818 17.1333 14.1148 17.1695 13.9329C17.2057 13.751 17.1871 13.5625 17.1161 13.3912C17.0452 13.2199 16.925 13.0735 16.7708 12.9705C16.6167 12.8675 16.4354 12.8125 16.25 12.8125C16.1434 12.8129 16.0376 12.8319 15.9375 12.8687L15.2375 11.9938C15.2091 11.9577 15.173 11.9284 15.132 11.9079C15.0909 11.8874 15.0459 11.8761 15 11.875H13.0625C13.1039 11.6692 13.1248 11.4599 13.125 11.25C13.125 10.4753 12.8373 9.7282 12.3176 9.15366C11.7979 8.57912 11.0833 8.2181 10.3125 8.14062V5.625H10.9375C11.0204 5.625 11.0999 5.59208 11.1585 5.53347C11.2171 5.47487 11.25 5.39538 11.25 5.3125V3.75H13.125C13.2079 3.75 13.2874 3.71708 13.346 3.65847C13.4046 3.59987 13.4375 3.52038 13.4375 3.4375V2.8125H15.625V4.0625C15.625 4.14538 15.6579 4.22487 15.7165 4.28347C15.7751 4.34208 15.8546 4.375 15.9375 4.375H19.0625C19.1454 4.375 19.2249 4.34208 19.2835 4.28347C19.3421 4.22487 19.375 4.14538 19.375 4.0625V0.9375C19.375 0.85462 19.3421 0.775134 19.2835 0.716529C19.2249 0.657924 19.1454 0.625 19.0625 0.625ZM3.75 3.75H1.25V1.25H3.75V3.75ZM3.75 14.0625C3.68819 14.0625 3.62777 14.0442 3.57638 14.0098C3.52499 13.9755 3.48494 13.9267 3.46129 13.8696C3.43764 13.8125 3.43145 13.7497 3.4435 13.689C3.45556 13.6284 3.48533 13.5727 3.52903 13.529C3.57273 13.4853 3.62842 13.4556 3.68903 13.4435C3.74965 13.4314 3.81249 13.4376 3.86959 13.4613C3.92669 13.4849 3.9755 13.525 4.00983 13.5764C4.04417 13.6278 4.0625 13.6882 4.0625 13.75C4.0625 13.8329 4.02958 13.9124 3.97097 13.971C3.91237 14.0296 3.83288 14.0625 3.75 14.0625ZM6.5625 17.5C6.50069 17.5 6.44027 17.4817 6.38888 17.4473C6.33749 17.413 6.29744 17.3642 6.27379 17.3071C6.25014 17.25 6.24395 17.1872 6.256 17.1265C6.26806 17.0659 6.29782 17.0102 6.34153 16.9665C6.38523 16.9228 6.44092 16.8931 6.50153 16.881C6.56215 16.8689 6.62499 16.8751 6.68209 16.8988C6.73919 16.9224 6.788 16.9625 6.82233 17.0139C6.85667 17.0653 6.875 17.1257 6.875 17.1875C6.875 17.2704 6.84208 17.3499 6.78347 17.4085C6.72487 17.4671 6.64538 17.5 6.5625 17.5ZM13.4375 16.875C13.4993 16.875 13.5597 16.8933 13.6111 16.9277C13.6625 16.962 13.7026 17.0108 13.7262 17.0679C13.7499 17.125 13.7561 17.1878 13.744 17.2485C13.7319 17.3091 13.7022 17.3648 13.6585 17.4085C13.6148 17.4522 13.5591 17.4819 13.4985 17.494C13.4378 17.5061 13.375 17.4999 13.3179 17.4762C13.2608 17.4526 13.212 17.4125 13.1777 17.3611C13.1433 17.3097 13.125 17.2493 13.125 17.1875C13.125 17.1046 13.1579 17.0251 13.2165 16.9665C13.2751 16.9079 13.3546 16.875 13.4375 16.875ZM16.5625 13.75C16.5625 13.8118 16.5442 13.8722 16.5098 13.9236C16.4755 13.975 16.4267 14.0151 16.3696 14.0387C16.3125 14.0624 16.2497 14.0686 16.189 14.0565C16.1284 14.0444 16.0727 14.0147 16.029 13.971C15.9853 13.9273 15.9556 13.8716 15.9435 13.811C15.9314 13.7503 15.9376 13.6875 15.9613 13.6304C15.9849 13.5733 16.025 13.5245 16.0764 13.4902C16.1278 13.4558 16.1882 13.4375 16.25 13.4375C16.3329 13.4375 16.4124 13.4704 16.471 13.529C16.5296 13.5876 16.5625 13.6671 16.5625 13.75ZM10 18.75C9.93819 18.75 9.87777 18.7317 9.82638 18.6973C9.77499 18.663 9.73494 18.6142 9.71129 18.5571C9.68764 18.5 9.68145 18.4372 9.6935 18.3765C9.70556 18.3159 9.73532 18.2602 9.77903 18.2165C9.82273 18.1728 9.87842 18.1431 9.93903 18.131C9.99965 18.1189 10.0625 18.1251 10.1196 18.1488C10.1767 18.1724 10.2255 18.2125 10.2598 18.2639C10.2942 18.3153 10.3125 18.3757 10.3125 18.4375C10.3125 18.5204 10.2796 18.5999 10.221 18.6585C10.1624 18.7171 10.0829 18.75 10 18.75ZM12.5 11.25C12.5 11.7445 12.3534 12.2278 12.0787 12.6389C11.804 13.05 11.4135 13.3705 10.9567 13.5597C10.4999 13.7489 9.99723 13.7984 9.51227 13.702C9.02732 13.6055 8.58186 13.3674 8.23223 13.0178C7.8826 12.6681 7.6445 12.2227 7.54804 11.7377C7.45157 11.2528 7.50108 10.7501 7.6903 10.2933C7.87952 9.83648 8.19995 9.44603 8.61107 9.17133C9.0222 8.89662 9.50555 8.75 10 8.75C10.663 8.75 11.2989 9.01339 11.7678 9.48223C12.2366 9.95107 12.5 10.587 12.5 11.25ZM12.8125 3.125H10.9375C10.8546 3.125 10.7751 3.15792 10.7165 3.21653C10.6579 3.27513 10.625 3.35462 10.625 3.4375V5H9.375V3.4375C9.375 3.35462 9.34208 3.27513 9.28347 3.21653C9.22487 3.15792 9.14538 3.125 9.0625 3.125H7.1875V1.875H12.8125V3.125ZM18.75 3.75H16.25V1.25H18.75V3.75Z" fill="black"/>
</g>
<defs>
<clipPath id="clip0_3491_3470">
<rect width="20" height="20" fill="white"/>
</clipPath>
</defs>
</svg>
