<svg width="20" height="20" viewBox="0 0 20 20" fill="none" xmlns="http://www.w3.org/2000/svg">
<path d="M3.38688 16.2206L3.96625 16.7225C4.07945 16.8214 4.22468 16.8759 4.375 16.8759C4.52532 16.8759 4.67055 16.8214 4.78375 16.7225L5.36313 16.2206C6.82125 14.96 7.5 13.5794 7.5 11.875C7.5 11.6381 7.36625 11.4219 7.15437 11.3156L4.65438 10.0656C4.56754 10.0222 4.47178 9.99957 4.37469 9.99957C4.27759 9.99957 4.18183 10.0222 4.095 10.0656L1.595 11.3156C1.38375 11.4219 1.25 11.6381 1.25 11.875C1.25 13.5794 1.92875 14.96 3.38688 16.2206ZM4.375 11.3238L6.23625 12.2538C6.14625 13.4194 5.62562 14.3406 4.54562 15.2756L4.375 15.4231L4.205 15.2763C3.12438 14.3413 2.60375 13.42 2.51437 12.2544L4.375 11.3238ZM9.01187 11.8456L9.59125 12.3475C9.70445 12.4464 9.84968 12.5009 10 12.5009C10.1503 12.5009 10.2955 12.4464 10.4087 12.3475L10.9881 11.8456C12.4462 10.585 13.125 9.2044 13.125 7.50002C13.125 7.26315 12.9913 7.0469 12.7794 6.94065L10.2794 5.69065C10.1925 5.64719 10.0968 5.62457 9.99969 5.62457C9.90259 5.62457 9.80683 5.64719 9.72 5.69065L7.22 6.94065C7.00875 7.0469 6.875 7.26315 6.875 7.50002C6.875 9.2044 7.55375 10.585 9.01187 11.8456ZM10 6.94877L11.8612 7.87877C11.7713 9.0444 11.2506 9.96565 10.1706 10.9006L10 11.0481L9.83 10.9013C8.74937 9.96627 8.22875 9.04502 8.13937 7.8794L10 6.94877ZM14.6369 7.47065L15.2163 7.97252C15.3295 8.07142 15.4747 8.12593 15.625 8.12593C15.7753 8.12593 15.9205 8.07142 16.0337 7.97252L16.6131 7.47065C18.0712 6.21002 18.75 4.8294 18.75 3.12502C18.75 2.88815 18.6163 2.6719 18.4044 2.56565L15.9044 1.31565C15.8175 1.27219 15.7218 1.24957 15.6247 1.24957C15.5276 1.24957 15.4318 1.27219 15.345 1.31565L12.845 2.56565C12.6337 2.6719 12.5 2.88815 12.5 3.12502C12.5 4.8294 13.1788 6.21002 14.6369 7.47065ZM15.625 2.57377L17.4862 3.50377C17.3962 4.6694 16.8756 5.59065 15.7956 6.52565L15.625 6.67315L15.455 6.52627C14.3744 5.59127 13.8538 4.67002 13.7644 3.5044L15.625 2.57377Z" fill="black"/>
<path d="M18.125 8.75H13.75C13.5842 8.75 13.4253 8.81585 13.3081 8.93306C13.1908 9.05027 13.125 9.20924 13.125 9.375V13.125H8.125C7.95924 13.125 7.80027 13.1908 7.68306 13.3081C7.56585 13.4253 7.5 13.5842 7.5 13.75V17.5H1.875C1.70924 17.5 1.55027 17.5658 1.43306 17.6831C1.31585 17.8003 1.25 17.9592 1.25 18.125C1.25 18.2908 1.31585 18.4497 1.43306 18.5669C1.55027 18.6842 1.70924 18.75 1.875 18.75H8.125C8.29076 18.75 8.44973 18.6842 8.56694 18.5669C8.68415 18.4497 8.75 18.2908 8.75 18.125V14.375H13.75C13.9158 14.375 14.0747 14.3092 14.1919 14.1919C14.3092 14.0747 14.375 13.9158 14.375 13.75V10H18.125C18.2908 10 18.4497 9.93415 18.5669 9.81694C18.6842 9.69973 18.75 9.54076 18.75 9.375C18.75 9.20924 18.6842 9.05027 18.5669 8.93306C18.4497 8.81585 18.2908 8.75 18.125 8.75Z" fill="black"/>
</svg>
