<svg width="20" height="20" viewBox="0 0 20 20" fill="none" xmlns="http://www.w3.org/2000/svg">
<path fill-rule="evenodd" clip-rule="evenodd" d="M3.53849 13.6625L1.92474 14.5312L5.39385 18.5905L6.01224 18.2577L3.53849 13.6625ZM13.2522 6.71461L16.3514 3.76172C16.4113 3.70474 16.4914 3.67389 16.574 3.67595C16.6566 3.67801 16.7351 3.71281 16.792 3.77269L17.6543 4.67765C17.7112 4.73755 17.7421 4.81762 17.74 4.90026C17.738 4.9829 17.7032 5.06133 17.6433 5.11832L13.4406 9.12265C13.3817 9.1787 13.3032 9.2095 13.2219 9.20848C13.1406 9.20747 13.0629 9.17472 13.0054 9.11722L10.64 6.7507C10.6112 6.72169 10.5883 6.68728 10.5727 6.64943C10.5572 6.61158 10.5492 6.57104 10.5493 6.53012C10.5495 6.4892 10.5576 6.4487 10.5734 6.41094C10.5892 6.37318 10.6122 6.33889 10.6412 6.31004L11.5253 5.4264C11.5543 5.39754 11.5888 5.37468 11.6266 5.35913C11.6644 5.34357 11.705 5.33562 11.7459 5.33573C11.7868 5.33584 11.8273 5.34401 11.8651 5.35978C11.9029 5.37555 11.9371 5.3986 11.966 5.42761L13.2522 6.71461ZM16.5556 4.42824L13.4618 7.37601C13.4028 7.43212 13.3241 7.4629 13.2427 7.46176C13.1612 7.46063 13.0835 7.42766 13.026 7.36992L11.7449 6.08804L11.3016 6.53113L13.2316 8.46078L16.9878 4.88191L16.5556 4.42824ZM18.844 2.9539L18.8437 2.95394C18.838 2.87843 18.8051 2.80756 18.751 2.75455C18.697 2.70153 18.6255 2.67001 18.5499 2.66586C16.8459 2.57109 15.2238 1.90726 13.9401 0.783122C13.8834 0.732572 13.8102 0.704472 13.7342 0.704105C13.6583 0.703738 13.5848 0.73113 13.5276 0.78113C12.8902 1.34002 12.1643 1.78907 11.3796 2.10992C10.5992 2.42865 9.77153 2.6162 8.92998 2.665C8.85167 2.66566 8.77647 2.69574 8.7193 2.74926C8.66213 2.80279 8.62716 2.87584 8.62135 2.95394C8.47338 4.90144 8.85853 6.69445 9.68685 8.26972C10.5403 9.89281 11.8642 11.2805 13.5593 12.3638C13.6096 12.3975 13.6685 12.4158 13.729 12.4165C13.7895 12.4172 13.8489 12.4003 13.8999 12.3678C17.225 10.2471 19.1462 6.93008 18.844 2.9539ZM15.8514 2.68605C15.0861 2.37346 14.3719 1.94797 13.7327 1.42375C12.4494 2.47582 10.8797 3.11832 9.22705 3.26801C9.14127 4.99215 9.50252 6.57937 10.2386 7.97914C11.0145 9.4548 12.2074 10.7261 13.7327 11.7341C15.2579 10.7261 16.4508 9.4548 17.2268 7.97914C17.9628 6.57937 18.3241 4.99218 18.2383 3.26801C17.4181 3.19389 16.6136 2.99774 15.8514 2.68605ZM12.2894 15.5287L18.2057 13.8157C18.2554 13.9833 18.2621 14.1502 18.2356 14.3041C18.1961 14.5341 18.0844 14.7316 17.9346 14.8532L11.8315 17.44L7.37181 16.7031C7.30026 16.6914 7.22685 16.7051 7.16435 16.7418L6.20752 17.3047L4.44299 14.0269C6.12103 13.2058 7.16787 12.602 7.49931 12.4057L12.1022 13.6128C12.5933 13.8987 12.5494 14.573 12.1319 14.8992L9.72002 14.3026C9.63986 14.2832 9.55529 14.2964 9.48482 14.3392C9.41436 14.3821 9.36374 14.4511 9.34404 14.5312C9.32435 14.6112 9.33718 14.6959 9.37974 14.7665C9.4223 14.8371 9.49111 14.888 9.57111 14.908L12.1131 15.5368C12.1714 15.5512 12.2326 15.5484 12.2894 15.5287ZM7.28896 11.8051C7.32461 11.7834 7.36426 11.769 7.40557 11.7629C7.44687 11.7568 7.48898 11.7591 7.52939 11.7696L12.2966 13.0199C12.3203 13.0261 12.3433 13.035 12.365 13.0466C12.9867 13.3784 13.2129 14.0358 13.0067 14.6728L18.2928 13.1423C18.3614 13.1212 18.4352 13.1245 18.5017 13.1516C18.5682 13.1787 18.6233 13.2279 18.6577 13.291C18.8626 13.6653 18.9112 14.058 18.8509 14.4091C18.7818 14.8109 18.5679 15.1619 18.2792 15.3749C18.2791 15.3748 18.2216 15.4078 18.2157 15.4103L12.005 18.0427C11.9474 18.0707 11.8824 18.0802 11.8192 18.0698L7.38197 17.3362L6.50291 17.8533L6.70931 18.2367C6.72871 18.2728 6.74081 18.3123 6.74493 18.3531C6.74905 18.3938 6.7451 18.435 6.73331 18.4742C6.72152 18.5134 6.70212 18.5499 6.67622 18.5816C6.65032 18.6134 6.61843 18.6397 6.58236 18.6591L5.46799 19.2588C5.40531 19.2925 5.33301 19.3037 5.26308 19.2906C5.19315 19.2776 5.1298 19.241 5.08353 19.1869L1.20767 14.6516C1.06638 14.4927 1.11365 14.2594 1.28889 14.1652L3.51752 12.9654C3.55359 12.946 3.59312 12.9339 3.63386 12.9298C3.67461 12.9257 3.71576 12.9296 3.75498 12.9414C3.7942 12.9532 3.83071 12.9726 3.86244 12.9985C3.89416 13.0244 3.92047 13.0563 3.93986 13.0924L4.14717 13.4775C6.19283 12.4775 7.28556 11.807 7.28896 11.8051Z" fill="black"/>
</svg>
