<svg width="20" height="20" viewBox="0 0 20 20" fill="none" xmlns="http://www.w3.org/2000/svg">
<path d="M16.5625 0.9375H14.0625V2.8125H16.5625V0.9375ZM15 2.1875H14.375V1.5625H15V2.1875ZM16.25 2.1875H15.625V1.5625H16.25V2.1875ZM3.125 19.0625H7.5V10.9375H3.125V19.0625ZM4.0625 11.875H6.5625V13.125H4.0625V11.875ZM4.0625 14.375H6.5625V15.625H4.0625V14.375ZM4.0625 16.875H6.5625V18.125H4.0625V16.875ZM13.4375 3.4375V6.74563L14.2834 7.59156C14.342 7.65015 14.375 7.72963 14.375 7.8125V8.4375H16.25V7.8125C16.25 7.72963 16.283 7.65015 16.3416 7.59156L17.1875 6.74563V3.4375H13.4375ZM16.25 6.25H14.375V4.375H16.25V6.25Z" fill="black"/>
<path d="M14.6875 9.6875H15V16.25C15 16.8302 14.7695 17.3866 14.3593 17.7968C13.9491 18.207 13.3927 18.4375 12.8125 18.4375C12.2323 18.4375 11.6759 18.207 11.2657 17.7968C10.8555 17.3866 10.625 16.8302 10.625 16.25V3.75C10.625 3.00408 10.3287 2.28871 9.80124 1.76126C9.27379 1.23382 8.55842 0.9375 7.8125 0.9375C7.06658 0.9375 6.35121 1.23382 5.82376 1.76126C5.29632 2.28871 5 3.00408 5 3.75V9.6875H4.375V10.3125H6.25V9.6875H5.625V3.75C5.625 3.16984 5.85547 2.61344 6.2657 2.2032C6.67594 1.79297 7.23234 1.5625 7.8125 1.5625C8.39266 1.5625 8.94906 1.79297 9.3593 2.2032C9.76953 2.61344 10 3.16984 10 3.75V16.25C10 16.9959 10.2963 17.7113 10.8238 18.2387C11.3512 18.7662 12.0666 19.0625 12.8125 19.0625C13.5584 19.0625 14.2738 18.7662 14.8012 18.2387C15.3287 17.7113 15.625 16.9959 15.625 16.25V9.6875H15.9375V9.0625H14.6875V9.6875Z" fill="black"/>
</svg>
