<svg width="20" height="20" viewBox="0 0 20 20" fill="none" xmlns="http://www.w3.org/2000/svg">
<g clip-path="url(#clip0_3891_630)">
<path d="M15.4408 7.08479L11.1983 8.01256L13.2727 0.748364C13.4529 0.117014 12.6087 -0.287441 12.2302 0.250284L3.95512 12.007C3.64397 12.4491 4.04956 13.0424 4.57428 12.9132L8.35457 11.9826L6.28694 19.2537C6.10879 19.8802 6.93817 20.2795 7.32114 19.7629L16.0367 8.00611C16.3583 7.57217 15.9684 6.96948 15.4408 7.08479ZM8.29242 16.485L9.75749 11.3327C9.88001 10.9019 9.49138 10.4959 9.05392 10.6036L5.81448 11.401L11.1949 3.75688L9.80237 8.63348C9.68117 9.05789 10.0571 9.46172 10.4909 9.36669L14.1649 8.56325L8.29242 16.485ZM15.0626 16.4846L13.6565 16.4611L14.4033 14.9924C14.55 14.7039 14.4351 14.3512 14.1466 14.2046C13.8581 14.0579 13.5055 14.1729 13.3588 14.4613L12.187 16.7658C11.9487 17.2331 12.2606 17.5394 12.7099 17.6173L14.1127 17.6407L13.3571 19.1519C13.2124 19.4414 13.3297 19.7933 13.6191 19.938C13.9091 20.083 14.2607 19.9648 14.4051 19.676L15.5769 17.3325C15.7693 16.9474 15.4908 16.4909 15.0626 16.4846ZM5.94068 0.0634645C5.65125 -0.08121 5.29933 0.0360841 5.15462 0.325472L3.98285 2.66901C3.79228 3.05019 4.06405 3.5169 4.5103 3.5169H5.90244L5.15462 5.01255C5.0099 5.30198 5.12724 5.65386 5.41663 5.79861C5.7066 5.9436 6.05825 5.82545 6.20269 5.53661L7.37446 3.19307C7.5694 2.80314 7.28267 2.34517 6.8504 2.34517H5.45486L6.20269 0.849527C6.3474 0.5601 6.23007 0.208178 5.94068 0.0634645Z" fill="black"/>
</g>
<defs>
<clipPath id="clip0_3891_630">
<rect width="20" height="20" fill="white"/>
</clipPath>
</defs>
</svg>
