<svg width="20" height="20" viewBox="0 0 20 20" fill="none" xmlns="http://www.w3.org/2000/svg">
<path d="M17.3779 4.28875L13.2096 0.12207C13.1315 0.0439453 13.0257 0 12.915 0H4.16668C3.24746 0 2.5 0.747461 2.5 1.66668V18.3334C2.5 19.2525 3.24746 20 4.16668 20H15.8334C16.7525 20 17.5 19.2525 17.5 18.3333V4.58332C17.5 4.47266 17.4561 4.36688 17.3779 4.28875ZM16.6667 18.3333C16.6667 18.7927 16.2927 19.1666 15.8334 19.1666H4.16668C3.7073 19.1666 3.33336 18.7927 3.33336 18.3333V1.66668C3.33336 1.2073 3.7073 0.833359 4.16668 0.833359H12.7425L16.6667 4.75586V18.3333Z" fill="black"/>
<path d="M5 8.75V16.25C5 16.9393 5.5607 17.5 6.25 17.5H13.75C14.4393 17.5 15 16.9393 15 16.25V8.75C15 8.0607 14.4393 7.5 13.75 7.5H6.25C5.5607 7.5 5 8.0607 5 8.75ZM7.91668 16.6667H6.25C6.02012 16.6667 5.83332 16.4799 5.83332 16.25V14.5833H7.91664V16.6667H7.91668ZM11.25 16.6667H8.75V14.5834H11.25V16.6667ZM14.1667 16.25C14.1667 16.4799 13.9799 16.6667 13.75 16.6667H12.0833V14.1667C12.0834 14.1119 12.0726 14.0578 12.0517 14.0072C12.0307 13.9566 12.0001 13.9107 11.9614 13.872C11.9227 13.8333 11.8767 13.8026 11.8261 13.7816C11.7756 13.7607 11.7214 13.75 11.6666 13.75H5.83332V11.25H14.1666V16.25H14.1667ZM12.0833 8.33332H13.75C13.9799 8.33332 14.1667 8.52008 14.1667 8.75V10.4167H12.0834V8.33332H12.0833ZM8.75 8.33332H11.25V10.4166H8.75V8.33332ZM7.91668 10.4167H5.83336V8.75C5.83336 8.52012 6.02012 8.33332 6.25004 8.33332H7.91672L7.91668 10.4167Z" fill="black"/>
</svg>
