<svg width="20" height="20" viewBox="0 0 20 20" fill="none" xmlns="http://www.w3.org/2000/svg">
<g clip-path="url(#clip0_3856_2425)">
<path d="M19.0323 4.51613H11.6129V1.6129C11.6129 0.723548 10.8894 0 10 0H1.6129C0.723548 0 0 0.723548 0 1.6129V18.3871C0 19.2765 0.723548 20 1.6129 20H10C10.8894 20 11.6129 19.2765 11.6129 18.3871V13.5484H10.9677V16.7742H0.645161V3.22581H10.9677V4.51613H8.06452C7.53097 4.51613 7.09677 4.95032 7.09677 5.48387V10.189L4.38258 12.9032H19.0323C19.5658 12.9032 20 12.469 20 11.9355V5.48387C20 4.95032 19.5658 4.51613 19.0323 4.51613ZM10.9677 17.4194V18.3871C10.9677 18.9206 10.5335 19.3548 10 19.3548H1.6129C1.07935 19.3548 0.645161 18.9206 0.645161 18.3871V17.4194H10.9677ZM0.645161 2.58065V1.6129C0.645161 1.07935 1.07935 0.645161 1.6129 0.645161H10C10.5335 0.645161 10.9677 1.07935 10.9677 1.6129V2.58065H0.645161ZM19.3548 11.9355C19.3548 12.1135 19.2103 12.2581 19.0323 12.2581H5.94L7.74194 10.4561V5.48387C7.74194 5.30581 7.88645 5.16129 8.06452 5.16129H19.0323C19.2103 5.16129 19.3548 5.30581 19.3548 5.48387V11.9355Z" fill="black"/>
<path d="M16.7742 8.38708C16.4184 8.38708 16.129 8.09773 16.129 7.74192C16.129 7.38612 16.4184 7.09676 16.7742 7.09676C17.13 7.09676 17.4193 7.38612 17.4193 7.74192H18.0645C18.0645 7.03031 17.4858 6.4516 16.7742 6.4516C16.0626 6.4516 15.4839 7.03031 15.4839 7.74192C15.4839 8.45353 16.0626 9.03224 16.7742 9.03224C17.13 9.03224 17.4193 9.3216 17.4193 9.67741C17.4193 10.0332 17.13 10.3226 16.7742 10.3226C16.4184 10.3226 16.129 10.0332 16.129 9.67741H15.4839C15.4839 10.389 16.0626 10.9677 16.7742 10.9677C17.4858 10.9677 18.0645 10.389 18.0645 9.67741C18.0645 8.96579 17.4858 8.38708 16.7742 8.38708ZM10.3226 8.38708C9.96676 8.38708 9.6774 8.09773 9.6774 7.74192C9.6774 7.38612 9.96676 7.09676 10.3226 7.09676C10.6784 7.09676 10.9677 7.38612 10.9677 7.74192H11.6129C11.6129 7.03031 11.0342 6.4516 10.3226 6.4516C9.61095 6.4516 9.03224 7.03031 9.03224 7.74192C9.03224 8.45353 9.61095 9.03224 10.3226 9.03224C10.6784 9.03224 10.9677 9.3216 10.9677 9.67741C10.9677 10.0332 10.6784 10.3226 10.3226 10.3226C9.96676 10.3226 9.6774 10.0332 9.6774 9.67741H9.03224C9.03224 10.389 9.61095 10.9677 10.3226 10.9677C11.0342 10.9677 11.6129 10.389 11.6129 9.67741C11.6129 8.96579 11.0342 8.38708 10.3226 8.38708ZM13.9416 6.4516L13.5484 8.02483L13.1551 6.4516H12.258V10.6451H12.9032V8.10418L13.5484 10.6848L14.1935 8.10418V10.6451H14.8387V6.4516H13.9416ZM4.51611 18.0645H7.09676V18.7097H4.51611V18.0645ZM9.6774 13.5484H10.3226V14.1935H9.6774V13.5484ZM8.38708 13.5484H9.03224V14.1935H8.38708V13.5484ZM7.09676 13.5484H7.74192V14.1935H7.09676V13.5484ZM5.80644 13.5484H6.4516V14.1935H5.80644V13.5484Z" fill="black"/>
</g>
<defs>
<clipPath id="clip0_3856_2425">
<rect width="20" height="20" fill="white"/>
</clipPath>
</defs>
</svg>
