<svg width="20" height="20" viewBox="0 0 20 20" fill="none" xmlns="http://www.w3.org/2000/svg">
<g clip-path="url(#clip0_3891_348)">
<path d="M17.6667 8V7.66667H18.056C18.2161 7.66686 18.3739 7.62861 18.5161 7.55515C18.6583 7.48169 18.7808 7.37515 18.8733 7.2445C18.9658 7.11385 19.0256 6.9629 19.0477 6.80435C19.0697 6.64579 19.0534 6.48426 19 6.33333L16.9887 0.666667C16.9195 0.471938 16.7918 0.303353 16.6231 0.184006C16.4544 0.0646599 16.253 0.000389675 16.0463 0L3.95367 0C3.74702 0.000389675 3.54555 0.0646599 3.37686 0.184006C3.20816 0.303353 3.08049 0.471938 3.01133 0.666667L1 6.33333C0.946677 6.48415 0.930315 6.64556 0.952286 6.80402C0.974258 6.96247 1.03392 7.11334 1.12627 7.24396C1.21862 7.37458 1.34096 7.48114 1.48301 7.55469C1.62507 7.62824 1.7827 7.66664 1.94267 7.66667H2.33333V8C2.33333 8.26522 2.43869 8.51957 2.62623 8.70711C2.81376 8.89464 3.06812 9 3.33333 9H4.66667C4.93188 9 5.18624 8.89464 5.37377 8.70711C5.56131 8.51957 5.66667 8.26522 5.66667 8V7.66667H14.3333V8C14.3333 8.26522 14.4387 8.51957 14.6262 8.70711C14.8138 8.89464 15.0681 9 15.3333 9H16.6667C16.9319 9 17.1862 8.89464 17.3738 8.70711C17.5613 8.51957 17.6667 8.26522 17.6667 8ZM18.3283 6.859C18.2978 6.90285 18.257 6.9386 18.2096 6.96317C18.1622 6.98774 18.1094 7.00038 18.056 7H15.93L15.4537 5H17.8203L18.372 6.55533C18.3899 6.60569 18.3953 6.65966 18.3877 6.71256C18.3801 6.76547 18.3597 6.81573 18.3283 6.859ZM12.303 7L12.1127 5H14.7687L15.2447 7H12.303ZM5.33333 7H4.75533L5.23133 5H7.88733L7.697 7H5.33333ZM3.009 2.66667H5.102L4.705 4.33333H2.41767L3.009 2.66667ZM5.787 2.66667H8.10967L7.951 4.33333H5.39033L5.787 2.66667ZM8.3 0.666667L8.173 2H5.94567L6.26333 0.666667H8.3ZM13.7367 0.666667L14.0543 2H11.827L11.7 0.666667H13.7367ZM17.5823 4.33333H15.295L14.898 2.66667H16.9913L17.5823 4.33333ZM14.6097 4.33333H12.049L11.8903 2.66667H14.213L14.6097 4.33333ZM11.3793 4.33333H8.62067L8.77933 2.66667H11.2207L11.3793 4.33333ZM11.1573 2H8.84267L8.96967 0.666667H11.0303L11.1573 2ZM8.55733 5H11.4433L11.6337 7H8.36667L8.55733 5ZM16.3607 0.888667L16.7547 2H14.7393L14.422 0.666667H16.0463C16.1152 0.666637 16.1825 0.687969 16.2388 0.727725C16.2951 0.767482 16.3377 0.823709 16.3607 0.888667ZM3.63933 0.888667C3.66235 0.823709 3.70494 0.767482 3.76123 0.727725C3.81752 0.687969 3.88475 0.666637 3.95367 0.666667H5.578L5.26067 2H3.24533L3.63933 0.888667ZM1.67267 6.859C1.64157 6.81558 1.6215 6.76525 1.61418 6.71235C1.60686 6.65945 1.61252 6.60556 1.63067 6.55533L2.18133 5H4.548L4.07 7H1.944C1.89057 7.00038 1.83785 6.98774 1.7904 6.96317C1.74295 6.9386 1.7022 6.90285 1.67167 6.859H1.67267ZM5 8C5 8.08841 4.96488 8.17319 4.90237 8.2357C4.83986 8.29821 4.75507 8.33333 4.66667 8.33333H3.33333C3.24493 8.33333 3.16014 8.29821 3.09763 8.2357C3.03512 8.17319 3 8.08841 3 8V7.66667H5V8ZM15 8V7.66667H17V8C17 8.08841 16.9649 8.17319 16.9024 8.2357C16.8399 8.29821 16.7551 8.33333 16.6667 8.33333H15.3333C15.2449 8.33333 15.1601 8.29821 15.0976 8.2357C15.0351 8.17319 15 8.08841 15 8ZM15 14H14.6667V13.6667C14.6667 13.313 14.5262 12.9739 14.2761 12.7239C14.0261 12.4738 13.687 12.3333 13.3333 12.3333H12.6547L13.25 11.5333C13.2871 11.4838 13.3098 11.4249 13.3153 11.3633C13.3209 11.3016 13.3092 11.2396 13.2815 11.1843C13.2538 11.1289 13.2112 11.0823 13.1586 11.0498C13.1059 11.0172 13.0452 11 12.9833 11H9.87467C9.82176 11 9.76961 11.0126 9.72255 11.0368C9.67548 11.061 9.63485 11.096 9.604 11.139L8.74533 12.3333H5.33333C4.97971 12.3333 4.64057 12.4738 4.39052 12.7239C4.14048 12.9739 4 13.313 4 13.6667V17C4 17.3536 4.14048 17.6928 4.39052 17.9428C4.64057 18.1929 4.97971 18.3333 5.33333 18.3333H8.174L7.83567 19.5793C7.8158 19.6524 7.82143 19.7301 7.85161 19.7996C7.8818 19.8691 7.93475 19.9262 8.00174 19.9615C8.06873 19.9969 8.14577 20.0084 8.22016 19.9941C8.29455 19.9798 8.36186 19.9406 8.411 19.883L9.73533 18.3333H13.3333C13.687 18.3333 14.0261 18.1929 14.2761 17.9428C14.5262 17.6928 14.6667 17.3536 14.6667 17V16.6667H15C15.2652 16.6667 15.5196 16.5613 15.7071 16.3738C15.8946 16.1862 16 15.9319 16 15.6667V15C16 14.7348 15.8946 14.4804 15.7071 14.2929C15.5196 14.1054 15.2652 14 15 14ZM5.33333 17.6667C5.15652 17.6667 4.98695 17.5964 4.86193 17.4714C4.7369 17.3464 4.66667 17.1768 4.66667 17V13.6667C4.66667 13.4899 4.7369 13.3203 4.86193 13.1953C4.98695 13.0702 5.15652 13 5.33333 13H8.26667L6.72967 15.139C6.69395 15.1888 6.67264 15.2474 6.66808 15.3085C6.66352 15.3696 6.67589 15.4308 6.70382 15.4853C6.73176 15.5398 6.77418 15.5856 6.82643 15.6176C6.87868 15.6496 6.93874 15.6666 7 15.6667H8.89733L8.35467 17.6667H5.33333ZM9.655 15.4207C9.66842 15.3712 9.67027 15.3194 9.6604 15.2691C9.65053 15.2189 9.62922 15.1715 9.5981 15.1309C9.56699 15.0902 9.52692 15.0572 9.481 15.0345C9.43508 15.0118 9.38455 15 9.33333 15H7.65L10.0453 11.6667H12.3193L10.7333 13.8C10.6962 13.8495 10.6736 13.9084 10.668 13.9701C10.6625 14.0317 10.6742 14.0937 10.7019 14.1491C10.7295 14.2044 10.7721 14.251 10.8248 14.2836C10.8774 14.3161 10.9381 14.3333 11 14.3333H12.2767L9.34533 17.7637L9.343 17.7663L8.86667 18.3227L9.655 15.4207ZM14 17C14 17.1768 13.9298 17.3464 13.8047 17.4714C13.6797 17.5964 13.5101 17.6667 13.3333 17.6667H10.305L13.2533 14.2163C13.2946 14.1679 13.3212 14.1087 13.3299 14.0456C13.3386 13.9825 13.3291 13.9183 13.3025 13.8605C13.2758 13.8027 13.2332 13.7537 13.1796 13.7193C13.126 13.685 13.0637 13.6667 13 13.6667H11.6633L12.159 13H13.3333C13.5101 13 13.6797 13.0702 13.8047 13.1953C13.9298 13.3203 14 13.4899 14 13.6667V17ZM15.3333 15.6667C15.3333 15.7551 15.2982 15.8399 15.2357 15.9024C15.1732 15.9649 15.0884 16 15 16H14.6667V14.6667H15C15.0884 14.6667 15.1732 14.7018 15.2357 14.7643C15.2982 14.8268 15.3333 14.9116 15.3333 15V15.6667ZM1 15.6667H1.39467C1.4733 15.8891 1.62802 16.0765 1.83149 16.1959C2.03496 16.3152 2.27408 16.3588 2.50658 16.3189C2.73908 16.279 2.94999 16.1582 3.10204 15.9779C3.25408 15.7975 3.33748 15.5692 3.33748 15.3333C3.33748 15.0974 3.25408 14.8691 3.10204 14.6888C2.94999 14.5084 2.73908 14.3876 2.50658 14.3477C2.27408 14.3078 2.03496 14.3514 1.83149 14.4708C1.62802 14.5901 1.4733 14.7776 1.39467 15H1C0.911595 15 0.82681 14.9649 0.764298 14.9024C0.701786 14.8399 0.666667 14.7551 0.666667 14.6667V12.3333C0.666667 12.2449 0.701786 12.1601 0.764298 12.0976C0.82681 12.0351 0.911595 12 1 12H3.33333C3.59855 12 3.8529 11.8946 4.04044 11.7071C4.22798 11.5196 4.33333 11.2652 4.33333 11V10C4.33333 9.91159 4.29821 9.82681 4.2357 9.7643C4.17319 9.70179 4.08841 9.66667 4 9.66667C3.91159 9.66667 3.82681 9.70179 3.7643 9.7643C3.70179 9.82681 3.66667 9.91159 3.66667 10V11C3.66667 11.0884 3.63155 11.1732 3.56904 11.2357C3.50652 11.2982 3.42174 11.3333 3.33333 11.3333H1C0.734784 11.3333 0.48043 11.4387 0.292893 11.6262C0.105357 11.8138 0 12.0681 0 12.3333L0 14.6667C0 14.9319 0.105357 15.1862 0.292893 15.3738C0.48043 15.5613 0.734784 15.6667 1 15.6667ZM2.33333 15C2.39926 15 2.46371 15.0195 2.51852 15.0562C2.57334 15.0928 2.61606 15.1449 2.64129 15.2058C2.66652 15.2667 2.67312 15.3337 2.66026 15.3984C2.6474 15.463 2.61565 15.5224 2.56904 15.569C2.52242 15.6157 2.46302 15.6474 2.39836 15.6603C2.3337 15.6731 2.26668 15.6665 2.20577 15.6413C2.14486 15.6161 2.0928 15.5733 2.05618 15.5185C2.01955 15.4637 2 15.3993 2 15.3333C2 15.2449 2.03512 15.1601 2.09763 15.0976C2.16014 15.0351 2.24493 15 2.33333 15ZM19 11.3333H16.6667C16.5783 11.3333 16.4935 11.2982 16.431 11.2357C16.3685 11.1732 16.3333 11.0884 16.3333 11V10C16.3333 9.91159 16.2982 9.82681 16.2357 9.7643C16.1732 9.70179 16.0884 9.66667 16 9.66667C15.9116 9.66667 15.8268 9.70179 15.7643 9.7643C15.7018 9.82681 15.6667 9.91159 15.6667 10V11C15.6667 11.2652 15.772 11.5196 15.9596 11.7071C16.1471 11.8946 16.4015 12 16.6667 12H19C19.0884 12 19.1732 12.0351 19.2357 12.0976C19.2982 12.1601 19.3333 12.2449 19.3333 12.3333V14.6667C19.3333 14.7551 19.2982 14.8399 19.2357 14.9024C19.1732 14.9649 19.0884 15 19 15H18.6053C18.5267 14.7776 18.372 14.5901 18.1685 14.4708C17.965 14.3514 17.7259 14.3078 17.4934 14.3477C17.2609 14.3876 17.05 14.5084 16.898 14.6888C16.7459 14.8691 16.6625 15.0974 16.6625 15.3333C16.6625 15.5692 16.7459 15.7975 16.898 15.9779C17.05 16.1582 17.2609 16.279 17.4934 16.3189C17.7259 16.3588 17.965 16.3152 18.1685 16.1959C18.372 16.0765 18.5267 15.8891 18.6053 15.6667H19C19.2652 15.6667 19.5196 15.5613 19.7071 15.3738C19.8946 15.1862 20 14.9319 20 14.6667V12.3333C20 12.0681 19.8946 11.8138 19.7071 11.6262C19.5196 11.4387 19.2652 11.3333 19 11.3333ZM17.6667 15.6667C17.6007 15.6667 17.5363 15.6471 17.4815 15.6105C17.4267 15.5739 17.3839 15.5218 17.3587 15.4609C17.3335 15.4 17.3269 15.333 17.3397 15.2683C17.3526 15.2036 17.3843 15.1442 17.431 15.0976C17.4776 15.051 17.537 15.0193 17.6016 15.0064C17.6663 14.9935 17.7333 15.0001 17.7942 15.0254C17.8551 15.0506 17.9072 15.0933 17.9438 15.1481C17.9805 15.203 18 15.2674 18 15.3333C18 15.4217 17.9649 15.5065 17.9024 15.569C17.8399 15.6315 17.7551 15.6667 17.6667 15.6667Z" fill="black"/>
</g>
<defs>
<clipPath id="clip0_3891_348">
<rect width="20" height="20" fill="white"/>
</clipPath>
</defs>
</svg>
