<svg width="20" height="20" viewBox="0 0 20 20" fill="none" xmlns="http://www.w3.org/2000/svg">
<g clip-path="url(#clip0_3859_3228)">
<path d="M14.9999 0H4.99992C4.07992 0.00108333 3.33434 0.746667 3.33325 1.66667V17C3.33425 17.7917 3.89113 18.4739 4.66659 18.6333V20H6.66659V18.6667H13.3333V20H15.3333V18.6333C16.1087 18.4739 16.6656 17.7917 16.6666 17V1.66667C16.6655 0.746667 15.9199 0.00108333 14.9999 0ZM5.99992 19.3333H5.33325V18.6667H5.99992V19.3333ZM14.6666 19.3333H13.9999V18.6667H14.6666V19.3333ZM15.9999 17C15.9999 17.5523 15.5522 18 14.9999 18H4.99992C4.44763 18 3.99992 17.5523 3.99992 17V1.66667C3.99992 1.11437 4.44763 0.666667 4.99992 0.666667H14.9999C15.5522 0.666667 15.9999 1.11437 15.9999 1.66667V17Z" fill="black"/>
<path d="M9.99984 6.66663C7.05434 6.66663 4.6665 9.05446 4.6665 12C4.67 14.944 7.05575 17.3298 9.99984 17.3333C12.9453 17.3333 15.3332 14.9455 15.3332 12C15.3332 9.05446 12.9453 6.66663 9.99984 6.66663ZM9.99984 16.6666C7.4225 16.6666 5.33317 14.5773 5.33317 12C5.33592 9.42379 7.42367 7.33604 9.99984 7.33329C12.5772 7.33329 14.6665 9.42263 14.6665 12C14.6665 14.5773 12.5772 16.6666 9.99984 16.6666Z" fill="black"/>
<path d="M10 8.00004C7.79088 8.00004 6 9.79092 6 12C6.00238 14.2082 7.79183 15.9977 10 16C12.2091 16 14 14.2092 14 12C14 9.79092 12.2091 8.00004 10 8.00004ZM10 15.3334C8.15904 15.3334 6.66667 13.841 6.66667 12C6.66871 10.1599 8.15988 8.66871 10 8.66671C11.841 8.66671 13.3333 10.1591 13.3333 12C13.3333 13.841 11.841 15.3334 10 15.3334ZM10 1.33337C8.71133 1.33337 7.66667 2.37804 7.66667 3.66671C7.66813 4.95475 8.71196 5.99858 10 6.00004C11.2887 6.00004 12.3333 4.95537 12.3333 3.66671C12.3333 2.37804 11.2887 1.33337 10 1.33337ZM10 5.33337C9.07954 5.33337 8.33333 4.58717 8.33333 3.66671C8.33442 2.74671 9.08 2.00112 10 2.00004C10.9205 2.00004 11.6667 2.74625 11.6667 3.66671C11.6667 4.58717 10.9205 5.33337 10 5.33337Z" fill="black"/>
<path d="M9.99992 2.66671C9.44763 2.66671 8.99992 3.11442 8.99992 3.66671C8.99992 4.219 9.44763 4.66671 9.99992 4.66671C10.5522 4.66671 10.9999 4.219 10.9999 3.66671C10.9999 3.11442 10.5522 2.66671 9.99992 2.66671ZM9.99992 4.00004C9.91151 4.00004 9.82673 3.96492 9.76422 3.90241C9.7017 3.8399 9.66659 3.75511 9.66659 3.66671C9.66659 3.5783 9.7017 3.49352 9.76422 3.43101C9.82673 3.36849 9.91151 3.33337 9.99992 3.33337C10.0883 3.33337 10.1731 3.36849 10.2356 3.43101C10.2981 3.49352 10.3333 3.5783 10.3333 3.66671C10.3333 3.75511 10.2981 3.8399 10.2356 3.90241C10.1731 3.96492 10.0883 4.00004 9.99992 4.00004ZM4.66659 1.33337H5.33325V2.00004H4.66659V1.33337ZM14.6666 1.33337H15.3333V2.00004H14.6666V1.33337ZM4.66659 16.6667H5.33325V17.3334H4.66659V16.6667ZM14.6666 16.6667H15.3333V17.3334H14.6666V16.6667ZM9.99992 10.3334C9.07946 10.3334 8.33325 11.0796 8.33325 12C8.33434 12.92 9.07992 13.6656 9.99992 13.6667C10.9204 13.6667 11.6666 12.9205 11.6666 12C11.6666 11.0796 10.9204 10.3334 9.99992 10.3334ZM9.99992 13C9.44763 13 8.99992 12.5523 8.99992 12C8.99992 11.4478 9.44763 11 9.99992 11C10.5522 11 10.9999 11.4478 10.9999 12C10.9999 12.5523 10.5522 13 9.99992 13ZM1.99992 11.6667H0.666585C0.57818 11.6667 0.493395 11.7018 0.430883 11.7643C0.368371 11.8269 0.333252 11.9116 0.333252 12C0.333252 12.0884 0.368371 12.1732 0.430883 12.2357C0.493395 12.2983 0.57818 12.3334 0.666585 12.3334H1.99992C2.08832 12.3334 2.17311 12.2983 2.23562 12.2357C2.29813 12.1732 2.33325 12.0884 2.33325 12C2.33325 11.9116 2.29813 11.8269 2.23562 11.7643C2.17311 11.7018 2.08832 11.6667 1.99992 11.6667ZM2.23559 9.43104L1.23559 8.43104C1.17272 8.37032 1.08852 8.33672 1.00112 8.33748C0.913719 8.33824 0.830115 8.3733 0.768312 8.4351C0.70651 8.4969 0.671453 8.58051 0.670694 8.66791C0.669934 8.75531 0.703533 8.83951 0.764252 8.90238L1.76425 9.90238C1.82712 9.96309 1.91132 9.99669 1.99872 9.99593C2.08612 9.99517 2.16972 9.96012 2.23152 9.89831C2.29333 9.83651 2.32838 9.75291 2.32914 9.66551C2.3299 9.57811 2.2963 9.49391 2.23559 9.43104ZM2.22742 14.0977C2.16527 14.0377 2.08224 14.0041 1.99584 14.0041C1.90943 14.0041 1.8264 14.0377 1.76425 14.0977L0.764252 15.0977C0.700666 15.1591 0.664084 15.2433 0.662552 15.3317C0.661021 15.4201 0.694666 15.5055 0.756085 15.569C0.787173 15.6012 0.824421 15.6268 0.865611 15.6443C0.906801 15.6618 0.951089 15.6708 0.995835 15.6708C1.04058 15.6708 1.08487 15.6618 1.12606 15.6443C1.16725 15.6268 1.2045 15.6012 1.23559 15.569L2.23559 14.569C2.297 14.5055 2.33065 14.4201 2.32912 14.3317C2.32759 14.2433 2.291 14.1591 2.22742 14.0977ZM19.3333 11.6667H17.9999C17.9115 11.6667 17.8267 11.7018 17.7642 11.7643C17.7017 11.8269 17.6666 11.9116 17.6666 12C17.6666 12.0884 17.7017 12.1732 17.7642 12.2357C17.8267 12.2983 17.9115 12.3334 17.9999 12.3334H19.3333C19.4217 12.3334 19.5064 12.2983 19.569 12.2357C19.6315 12.1732 19.6666 12.0884 19.6666 12C19.6666 11.9116 19.6315 11.8269 19.569 11.7643C19.5064 11.7018 19.4217 11.6667 19.3333 11.6667ZM19.2274 8.43104C19.1653 8.37102 19.0822 8.33747 18.9958 8.33747C18.9094 8.33747 18.8264 8.37102 18.7643 8.43104L17.7643 9.43104C17.7035 9.49391 17.6699 9.57811 17.6707 9.66551C17.6715 9.75291 17.7065 9.83651 17.7683 9.89831C17.8301 9.96012 17.9137 9.99517 18.0011 9.99593C18.0885 9.99669 18.1727 9.96309 18.2356 9.90238L19.2356 8.90238C19.297 8.83879 19.3307 8.75341 19.3291 8.66502C19.3276 8.57662 19.291 8.49246 19.2274 8.43104ZM19.2356 15.0977L18.2356 14.0977C18.172 14.0363 18.0866 14.0026 17.9982 14.0042C17.9098 14.0057 17.8257 14.0423 17.7643 14.1059C17.7042 14.168 17.6707 14.2511 17.6707 14.3375C17.6707 14.4239 17.7042 14.5069 17.7643 14.569L18.7643 15.569C18.8278 15.6305 18.9132 15.6641 19.0016 15.6626C19.09 15.661 19.1742 15.6245 19.2356 15.5609C19.2956 15.4987 19.3292 15.4157 19.3292 15.3293C19.3292 15.2429 19.2956 15.1599 19.2356 15.0977Z" fill="black"/>
</g>
<defs>
<clipPath id="clip0_3859_3228">
<rect width="20" height="20" fill="white"/>
</clipPath>
</defs>
</svg>
