<svg width="20" height="20" viewBox="0 0 20 20" fill="none" xmlns="http://www.w3.org/2000/svg">
<g clip-path="url(#clip0_3531_2745)">
<path d="M15.5882 12.3518C15.5967 11.8893 15.7863 11.4487 16.1163 11.1246C16.4464 10.8006 16.8904 10.619 17.3529 10.619C17.8155 10.619 18.2595 10.8006 18.5895 11.1246C18.9196 11.4487 19.1092 11.8893 19.1176 12.3518V14.4974C19.5172 14.8548 19.7989 15.3251 19.9253 15.846C20.0518 16.367 20.017 16.9141 19.8258 17.4149C19.6345 17.9157 19.2956 18.3466 18.8541 18.6506C18.4125 18.9546 17.889 19.1174 17.3529 19.1174C16.8168 19.1174 16.2934 18.9546 15.8518 18.6506C15.4103 18.3466 15.0714 17.9157 14.8801 17.4149C14.6888 16.9141 14.6541 16.367 14.7806 15.846C14.907 15.3251 15.1887 14.8548 15.5882 14.4974V12.3518ZM16.7647 14.7809C16.7647 14.8756 16.7418 14.9689 16.6979 15.0529C16.6541 15.1369 16.5906 15.2091 16.5129 15.2632C16.2559 15.4421 16.0627 15.6983 15.9614 15.9946C15.8601 16.2909 15.8561 16.6117 15.9498 16.9105C16.0435 17.2093 16.2301 17.4703 16.4825 17.6556C16.7349 17.841 17.0398 17.9409 17.3529 17.9409C17.6661 17.9409 17.971 17.841 18.2234 17.6556C18.4757 17.4703 18.6624 17.2093 18.7561 16.9105C18.8498 16.6117 18.8457 16.2909 18.7445 15.9946C18.6432 15.6983 18.4499 15.4421 18.1929 15.2632C18.1152 15.2091 18.0518 15.1369 18.0079 15.0529C17.9641 14.9689 17.9412 14.8756 17.9412 14.7809V12.3518C17.9363 12.199 17.8723 12.0541 17.7625 11.9477C17.6527 11.8413 17.5058 11.7818 17.3529 11.7818C17.2001 11.7818 17.0532 11.8413 16.9434 11.9477C16.8336 12.0541 16.7695 12.199 16.7647 12.3518V14.7809ZM2.94118 15.5882V8.52942C2.94118 8.37341 3.00315 8.22379 3.11347 8.11348C3.22378 8.00316 3.3734 7.94119 3.52941 7.94119H12.9412C13.0972 7.94119 13.2468 8.00316 13.3571 8.11348C13.4674 8.22379 13.5294 8.37341 13.5294 8.52942V12.353C13.5294 12.509 13.4674 12.6586 13.3571 12.7689C13.2468 12.8792 13.0972 12.9412 12.9412 12.9412C12.7852 12.9412 12.6355 12.8792 12.5252 12.7689C12.4149 12.6586 12.3529 12.509 12.3529 12.353V9.11766H4.11765V15.5882H11.7647C11.9207 15.5882 12.0703 15.6502 12.1807 15.7605C12.291 15.8709 12.3529 16.0205 12.3529 16.1765C12.3529 16.3325 12.291 16.4821 12.1807 16.5924C12.0703 16.7027 11.9207 16.7647 11.7647 16.7647H1.76471C1.29668 16.7647 0.847817 16.5788 0.51687 16.2478C0.185924 15.9169 4.49901e-10 15.468 4.49901e-10 15L4.49901e-10 6.57472C-7.10477e-06 6.26001 0.0841447 5.95102 0.243735 5.67978C0.403325 5.40854 0.632547 5.18491 0.907647 5.03207L7.65 1.28648C7.92088 1.13599 8.22661 1.05947 8.53644 1.06464C8.84628 1.0698 9.14929 1.15646 9.415 1.31589L15.6138 5.0353C15.8751 5.19209 16.0914 5.41388 16.2415 5.67906C16.3917 5.94425 16.4706 6.2438 16.4706 6.54854V8.52942C16.4706 8.68543 16.4086 8.83505 16.2983 8.94537C16.188 9.05568 16.0384 9.11766 15.8824 9.11766C15.7263 9.11766 15.5767 9.05568 15.4664 8.94537C15.3561 8.83505 15.2941 8.68543 15.2941 8.52942V6.54854C15.2941 6.44696 15.2678 6.34711 15.2178 6.25871C15.1677 6.17032 15.0956 6.09639 15.0085 6.04413L8.80941 2.32472C8.72087 2.27156 8.61989 2.24265 8.51663 2.24089C8.41338 2.23914 8.31147 2.2646 8.22118 2.31472L1.47912 6.0603C1.38737 6.11125 1.31092 6.18582 1.25771 6.27628C1.20449 6.36673 1.17644 6.46977 1.17647 6.57472V15C1.17647 15.156 1.23845 15.3056 1.34876 15.416C1.45908 15.5263 1.6087 15.5882 1.76471 15.5882H2.94118ZM6.76471 6.17648C6.6087 6.17648 6.45908 6.11451 6.34876 6.00419C6.23845 5.89387 6.17647 5.74425 6.17647 5.58824C6.17647 5.43224 6.23845 5.28262 6.34876 5.1723C6.45908 5.06198 6.6087 5.00001 6.76471 5.00001H9.70588C9.86189 5.00001 10.0115 5.06198 10.1218 5.1723C10.2321 5.28262 10.2941 5.43224 10.2941 5.58824C10.2941 5.74425 10.2321 5.89387 10.1218 6.00419C10.0115 6.11451 9.86189 6.17648 9.70588 6.17648H6.76471Z" fill="black"/>
</g>
<defs>
<clipPath id="clip0_3531_2745">
<rect width="20" height="20" fill="white"/>
</clipPath>
</defs>
</svg>
