<svg width="20" height="20" viewBox="0 0 20 20" fill="none" xmlns="http://www.w3.org/2000/svg">
<g clip-path="url(#clip0_3891_588)">
<path d="M9.19698 4.73043V13.5226C8.32708 13.9551 7.729 14.8523 7.729 15.8897C7.729 17.349 8.91204 18.532 10.3714 18.532C11.8307 18.532 13.0137 17.349 13.0137 15.8897C13.0137 14.8523 12.4156 13.9551 11.5457 13.5226V2.67902C11.5457 2.03045 11.02 1.50464 10.3714 1.50464C9.72275 1.50464 9.19698 2.03041 9.19698 2.67902V4.17072" stroke="black" stroke-miterlimit="10"/>
<path d="M12.7199 10.6048V2.64234C12.7199 1.34516 11.6684 0.293579 10.3712 0.293579C9.074 0.293579 8.02242 1.34516 8.02242 2.64234V12.8811C7.12887 13.5796 6.55444 14.6675 6.55444 15.8896C6.55444 17.9975 8.26325 19.7063 10.3712 19.7063C12.4791 19.7063 14.1879 17.9975 14.1879 15.8896C14.1879 14.6675 13.6135 13.5796 12.7199 12.8811V11.192M9.1968 6.78932H11.5456M16.8303 1.46577V5.65131M15.0179 2.51214L18.6427 4.60493M18.6427 2.51214L15.0179 4.60493M17.3196 1.65911L16.8303 1.16979L16.3376 1.66244M15.4225 2.19706L14.7541 2.37619L14.9344 3.04915M14.9398 4.10899L14.7608 4.77741L15.4338 4.95775M16.3543 5.48294L16.8436 5.97226L17.3363 5.47961M18.2514 4.94499L18.9198 4.76586L18.7395 4.0929M18.734 3.03306L18.9132 2.36464L18.2402 2.18429" stroke="black" stroke-miterlimit="10"/>
<path d="M3.91231 4.44059C4.39945 4.44059 4.79435 4.04569 4.79435 3.55855C4.79435 3.07142 4.39945 2.67651 3.91231 2.67651C3.42518 2.67651 3.03027 3.07142 3.03027 3.55855C3.03027 4.04569 3.42518 4.44059 3.91231 4.44059Z" stroke="black" stroke-miterlimit="10"/>
<path d="M9.19692 14.7151V15.3023M15.6453 15.8895H17.4069M15.3019 14.8285L16.6514 13.6961M16.6514 18.0828L15.3019 16.9505M5.08658 15.8895H3.32501M5.43001 14.8285L4.08057 13.6961M4.08057 18.0828L5.43001 16.9505M6.34846 2.76703L6.34854 2.76695C5.70595 2.72553 5.25902 2.11055 5.418 1.48656C4.87371 1.83105 4.15005 1.5959 3.9122 0.997314C3.67435 1.59594 2.95066 1.83109 2.40637 1.48656C2.56534 2.11055 2.11841 2.7255 1.47583 2.76695C1.97146 3.17822 1.97146 3.93871 1.47583 4.34998C2.11841 4.3914 2.56534 5.00638 2.40637 5.63037C2.95066 5.28588 3.67431 5.52103 3.91216 6.11962C4.15002 5.52099 4.87371 5.28584 5.418 5.63037C5.25902 5.00638 5.70595 4.39144 6.34854 4.34998C5.85299 3.93875 5.85291 3.17838 6.34846 2.76703Z" stroke="black" stroke-miterlimit="10"/>
</g>
<defs>
<clipPath id="clip0_3891_588">
<rect width="20" height="20" fill="white"/>
</clipPath>
</defs>
</svg>
