<svg width="20" height="20" viewBox="0 0 20 20" fill="none" xmlns="http://www.w3.org/2000/svg">
<g clip-path="url(#clip0_3859_3258)">
<path d="M11.6333 5.89576C11.6978 5.44311 11.6685 4.98204 11.5472 4.54122C11.4259 4.10039 11.2152 3.68923 10.9282 3.33331C10.6412 2.97739 10.2841 2.68431 9.87897 2.4723C9.47388 2.26029 9.02951 2.13389 8.57348 2.10095C8.11746 2.06801 7.65953 2.12923 7.22818 2.28082C6.79682 2.4324 6.40127 2.67111 6.0661 2.98209C5.73094 3.29307 5.46333 3.66968 5.27993 4.08849C5.09652 4.50731 5.00124 4.95938 5 5.41659C5 5.81242 5.02083 6.24992 5.44583 6.24992C5.50623 6.25061 5.56605 6.23815 5.62116 6.21342C5.67627 6.18869 5.72534 6.15227 5.76497 6.10669C5.8046 6.06111 5.83386 6.00746 5.8507 5.94946C5.86754 5.89145 5.87156 5.83048 5.8625 5.77076C5.81198 5.41623 5.83822 5.05499 5.93943 4.71149C6.04065 4.36799 6.21448 4.05024 6.44916 3.77975C6.68384 3.50926 6.97389 3.29234 7.29968 3.14368C7.62547 2.99502 7.9794 2.91809 8.3375 2.91809C8.69561 2.91809 9.04953 2.99502 9.37532 3.14368C9.70111 3.29234 9.99116 3.50926 10.2258 3.77975C10.4605 4.05024 10.6344 4.36799 10.7356 4.71149C10.8368 5.05499 10.863 5.41623 10.8125 5.77076C10.8056 5.87489 10.8381 5.9778 10.9035 6.05914C10.9689 6.14048 11.0624 6.19433 11.1655 6.21004C11.2687 6.22575 11.374 6.20218 11.4606 6.14398C11.5473 6.08579 11.6089 5.99721 11.6333 5.89576Z" fill="black"/>
<path d="M8.33342 0.833317C9.03289 0.833362 9.72307 0.993501 10.3511 1.30147C10.9791 1.60944 11.5283 2.05706 11.9567 2.61006C12.385 3.16306 12.681 3.80675 12.8222 4.49184C12.9633 5.17692 12.9458 5.88522 12.7709 6.56248C12.7433 6.66968 12.7594 6.78345 12.8156 6.87878C12.8719 6.97411 12.9637 7.04319 13.0709 7.07082C13.1781 7.09844 13.2919 7.08236 13.3872 7.0261C13.4825 6.96984 13.5516 6.87801 13.5792 6.77082C13.7851 5.97059 13.8052 5.13387 13.6379 4.3247C13.4707 3.51552 13.1205 2.75533 12.6142 2.10232C12.108 1.4493 11.459 0.920764 10.717 0.557158C9.97503 0.193553 9.1597 0.0045166 8.33342 0.0045166C7.50713 0.0045166 6.6918 0.193553 5.94982 0.557158C5.20784 0.920764 4.55887 1.4493 4.0526 2.10232C3.54632 2.75533 3.19615 3.51552 3.02889 4.3247C2.86163 5.13387 2.8817 5.97059 3.08758 6.77082C3.11521 6.87801 3.18429 6.96984 3.27962 7.0261C3.32682 7.05395 3.37905 7.07224 3.43332 7.07992C3.48759 7.08759 3.54284 7.0845 3.59591 7.07082C3.64899 7.05714 3.69885 7.03314 3.74265 7.00019C3.78645 6.96724 3.82334 6.92599 3.85119 6.87878C3.87905 6.83158 3.89734 6.77935 3.90501 6.72508C3.91269 6.67081 3.90959 6.61556 3.89592 6.56248C3.72105 5.88522 3.70351 5.17692 3.84465 4.49184C3.98579 3.80675 4.28185 3.16306 4.71018 2.61006C5.1385 2.05706 5.6877 1.60944 6.31573 1.30147C6.94376 0.993501 7.63394 0.833362 8.33342 0.833317Z" fill="black"/>
<path d="M15.0001 9.82084C14.9682 9.53737 14.8641 9.26685 14.6977 9.03514C14.5313 8.80343 14.3083 8.6183 14.0499 8.49747C13.7915 8.37663 13.5064 8.32414 13.2219 8.34501C12.9374 8.36588 12.6631 8.45942 12.4251 8.61667C12.3437 8.38348 12.2114 8.1713 12.038 7.99548C11.8645 7.81967 11.6541 7.6846 11.422 7.60007C11.1899 7.51553 10.942 7.48363 10.696 7.50668C10.4501 7.52973 10.2124 7.60715 10.0001 7.73333V5.90417C10.0141 5.57255 9.92874 5.24431 9.755 4.9615C9.58126 4.67869 9.32704 4.45419 9.02491 4.31678C8.72278 4.17937 8.3865 4.13529 8.05916 4.19021C7.73182 4.24512 7.42833 4.39652 7.18758 4.625C6.49591 5.27917 6.66675 5.59583 6.66675 10.4167C5.54175 9.58333 4.16675 10.0833 4.16675 11.25V14.5833C4.16675 16.0199 4.73743 17.3977 5.75325 18.4135C6.76908 19.4293 8.14683 20 9.58342 20H12.0834C13.52 20 14.8978 19.4293 15.9136 18.4135C16.9294 17.3977 17.5001 16.0199 17.5001 14.5833V11.3208C17.5103 11.0235 17.4407 10.7289 17.2986 10.4675C17.1565 10.2061 16.947 9.98756 16.6919 9.83449C16.4368 9.68142 16.1453 9.59943 15.8478 9.59703C15.5503 9.59463 15.2576 9.67191 15.0001 9.82084ZM16.6667 14.5833C16.6667 15.1852 16.5482 15.7812 16.3179 16.3373C16.0875 16.8934 15.7499 17.3986 15.3243 17.8242C14.8987 18.2498 14.3935 18.5875 13.8374 18.8178C13.2813 19.0481 12.6853 19.1667 12.0834 19.1667H9.58342C8.36784 19.1667 7.20205 18.6838 6.34251 17.8242C5.48297 16.9647 5.00008 15.7989 5.00008 14.5833V11.25C5.00008 10.6667 5.83341 10.7375 6.28758 11.1833C6.74175 11.6292 6.66675 12.025 6.66675 14.5833C6.66675 14.6938 6.71065 14.7998 6.78879 14.878C6.86693 14.9561 6.97291 15 7.08341 15C7.19392 15 7.2999 14.9561 7.37804 14.878C7.45618 14.7998 7.50008 14.6938 7.50008 14.5833V5.83333C7.49991 5.71993 7.52289 5.60769 7.5676 5.50348C7.61232 5.39927 7.67783 5.30528 7.76013 5.22726C7.84244 5.14925 7.9398 5.08886 8.04625 5.04978C8.15271 5.0107 8.26602 4.99376 8.37925 5C8.5998 5.02494 8.803 5.13162 8.94878 5.29899C9.09455 5.46636 9.17232 5.68228 9.16675 5.90417V12.0833C9.16675 12.1938 9.21065 12.2998 9.28879 12.378C9.36693 12.4561 9.47291 12.5 9.58342 12.5C9.69392 12.5 9.7999 12.4561 9.87804 12.378C9.95618 12.2998 10.0001 12.1938 10.0001 12.0833V9.16667C10.0001 8.94565 10.0879 8.73369 10.2442 8.57741C10.4004 8.42113 10.6124 8.33333 10.8334 8.33333C11.0544 8.33333 11.2664 8.42113 11.4227 8.57741C11.579 8.73369 11.6667 8.94565 11.6667 9.16667V12.0833C11.6667 12.1938 11.7106 12.2998 11.7888 12.378C11.8669 12.4561 11.9729 12.5 12.0834 12.5C12.1939 12.5 12.2999 12.4561 12.378 12.378C12.4562 12.2998 12.5001 12.1938 12.5001 12.0833V10C12.5001 9.77899 12.5879 9.56703 12.7442 9.41075C12.9004 9.25447 13.1124 9.16667 13.3334 9.16667C13.5544 9.16667 13.7664 9.25447 13.9227 9.41075C14.079 9.56703 14.1667 9.77899 14.1667 10V12.0833C14.1667 12.1938 14.2106 12.2998 14.2888 12.378C14.3669 12.4561 14.4729 12.5 14.5834 12.5C14.6939 12.5 14.7999 12.4561 14.878 12.378C14.9562 12.2998 15.0001 12.1938 15.0001 12.0833C15.0001 11.1792 14.9459 10.9417 15.2584 10.6458C15.3807 10.5279 15.5362 10.4502 15.704 10.4231C15.8717 10.396 16.0437 10.4208 16.197 10.4943C16.3502 10.5677 16.4773 10.6863 16.5613 10.834C16.6453 10.9817 16.6821 11.1516 16.6667 11.3208V14.5833Z" fill="black"/>
</g>
<defs>
<clipPath id="clip0_3859_3258">
<rect width="20" height="20" fill="white"/>
</clipPath>
</defs>
</svg>
