<svg width="20" height="20" viewBox="0 0 20 20" fill="none" xmlns="http://www.w3.org/2000/svg">
<path d="M5 17.5V13.75V10.625H15V13.75V17.5H5ZM15 9.375H5V6.25V2.5H15V6.25V9.375ZM3.75 17.5H2.5C1.80859 17.5 1.25 16.9414 1.25 16.25V14.375H3.75V17.5ZM1.25 10.625H3.75V13.125H1.25V10.625ZM3.75 6.875V9.375H1.25V6.875H3.75ZM3.75 2.5V5.625H1.25V3.75C1.25 3.05859 1.80859 2.5 2.5 2.5H3.75ZM16.25 13.125V10.625H18.75V13.125H16.25ZM16.25 17.5V14.375H18.75V16.25C18.75 16.9414 18.1914 17.5 17.5 17.5H16.25ZM16.25 6.875H18.75V9.375H16.25V6.875ZM18.75 3.75V5.625H16.25V2.5H17.5C18.1914 2.5 18.75 3.05859 18.75 3.75ZM17.5 1.25H2.5C1.12109 1.25 0 2.37109 0 3.75V16.25C0 17.6289 1.12109 18.75 2.5 18.75H17.5C18.8789 18.75 20 17.6289 20 16.25V3.75C20 2.37109 18.8789 1.25 17.5 1.25Z" fill="black"/>
</svg>
