<svg width="20" height="20" viewBox="0 0 20 20" fill="none" xmlns="http://www.w3.org/2000/svg">
<g clip-path="url(#clip0_3891_397)">
<path d="M13.4701 0H6.52969C6.44681 0 6.36732 0.032924 6.30872 0.0915291C6.25011 0.150134 6.21719 0.22962 6.21719 0.3125V4.94762H5.41004C5.23766 4.94776 5.07238 5.01629 4.95047 5.13815C4.82856 5.26002 4.75997 5.42528 4.75977 5.59766V16.3624C4.76084 17.3268 5.14442 18.2514 5.82635 18.9334C6.50828 19.6153 7.43286 19.9989 8.39727 20H11.6025C12.5669 19.9989 13.4915 19.6153 14.1734 18.9334C14.8553 18.2514 15.2389 17.3268 15.24 16.3624V5.59766C15.2398 5.42528 15.1712 5.26003 15.0493 5.13817C14.9274 5.0163 14.7621 4.94777 14.5897 4.94762H13.7826V0.3125C13.7826 0.22962 13.7497 0.150134 13.691 0.0915291C13.6324 0.032924 13.553 0 13.4701 0ZM6.84219 0.625H13.1576V4.94762H6.84219V0.625ZM14.615 5.59766V16.3624C14.6141 17.1611 14.2964 17.9269 13.7317 18.4916C13.1669 19.0564 12.4012 19.3741 11.6025 19.375H8.39727C7.59857 19.3741 6.83284 19.0564 6.26808 18.4916C5.70333 17.9269 5.38565 17.1611 5.38477 16.3624V5.59766C5.38501 5.59107 5.38773 5.58481 5.39239 5.58015C5.39705 5.57548 5.4033 5.57275 5.40988 5.5725H14.5897C14.5963 5.57272 14.6026 5.57544 14.6073 5.58011C14.612 5.58477 14.6147 5.59105 14.615 5.59766ZM7.2273 12.0717V13.2721C7.22731 13.3258 7.24117 13.3787 7.26754 13.4255C7.29391 13.4723 7.3319 13.5115 7.37785 13.5393L9.84242 15.0333V15.4914C9.63277 15.5652 9.45597 15.7107 9.3433 15.9023C9.23063 16.0939 9.18935 16.3191 9.22676 16.5382C9.26417 16.7573 9.37787 16.956 9.54773 17.0994C9.7176 17.2427 9.93268 17.3213 10.1549 17.3213C10.3772 17.3213 10.5922 17.2427 10.7621 17.0994C10.932 16.956 11.0457 16.7573 11.0831 16.5382C11.1205 16.3191 11.0792 16.0939 10.9665 15.9023C10.8539 15.7107 10.6771 15.5652 10.4674 15.4914V13.9123L12.7218 12.5458C12.7677 12.518 12.8057 12.4788 12.832 12.4319C12.8584 12.3851 12.8723 12.3323 12.8723 12.2786V10.4284H13.0389C13.1218 10.4284 13.2013 10.3955 13.2599 10.3369C13.3185 10.2783 13.3514 10.1988 13.3514 10.1159V9.15723C13.3514 9.07435 13.3185 8.99486 13.2599 8.93626C13.2013 8.87765 13.1218 8.84473 13.0389 8.84473H12.0804C11.9975 8.84473 11.9181 8.87765 11.8595 8.93626C11.8009 8.99486 11.7679 9.07435 11.7679 9.15723V10.1159C11.7679 10.1988 11.8009 10.2783 11.8595 10.3369C11.9181 10.3955 11.9975 10.4284 12.0804 10.4284H12.2472V12.1026L10.4674 13.1814V8.83523L10.8157 9.2741C10.8411 9.30675 10.8726 9.33405 10.9086 9.35443C10.9446 9.3748 10.9842 9.38783 11.0252 9.39278C11.0663 9.39773 11.1079 9.39449 11.1476 9.38324C11.1874 9.372 11.2246 9.35298 11.2569 9.32729C11.2893 9.30159 11.3162 9.26973 11.3362 9.23355C11.3562 9.19737 11.3688 9.15759 11.3733 9.1165C11.3778 9.07542 11.3741 9.03385 11.3624 8.99421C11.3507 8.95456 11.3313 8.91763 11.3052 8.88555L10.3996 7.74465C10.3703 7.70779 10.3331 7.67802 10.2908 7.65755C10.2484 7.63709 10.2019 7.62646 10.1549 7.62646C10.1078 7.62646 10.0613 7.63709 10.019 7.65755C9.97659 7.67802 9.93938 7.70779 9.91012 7.74465L9.00457 8.88555C8.97852 8.91763 8.95909 8.95456 8.94741 8.99421C8.93573 9.03385 8.93203 9.07542 8.93652 9.1165C8.94102 9.15759 8.95361 9.19737 8.97359 9.23355C8.99356 9.26973 9.02051 9.30159 9.05288 9.32729C9.08525 9.35298 9.1224 9.372 9.16217 9.38324C9.20194 9.39449 9.24354 9.39773 9.28457 9.39278C9.3256 9.38783 9.36525 9.3748 9.40121 9.35443C9.43717 9.33405 9.46873 9.30675 9.49406 9.2741L9.84242 8.83523V14.3024L7.8523 13.0961V12.0717C8.04798 11.9985 8.21172 11.8589 8.31496 11.6772C8.41819 11.4956 8.45436 11.2835 8.41715 11.0779C8.37994 10.8723 8.27172 10.6863 8.11137 10.5524C7.95102 10.4184 7.74873 10.3451 7.5398 10.3451C7.33088 10.3451 7.12859 10.4184 6.96824 10.5524C6.80789 10.6863 6.69967 10.8723 6.66246 11.0779C6.62525 11.2835 6.66142 11.4956 6.76465 11.6772C6.86789 11.8589 7.03163 11.9985 7.2273 12.0717ZM12.3929 9.46973H12.7264V9.8034H12.3928L12.3929 9.46973ZM10.1549 16.6963C10.0923 16.6963 10.0311 16.6777 9.97899 16.6429C9.92691 16.6082 9.88632 16.5587 9.86235 16.5008C9.83838 16.443 9.83211 16.3793 9.84432 16.3179C9.85654 16.2565 9.8867 16.2 9.93098 16.1558C9.97527 16.1115 10.0317 16.0813 10.0931 16.0691C10.1545 16.0569 10.2182 16.0631 10.2761 16.0871C10.3339 16.1111 10.3834 16.1517 10.4182 16.2038C10.453 16.2558 10.4715 16.3171 10.4715 16.3797C10.4714 16.4636 10.438 16.544 10.3786 16.6034C10.3193 16.6627 10.2388 16.696 10.1549 16.6961V16.6963ZM7.5398 10.9701C7.59254 10.9701 7.6441 10.9857 7.68795 11.015C7.73181 11.0443 7.76599 11.086 7.78618 11.1347C7.80636 11.1834 7.81165 11.237 7.80137 11.2888C7.79108 11.3405 7.76569 11.388 7.7284 11.4253C7.69111 11.4626 7.6436 11.488 7.59188 11.4983C7.54015 11.5086 7.48654 11.5033 7.43781 11.4831C7.38909 11.4629 7.34744 11.4287 7.31814 11.3849C7.28884 11.3411 7.2732 11.2895 7.2732 11.2368C7.27329 11.1661 7.3014 11.0983 7.35138 11.0483C7.40136 10.9983 7.46912 10.9702 7.5398 10.9701ZM9.25133 1.1384H8.09215C8.00927 1.1384 7.92978 1.17132 7.87118 1.22993C7.81257 1.28853 7.77965 1.36802 7.77965 1.4509V3.32812C7.77965 3.41101 7.81257 3.49049 7.87118 3.5491C7.92978 3.6077 8.00927 3.64062 8.09215 3.64062H9.25133C9.33421 3.64062 9.41369 3.6077 9.4723 3.5491C9.5309 3.49049 9.56383 3.41101 9.56383 3.32812V1.4509C9.56383 1.36802 9.5309 1.28853 9.4723 1.22993C9.41369 1.17132 9.33421 1.1384 9.25133 1.1384ZM8.93883 3.01574H8.40465V1.7634H8.93883V3.01574ZM11.9076 1.1384H10.7484C10.6656 1.1384 10.5861 1.17132 10.5275 1.22993C10.4689 1.28853 10.4359 1.36802 10.4359 1.4509V3.32812C10.4359 3.41101 10.4689 3.49049 10.5275 3.5491C10.5861 3.6077 10.6656 3.64062 10.7484 3.64062H11.9076C11.9905 3.64062 12.07 3.6077 12.1286 3.5491C12.1872 3.49049 12.2201 3.41101 12.2201 3.32812V1.4509C12.2201 1.36802 12.1872 1.28853 12.1286 1.22993C12.07 1.17132 11.9905 1.1384 11.9076 1.1384H11.9076ZM11.5951 3.01574H11.0609V1.7634H11.5951L11.5951 3.01574Z" fill="black"/>
</g>
<defs>
<clipPath id="clip0_3891_397">
<rect width="20" height="20" fill="white"/>
</clipPath>
</defs>
</svg>
