<svg width="20" height="20" viewBox="0 0 20 20" fill="none" xmlns="http://www.w3.org/2000/svg">
<path d="M16.9872 12.1767L16.1372 10.7956C16.1402 9.66097 15.8268 8.54794 15.232 7.58164C14.6373 6.61534 13.7848 5.83406 12.7704 5.32563L12.0986 4.23282C11.878 3.87457 11.5694 3.57876 11.2022 3.37358C10.8349 3.16839 10.4213 3.06067 10.0006 3.06067C9.57991 3.06067 9.16624 3.16839 8.79899 3.37358C8.43174 3.57876 8.12315 3.87457 7.90262 4.23282L7.23075 5.32563C6.21614 5.83389 5.36341 6.61509 4.76843 7.5814C4.17346 8.54772 3.85982 9.66084 3.86278 10.7956L3.01278 12.1767C2.78303 12.55 2.65702 12.9778 2.64777 13.416C2.63851 13.8541 2.74633 14.2869 2.96012 14.6695C3.1739 15.0521 3.4859 15.3707 3.86392 15.5925C4.24194 15.8144 4.6723 15.9313 5.11059 15.9313H6.62903C7.6303 16.5889 8.80206 16.9392 9.99997 16.9392C11.1979 16.9392 12.3696 16.5889 13.3709 15.9313H14.8893C15.3276 15.9313 15.758 15.8144 16.136 15.5925C16.514 15.3707 16.826 15.0521 17.0398 14.6695C17.2536 14.2869 17.3614 13.8541 17.3522 13.416C17.3429 12.9778 17.2169 12.55 16.9872 12.1767ZM16.5625 14.4028C16.398 14.7021 16.1557 14.9513 15.8611 15.1241C15.5666 15.2969 15.2308 15.3868 14.8893 15.3844H13.2878C13.2331 15.3843 13.1796 15.4006 13.1343 15.4313C12.209 16.0575 11.1173 16.3922 9.99997 16.3922C8.88264 16.3922 7.79093 16.0575 6.86559 15.4313C6.82029 15.4006 6.76684 15.3843 6.71215 15.3844H5.11059C4.76959 15.3844 4.43477 15.2934 4.14066 15.1209C3.84655 14.9483 3.60382 14.7004 3.4375 14.4027C3.27118 14.105 3.1873 13.7683 3.19452 13.4274C3.20174 13.0865 3.29979 12.7537 3.47856 12.4633L4.37075 11.0134C4.39779 10.9696 4.41187 10.919 4.41137 10.8675L4.40965 10.8024C4.40575 9.75536 4.69769 8.72856 5.25184 7.84022C5.80598 6.95189 6.5998 6.23817 7.54184 5.78126C7.58821 5.75852 7.62717 5.72309 7.65418 5.67907L8.36778 4.5197C8.53936 4.241 8.77944 4.01089 9.06515 3.85127C9.35087 3.69165 9.67269 3.60785 9.99997 3.60785C10.3272 3.60785 10.6491 3.69165 10.9348 3.85127C11.2205 4.01089 11.4606 4.241 11.6322 4.5197L12.3457 5.67907C12.3728 5.72309 12.4117 5.75852 12.4581 5.78126C13.4001 6.23817 14.194 6.95189 14.7481 7.84022C15.3022 8.72856 15.5942 9.75536 15.5903 10.8024L15.5886 10.8675C15.5881 10.919 15.6021 10.9696 15.6292 11.0134L16.5214 12.4633C16.7025 12.7528 16.8019 13.086 16.8092 13.4274C16.8164 13.7688 16.7312 14.1059 16.5625 14.4028Z" fill="black"/>
<path d="M10.0001 7.39984C9.32711 7.39981 8.66926 7.59934 8.1097 7.97319C7.55014 8.34704 7.11401 8.87843 6.85646 9.50015C6.59891 10.1219 6.5315 10.806 6.66277 11.466C6.79404 12.1261 7.11809 12.7324 7.59393 13.2082C8.06977 13.6841 8.67604 14.0082 9.33606 14.1395C9.99609 14.2708 10.6802 14.2034 11.302 13.9459C11.9237 13.6883 12.4551 13.2522 12.829 12.6927C13.2029 12.1331 13.4024 11.4753 13.4024 10.8023C13.4014 9.90027 13.0426 9.03543 12.4048 8.39756C11.767 7.75969 10.9021 7.40088 10.0001 7.39984ZM10.0001 13.6578C9.43527 13.6578 8.88314 13.4904 8.41351 13.1766C7.94388 12.8628 7.57784 12.4169 7.36169 11.8951C7.14554 11.3733 7.08897 10.7991 7.19915 10.2451C7.30933 9.69117 7.58131 9.18233 7.98068 8.78295C8.38006 8.38358 8.8889 8.1116 9.44285 8.00142C9.9968 7.89124 10.571 7.94781 11.0928 8.16396C11.6146 8.38012 12.0606 8.74615 12.3743 9.21578C12.6881 9.68541 12.8556 10.2375 12.8555 10.8023C12.8545 11.5593 12.5533 12.285 12.018 12.8203C11.4828 13.3556 10.7571 13.6568 10.0001 13.6578Z" fill="black"/>
<path d="M9.99994 8.59046C9.56247 8.59043 9.13481 8.72013 8.77105 8.96315C8.40729 9.20618 8.12376 9.55161 7.95632 9.95578C7.78889 10.3599 7.74506 10.8047 7.83039 11.2338C7.91572 11.6628 8.12637 12.057 8.4357 12.3663C8.74503 12.6757 9.13915 12.8863 9.56821 12.9717C9.99728 13.0571 10.442 13.0133 10.8462 12.8459C11.2504 12.6784 11.5958 12.3949 11.8389 12.0312C12.0819 11.6675 12.2117 11.2398 12.2117 10.8023C12.211 10.2159 11.9778 9.65371 11.5632 9.23904C11.1485 8.82438 10.5863 8.59112 9.99994 8.59046ZM9.99994 12.4672C9.67062 12.4672 9.34869 12.3696 9.07486 12.1866C8.80103 12.0037 8.58759 11.7437 8.46156 11.4394C8.33552 11.1352 8.30253 10.8004 8.36677 10.4774C8.43101 10.1544 8.58959 9.85771 8.82245 9.62485C9.05532 9.39198 9.35201 9.2334 9.675 9.16916C9.99799 9.10492 10.3328 9.13791 10.637 9.26395C10.9413 9.38999 11.2013 9.60342 11.3842 9.87725C11.5672 10.1511 11.6648 10.473 11.6648 10.8023C11.6643 11.2437 11.4887 11.6669 11.1766 11.979C10.8645 12.2911 10.4413 12.4667 9.99994 12.4672ZM9.99994 6.21452C10.1631 6.21455 10.3227 6.16618 10.4584 6.07553C10.5941 5.98488 10.6999 5.85602 10.7624 5.70525C10.8249 5.55447 10.8412 5.38856 10.8094 5.22848C10.7776 5.06841 10.699 4.92136 10.5836 4.80595C10.4682 4.69053 10.3212 4.61193 10.1611 4.58008C10.0011 4.54822 9.83515 4.56456 9.68436 4.62701C9.53357 4.68946 9.40469 4.79522 9.31402 4.93092C9.22334 5.06662 9.17494 5.22616 9.17494 5.38937C9.17515 5.60812 9.26213 5.81786 9.4168 5.97256C9.57147 6.12725 9.78119 6.21427 9.99994 6.21452ZM9.99994 5.11124C10.055 5.11121 10.1088 5.12751 10.1546 5.15807C10.2004 5.18864 10.2361 5.2321 10.2572 5.28296C10.2782 5.33381 10.2838 5.38978 10.273 5.44377C10.2623 5.49777 10.2358 5.54737 10.1969 5.5863C10.1579 5.62522 10.1083 5.65173 10.0544 5.66246C10.0004 5.6732 9.94439 5.66767 9.89353 5.64659C9.84268 5.62551 9.79922 5.58982 9.76865 5.54403C9.73808 5.49824 9.72179 5.44442 9.72182 5.38937C9.72194 5.31564 9.75128 5.24497 9.80341 5.19284C9.85555 5.14071 9.92622 5.11136 9.99994 5.11124ZM4.97229 12.6662C4.80908 12.6662 4.64953 12.7146 4.51381 12.8052C4.37809 12.8959 4.27231 13.0247 4.20983 13.1755C4.14735 13.3263 4.13099 13.4922 4.16281 13.6523C4.19463 13.8124 4.27321 13.9594 4.3886 14.0748C4.50399 14.1902 4.65102 14.2688 4.81109 14.3007C4.97116 14.3325 5.13708 14.3162 5.28787 14.2538C5.43865 14.1913 5.56753 14.0855 5.65821 13.9498C5.74889 13.8141 5.79729 13.6546 5.79729 13.4914C5.797 13.2727 5.70999 13.063 5.55534 12.9083C5.40069 12.7536 5.19101 12.6666 4.97229 12.6662ZM4.97229 13.7695C4.91723 13.7696 4.86341 13.7533 4.81762 13.7227C4.77183 13.6921 4.73614 13.6487 4.71506 13.5978C4.69398 13.547 4.68845 13.491 4.69919 13.437C4.70992 13.383 4.73643 13.3334 4.77535 13.2945C4.81428 13.2555 4.86388 13.229 4.91788 13.2183C4.97187 13.2076 5.02784 13.2131 5.0787 13.2342C5.12955 13.2553 5.17301 13.2909 5.20358 13.3367C5.23414 13.3825 5.25044 13.4363 5.25041 13.4914C5.25029 13.5651 5.22094 13.6358 5.16881 13.6879C5.11668 13.7401 5.04601 13.7694 4.97229 13.7695ZM15.0276 12.6662C14.8644 12.6662 14.7049 12.7146 14.5692 12.8053C14.4335 12.896 14.3277 13.0248 14.2653 13.1756C14.2028 13.3264 14.1865 13.4923 14.2183 13.6524C14.2501 13.8124 14.3287 13.9595 14.4441 14.0749C14.5595 14.1903 14.7066 14.2689 14.8666 14.3007C15.0267 14.3325 15.1926 14.3162 15.3434 14.2537C15.4941 14.1913 15.623 14.0855 15.7137 13.9498C15.8044 13.8141 15.8528 13.6546 15.8528 13.4914C15.8525 13.2726 15.7655 13.0629 15.6108 12.9082C15.4561 12.7535 15.2464 12.6665 15.0276 12.6662ZM15.0276 13.7695C14.9726 13.7695 14.9187 13.7532 14.873 13.7226C14.8272 13.692 14.7915 13.6486 14.7705 13.5977C14.7494 13.5468 14.7439 13.4909 14.7547 13.4369C14.7654 13.3829 14.7919 13.3333 14.8309 13.2944C14.8698 13.2555 14.9194 13.229 14.9734 13.2183C15.0274 13.2076 15.0834 13.2131 15.1342 13.2342C15.185 13.2553 15.2285 13.291 15.2591 13.3367C15.2896 13.3825 15.3059 13.4364 15.3059 13.4914C15.3058 13.5651 15.2764 13.6358 15.2242 13.688C15.1721 13.7401 15.1013 13.7694 15.0276 13.7695Z" fill="black"/>
</svg>
