<svg width="20" height="20" viewBox="0 0 20 20" fill="none" xmlns="http://www.w3.org/2000/svg">
<path d="M8.17335 4.62976C8.13216 4.63245 8.09161 4.6413 8.05304 4.65601C6.79717 5.11336 5.74248 5.9984 5.07407 7.15582C4.40566 8.31324 4.16622 9.66909 4.39779 10.9854C4.61901 12.2339 5.25023 13.373 6.19158 14.2224C7.13292 15.0718 8.33063 15.5831 9.59521 15.6754V16.0997C9.59665 16.2069 9.6403 16.3091 9.71668 16.3843C9.79306 16.4594 9.89601 16.5014 10.0032 16.5011C10.1094 16.5 10.2109 16.4574 10.2861 16.3824C10.3613 16.3074 10.4042 16.2059 10.4057 16.0997V15.2685C10.4053 15.259 10.4045 15.2495 10.4035 15.2401L10.4024 15.2313C10.4024 15.2306 10.4024 15.2298 10.4024 15.2291L10.4002 15.2182C10.3992 15.2123 10.3981 15.2065 10.3969 15.2007L10.3958 15.193C10.3937 15.1827 10.3911 15.1725 10.3882 15.1624L10.3849 15.1547C10.3835 15.15 10.3821 15.1452 10.3805 15.1405L10.3772 15.1307C10.3762 15.1285 10.3751 15.1263 10.3739 15.1241L10.3707 15.1187C10.3667 15.1086 10.3623 15.0988 10.3575 15.0891L10.3543 15.0837C10.3508 15.0777 10.3471 15.0719 10.3433 15.0662C10.3433 15.064 10.3411 15.0629 10.34 15.0607C10.339 15.0592 10.3379 15.0578 10.3368 15.0563C10.3332 15.0508 10.3296 15.0453 10.3258 15.0399C10.3219 15.0347 10.3179 15.0296 10.3138 15.0246L10.3105 15.0202C10.3035 15.0119 10.2962 15.0039 10.2886 14.9962L10.2832 14.9907C10.2754 14.9831 10.2674 14.9758 10.2591 14.9688L10.2547 14.9655C10.2466 14.9583 10.2382 14.9513 10.2296 14.9447L10.223 14.9415C10.2194 14.9396 10.2157 14.9378 10.2121 14.936C10.2015 14.9289 10.1905 14.9223 10.1793 14.9163L10.1661 14.9098C10.1643 14.9094 10.1625 14.909 10.1607 14.9087L10.1541 14.9054C10.1501 14.9039 10.1461 14.9024 10.1421 14.901C10.1356 14.8986 10.129 14.8965 10.1224 14.8944L10.118 14.8923C10.1097 14.8894 10.1013 14.8869 10.0929 14.8846C10.0903 14.8842 10.0878 14.8838 10.0852 14.8835H10.0797C10.0772 14.8827 10.0746 14.882 10.0721 14.8813L10.0677 14.8802C10.0641 14.8794 10.0604 14.8787 10.0568 14.878H10.0546C10.0513 14.8776 10.048 14.8773 10.0447 14.8769L10.0163 14.8748C10.0119 14.8743 10.0075 14.874 10.0032 14.8737C8.8558 14.8758 7.74445 14.4732 6.8648 13.7365C5.98514 12.9999 5.39358 11.9765 5.19428 10.8466C4.99498 9.71663 5.20072 8.55262 5.77527 7.55947C6.34983 6.56632 7.25635 5.80772 8.33523 5.41724C8.42608 5.38326 8.50181 5.31792 8.54874 5.23303C8.59568 5.14814 8.61074 5.04926 8.59121 4.95425C8.57168 4.85923 8.51884 4.77431 8.44222 4.71481C8.3656 4.65532 8.27025 4.62515 8.17335 4.62976ZM10.0032 3.49774C9.94955 3.4976 9.89644 3.50805 9.84688 3.5285C9.79732 3.54895 9.75229 3.579 9.71437 3.61691C9.67646 3.65482 9.64642 3.69985 9.62597 3.74941C9.60552 3.79898 9.59506 3.85209 9.59521 3.90571V4.71507C9.59567 4.74454 9.59934 4.77388 9.60614 4.80257C9.60613 4.80439 9.60613 4.80621 9.60614 4.80804C9.61287 4.83711 9.62277 4.86535 9.63567 4.89225C9.64848 4.91943 9.66425 4.94511 9.6827 4.96881C9.68343 4.96955 9.68416 4.97028 9.68489 4.971C9.70301 4.99392 9.72355 5.01482 9.74614 5.03334C9.74723 5.03444 9.74832 5.03554 9.74942 5.03663C9.77121 5.05354 9.79466 5.0682 9.81942 5.08037C9.82015 5.08038 9.82088 5.08038 9.82161 5.08037C9.82558 5.08263 9.82959 5.08482 9.83364 5.08694C9.85857 5.09828 9.88459 5.10707 9.91129 5.11319C9.9414 5.12031 9.97223 5.12398 10.0032 5.12412C10.0075 5.12419 10.0119 5.12419 10.0163 5.12412C11.1602 5.12546 12.2671 5.52976 13.1425 6.26602C14.018 7.00227 14.6061 8.02342 14.8036 9.15015C15.004 10.2791 14.7998 11.4425 14.2268 12.4357C13.6538 13.4288 12.7488 14.188 11.6711 14.5794C11.6205 14.5974 11.5739 14.6252 11.5341 14.6613C11.4943 14.6974 11.462 14.741 11.4391 14.7896C11.4163 14.8382 11.4032 14.8908 11.4008 14.9445C11.3984 14.9982 11.4066 15.0518 11.425 15.1022C11.443 15.1527 11.4708 15.1992 11.5068 15.2389C11.5428 15.2786 11.5862 15.3109 11.6347 15.3337C11.6832 15.3566 11.7357 15.3697 11.7893 15.3722C11.8428 15.3747 11.8963 15.3666 11.9467 15.3483C13.1695 14.9008 14.202 14.0476 14.872 12.9311C15.5421 11.8146 15.8091 10.5021 15.6288 9.21253C15.4484 7.92295 14.8315 6.73414 13.8808 5.84429C12.9302 4.95443 11.7032 4.4173 10.4046 4.32242V3.9068C10.4052 3.79945 10.3633 3.69623 10.2881 3.61961C10.2129 3.54299 10.1105 3.49918 10.0032 3.49774Z" fill="black"/>
<path d="M8.77921 12.031C8.67206 12.0322 8.56969 12.0756 8.49433 12.1517C8.41897 12.2279 8.37671 12.3307 8.37672 12.4379C8.37642 12.5452 8.41856 12.6484 8.49395 12.7248C8.56934 12.8012 8.67187 12.8447 8.77921 12.8459H11.2204C11.2741 12.8462 11.3274 12.8358 11.377 12.8154C11.4267 12.795 11.4719 12.765 11.5099 12.7271C11.548 12.6892 11.5781 12.6441 11.5986 12.5944C11.6191 12.5448 11.6296 12.4916 11.6295 12.4379C11.6296 12.3842 11.6191 12.331 11.5986 12.2814C11.5781 12.2317 11.548 12.1866 11.5099 12.1487C11.4719 12.1108 11.4267 12.0808 11.377 12.0604C11.3274 12.04 11.2741 12.0296 11.2204 12.0299L8.77921 12.031ZM10.0031 6.34143C9.94948 6.34129 9.89637 6.35174 9.84681 6.37219C9.79724 6.39264 9.75221 6.42269 9.7143 6.4606C9.67639 6.49851 9.64635 6.54354 9.62589 6.5931C9.60544 6.64266 9.59499 6.69578 9.59513 6.74939V7.55876H8.77812C8.67078 7.5602 8.56836 7.604 8.49317 7.68062C8.41799 7.75724 8.37613 7.86047 8.37672 7.96781C8.37642 8.07497 8.41841 8.17792 8.49356 8.2543C8.56871 8.33068 8.67097 8.37434 8.77812 8.37578H9.59513V9.18514C9.59484 9.23884 9.60519 9.29208 9.62558 9.34177C9.64596 9.39145 9.67599 9.43661 9.71391 9.47464C9.75184 9.51267 9.79692 9.54281 9.84655 9.56333C9.89618 9.58385 9.94939 9.59434 10.0031 9.59419C10.1106 9.59304 10.2133 9.54936 10.2887 9.47271C10.3642 9.39606 10.4062 9.29267 10.4056 9.18514V8.37578H11.2215C11.2751 8.37592 11.3282 8.36547 11.3778 8.34502C11.4274 8.32456 11.4724 8.29452 11.5103 8.25661C11.5482 8.2187 11.5783 8.17367 11.5987 8.1241C11.6192 8.07454 11.6296 8.02143 11.6295 7.96781C11.6298 7.91411 11.6194 7.86087 11.599 7.81119C11.5786 7.7615 11.5486 7.71634 11.5107 7.67831C11.4728 7.64028 11.4277 7.61014 11.3781 7.58962C11.3284 7.5691 11.2752 7.55861 11.2215 7.55876H10.4056V6.74939C10.4059 6.64205 10.3637 6.53894 10.2884 6.46253C10.213 6.38611 10.1104 6.34259 10.0031 6.34143Z" fill="black"/>
</svg>
