<svg width="24" height="24" viewBox="0 0 24 24" fill="none" xmlns="http://www.w3.org/2000/svg">
<path fill-rule="evenodd" clip-rule="evenodd" d="M18.75 10.9581V7.4822L12 4.48839L5.25 7.48201V10.9581C5.25 15.0564 8.03363 18.6274 12 19.6322C15.9664 18.6272 18.75 15.0564 18.75 10.9581ZM4.48987 5.76807C4.1581 5.91521 3.87616 6.15547 3.67826 6.45971C3.48036 6.76394 3.37501 7.11907 3.375 7.48201V10.9581C3.375 15.9476 6.786 20.2907 11.6336 21.4731C11.8743 21.5319 12.1257 21.5319 12.3664 21.4731C17.214 20.2907 20.625 15.9476 20.625 10.9581V7.4822C20.625 7.11923 20.5197 6.76406 20.3218 6.45978C20.1239 6.15551 19.8419 5.91522 19.5101 5.76807L12.7601 2.77464C12.5208 2.66849 12.2618 2.61365 12 2.61365C11.7382 2.61365 11.4792 2.66849 11.2399 2.77464L4.48987 5.76807Z" fill="black"/>
<path d="M12.9375 12.1241C13.4979 11.7999 13.875 11.1941 13.875 10.5C13.875 9.46444 13.0356 8.625 12 8.625C10.9644 8.625 10.125 9.46444 10.125 10.5C10.1249 10.8292 10.2114 11.1526 10.376 11.4377C10.5406 11.7229 10.7774 11.9596 11.0625 12.1241V14.25C11.0625 14.4986 11.1613 14.7371 11.3371 14.9129C11.5129 15.0887 11.7514 15.1875 12 15.1875C12.2486 15.1875 12.4871 15.0887 12.6629 14.9129C12.8387 14.7371 12.9375 14.4986 12.9375 14.25V12.1241Z" fill="black"/>
</svg>
