<svg width="20" height="20" viewBox="0 0 20 20" fill="none" xmlns="http://www.w3.org/2000/svg">
<path d="M18.4375 16.0266C15.7469 16.0266 15.7125 14.4641 12.8125 14.4641C10.0234 14.4641 9.88281 15.9094 7.5 16.0266V14.0781C10.1156 13.9672 10.2047 12.5156 12.8125 12.5156C15.5047 12.5156 15.5344 14.0781 18.4375 14.0781C18.5204 14.0781 18.5999 14.0452 18.6585 13.9866C18.7171 13.928 18.75 13.8485 18.75 13.7656C18.75 13.6827 18.7171 13.6033 18.6585 13.5447C18.5999 13.486 18.5204 13.4531 18.4375 13.4531C15.7469 13.4531 15.7125 11.8906 12.8125 11.8906C10 11.8906 9.90156 13.3359 7.5 13.4531V11.25H8.4375C8.52038 11.25 8.59987 11.2171 8.65847 11.1585C8.71708 11.0999 8.75 11.0204 8.75 10.9375C8.75 10.8546 8.71708 10.7751 8.65847 10.7165C8.59987 10.6579 8.52038 10.625 8.4375 10.625H7.5V8.75H8.4375C8.52038 8.75 8.59987 8.71708 8.65847 8.65847C8.71708 8.59987 8.75 8.52038 8.75 8.4375C8.75 8.35462 8.71708 8.27513 8.65847 8.21653C8.59987 8.15792 8.52038 8.125 8.4375 8.125H7.5V6.25H10.3125C10.3954 6.25 10.4749 6.21708 10.5335 6.15847C10.5921 6.09987 10.625 6.02038 10.625 5.9375V1.5625C10.625 1.47962 10.5921 1.40013 10.5335 1.34153C10.4749 1.28292 10.3954 1.25 10.3125 1.25H4.0625C3.97962 1.25 3.90013 1.28292 3.84153 1.34153C3.78292 1.40013 3.75 1.47962 3.75 1.5625V5.9375C3.75 6.02038 3.78292 6.09987 3.84153 6.15847C3.90013 6.21708 3.97962 6.25 4.0625 6.25H6.875V13.4516C4.47656 13.3391 4.36563 11.8891 1.5625 11.8891C1.47962 11.8891 1.40013 11.922 1.34153 11.9806C1.28292 12.0392 1.25 12.1187 1.25 12.2016C1.25 12.2844 1.28292 12.3639 1.34153 12.4225C1.40013 12.4811 1.47962 12.5141 1.5625 12.5141C4.16719 12.5141 4.26094 13.9625 6.875 14.0766V16.0172C4.47656 15.9047 4.36563 14.4547 1.5625 14.4547C1.47962 14.4547 1.40013 14.4876 1.34153 14.5462C1.28292 14.6048 1.25 14.6843 1.25 14.7672C1.25 14.8501 1.28292 14.9296 1.34153 14.9882C1.40013 15.0468 1.47962 15.0797 1.5625 15.0797C4.16719 15.0797 4.26094 16.5281 6.875 16.6422V17.1875C6.875 17.2704 6.90792 17.3499 6.96653 17.4085C7.02513 17.4671 7.10462 17.5 7.1875 17.5C7.27038 17.5 7.34987 17.4671 7.40847 17.4085C7.46708 17.3499 7.5 17.2704 7.5 17.1875V16.6453C10.1156 16.5344 10.2047 15.0828 12.8125 15.0828C15.5063 15.0828 15.5297 16.6453 18.4375 16.6453C18.5204 16.6453 18.5999 16.6124 18.6585 16.5538C18.7171 16.4952 18.75 16.4157 18.75 16.3328C18.75 16.2499 18.7171 16.1704 18.6585 16.1118C18.5999 16.0532 18.5204 16.0203 18.4375 16.0203V16.0266ZM4.375 1.875H10V5.625H4.375V1.875Z" fill="black"/>
<path d="M18.4375 18.5937C15.7469 18.5937 15.7125 17.0312 12.8125 17.0312C9.9125 17.0312 9.87656 18.5937 7.1875 18.5937C4.49844 18.5937 4.47031 17.0312 1.5625 17.0312C1.47962 17.0312 1.40013 17.0641 1.34153 17.1227C1.28292 17.1813 1.25 17.2608 1.25 17.3437C1.25 17.4266 1.28292 17.5061 1.34153 17.5647C1.40013 17.6233 1.47962 17.6562 1.5625 17.6562C4.25625 17.6562 4.27969 19.2187 7.1875 19.2187C10.0953 19.2187 10.1234 17.6562 12.8125 17.6562C15.5016 17.6562 15.5297 19.2187 18.4375 19.2187C18.5204 19.2187 18.5999 19.1858 18.6585 19.1272C18.7171 19.0686 18.75 18.9891 18.75 18.9062C18.75 18.8233 18.7171 18.7438 18.6585 18.6852C18.5999 18.6266 18.5204 18.5937 18.4375 18.5937ZM13.7766 3.74995C13.7774 4.03734 13.7211 4.32203 13.6112 4.58755C13.5012 4.85307 13.3397 5.09415 13.1359 5.29683C13.0773 5.35547 13.0444 5.435 13.0444 5.51792C13.0444 5.60085 13.0773 5.68038 13.1359 5.73902C13.1946 5.79765 13.2741 5.8306 13.357 5.8306C13.44 5.8306 13.5195 5.79765 13.5781 5.73902C13.8394 5.47784 14.0466 5.16775 14.188 4.82646C14.3294 4.48518 14.4022 4.11937 14.4022 3.74995C14.4022 3.38053 14.3294 3.01473 14.188 2.67344C14.0466 2.33216 13.8394 2.02207 13.5781 1.76089C13.5491 1.73186 13.5146 1.70883 13.4767 1.69311C13.4388 1.6774 13.3981 1.66931 13.357 1.66931C13.316 1.66931 13.2753 1.6774 13.2374 1.69311C13.1994 1.70883 13.165 1.73186 13.1359 1.76089C13.1069 1.78993 13.0839 1.82439 13.0682 1.86233C13.0524 1.90027 13.0444 1.94092 13.0444 1.98199C13.0444 2.02305 13.0524 2.06371 13.0682 2.10164C13.0839 2.13958 13.1069 2.17404 13.1359 2.20308C13.3397 2.40576 13.5012 2.64683 13.6112 2.91235C13.7211 3.17787 13.7774 3.46257 13.7766 3.74995Z" fill="black"/>
<path d="M12.2515 4.85464C12.2805 4.8837 12.315 4.90675 12.3529 4.92247C12.3909 4.9382 12.4315 4.94629 12.4726 4.94629C12.5137 4.94629 12.5543 4.9382 12.5923 4.92247C12.6302 4.90675 12.6647 4.8837 12.6937 4.85464C12.9866 4.56163 13.1512 4.16427 13.1512 3.74995C13.1512 3.33563 12.9866 2.93828 12.6937 2.64527C12.635 2.58663 12.5555 2.55369 12.4726 2.55369C12.3897 2.55369 12.3101 2.58663 12.2515 2.64527C12.1929 2.7039 12.1599 2.78343 12.1599 2.86636C12.1599 2.94929 12.1929 3.02882 12.2515 3.08745C12.3387 3.17452 12.4078 3.27792 12.455 3.39173C12.5022 3.50554 12.5264 3.62753 12.5264 3.75074C12.5264 3.87394 12.5022 3.99593 12.455 4.10974C12.4078 4.22355 12.3387 4.32695 12.2515 4.41402C12.1933 4.47257 12.1606 4.55177 12.1606 4.63433C12.1606 4.71689 12.1933 4.79609 12.2515 4.85464ZM14.0202 6.1812C13.9616 6.23984 13.9287 6.31937 13.9287 6.4023C13.9287 6.48522 13.9616 6.56475 14.0202 6.62339C14.0789 6.68203 14.1584 6.71497 14.2413 6.71497C14.3243 6.71497 14.4038 6.68203 14.4624 6.62339C14.8397 6.24615 15.1389 5.7983 15.3431 5.30541C15.5473 4.81252 15.6523 4.28424 15.6523 3.75074C15.6523 3.21723 15.5473 2.68895 15.3431 2.19606C15.1389 1.70317 14.8397 1.25532 14.4624 0.878079C14.4038 0.819441 14.3243 0.786499 14.2413 0.786499C14.1584 0.786499 14.0789 0.819441 14.0202 0.878079C13.9616 0.936717 13.9287 1.01625 13.9287 1.09917C13.9287 1.1821 13.9616 1.26163 14.0202 1.32027C14.6648 1.96491 15.0269 2.83916 15.0269 3.75074C15.0269 4.66231 14.6648 5.53657 14.0202 6.1812Z" fill="black"/>
</svg>
