<svg width="20" height="20" viewBox="0 0 20 20" fill="none" xmlns="http://www.w3.org/2000/svg">
<path d="M7.11678 5.90757C7.11678 4.95997 6.61358 4.21277 6.12678 3.49077C5.77998 2.97597 5.45198 2.48997 5.35438 1.98597C5.33869 1.90487 5.29525 1.83176 5.23153 1.7792C5.16782 1.72663 5.08779 1.69788 5.00518 1.69788C4.92258 1.69788 4.84255 1.72663 4.77883 1.7792C4.71511 1.83176 4.67168 1.90487 4.65598 1.98597C4.55838 2.48957 4.23078 2.97597 3.88358 3.49077C3.39678 4.21317 2.89358 4.95997 2.89358 5.90757C2.89358 7.11677 3.84078 8.10037 5.00518 8.10037C6.16958 8.10037 7.11678 7.11677 7.11678 5.90757ZM3.60518 5.90757C3.60518 5.17717 4.02718 4.55117 4.47398 3.88837C4.65918 3.61317 4.84758 3.33357 5.00558 3.04237C5.16358 3.33397 5.35198 3.61357 5.53718 3.88837C5.98398 4.55117 6.40598 5.17677 6.40598 5.90757C6.40598 6.72437 5.77798 7.38877 5.00558 7.38877C4.23318 7.38877 3.60518 6.72477 3.60518 5.90757ZM16.7196 6.60797C16.7196 5.81797 16.2876 5.17477 15.906 4.60757C15.6288 4.19517 15.3668 3.80557 15.29 3.40957C15.2744 3.3284 15.231 3.25521 15.1672 3.20257C15.1035 3.14993 15.0234 3.12113 14.9408 3.12113C14.8581 3.12113 14.7781 3.14993 14.7143 3.20257C14.6506 3.25521 14.6072 3.3284 14.5916 3.40957C14.5148 3.80557 14.2528 4.19517 13.9756 4.60757C13.5944 5.17517 13.162 5.81797 13.162 6.60797C13.162 7.62717 13.96 8.45597 14.9404 8.45597C15.9208 8.45597 16.7196 7.62717 16.7196 6.60797ZM13.8744 6.60797C13.8744 6.03437 14.2108 5.53397 14.5668 5.00437C14.6952 4.81317 14.8256 4.61917 14.9412 4.41837C15.0568 4.61917 15.1872 4.81277 15.3156 5.00437C15.672 5.53397 16.008 6.03437 16.008 6.60797C16.008 7.23477 15.5292 7.74477 14.9412 7.74477C14.3532 7.74477 13.8744 7.23477 13.8744 6.60797ZM12.8524 10.2344C12.8524 8.91437 12.1504 7.81437 11.4716 6.75037C10.9736 5.97037 10.5032 5.23317 10.3564 4.47597C10.3407 4.39487 10.2973 4.32176 10.2335 4.2692C10.1698 4.21663 10.0898 4.18788 10.0072 4.18788C9.92458 4.18788 9.84455 4.21663 9.78083 4.2692C9.71711 4.32176 9.67368 4.39487 9.65798 4.47597C9.51118 5.23317 9.03118 5.97157 8.52318 6.75317C7.83238 7.81597 7.11838 8.91477 7.11838 10.2344C7.11838 11.8464 8.38718 13.1092 10.0072 13.1092C11.6288 13.1092 12.8524 11.8736 12.8524 10.2344ZM7.82958 10.2344C7.82958 9.12517 8.48518 8.11637 9.11918 7.14117C9.43678 6.65237 9.76078 6.15397 10.0052 5.63757C10.2452 6.15117 10.5616 6.64717 10.8716 7.13317C11.4952 8.11077 12.1408 9.12157 12.1408 10.2344C12.1408 11.4676 11.2236 12.398 10.0068 12.398C8.76558 12.398 7.82958 11.4676 7.82958 10.2344ZM1.78198 14.1468H18.1424V14.858H1.78198V14.1468ZM1.78198 17.7032H18.1424V18.4144H1.78198V17.7032ZM2.84878 15.5692H3.91558V16.2804H2.84878V15.5692ZM4.98278 16.2808H6.04958V16.992H4.98278V16.2808ZM7.11678 15.5692H8.18358V16.2804H7.11678V15.5692ZM9.25078 16.2808H10.3176V16.992H9.25078V16.2808ZM11.3848 15.5692H12.4516V16.2804H11.3848V15.5692ZM13.5188 16.2808H14.5856V16.992H13.5188V16.2808ZM15.6528 15.5692H16.7196V16.2804H15.6528V15.5692Z" fill="black"/>
</svg>
