<svg width="20" height="20" viewBox="0 0 20 20" fill="none" xmlns="http://www.w3.org/2000/svg">
<path d="M10 19.375C8.34298 19.3731 6.75437 18.714 5.58268 17.5423C4.41099 16.3707 3.7519 14.782 3.75 13.125C3.75 8.27784 9.27281 1.16534 9.50781 0.86503C9.56481 0.792093 9.6373 0.732727 9.72004 0.691221C9.80278 0.649716 9.89371 0.627108 9.98625 0.62503C10.0791 0.620713 10.1717 0.638258 10.2565 0.676253C10.3413 0.714247 10.4161 0.771629 10.4747 0.84378C10.7103 1.11847 16.25 7.6444 16.25 13.125C16.2481 14.782 15.589 16.3707 14.4173 17.5423C13.2456 18.714 11.657 19.3731 10 19.375ZM10.0197 2.26816C8.6875 4.09691 5 9.48784 5 13.125C5 14.4511 5.52678 15.7229 6.46447 16.6606C7.40215 17.5982 8.67392 18.125 10 18.125C11.3261 18.125 12.5979 17.5982 13.5355 16.6606C14.4732 15.7229 15 14.4511 15 13.125C15 9.01222 11.3666 3.98878 10.0197 2.26816Z" fill="black"/>
<path d="M2.81261 17.8125C2.68902 17.8125 2.56821 17.7758 2.46545 17.7071C2.36269 17.6384 2.28261 17.5408 2.23531 17.4266C2.18802 17.3125 2.17564 17.1868 2.19975 17.0656C2.22385 16.9444 2.28336 16.833 2.37074 16.7456L16.7457 2.37061C16.8034 2.31092 16.8724 2.26331 16.9486 2.23055C17.0249 2.1978 17.1069 2.18055 17.1899 2.17983C17.2728 2.17911 17.3551 2.19493 17.432 2.22635C17.5088 2.25778 17.5785 2.30418 17.6372 2.36287C17.6959 2.42155 17.7423 2.49133 17.7737 2.56814C17.8052 2.64495 17.821 2.72725 17.8203 2.81024C17.8195 2.89323 17.8023 2.97524 17.7695 3.05149C17.7368 3.12774 17.6892 3.19671 17.6295 3.25436L3.25449 17.6294C3.19657 17.6875 3.1277 17.7337 3.05186 17.7651C2.97602 17.7965 2.89471 17.8126 2.81261 17.8125Z" fill="black"/>
</svg>
