<svg width="20" height="20" viewBox="0 0 20 20" fill="none" xmlns="http://www.w3.org/2000/svg">
<g clip-path="url(#clip0_3856_2440)">
<path d="M13.6831 12.3122C13.3237 11.3632 12.4221 10.7354 11.3963 10.7354C10.9285 10.7354 10.4684 10.8718 10.0761 11.1238C9.47457 10.124 8.40586 9.51329 7.22902 9.51329C5.75441 9.51329 4.47543 10.4706 4.05 11.8658C3.90834 11.847 3.7656 11.8375 3.6227 11.8373C1.78777 11.8373 0.294922 13.33 0.294922 15.1649C0.294922 15.9284 0.560312 16.6745 1.0423 17.2659C1.07962 17.3115 1.13351 17.3405 1.19215 17.3465C1.2508 17.3524 1.30941 17.3349 1.35516 17.2977C1.40083 17.2605 1.42984 17.2066 1.43581 17.1479C1.44178 17.0892 1.42422 17.0306 1.38699 16.9849C0.969414 16.4728 0.739453 15.8265 0.739453 15.1649C0.739453 13.5751 2.03289 12.2818 3.6227 12.2818C3.80098 12.2818 3.98516 12.2999 4.16996 12.3354C4.22613 12.3462 4.28431 12.3349 4.33239 12.3039C4.38046 12.2729 4.41474 12.2246 4.42809 12.169C4.73977 10.8671 5.89156 9.95782 7.22898 9.95782C8.32332 9.95782 9.30988 10.568 9.80387 11.5502C9.81873 11.5798 9.84006 11.6058 9.86628 11.6261C9.8925 11.6464 9.92293 11.6606 9.95535 11.6675C9.98776 11.6747 10.0214 11.6744 10.0537 11.6668C10.0859 11.6591 10.1161 11.6443 10.1419 11.6234C10.5016 11.3333 10.9354 11.1799 11.3962 11.1799C12.2752 11.1799 13.0426 11.7432 13.3061 12.5816C13.3191 12.623 13.3439 12.6596 13.3775 12.6871C13.4111 12.7146 13.452 12.7316 13.4951 12.7361C14.7417 12.8659 15.6818 13.91 15.6818 15.1649C15.6818 16.5117 14.5861 17.6074 13.2395 17.6074C13.0418 17.6074 12.8372 17.5804 12.631 17.5274C12.5827 17.515 12.5317 17.5192 12.4861 17.5393C12.4405 17.5594 12.4029 17.5942 12.3794 17.6382C11.545 19.2057 9.50637 19.6642 8.08418 18.5741C8.0416 18.5414 7.98866 18.5253 7.93512 18.5287C7.88158 18.532 7.83106 18.5546 7.79289 18.5923C6.83219 19.5405 5.21914 19.2913 4.60129 18.0674C4.5784 18.0221 4.5407 17.9859 4.49446 17.965C4.44822 17.9441 4.39621 17.9396 4.34707 17.9523C3.72574 18.1135 3.12395 18.0669 2.57121 17.8502C2.54404 17.8395 2.51503 17.8343 2.48584 17.8348C2.45665 17.8353 2.42786 17.8416 2.4011 17.8533C2.37434 17.865 2.35015 17.8818 2.32991 17.9029C2.30967 17.9239 2.29377 17.9487 2.28312 17.9759C2.26162 18.0308 2.26278 18.092 2.28636 18.146C2.30994 18.2 2.354 18.2424 2.40887 18.264C2.99809 18.4949 3.63504 18.5588 4.28949 18.4222C5.06992 19.7313 6.82582 20.0024 7.96539 19.0365C9.54133 20.1143 11.7025 19.6396 12.6876 17.996C12.8737 18.0332 13.0586 18.0519 13.2395 18.0519C14.8313 18.0519 16.1264 16.7568 16.1264 15.1649C16.1263 13.7296 15.0857 12.5275 13.6831 12.3122ZM14.9761 2.23485C13.3884 2.23485 12.0966 3.52657 12.0966 5.11435C12.0966 6.70212 13.3884 7.99384 14.9761 7.99384C16.5639 7.99384 17.8556 6.70212 17.8556 5.11435C17.8556 3.52657 16.5639 2.23485 14.9761 2.23485ZM14.9761 7.54931C13.6335 7.54931 12.5412 6.457 12.5412 5.11435C12.5412 3.77169 13.6335 2.67938 14.9761 2.67938C16.3188 2.67938 17.4111 3.77169 17.4111 5.11435C17.4111 6.457 16.3188 7.54931 14.9761 7.54931ZM15.1985 1.18868V0.607275C15.1985 0.48458 15.0989 0.38501 14.9763 0.38501C14.8536 0.38501 14.754 0.48458 14.754 0.607275V1.18868C14.754 1.24762 14.7774 1.30415 14.8191 1.34582C14.8608 1.3875 14.9173 1.41093 14.9763 1.41095C15.0352 1.41094 15.0917 1.38752 15.1334 1.34584C15.1751 1.30415 15.1985 1.24763 15.1985 1.18868ZM15.1985 9.62063V9.03923C15.1985 8.91653 15.0989 8.81696 14.9763 8.81696C14.8536 8.81696 14.754 8.91653 14.754 9.03923V9.62063C14.754 9.67958 14.7774 9.73612 14.8191 9.7778C14.8608 9.81948 14.9173 9.8429 14.9763 9.8429C15.0352 9.8429 15.0917 9.81948 15.1334 9.7778C15.1751 9.73612 15.1985 9.67958 15.1985 9.62063ZM18.0059 1.77009L17.5947 2.18134C17.5741 2.20197 17.5577 2.22647 17.5465 2.25343C17.5353 2.2804 17.5296 2.3093 17.5296 2.33849C17.5296 2.36767 17.5353 2.39658 17.5465 2.42354C17.5577 2.45051 17.5741 2.475 17.5947 2.49563C17.6154 2.51628 17.6399 2.53265 17.6668 2.54383C17.6938 2.555 17.7227 2.56075 17.7519 2.56075C17.7811 2.56075 17.81 2.555 17.8369 2.54383C17.8639 2.53265 17.8884 2.51628 17.909 2.49563L18.3202 2.08438C18.4071 1.99755 18.4071 1.85692 18.3202 1.77009C18.2334 1.68325 18.0928 1.68325 18.0059 1.77009ZM11.6325 8.45786C11.6531 8.47851 11.6776 8.49489 11.7046 8.50606C11.7315 8.51724 11.7604 8.52299 11.7896 8.52299C11.8188 8.52299 11.8477 8.51724 11.8747 8.50606C11.9016 8.49489 11.9261 8.47851 11.9468 8.45786L12.358 8.04661C12.4448 7.95977 12.4448 7.81915 12.358 7.73231C12.2712 7.64548 12.1305 7.64548 12.0437 7.73231L11.6325 8.14356C11.6118 8.16419 11.5954 8.18869 11.5843 8.21566C11.5731 8.24262 11.5673 8.27152 11.5673 8.30071C11.5673 8.3299 11.5731 8.3588 11.5843 8.38577C11.5954 8.41273 11.6118 8.43723 11.6325 8.45786ZM19.483 4.89181H18.9015C18.7788 4.89181 18.6792 4.99138 18.6792 5.11407C18.6792 5.23677 18.7788 5.33634 18.9015 5.33634H19.483C19.542 5.33634 19.5985 5.31292 19.6402 5.27124C19.6819 5.22955 19.7053 5.17302 19.7053 5.11407C19.7053 5.05512 19.6819 4.99859 19.6402 4.95691C19.5985 4.91522 19.542 4.89181 19.483 4.89181ZM11.0511 5.33614C11.1737 5.33614 11.2733 5.23657 11.2733 5.11388C11.2733 4.99118 11.1737 4.89161 11.0511 4.89161H10.4695C10.3468 4.89161 10.2473 4.99118 10.2473 5.11388C10.2473 5.23657 10.3468 5.33614 10.4695 5.33614H11.0511ZM17.909 7.73235C17.8221 7.64552 17.6815 7.64552 17.5947 7.73235C17.5079 7.81919 17.5079 7.95981 17.5947 8.04665L18.0059 8.4579C18.0927 8.54474 18.2334 8.54474 18.3202 8.4579C18.407 8.37106 18.407 8.23044 18.3202 8.1436L17.909 7.73235ZM12.0437 2.4956C12.1305 2.58239 12.2711 2.58243 12.358 2.4956C12.4448 2.40876 12.4448 2.26813 12.358 2.1813L11.9467 1.77005C11.8599 1.68321 11.7193 1.68321 11.6324 1.77005C11.5456 1.85688 11.5456 1.99751 11.6324 2.08435L12.0437 2.4956Z" fill="black"/>
</g>
<defs>
<clipPath id="clip0_3856_2440">
<rect width="20" height="20" fill="white"/>
</clipPath>
</defs>
</svg>
