<svg width="20" height="20" viewBox="0 0 20 20" fill="none" xmlns="http://www.w3.org/2000/svg">
<path d="M18.7719 8.07411H18.4651V7.23993C18.4651 6.27802 17.6825 5.49548 16.7206 5.49548H16.2855C16.1009 4.81001 15.4741 4.30396 14.7311 4.30396C13.8435 4.30396 13.1213 5.02606 13.1213 5.91372V8.57767H6.87863V5.91372C6.87863 5.02606 6.15648 4.30396 5.26887 4.30396C4.5259 4.30396 3.89918 4.81001 3.71453 5.49548H3.27938C2.31746 5.49548 1.53488 6.27802 1.53488 7.23993V8.07411H1.22812C0.550938 8.07411 0 8.62509 0 9.30224V10.6932C0 11.3704 0.550938 11.9213 1.22812 11.9213H1.53492V12.7599C1.53492 13.7218 2.3175 14.5044 3.27941 14.5044H3.71457C3.89922 15.1899 4.52594 15.6959 5.26891 15.6959C6.15656 15.6959 6.87867 14.9738 6.87867 14.0861V11.4222H12.2302C12.392 11.4222 12.5232 11.2911 12.5232 11.1292C12.5232 10.9674 12.392 10.8363 12.2302 10.8363H6.87863V9.16356H13.1213V14.0862C13.1213 14.9738 13.8435 15.6959 14.7311 15.6959C15.4741 15.6959 16.1009 15.1899 16.2855 14.5044H16.7206C17.6825 14.5044 18.4651 13.7219 18.4651 12.76V11.9213H18.7719C19.4491 11.9213 20 11.3704 20 10.6933V9.30228C20 8.62505 19.4491 8.07411 18.7719 8.07411ZM1.53492 11.3354H1.22812C0.874023 11.3354 0.585938 11.0473 0.585938 10.6933V9.30228C0.585938 8.94817 0.874023 8.66009 1.22812 8.66009H1.53492V11.3354ZM6.2927 14.0862C6.2927 14.6507 5.8334 15.11 5.26887 15.11C4.7043 15.11 4.24504 14.6507 4.24504 14.0862V8.17509C4.24504 8.09739 4.21417 8.02287 4.15923 7.96793C4.10429 7.91299 4.02977 7.88212 3.95207 7.88212C3.87437 7.88212 3.79985 7.91299 3.74491 7.96793C3.68997 8.02287 3.6591 8.09739 3.6591 8.17509V13.9185H3.27941C2.64059 13.9185 2.12086 13.3988 2.12086 12.76V7.23989C2.12086 6.60106 2.64059 6.08138 3.27941 6.08138H3.6591V6.87716C3.6591 6.95486 3.68997 7.02938 3.74491 7.08432C3.79985 7.13926 3.87437 7.17013 3.95207 7.17013C4.02977 7.17013 4.10429 7.13926 4.15923 7.08432C4.21417 7.02938 4.24504 6.95486 4.24504 6.87716V5.91368C4.24504 5.34915 4.70434 4.88985 5.26887 4.88985C5.83344 4.88985 6.2927 5.34915 6.2927 5.91368V14.0862ZM15.755 14.0862C15.755 14.6507 15.2957 15.11 14.7311 15.11C14.1666 15.11 13.7073 14.6507 13.7073 14.0862V5.91368C13.7073 5.34915 14.1666 4.88985 14.7311 4.88985C15.2957 4.88985 15.755 5.34915 15.755 5.91368V14.0862ZM17.8792 12.76C17.8792 13.3988 17.3595 13.9185 16.7206 13.9185H16.3409V6.08138H16.7206C17.3595 6.08138 17.8792 6.6011 17.8792 7.23989V12.76ZM19.4141 10.6933C19.4141 11.0473 19.126 11.3354 18.7719 11.3354H18.4651V8.66005H18.7719C19.126 8.66005 19.4141 8.94813 19.4141 9.30224V10.6933Z" fill="black"/>
</svg>
