<svg width="20" height="20" viewBox="0 0 20 20" fill="none" xmlns="http://www.w3.org/2000/svg">
<path d="M3.25166 9.38792C2.83473 9.80484 2.83473 10.4834 3.25166 10.9044C3.66858 11.3213 4.3471 11.3213 4.76811 10.9044C7.65386 8.01862 12.3504 8.01862 15.2361 10.9044C15.4446 11.1128 15.7184 11.2191 15.9923 11.2191C16.2662 11.2191 16.54 11.1128 16.7485 10.9044C17.1654 10.4874 17.1654 9.80893 16.7485 9.38792C13.0289 5.66423 6.97126 5.66423 3.25166 9.38792Z" fill="black"/>
<path d="M6.14546 12.2818C5.72853 12.6988 5.72853 13.3773 6.14546 13.7983C6.56238 14.2152 7.2409 14.2152 7.66191 13.7983C8.94946 12.5066 11.0504 12.5066 12.338 13.7983C12.5464 14.0067 12.8203 14.113 13.0942 14.113C13.368 14.113 13.6419 14.0067 13.8503 13.7983C14.2673 13.3814 14.2673 12.7028 13.8503 12.2859C11.7289 10.1564 8.27094 10.1564 6.14546 12.2818Z" fill="black"/>
<path d="M10 17.5587C10.7879 17.5587 11.4265 16.9201 11.4265 16.1322C11.4265 15.3444 10.7879 14.7057 10 14.7057C9.21216 14.7057 8.57349 15.3444 8.57349 16.1322C8.57349 16.9201 9.21216 17.5587 10 17.5587Z" fill="black"/>
<path d="M19.6873 6.44493C14.345 1.10669 5.65502 1.10669 0.312692 6.44493C-0.104231 6.86185 -0.104231 7.54037 0.312692 7.96138C0.729614 8.37831 1.40813 8.37831 1.82914 7.96138C6.33354 3.4529 13.6665 3.4529 18.1749 7.96138C18.3834 8.16985 18.6573 8.27612 18.9311 8.27612C19.205 8.27612 19.4788 8.16985 19.6873 7.96138C20.1042 7.54446 20.1042 6.86594 19.6873 6.44493Z" fill="black"/>
</svg>
