<svg width="24" height="24" viewBox="0 0 24 24" fill="none" xmlns="http://www.w3.org/2000/svg">
<g clip-path="url(#clip0_3531_2674)">
<path d="M15.6925 10.0001H15.661V8.34516C15.661 6.56202 14.2103 5.11128 12.4273 5.11128H11.5729C9.78969 5.11128 8.33901 6.56208 8.33901 8.34516V10.0001H8.30757C7.78635 10.0001 7.36377 10.4229 7.36377 10.9441V16.9629C7.36377 17.4842 7.78641 17.9069 8.30757 17.9069H15.6927C16.214 17.9069 16.6365 17.4842 16.6365 16.9629V10.9441C16.6363 10.4229 16.2136 10.0001 15.6925 10.0001ZM12.9437 14.7885C12.9437 15.3098 12.5211 15.7323 11.9999 15.7323C11.4786 15.7323 11.0561 15.3097 11.0561 14.7885V13.6087C11.0561 13.0874 11.4786 12.6649 11.9999 12.6649C12.5212 12.6649 12.9437 13.0875 12.9437 13.6087V14.7885ZM13.813 10.0001H10.1868V8.34516C10.1868 7.58094 10.8085 6.95928 11.5728 6.95928H12.4271C13.1912 6.95928 13.813 7.58088 13.813 8.34516V10.0001Z" fill="black"/>
<path d="M21.1792 19.7324L21.2842 19.6045C23.0609 17.4438 24 14.8141 24 12C24 9.14034 23.0326 6.47694 21.2022 4.29792L21.1003 4.17666L21.1553 4.02792C21.2546 3.75931 21.3053 3.47515 21.3049 3.18876C21.3049 1.85406 20.2191 0.76824 18.8845 0.76824C18.4 0.767478 17.9265 0.912823 17.5259 1.1853L17.3951 1.27416L17.253 1.20498C15.6138 0.40536 13.8464 0 12 0C10.0928 0 8.27406 0.43056 6.5943 1.27986L6.44274 1.35642L6.30714 1.2543C5.88504 0.9363 5.382 0.76806 4.85232 0.76806C3.51774 0.76806 2.43204 1.85388 2.43204 3.18858C2.43127 3.54452 2.50975 3.89616 2.66178 4.218L2.73432 4.37214L2.6277 4.50504C0.9087 6.64596 0 9.23784 0 12C0 14.8141 0.93912 17.4438 2.71572 19.6045L2.82072 19.7324L2.75586 19.8847C2.62826 20.1841 2.56278 20.5064 2.56338 20.8319C2.56338 22.1663 3.6492 23.2522 4.98378 23.2522C5.4984 23.2522 5.99004 23.0923 6.40578 22.7899L6.53922 22.6929L6.68718 22.766C8.3427 23.5848 10.1302 24 12 24C13.8698 24 15.6573 23.5848 17.3128 22.766L17.4607 22.6929L17.5943 22.7899C18.01 23.0923 18.5017 23.2522 19.0162 23.2522C20.3507 23.2522 21.4367 22.1663 21.4367 20.8319C21.4367 20.5031 21.3719 20.1846 21.2442 19.8847L21.1792 19.7324ZM20.1023 18.4543L19.9824 18.6044L19.8007 18.5423C19.5482 18.4556 19.2831 18.4113 19.0161 18.4113C17.6816 18.4113 16.5957 19.4972 16.5957 20.8319C16.5957 20.915 16.6001 20.9992 16.6085 21.0821L16.6282 21.2732L16.4548 21.3562C15.0562 22.0249 13.5574 22.3636 11.9999 22.3636C10.4425 22.3636 8.9436 22.0249 7.54506 21.3562L7.37166 21.2732L7.3914 21.0821C7.39986 20.9992 7.40424 20.915 7.40424 20.8319C7.40424 19.4972 6.31842 18.4113 4.98384 18.4113C4.71648 18.4113 4.45254 18.4554 4.19922 18.5423L4.01754 18.6044L3.89766 18.4543C2.4183 16.6011 1.63638 14.369 1.63638 12C1.63638 9.65442 2.40396 7.44024 3.85614 5.59716L3.97134 5.45088L4.14948 5.50482C4.37737 5.57389 4.6142 5.60894 4.85232 5.60886C6.1869 5.60886 7.27272 4.52304 7.27272 3.18858C7.27272 3.12234 7.26954 3.05268 7.26276 2.97612L7.24674 2.79078L7.41342 2.7081C8.84868 1.99692 10.3918 1.63632 11.9999 1.63632C13.5091 1.63632 14.9659 1.9557 16.3299 2.5854L16.5123 2.66952L16.486 2.8686C16.4719 2.97466 16.4646 3.08152 16.4644 3.18852C16.4644 4.52298 17.5502 5.6088 18.8847 5.6088C19.1898 5.6088 19.4882 5.5521 19.7718 5.44032L19.9587 5.36652L20.0845 5.52318C21.5543 7.35432 22.3636 9.65442 22.3636 11.9998C22.3636 14.369 21.5817 16.6012 20.1023 18.4543Z" fill="black"/>
</g>
<defs>
<clipPath id="clip0_3531_2674">
<rect width="24" height="24" fill="white"/>
</clipPath>
</defs>
</svg>
