<svg width="20" height="20" viewBox="0 0 20 20" fill="none" xmlns="http://www.w3.org/2000/svg">
<g clip-path="url(#clip0_3856_2502)">
<path d="M7.08519 10.2696C7.08519 9.89944 7.15652 9.53666 7.29734 9.19007L7.32893 9.11284L7.252 9.0784C7.14759 9.03261 7.04846 8.97562 6.95634 8.90844L6.86783 8.84348L6.82466 8.94563C6.64381 9.37514 6.55176 9.81976 6.55176 10.27C6.55176 11.2396 6.94967 12.1379 7.67278 12.8013L7.73146 12.8546L7.79014 12.802C7.82978 12.7655 7.86952 12.731 7.90887 12.6966C7.95803 12.6537 8.0068 12.6109 8.06303 12.56L8.12868 12.4943L8.05989 12.4332C7.44031 11.8776 7.08519 11.0899 7.08519 10.2696ZM12.938 8.47776L12.8642 8.51888C12.7631 8.57415 12.6582 8.62215 12.5502 8.66254L12.4523 8.69943L12.5057 8.78902C12.773 9.23665 12.9145 9.74818 12.9152 10.2696C12.9152 10.7677 12.7866 11.2573 12.5419 11.6911L12.511 11.7466L12.5773 11.8175C12.59 11.8313 12.6036 11.8456 12.6163 11.8604C12.6489 11.8994 12.6808 11.9394 12.7125 11.9784C12.7388 12.0131 12.7659 12.0465 12.7933 12.0802L12.8705 12.174L12.9352 12.0704C13.2698 11.5293 13.4472 10.9058 13.4476 10.2696C13.4476 9.66942 13.2864 9.07556 12.9798 8.55057L12.938 8.47776ZM5.02058 10.2696C5.02058 9.27888 5.31624 8.31801 5.87576 7.49315L5.90177 7.45419L5.63594 6.92499L5.55302 7.03882C4.85553 7.98948 4.48755 9.10696 4.48755 10.2701C4.48755 11.7261 5.05649 13.1007 6.0886 14.1419L6.14404 14.197L6.20478 14.1479C6.26196 14.1015 6.31898 14.0549 6.37582 14.0081L6.55912 13.8568L6.49102 13.7897C5.54321 12.8458 5.02058 11.5963 5.02058 10.2696ZM14.4798 7.07758L14.4099 6.97994L14.3379 7.07718C14.264 7.17899 14.1879 7.2792 14.1097 7.37775L14.0707 7.42828L14.1065 7.48098C14.6786 8.31222 14.9802 9.27623 14.9802 10.2694C14.9802 11.4089 14.6013 12.4843 13.8835 13.3787L13.8428 13.4304L13.9446 13.5694C13.9784 13.6059 14.0134 13.6414 14.0482 13.6769C14.0756 13.7032 14.102 13.7296 14.1276 13.7569L14.1947 13.8307L14.2586 13.7535C15.0797 12.7519 15.5145 11.547 15.5145 10.2691C15.5137 9.12639 15.1565 8.02264 14.4798 7.07758Z" fill="#010002"/>
<path d="M15.7874 5.12081L15.7158 5.03897L15.6519 5.12748C15.5795 5.22879 15.5085 5.33112 15.439 5.43442L15.4018 5.49065L15.4454 5.54118C16.5924 6.856 17.2242 8.53506 17.2242 10.2696C17.2242 11.9778 16.6029 13.6413 15.477 14.9544L15.4208 15.02L15.4853 15.0765C15.5443 15.1282 15.6037 15.1791 15.6627 15.2286L15.8273 15.3684L15.8836 15.3027C17.0913 13.893 17.7564 12.1059 17.7564 10.2696C17.7565 8.37246 17.057 6.54385 15.7874 5.12081ZM2.77742 10.2696C2.77742 8.49081 3.44498 6.77455 4.65833 5.43864L4.70612 5.38526L4.66324 5.32805C4.58777 5.22659 4.51045 5.12748 4.43254 5.02749L4.36934 4.94702L4.29977 5.02179C2.97436 6.45986 2.2439 8.3233 2.2439 10.2696C2.2439 12.2085 2.96945 14.0676 4.28741 15.5036L4.3401 15.5608L4.403 15.5155C4.50201 15.4434 4.60181 15.3718 4.70013 15.2999L4.77883 15.2416L4.7121 15.171C3.46402 13.8292 2.77742 12.0883 2.77742 10.2696Z" fill="#010002"/>
<path d="M17.3327 3.47932L17.2744 3.4175L17.2108 3.47373C17.1508 3.52603 17.0925 3.58049 17.0331 3.63495L16.878 3.77684L16.938 3.84151C18.5689 5.59917 19.4673 7.88192 19.4673 10.2696C19.4673 12.5081 18.6662 14.6822 17.2116 16.3924L17.1544 16.4605L17.2236 16.5168C17.3066 16.5841 17.3885 16.653 17.4691 16.7232L17.5618 16.8037L17.6183 16.7374C19.1551 14.9308 20.0001 12.6338 20.0001 10.27C20.0003 7.7466 19.0532 5.33541 17.3327 3.47932ZM0.533128 10.2696C0.533128 7.75475 1.51539 5.38526 3.29837 3.59492L3.34753 3.54575L3.25235 3.39581C3.20632 3.32379 3.16001 3.25117 3.11575 3.17807L3.05854 3.08289L2.97984 3.16119C1.05742 5.0583 0 7.58292 0 10.2696C0 12.6899 0.883248 15.0281 2.48783 16.8553L2.5419 16.9171L2.96228 16.5888L2.90115 16.5196C1.37457 14.7879 0.533128 12.5684 0.533128 10.2696ZM10.0003 9.24442C9.43557 9.24442 8.97584 9.70376 8.97584 10.2692C8.97584 10.8339 9.43557 11.2932 10.0003 11.2932C10.5653 11.2932 11.0247 10.8339 11.0247 10.2692C11.0244 9.70376 10.565 9.24442 10.0003 9.24442Z" fill="#010002"/>
</g>
<defs>
<clipPath id="clip0_3856_2502">
<rect width="20" height="20" fill="white"/>
</clipPath>
</defs>
</svg>
