<svg xmlns="http://www.w3.org/2000/svg" width="32" height="32" viewBox="0 0 32 32" fill="none">
<path d="M24.9002 11.5986C24.6913 10.8132 24.0732 10.1936 23.2869 9.98119C21.8651 9.6001 16.1603 9.6001 16.1603 9.6001C16.1603 9.6001 10.4585 9.6001 9.0338 9.98119C8.25035 10.1906 7.63229 10.8103 7.42047 11.5986C7.04034 13.0241 7.04034 16.0001 7.04034 16.0001C7.04034 16.0001 7.04034 18.9761 7.42047 20.4016C7.62939 21.187 8.24745 21.8066 9.0338 22.019C10.4585 22.4001 16.1603 22.4001 16.1603 22.4001C16.1603 22.4001 21.8651 22.4001 23.2869 22.019C24.0703 21.8096 24.6884 21.1899 24.9002 20.4016C25.2804 18.9761 25.2804 16.0001 25.2804 16.0001C25.2804 16.0001 25.2804 13.0241 24.9002 11.5986Z" fill="white"/>
<path d="M14.3381 18.7434L19.0765 16.0001L14.3381 13.2568V18.7434Z" fill="black"/>
</svg>