<svg width="20" height="20" viewBox="0 0 20 20" fill="none" xmlns="http://www.w3.org/2000/svg">
<g clip-path="url(#clip0_3856_3163)">
<path d="M19.109 11.0218C18.2514 11.0218 17.8078 11.3503 17.4157 11.64C17.2323 11.7758 17.059 11.904 16.849 11.9964C16.6178 12.0964 16.3705 12.1437 16.0714 12.1437C15.5814 12.1437 15.2917 12.0106 15.0938 11.8949C14.9644 11.8191 14.846 11.7318 14.7211 11.6397C14.5584 11.52 14.3905 11.3961 14.1969 11.2952C14.0668 11.2225 13.9289 11.1645 13.786 11.1224C13.5626 11.0546 13.3157 11.0218 13.0314 11.0218C12.7508 11.0218 12.5017 11.0555 12.2708 11.1246C12.2475 11.1315 12.2238 11.1427 12.2002 11.1503V1.46062C12.2001 1.23411 12.1101 1.0169 11.95 0.856672C11.7899 0.696449 11.5728 0.60632 11.3463 0.606079H8.65323C8.42683 0.60632 8.20976 0.696365 8.04967 0.856458C7.88958 1.01655 7.79953 1.23361 7.79929 1.46002V11.1579C7.52921 11.0649 7.24522 11.0188 6.95959 11.0215C6.51778 11.0215 6.15202 11.1064 5.80868 11.2873C5.60565 11.3934 5.43687 11.5176 5.27414 11.6382C5.10626 11.7624 4.94778 11.8791 4.76081 11.9694C4.51505 12.0879 4.24929 12.1434 3.92505 12.1434C3.2602 12.1434 2.94323 11.9091 2.57717 11.6382C2.18626 11.3491 1.74323 11.0215 0.890806 11.0215C0.73323 11.0215 0.605957 11.1488 0.605957 11.3064V18.2546C0.606037 18.5567 0.726064 18.8464 0.939659 19.06C1.15325 19.2737 1.44294 19.3938 1.74505 19.394H18.2554C18.5572 19.3936 18.8466 19.2736 19.06 19.0602C19.2735 18.8467 19.3935 18.5573 19.3938 18.2555V11.3061C19.3938 11.1488 19.2666 11.0215 19.1093 11.0215L19.109 11.0218ZM1.17565 14.0546C1.21444 14.0591 1.25232 14.0646 1.28868 14.0712C1.30474 14.0743 1.32202 14.0758 1.33778 14.0791C1.39717 14.0912 1.45323 14.1064 1.50687 14.1234C1.5205 14.1276 1.53293 14.133 1.54626 14.1376C1.58565 14.1512 1.62384 14.1655 1.6605 14.1812C1.67899 14.1891 1.69687 14.1979 1.71444 14.2064C1.79158 14.2426 1.86611 14.2841 1.93747 14.3306L1.9899 14.364C2.01717 14.3824 2.04444 14.4012 2.07171 14.4206L2.11747 14.453C2.15778 14.4818 2.19778 14.5112 2.23868 14.5415C2.62959 14.8306 3.07232 15.1582 3.92505 15.1582C4.77717 15.1582 5.2202 14.8306 5.61141 14.5421C5.97838 14.2706 6.29565 14.0364 6.96232 14.0364C7.62717 14.0364 7.94414 14.2703 8.3102 14.5415C8.70141 14.8306 9.14444 15.1582 9.99687 15.1582C10.849 15.1582 11.292 14.8306 11.6832 14.5421C12.0502 14.2706 12.3675 14.0364 13.0341 14.0364C13.6987 14.0364 14.0154 14.2703 14.382 14.5412C14.7735 14.8303 15.2175 15.1582 16.0714 15.1582C16.9235 15.1582 17.3666 14.8309 17.7578 14.5421C17.7993 14.5112 17.8405 14.4812 17.8814 14.4515L17.9193 14.4249C17.949 14.4037 17.979 14.383 18.009 14.363C18.0247 14.3524 18.0408 14.3424 18.0569 14.3321C18.1014 14.3037 18.1469 14.2769 18.1932 14.2515C18.2229 14.2355 18.2535 14.2203 18.2844 14.2058C18.3017 14.1976 18.3187 14.1891 18.3366 14.1815C18.3738 14.1655 18.4132 14.1509 18.4535 14.137C18.4663 14.1324 18.4778 14.1276 18.4908 14.1234C18.5471 14.1056 18.6042 14.0907 18.662 14.0788C18.675 14.0761 18.6896 14.0746 18.7029 14.0721C18.7417 14.0649 18.7826 14.0594 18.8241 14.0543V15.8967C18.1529 15.9606 17.766 16.2452 17.4211 16.4997C17.0538 16.7709 16.7369 17.0052 16.0711 17.0052C15.4054 17.0052 15.0884 16.7709 14.7211 16.4997C14.3302 16.2109 13.8866 15.883 13.0332 15.883C12.1808 15.883 11.7372 16.2109 11.3463 16.5C10.9796 16.7709 10.6629 17.0052 9.99778 17.0052C9.33232 17.0052 9.01535 16.7709 8.64868 16.4997C8.25717 16.2109 7.81384 15.883 6.96081 15.883C6.10778 15.883 5.66505 16.2109 5.27384 16.5C4.90717 16.7709 4.5905 17.0052 3.92535 17.0052C3.2602 17.0052 2.94414 16.7709 2.57747 16.4997C2.23232 16.2452 1.84626 15.9606 1.17535 15.8967V14.0543L1.17565 14.0546ZM8.36838 1.46032C8.36838 1.38477 8.39839 1.31232 8.45181 1.2589C8.50523 1.20548 8.57768 1.17547 8.65323 1.17547H11.346C11.4215 1.17547 11.494 1.20548 11.5474 1.2589C11.6008 1.31232 11.6308 1.38477 11.6308 1.46032V2.13638H10.1702C10.1328 2.13638 10.0958 2.14374 10.0613 2.15804C10.0268 2.17234 9.99542 2.1933 9.969 2.21972C9.94257 2.24615 9.92161 2.27751 9.90731 2.31204C9.89301 2.34656 9.88565 2.38356 9.88565 2.42093C9.88565 2.45829 9.89301 2.4953 9.90731 2.52982C9.92161 2.56434 9.94257 2.59571 9.969 2.62213C9.99542 2.64855 10.0268 2.66951 10.0613 2.68381C10.0958 2.69811 10.1328 2.70547 10.1702 2.70547H11.6308V3.75153H10.7393C10.6638 3.75153 10.5914 3.78151 10.5381 3.83488C10.4847 3.88824 10.4547 3.96061 10.4547 4.03608C10.4547 4.11155 10.4847 4.18392 10.5381 4.23728C10.5914 4.29065 10.6638 4.32062 10.7393 4.32062H11.6305V5.36608H10.1699C10.0944 5.36608 10.0219 5.39609 9.96848 5.44951C9.91506 5.50293 9.88505 5.57538 9.88505 5.65093C9.88505 5.72647 9.91506 5.79893 9.96848 5.85235C10.0219 5.90577 10.0944 5.93578 10.1699 5.93578H11.6305V6.98123H10.7396C10.664 6.98123 10.5916 7.01124 10.5382 7.06466C10.4848 7.11808 10.4547 7.19053 10.4547 7.26608C10.4547 7.34163 10.4848 7.41408 10.5382 7.4675C10.5916 7.52092 10.664 7.55093 10.7396 7.55093H11.6305V8.59638H10.1699C10.0944 8.59638 10.022 8.62638 9.96859 8.67977C9.91519 8.73316 9.8852 8.80557 9.8852 8.88108C9.8852 8.95659 9.91519 9.029 9.96859 9.08239C10.022 9.13578 10.0944 9.16578 10.1699 9.16578H11.6305V10.2115H10.7396C10.6641 10.2115 10.5917 10.2415 10.5383 10.2949C10.4849 10.3483 10.4549 10.4207 10.4549 10.4962C10.4549 10.5717 10.4849 10.6442 10.5383 10.6975C10.5917 10.7509 10.6641 10.7809 10.7396 10.7809H11.6305V11.4312C11.6163 11.4409 11.6038 11.4509 11.5899 11.4603C11.5057 11.5179 11.4247 11.5767 11.3469 11.6346C10.9799 11.9073 10.6629 12.1434 9.99656 12.1434C9.7299 12.1434 9.49505 12.103 9.27959 12.02C9.03929 11.927 8.84868 11.7864 8.64687 11.6376C8.56891 11.5799 8.48991 11.5236 8.4099 11.4688C8.39535 11.4591 8.38293 11.4491 8.36838 11.4394V1.46032ZM1.17535 11.6073C1.65414 11.6643 1.92838 11.8673 2.23838 12.0964C2.62929 12.3855 3.07232 12.713 3.92505 12.713C4.33262 12.713 4.68687 12.6373 5.00808 12.4824C5.24293 12.3691 5.43081 12.2306 5.61232 12.0967C5.76444 11.9846 5.90808 11.8782 6.07323 11.7918C6.33262 11.6549 6.61414 11.5912 6.95959 11.5912C7.44535 11.5912 7.72778 11.7185 7.93959 11.8421C8.06747 11.9179 8.18505 12.0046 8.30929 12.0961C8.53202 12.2606 8.76293 12.4306 9.07505 12.5515C9.35747 12.66 9.65868 12.713 9.99687 12.713C10.8514 12.713 11.2954 12.3827 11.6869 12.0918C11.8117 11.9988 11.9299 11.9112 12.059 11.8343C12.1896 11.7588 12.3081 11.707 12.4326 11.6706C12.6111 11.617 12.8069 11.5912 13.0314 11.5912C13.259 11.5912 13.4517 11.6164 13.6208 11.6673C13.7265 11.6983 13.8284 11.7412 13.9244 11.7952C14.0881 11.8806 14.2314 11.9861 14.3829 12.0982C14.5147 12.1952 14.6508 12.2952 14.806 12.3861C15.192 12.6121 15.5823 12.713 16.0714 12.713C16.446 12.713 16.7744 12.6494 17.0775 12.5179C17.3463 12.3994 17.5535 12.2461 17.7544 12.0976C18.0654 11.8673 18.3408 11.6643 18.8241 11.607V13.48L18.8163 13.4812C18.7905 13.484 18.7678 13.4885 18.7429 13.4915C18.6805 13.4994 18.6187 13.5079 18.5611 13.5194C18.5302 13.5255 18.5017 13.5337 18.4723 13.5406C18.4254 13.5516 18.3788 13.564 18.3326 13.5779C18.3032 13.587 18.275 13.5973 18.2472 13.607C18.1414 13.6443 18.0386 13.6896 17.9396 13.7424C17.9166 13.7546 17.8935 13.7667 17.8714 13.7794C17.836 13.7998 17.8011 13.8209 17.7666 13.8427C17.7475 13.8549 17.7281 13.8664 17.7096 13.8785C17.6721 13.9033 17.635 13.9286 17.5984 13.9546L17.5596 13.9815C17.512 14.0158 17.465 14.05 17.4193 14.084C17.0526 14.3549 16.736 14.5888 16.0714 14.5888C15.4047 14.5888 15.0878 14.3546 14.7205 14.083C14.3293 13.7946 13.8863 13.467 13.0341 13.467C12.1802 13.467 11.7363 13.7949 11.3447 14.084C10.9781 14.3549 10.6614 14.5888 9.99687 14.5888C9.33202 14.5888 9.01505 14.3546 8.64899 14.0837C8.25778 13.7946 7.81474 13.467 6.96232 13.467C6.10838 13.467 5.66444 13.7949 5.27293 14.084C4.90626 14.3549 4.58959 14.5888 3.92505 14.5888C3.2602 14.5888 2.94323 14.3546 2.57717 14.0837C2.53232 14.0506 2.48687 14.017 2.4405 13.9837C2.42262 13.9709 2.40414 13.9585 2.38596 13.9461C2.35455 13.9238 2.32283 13.902 2.29081 13.8806L2.22414 13.8382C2.19279 13.8186 2.16107 13.7996 2.12899 13.7812C2.10474 13.7673 2.07929 13.754 2.05414 13.7403C1.99382 13.7084 1.93214 13.6791 1.86929 13.6524C1.83102 13.6365 1.79232 13.6217 1.75323 13.6079C1.72414 13.5976 1.69535 13.587 1.66474 13.5776C1.61947 13.5641 1.57379 13.5519 1.52778 13.5412C1.49747 13.534 1.46899 13.5258 1.43747 13.5194C1.37642 13.5078 1.31497 13.4984 1.25323 13.4912C1.22959 13.4882 1.20808 13.4837 1.18353 13.4812C1.18081 13.4812 1.17838 13.4803 1.17535 13.48V11.6073ZM18.255 18.8246H1.74474C1.59373 18.8244 1.44895 18.7643 1.34219 18.6575C1.23544 18.5507 1.17543 18.4059 1.17535 18.2549V16.4703C1.65293 16.5279 1.92929 16.7288 2.23899 16.9576C2.6299 17.2467 3.07293 17.5743 3.92565 17.5743C4.77838 17.5743 5.22141 17.2467 5.61232 16.9579C5.97899 16.6864 6.29565 16.4524 6.96081 16.4524C7.62656 16.4524 7.94323 16.6864 8.3099 16.9579C8.70141 17.2467 9.14474 17.5743 9.99778 17.5743C10.8502 17.5743 11.2935 17.2467 11.6847 16.9576C12.0514 16.6864 12.3681 16.4524 13.0332 16.4524C13.699 16.4524 14.016 16.6864 14.3832 16.9579C14.7741 17.2467 15.2181 17.5743 16.0711 17.5743C16.9244 17.5743 17.3681 17.2467 17.759 16.9579C18.0693 16.7288 18.3457 16.5279 18.8244 16.4703V18.2552C18.8243 18.4062 18.7642 18.551 18.6574 18.6577C18.5506 18.7645 18.4061 18.8245 18.255 18.8246Z" fill="black"/>
<path d="M15.7421 9.41787C15.7686 9.45389 15.8032 9.48317 15.843 9.50335C15.8829 9.52354 15.927 9.53405 15.9717 9.53405C16.0164 9.53405 16.0604 9.52354 16.1003 9.50335C16.1402 9.48317 16.1748 9.45389 16.2012 9.41787L17.9412 7.04332C17.9724 7.00093 17.9912 6.95071 17.9956 6.89825C17.9999 6.8458 17.9896 6.79317 17.9658 6.74623C17.942 6.69929 17.9056 6.65989 17.8607 6.63241C17.8158 6.60493 17.7642 6.59045 17.7115 6.5906H17.0261V3.69332C17.0259 3.54241 16.9659 3.39772 16.8592 3.29098C16.7525 3.18425 16.6079 3.12417 16.457 3.12393H15.487C15.336 3.12409 15.1913 3.18413 15.0845 3.29088C14.9778 3.39762 14.9177 3.54236 14.9176 3.69332V6.59029H14.2321C14.1794 6.59011 14.1277 6.60457 14.0828 6.63206C14.0379 6.65956 14.0014 6.699 13.9776 6.74599C13.9538 6.79298 13.9435 6.84567 13.9479 6.89818C13.9523 6.95068 13.9711 7.00093 14.0024 7.04332L15.7421 9.41787ZM15.2021 7.15969C15.3597 7.15969 15.487 7.03241 15.487 6.87514V3.69332H16.4567V6.87514C16.4567 7.03272 16.5839 7.15999 16.7415 7.15999H17.15L15.9718 8.76787L14.7936 7.15969H15.2021ZM2.28789 6.06787H2.97364V8.96484C2.97364 9.27878 3.2291 9.53454 3.54304 9.53454H4.51273C4.66375 9.53438 4.80853 9.47429 4.91529 9.36748C5.02204 9.26067 5.08205 9.11585 5.08213 8.96484V6.06787H5.76758C5.82022 6.06801 5.87186 6.05354 5.91675 6.02606C5.96164 5.99858 5.99802 5.95917 6.02184 5.91224C6.04565 5.8653 6.05597 5.81267 6.05163 5.76021C6.0473 5.70775 6.02848 5.65753 5.99728 5.61514L4.25789 3.24029C4.23143 3.20422 4.19685 3.17488 4.15694 3.15466C4.11703 3.13444 4.07293 3.1239 4.02819 3.1239C3.98345 3.1239 3.93934 3.13444 3.89944 3.15466C3.85953 3.17488 3.82495 3.20422 3.79849 3.24029L2.05849 5.61514C2.02729 5.65753 2.00848 5.70775 2.00414 5.76021C1.9998 5.81267 2.01012 5.8653 2.03393 5.91224C2.05775 5.95917 2.09413 5.99858 2.13902 6.02606C2.18391 6.05354 2.23525 6.06801 2.28789 6.06787ZM4.02789 3.89029L5.20607 5.49847H4.79758C4.64001 5.49847 4.51273 5.62575 4.51273 5.78332V8.96514H3.54304V5.78332C3.54304 5.62575 3.41576 5.49847 3.25819 5.49847H2.8497L4.02789 3.89029Z" fill="black"/>
</g>
<defs>
<clipPath id="clip0_3856_3163">
<rect width="20" height="20" fill="white"/>
</clipPath>
</defs>
</svg>
