<svg width="20" height="20" viewBox="0 0 20 20" fill="none" xmlns="http://www.w3.org/2000/svg">
<g clip-path="url(#clip0_3852_2249)">
<path d="M9.99006 1.19737e-05C8.64657 -0.00208009 7.31678 0.269995 6.08207 0.799587C4.84735 1.32918 3.73369 2.10515 2.80923 3.08001C8.65923 2.35085 12.3101 2.59418 13.8834 2.79668C17.0101 3.28251 16.8484 5.63335 16.8484 5.63335L6.86423 15.9267C8.78006 16.11 12.6117 16.2317 18.3609 15.4008C19.4026 13.796 19.9561 11.9233 19.9542 10.01C19.9542 4.47835 15.4959 1.19737e-05 9.99006 1.19737e-05ZM10.1834 3.59168C8.1409 3.58001 5.3734 3.71335 1.8809 4.19418C0.711732 5.83585 0.0458984 7.84168 0.0458984 10.01C0.0458984 15.5217 4.4834 20 9.99006 20C13.0151 20 15.6984 18.6417 17.5342 16.515C11.4626 17.305 7.69006 17.0408 6.0759 16.8383C2.93006 16.3717 3.11173 14.0017 3.11173 14.0017L13.0759 3.72835C12.1143 3.63971 11.1491 3.59355 10.1834 3.59168Z" fill="black"/>
</g>
<defs>
<clipPath id="clip0_3852_2249">
<rect width="20" height="20" fill="white"/>
</clipPath>
</defs>
</svg>
